<svg id="intro_unplugged" data-name="intro/unplugged" xmlns="http://www.w3.org/2000/svg" xmlns:xlink="http://www.w3.org/1999/xlink" viewBox="0 0 480 604.35"><defs><style>.cls-1{stroke:#fffbef;stroke-width:3px;opacity:0.3;fill:url(#New_Gradient_Swatch_1);}.cls-1,.cls-3,.cls-4{stroke-miterlimit:10;}.cls-2{fill:#fbde44;}.cls-3,.cls-4{fill:none;stroke:#fbde44;stroke-linecap:square;}.cls-3{stroke-width:9px;}.cls-4{stroke-width:5px;}.cls-5{fill:#303030;}.cls-6{opacity:0.5;fill:url(#radial-gradient);}</style><radialGradient id="New_Gradient_Swatch_1" cx="240" cy="280.27" r="211.86" gradientUnits="userSpaceOnUse"><stop offset="0" stop-color="#fbde44"/><stop offset="0.22" stop-color="#fbde44" stop-opacity="0.78"/><stop offset="0.49" stop-color="#fbde44" stop-opacity="0.53"/><stop offset="0.72" stop-color="#fbde44" stop-opacity="0.35"/><stop offset="0.9" stop-color="#fbde44" stop-opacity="0.24"/><stop offset="1" stop-color="#fbde44" stop-opacity="0.2"/></radialGradient><radialGradient id="radial-gradient" cx="234.76" cy="293.81" r="260.58" gradientTransform="translate(0 -67.45) scale(1 1.07)" gradientUnits="userSpaceOnUse"><stop offset="0" stop-color="#fbde44" stop-opacity="0.7"/><stop offset="0.11" stop-color="#fbde44" stop-opacity="0.66"/><stop offset="0.29" stop-color="#fbde44" stop-opacity="0.54"/><stop offset="0.54" stop-color="#fbde44" stop-opacity="0.35"/><stop offset="0.83" stop-color="#fbde44" stop-opacity="0.09"/><stop offset="0.93" stop-color="#fbde44" stop-opacity="0"/></radialGradient></defs><title>Interactive-Underpowered Assets</title><path class="cls-1" d="M168.11,515a20.08,20.08,0,0,1-20-18.1c-2.89-29.2-9.16-84.15-16-91C85,358.83,53.82,310.85,53.82,244.09,53.82,134.42,137.17,45.52,240,45.52s186.18,88.9,186.18,198.57c0,66.77-33.73,117.29-78.28,161.84-6.86,6.86-13.13,61.81-16,91a20.08,20.08,0,0,1-20,18.1Z"/><path class="cls-2" d="M196.32,232.73a105.81,105.81,0,0,1-6.18-34l-3.49.95c2.36,4.43,8.93,10.85,13.13,4.28,1.93-3,1.33-7.3,1.36-10.67q.09-9.24,1-18.45c.57-6,1.06-12.29,2.57-18.17,2.17-8.46,9.36-7.36,15.74-4.47,6.53,3,15,6.43,20.48-.29h-2.65c3.48,3.78-.65,9.18-1.41,13.14a12.29,12.29,0,0,0,1.19,8c1.57,3.2,4.33,6,5.12,9.53,1.3,5.8-3.25,10.9-7,14.7-5.48,5.6-9.47,10.85-12.15,18.3-1,2.76-2.66,6.11-2.09,9.1.27,1.43,1.23,2.24,1.81,3.51,1.31,2.84.47,5.87.65,8.83.36,5.91,4.05,12.67,9.82,14.92a5.76,5.76,0,0,0,6.14-.79c1-.76,1.53-2.05,2.49-2.85a7.88,7.88,0,0,1,8.11-1c3.2,1.41,3.79,5.12,6.73,6.85,2.67,1.57,5.74.9,8.65,1,5.79.15,3.87,5,5.09,8.66,1.32,4,5.39,6.59,7,10.38.19.46,4.53,6.11,0,4.94a16.5,16.5,0,0,1-1.37-2.41,8.07,8.07,0,0,0-2.88-2.17c-2.36-1.15-4.87-1.56-6.95-3.33a24.75,24.75,0,0,1-4.31-5.31c-4.1-6.16-8.34-13.39-16.72-13.16a1.9,1.9,0,0,0-1.62,2.82,23,23,0,0,1,1.72,12.46l3.2-1.33c-5.8-6.75-12.74-14.16-22.39-14.11a16.52,16.52,0,0,0-5.64,1.12c-1.77.65-3.6,1.4-5.57,1.06-1.23-.21-2.33-1-3.58-1.25a19.08,19.08,0,0,0-2.57-.08c-.56-.26-2.49-2.49-2.38-3.49s3.44-3,4.21-4c3.57-4.65,3-13.29-3.16-15.52-2.23-.81-5-.47-6.2,1.81-.81,1.49-.22,2.56-.3,4.07-.29,4.87-4.81-1.8-5.52-3.61-.87-2.22-4.49-1.26-3.62,1,1.35,3.47,8.78,13,12.48,6.9.7-1.16.42-2.22.61-3.44.35-2.19.71-5.62,3.42-1.23a7.65,7.65,0,0,1,.61,5c-1,4.42-6.5,5.76-7.37,10.3a5.22,5.22,0,0,0,2.6,5.91c1.68.77,3.59.16,5.35.17,2.31,0,4.11,1.34,6.39,1.46s4.16-1.1,6.31-1.75a14.63,14.63,0,0,1,9.39.31c6,2.16,10.26,7.33,14.27,12,1.18,1.38,3,.12,3.2-1.33a26.44,26.44,0,0,0-2.23-14.36l-1.62,2.82c10.1-.28,12.55,13.14,19.48,18.26a15.83,15.83,0,0,0,3.33,1.89c.81.34,1.86.5,2.65.91,3.78,2,2,2,3.85,4,1.58,1.74,3.08,3,5.55,1.94,7.44-3.11,0-12-2.49-15.56-2.13-3-3.27-4.73-3.23-8.62,0-1.47.32-2.41-.28-3.78-1-2.3-3.45-3.45-5.79-3.9a22.14,22.14,0,0,0-4.85-.11c-3.56.09-4.74-.43-7-3.37-1.72-2.26-3.45-4-6.29-4.79a12.08,12.08,0,0,0-8.29.63,18.27,18.27,0,0,0-3,2.14c-3,2.14-5.52,2.24-8.06-.63-4-4.53-3.1-9.15-3.5-14.61a10.48,10.48,0,0,0-.92-3.86c-1.55-3.27-1.66-4.45-.47-8,1.68-5,3.62-9.86,7.08-13.94,2.95-3.48,6.59-6.33,9.28-10,2.38-3.3,4.15-7.23,3.9-11.38-.24-3.91-2.56-6.94-4.5-10.16-1.56-2.6-2.67-5.05-2-8.16.54-2.42,1.85-4.61,2.39-7,.76-3.39.26-6.46-2.1-9a1.88,1.88,0,0,0-2.65,0c-6.42,7.82-16.83-2.31-24.4-3.07-5.48-.55-10,1.76-12.06,7-2.84,7.29-3.05,16.79-3.68,24.53q-.55,6.79-.68,13.6c0,2.17.45,4.94,0,7q.5,4.4-5.35,2.75a16.17,16.17,0,0,1-2.14-3.36,1.89,1.89,0,0,0-3.49.95,109.06,109.06,0,0,0,6.31,34.95c.8,2.26,4.43,1.28,3.62-1Z"/><path class="cls-2" d="M182.95,267.43c6.22,1.67,11.22,5.77,13.4,11.88,1.58,4.42,2.61,9,5.25,13,4.8,7.2,10.48,1.38,12.28-4.82,1.24-4.25,2-8.9.59-13.19-1.11-3.34-4.12-8.74-7.3-10.61a5.44,5.44,0,0,0-3-.56c-2.72-.12-5.1-1-7.77-1.36A25,25,0,0,0,182.5,264c-2.2,1-.29,4.22,1.89,3.24a21.25,21.25,0,0,1,14.71-1c1.9.48,4.83.28,6.54,1.11,3.44,1.67,5.89,9.24,5.85,12.39,0,2-1.28,11.65-4.43,12.19-4.24.73-7.68-16.24-9.82-19.23a24.08,24.08,0,0,0-13.3-8.85c-2.33-.63-3.33,3-1,3.62Z"/><path class="cls-2" d="M284,283.82c-.55,4.26,3,8.89,6,11.68a29.21,29.21,0,0,0,5.39,3.82c3.59,2.13,5.16,3.44,5.54,7.7.45,5,2.95,7.13,7.2,9.84,2.26,1.44,7.72,5.83,10.16,2.69,2.25-2.91-.52-9.89-1.31-12.95a74.09,74.09,0,0,1-2.42-11.35c-.23-2.36-.13-4.84-1.25-7-1.51-2.95-6-5.68-9.1-6.6-2-.61-4.17-.11-6.12.44a18.31,18.31,0,0,1-11.68-.07c-2.31-.71-3.3,2.91-1,3.62,3.61,1.11,7,1.92,10.78,1,2.14-.53,4.75-2.12,7-1.37-.29-.1,3.77,2.5,4.22,2.8,4.37,2.92,3.49,9.73,4.61,14.5,1,4.4,2.6,8.73,3,13.25q.36,2.64,0,.57-1.47-.7-2.88-1.5c-1.91-1.08-4.75-2.5-6.14-4.22-2.44-3-.54-7.2-3-10.37-1.76-2.22-4.38-3.39-6.72-4.85-3.47-2.16-9-6.91-8.42-11.63.31-2.39-3.45-2.36-3.75,0Z"/><path class="cls-2" d="M225.86,297.15c-2.06,2-.63,4,.91,5.84s2.78-.78,1.86,4.11a17.61,17.61,0,0,1-1.41,3,46,46,0,0,0-2.29,6.82c-1,3.91-3.92,18.28,5.27,14.54,1.69-.69,2.65-2.27,3.88-3.58a23.19,23.19,0,0,1,7.1-5.37c4.56-2.17,7.76-4.22,10-8.88,1.22-2.51,2.83-6.2.47-8.53-1.83-1.8-4.29-1.18-5.61.77l3.43.45c-.35-2.44-1.86-3.72-4.27-4.22-2.81-.58-4.76-.65-7.28-2.54a37.65,37.65,0,0,0-3.14-2.47c-2.42-1.45-10.64-3.59-9.43,1.88.52,2.36,4.14,1.36,3.62-1,.33,1.47,4.94,3.17,6.3,4.24a24.6,24.6,0,0,0,3,2.36c1.63.92,7.33,1,7.59,2.75s2.63,1.63,3.43.45c-.92,1.36-1.16,3.79-2,5.34a12,12,0,0,1-4.14,4.35c-2.34,1.46-5,2.16-7.3,3.77a43.67,43.67,0,0,0-4.92,4.57c-1.29,1.24-1.83,2.86-3.16,1-1.05-1.48-.21-4,.09-5.59.95-5.18,3.51-9.48,5-14.41a5,5,0,0,0-.15-4.07c-.39-.71-3.59-3.53-4.19-2.93,1.72-1.7-.94-4.35-2.65-2.65Z"/><path class="cls-2" d="M246,351.94c-1.39-1.24-4.45-3.06-5.27-4.7-1.46-2.9.53-3.64,2.94-4.91a8.25,8.25,0,0,0,4.38-4.57c1.23-3.32,0-7,1.1-10.33,1.88-5.46,14-8.81,12-.3-1,4.16-4.08,7.11-6.18,10.65-1.89,3.18-1.54,5.87-.52,9.28a47.36,47.36,0,0,1,1.51,5.18c.21,1.17,1.17,7.51-.06,8.65-2.61,2.42-8.42-6.62-9.65-8.71s-4.46-.19-3.24,1.89c2.31,3.93,6.63,10.55,11.46,11.63,4.1.92,5.13-3.45,5.44-6.54a28.6,28.6,0,0,0-1.28-11.51c-.93-3-2-4.36-.42-8,.66-1.47,2-2.72,2.91-4.08,2.56-3.89,6-10.06,2.88-14.57-5.77-8.45-17.95.18-18.94,7.83-.56,4.31.84,8.22-4.09,10.58-1.9.91-3.74,1.68-4.76,3.66-2.58,5,4.06,8.78,7.12,11.51,1.8,1.6,4.46-1,2.65-2.65Z"/><path class="cls-2" d="M274.91,309.74c-4.71,6.15-4,14.23-7.17,21-3,6.27-7,11.87-4.93,19.13a1.9,1.9,0,0,0,3.43.45l6.19-9.52c1.83-2.81,4.47-5.87,5.55-9.06.94-2.75.64-6,.68-8.85.07-4.27.05-8.54,0-12.81,0-2.41-3.79-2.42-3.75,0,.05,3.29.08,6.57.05,9.86,0,3.86.47,8.51-1.27,12-2.82,5.73-7.2,11.11-10.69,16.47l3.43.45c-2.06-7.31,3.68-13.11,6-19.58,2.12-6,1.75-12.49,5.75-17.7,1.47-1.91-1.79-3.78-3.24-1.89Z"/><path class="cls-2" d="M284.24,309.45c-.21,4.78-.19,10.16,3.43,13.81,2.27,2.29,4.88,2.28,5.52,6.39.41,2.68.16,5,1,7.67.8,2.43,2.84,8,6.13,8,4.58,0,2.83-7.74,2.68-10l-2.37,1.81c1.61.51,2,3.29,3.67,4a3.55,3.55,0,0,0,4.32-1.29c3.32-4-1.9-7.64-3.2-11.09-1.77-4.68-.19-10.43-3.68-14.49a7,7,0,0,0-5.21-2.47c-3.19-.17-3.82,1.09-7.14-1.72-.87-.73-1.43-1.58-2.34-2.25-2-1.43-3.82,1.83-1.89,3.24,3.23,2.36,3.81,4.4,8.14,4.68,2.26.15,5.12.2,6.36,2.33a11,11,0,0,1,.91,4.07c.23,1.62.45,3.23.73,4.84.57,3.29,1.82,4.43,3.35,7.37.37.7.91,1.14.75,2-.27,1.4-.46-.24-1-.72-1-.92-1.41-1.71-2.78-2.15a1.89,1.89,0,0,0-2.37,1.81l.26,3.89q-.25,3.16.4,1.35c-1.14-1.11-1.89-3.43-2.33-4.91-.94-3.17,0-6.72-1.22-9.81-.77-2-2-2.72-3.77-3.77-4.8-2.8-4.84-7.51-4.61-12.59.11-2.41-3.64-2.41-3.75,0Z"/><path class="cls-2" d="M280.07,337.83c-2.6,4-8.69,6-8,11.82.62,5.13,6.27,5.39,10.1,3.89,4.12-1.62,8.7-4.66,8.8-9.58.11-5.46-4.57-6.1-8.8-7-2.35-.49-3.36,3.12-1,3.62s6.14.29,6,3.37c-.1,3.27-4.05,5.28-6.72,6.22-1.05.37-2.82.94-3.88.29-1.92-1.18-.25-3.78.78-4.89,1.92-2.09,4.31-3.4,5.89-5.84,1.31-2-1.93-3.92-3.24-1.89Z"/><path class="cls-2" d="M258.6,283.61c5.56,5,16.12,8.51,16,17.28l2.82-1.62a29.77,29.77,0,0,1-6-4.84c-1.32-1.4-2.42-3.36-4.29-4.09-4.67-1.83-6.36,3.79-9.89,5.07l2.31,2.31a64.13,64.13,0,0,0,1.79-15.23c0-2.41-3.76-2.42-3.75,0a59.82,59.82,0,0,1-1.66,14.23c-.31,1.29.9,2.82,2.31,2.31a9,9,0,0,0,3.45-2.13c1.94-1.88,3-3.78,5.54-1.59,2.88,2.46,5.06,5.16,8.36,7.2a1.89,1.89,0,0,0,2.82-1.62c.1-10.46-10.54-14.05-17.13-19.93-1.8-1.6-4.46,1-2.65,2.65Z"/><path class="cls-2" d="M235.32,404.17l-1.63-3.11.4-1.43a22,22,0,0,1,1.11-3.42,30.38,30.38,0,0,1,2.75-6.09c3.18-5.11,7.85-6,13.22-7.49a17,17,0,0,0,9-5.42c1.37-1.62,2.43-3.65,4.07-5,2.79-2.32,6-.33,6.82,2.65.52,2-.16,4.4-.72,6.28a1.89,1.89,0,0,0,1.81,2.37c6.16-.1,10.32-3.09,13.38-8.23,1.4-2.36,1.45-2.82,4.36-3.14,1.3-.14,1.62.31,3-.21a5.62,5.62,0,0,0,3.24-3.61q.35-1.06.59-2.15,1.74-2.28,3.54-.92c.64,0,1.16.38,1.93.26,2.13-.34,2-1.68,3.15-3,1.46-1.62-.66,0,1.25-.65.88-.28,1.77,0,2.7-.38a5,5,0,0,0,3-3.7c.66-3.07-1.45-6-1.16-9,.48-5.06,6.32,1.05,8.12,2.72,3.84,3.55,5.16,6.88,5.17,12.15a17.23,17.23,0,0,0,2.33,8.63c4,7.67,4.74,17,4.14,25.56-.59,8.29-5.25,16.84-8.17,24.52h3.62l-3.13-14.12c-.62-2.78-.69-7.13-2.66-9.39-4.31-4.94-9,3.73-10.72,6.62-3.64,6.16,1.62,10.6,2,17.11a21.5,21.5,0,0,1-.44,5.79,22.41,22.41,0,0,1-.89,3q-3.93,4.53-3.32,1c-.53-2.16.48-3.88-1.34-5.77s-4.17-1.4-6.43-1.3c-4.51.19-8.72-.78-12.16-3.91a15.68,15.68,0,0,1-5-11.75c.05-4.2,1.78-8.23,1.67-12.45s-2.51-9.54-7.12-10.6a8.4,8.4,0,0,0-6.38,1.34c-1.31.82-2.21,2.35-3.48,3.11q-1.28,2.38-3.77.05l-3-2.51a1.9,1.9,0,0,0-3.2,1.33c-.08.74-5.26-2.72-5.93-2.91a5.08,5.08,0,0,0-4.87,1.1c-1.85,1.48-2.95,3.89-4.18,5.86l-7,11.2c-1.29,2,2,3.93,3.24,1.89l7-11.2c1-1.55,2.82-5.49,5.21-5.07.92.16,2.49,1.94,3.45,2.38,3.06,1.39,6.47.22,6.84-3.26l-3.2,1.33c1.94,1.61,4.66,5,7.47,5.23,2.22.15,3.22-1.34,4.65-2.76s3.32-3.61,5.49-3.55c3.53.1,5,4.24,5.08,7,.19,4.19-1.6,8.26-1.67,12.45a19.44,19.44,0,0,0,6.1,14.4,19.06,19.06,0,0,0,11.16,5c1.49.15,3.67-.49,5-.12,4.89,1.35.53,9.86,7.1,9.71,5.1-.11,7-7.52,7.48-11.33a25.42,25.42,0,0,0-.58-9.92c-1-3.69-3.6-6.3-1.72-10,.64-1.27,3.16-5.44,5.06-4.71.66.25,1.48,6.65,1.67,7.53l2.92,13.18c.44,2,3,1.59,3.62,0,3.08-8.1,7.76-16.76,8.3-25.52.49-7.8.15-17-3-24.23-.58-1.34-1.34-2.56-2-3.85-1.44-2.77-1.29-5-1.37-8a15.56,15.56,0,0,0-3-9.3c-2.36-3.22-9.25-10.5-13.73-10.07-5.65.54-3.45,7.73-3.33,11q1.15,2.6-1.52,4.59l-1.26-.17c-.68.33-1.41.32-2,.88s-.67,1.46-1.16,1.88c-1.39,1.19-.28.69-2.29.16-2.25-.59-3.82-.43-5.35,1.53-.71.91-.78,2-1.35,2.87a6.66,6.66,0,0,1-4.22,3c-2.49.76-3.64.59-5.37,3-3.24,4.5-5,8.45-11.35,8.56l1.81,2.37c1.69-5.73,1.53-16.67-7.16-15.24-4,.66-6.24,3.8-8.59,6.78-4.13,5.23-9.41,5.1-15.1,7.35-7.56,3-10.89,11-12.8,18.34-.7,2.7-1.05,5.9,1.35,7.87a4.46,4.46,0,0,0,6.34-.4c1.57-1.82-1.07-4.48-2.65-2.65Z"/><path class="cls-2" d="M178.95,309.14a43.09,43.09,0,0,0,1.26,12.81c.8,3.08,1.65,3.7,0,6.68s-1.67,1.91-4,3.66a11.16,11.16,0,0,0-2.27,2.6,26.93,26.93,0,0,1-1.78,2.79A9.55,9.55,0,0,1,168,339a10.35,10.35,0,0,0-5.18,3.21c-1.82,2.22-2.53,5-4,7.44-2.29,3.62-6.48,5.77-9.22,9.13-5.75,7.06-12.08,11.65-20.06,16l2.82,1.62c1-8.74,9.45-13.09,15.43-18.28,5.43-4.71,7.49-10.84,11.65-16.45,3.82-5.16,10.46-6.94,14.37-12,4.27-5.55,3.77-13.28,8.15-18.73,1.5-1.86-1.14-4.53-2.65-2.65-4.4,5.47-4.15,12.67-7.93,18.35-2.5,3.77-6.8,5.51-10.3,8.15a23.8,23.8,0,0,0-6,6.66c-2.19,3.54-3.73,7.45-6.45,10.65s-6.08,5.44-9.26,8c-5.44,4.32-10,9.23-10.76,16.36-.17,1.49,1.69,2.24,2.82,1.62,7.78-4.26,14.58-8.62,20.1-15.67,2.86-3.65,7.06-5.93,9.73-9.61,2-2.77,2.79-7.57,5.84-9.46s6-.82,8.47-4c1.53-2,2.26-3.62,4.54-4.9a15.23,15.23,0,0,0,3.34-1.87c2.09-2,2.19-4.6,1.65-7.25-1.14-5.55-2.64-10.42-2.39-16.2.1-2.41-3.65-2.41-3.75,0Z"/><path class="cls-2" d="M184.66,323.88q8.11-16.12,17.68-31.41c.86-1.37-1.31-2.62-2.16-1.26q-9.58,15.29-17.68,31.41c-.72,1.43,1.43,2.7,2.16,1.26Z"/><path class="cls-2" d="M212.1,271.7q10.83-7,22.17-13.06c1.42-.76.16-2.92-1.26-2.16q-11.35,6.08-22.17,13.06c-1.35.87-.1,3,1.26,2.16Z"/><path class="cls-2" d="M252.3,311.38a88.7,88.7,0,0,1,19.16-11.89c1.46-.67.19-2.83-1.26-2.16a91.15,91.15,0,0,0-19.66,12.28c-1.25,1,.53,2.78,1.77,1.77Z"/><path class="cls-2" d="M233.6,328.52a53.24,53.24,0,0,1,9.72,9.91c1,1.27,3.12,0,2.16-1.26a55.53,55.53,0,0,0-10.11-10.41c-1.25-1-3,.77-1.77,1.77Z"/><path class="cls-2" d="M258.1,356.62A236.42,236.42,0,0,1,285.65,371a1.25,1.25,0,0,0,1.26-2.16,236.42,236.42,0,0,0-27.55-14.36c-1.46-.64-2.73,1.51-1.26,2.16Z"/><path class="cls-2" d="M306.84,329a60,60,0,0,1,9.22-10.86c1.18-1.1-.59-2.86-1.77-1.77a62.79,62.79,0,0,0-9.62,11.36c-.89,1.35,1.27,2.6,2.16,1.26Z"/><path class="cls-2" d="M290.73,327.33l.15,0a1.2,1.2,0,0,0,.87-.87,1.59,1.59,0,0,0-.43-1.57,1.3,1.3,0,0,0-1.51-.2c-1.54.67-2.24,3.62-2.89,5q-1.71,3.72-3.35,7.48c-.64,1.46,1.52,2.73,2.16,1.26q1.37-3.13,2.78-6.23.66-1.45,1.33-2.89c.22-.46.8-2.29,1.23-2.48l-1.51-.2.14.14-.32-1.22,0,.21.87-.87-.15,0c-1.58.28-.91,2.69.66,2.41Z"/><path class="cls-2" d="M269.2,276.06a64.25,64.25,0,0,0-1.93,12.32c-.1,1.61,2.41,1.6,2.5,0a60.74,60.74,0,0,1,1.84-11.65,1.25,1.25,0,0,0-2.41-.66Z"/><path class="cls-2" d="M264.58,323.71a37,37,0,0,1,7.5-2.88,1.25,1.25,0,0,0-.66-2.41,40.06,40.06,0,0,0-8.09,3.13c-1.43.74-.17,2.9,1.26,2.16Z"/><path class="cls-2" d="M269.23,343a16,16,0,0,0,3.7,4.75c1.2,1.06,3-.7,1.77-1.77a14.08,14.08,0,0,1-3.3-4.25c-.73-1.43-2.89-.17-2.16,1.26Z"/><path class="cls-2" d="M212.14,285.59l7.53,6.16,3.77,3.08c.9.74,3.54,2.23,3.62,3.55.09,1.6,2.59,1.61,2.5,0-.17-3-3.64-4.73-5.76-6.47l-9.89-8.08c-1.24-1-3,.75-1.77,1.77Z"/><line class="cls-3" x1="175.7" y1="342.68" x2="196.41" y2="500.24"/><line class="cls-3" x1="298.29" y1="431.35" x2="289.47" y2="500.71"/><line class="cls-4" x1="177.1" y1="337.63" x2="178.53" y2="348.41"/><rect class="cls-5" x="144.04" y="497.35" width="193.92" height="20.32" rx="9.66" ry="9.66"/><rect class="cls-5" x="158.31" y="525.38" width="165.38" height="20.32" rx="9.66" ry="9.66"/><path class="cls-5" d="M305.62,553.4v0c0,28.07-28.93,41.43-64.62,41.43s-64.62-13.36-64.62-41.43v0Z"/><ellipse class="cls-6" cx="234.76" cy="247.52" rx="260.58" ry="279.34"/></svg>