<svg id="Layer_1" data-name="Layer 1" xmlns="http://www.w3.org/2000/svg" xmlns:xlink="http://www.w3.org/1999/xlink" viewBox="0 0 615 812"><defs><style>.cls-1{fill:#1a1a1a;}.cls-2{fill:url(#linear-gradient);}.cls-3{fill:#ccc;}.cls-4{fill:#303030;}.cls-5{fill:#999;}.cls-6{fill:url(#linear-gradient-2);}.cls-10,.cls-7{fill:#b3b3b3;}.cls-11,.cls-8{fill:none;stroke:#303030;stroke-miterlimit:10;}.cls-8{stroke-width:2px;}.cls-9{fill:url(#linear-gradient-3);}.cls-10{opacity:0.6;}</style><linearGradient id="linear-gradient" x1="313.01" y1="-53.92" x2="313.01" y2="321.2" gradientTransform="translate(-3.41 8.3) rotate(-1.51)" gradientUnits="userSpaceOnUse"><stop offset="0" stop-color="#ccc"/><stop offset="0.31" stop-color="#c9c9c9"/><stop offset="0.51" stop-color="#c1c1c1"/><stop offset="0.68" stop-color="#b2b2b2"/><stop offset="0.83" stop-color="#9d9d9d"/><stop offset="0.97" stop-color="#828282"/><stop offset="0.98" stop-color="gray"/></linearGradient><linearGradient id="linear-gradient-2" x1="641.29" y1="1575.98" x2="641.29" y2="1963.43" gradientTransform="matrix(0, -1, 1, 0, -1576.86, 1205.82)" gradientUnits="userSpaceOnUse"><stop offset="0" stop-color="#ccc"/><stop offset="0.23" stop-color="#c8c8c8"/><stop offset="0.45" stop-color="#bcbcbc"/><stop offset="0.68" stop-color="#a9a9a9"/><stop offset="0.9" stop-color="#8d8d8d"/><stop offset="0.98" stop-color="gray"/></linearGradient><linearGradient id="linear-gradient-3" x1="342.32" y1="-1108.8" x2="342.32" y2="-888.67" gradientTransform="translate(1481.52 964.95) rotate(-90.04)" xlink:href="#linear-gradient-2"/></defs><title>Interactive-Underpowered Assets</title><rect class="cls-1" x="25.78" y="-38" width="574.01" height="360.69" rx="10.87" ry="10.87" transform="translate(3.86 -8.19) rotate(1.51)"/><rect class="cls-2" x="26.01" y="-46.7" width="574.01" height="360.69" rx="10.87" ry="10.87" transform="translate(3.63 -8.2) rotate(1.51)"/><rect class="cls-3" x="201.85" y="-180.16" width="224.83" height="532.46" rx="10.6" ry="10.6" transform="translate(219.95 397.96) rotate(-88.49)"/><rect class="cls-3" x="245.47" y="213.6" width="128.72" height="81.95" rx="7.96" ry="7.96" transform="translate(6.82 -8.08) rotate(1.51)"/><rect class="cls-1" x="64.09" y="2.72" width="30.9" height="30.9" rx="5.62" ry="5.62" transform="translate(0.51 -2.09) rotate(1.51)"/><rect class="cls-1" x="63.11" y="39.79" width="47.83" height="30.9" rx="4.63" ry="4.63" transform="translate(1.49 -2.27) rotate(1.51)"/><rect class="cls-1" x="520.19" y="51.84" width="47.83" height="30.9" rx="4.63" ry="4.63" transform="translate(1.96 -14.32) rotate(1.51)"/><rect class="cls-1" x="62.14" y="76.93" width="70.45" height="30.9" rx="5.62" ry="5.62" transform="translate(2.47 -2.53) rotate(1.51)"/><rect class="cls-1" x="497.16" y="88.4" width="70.45" height="30.9" rx="5.62" ry="5.62" transform="translate(2.92 -13.99) rotate(1.51)"/><rect class="cls-1" x="61.17" y="114" width="88.22" height="30.9" rx="6.29" ry="6.29" transform="translate(3.45 -2.73) rotate(1.51)"/><rect class="cls-1" x="478.41" y="125" width="88.22" height="30.9" rx="6.29" ry="6.29" transform="translate(3.88 -13.72) rotate(1.51)"/><rect class="cls-1" x="60.2" y="150.05" width="27.5" height="30.9" rx="5.3" ry="5.3" transform="translate(4.39 -1.89) rotate(1.51)"/><rect class="cls-1" x="94.27" y="150.94" width="27.5" height="30.9" rx="5.3" ry="5.3" transform="translate(4.42 -2.79) rotate(1.51)"/><rect class="cls-1" x="128.34" y="151.84" width="27.5" height="30.9" rx="5.3" ry="5.3" transform="translate(4.46 -3.69) rotate(1.51)"/><rect class="cls-1" x="103.62" y="3.76" width="30.9" height="30.9" rx="5.62" ry="5.62" transform="translate(0.55 -3.13) rotate(1.51)"/><rect class="cls-1" x="143.14" y="4.81" width="30.9" height="30.9" rx="5.62" ry="5.62" transform="translate(0.59 -4.17) rotate(1.51)"/><rect class="cls-1" x="120.42" y="41.07" width="30.9" height="30.9" rx="5.62" ry="5.62" transform="translate(1.54 -3.56) rotate(1.51)"/><rect class="cls-1" x="183.44" y="-15.55" width="30.9" height="15.45" rx="5.62" ry="5.62" transform="translate(-0.14 -5.24) rotate(1.51)"/><rect class="cls-1" x="182.67" y="5.85" width="30.9" height="30.9" rx="5.62" ry="5.62" transform="translate(0.63 -5.21) rotate(1.51)"/><rect class="cls-1" x="159.94" y="42.12" width="30.9" height="30.9" rx="5.62" ry="5.62" transform="translate(1.58 -4.6) rotate(1.51)"/><rect class="cls-1" x="162.13" y="153" width="47.56" height="30.9" rx="5.62" ry="5.62" transform="translate(4.5 -4.84) rotate(1.51)"/><rect class="cls-1" x="222.97" y="-14.5" width="30.9" height="15.45" rx="5.62" ry="5.62" transform="translate(-0.1 -6.29) rotate(1.51)"/><rect class="cls-1" x="222.2" y="6.89" width="30.9" height="30.9" rx="5.62" ry="5.62" transform="translate(0.67 -6.26) rotate(1.51)"/><rect class="cls-1" x="199.47" y="43.16" width="30.9" height="30.9" rx="5.62" ry="5.62" transform="translate(1.62 -5.64) rotate(1.51)"/><rect class="cls-1" x="218.29" y="156.34" width="189.07" height="30.9" rx="5.62" ry="5.62" transform="translate(4.64 -8.18) rotate(1.51)"/><rect class="cls-1" x="262.5" y="-13.46" width="30.9" height="15.45" rx="5.62" ry="5.62" transform="translate(-0.05 -7.33) rotate(1.51)"/><rect class="cls-1" x="261.73" y="7.93" width="30.9" height="30.9" rx="5.62" ry="5.62" transform="translate(0.71 -7.3) rotate(1.51)"/><rect class="cls-1" x="239" y="44.2" width="30.9" height="30.9" rx="5.62" ry="5.62" transform="translate(1.66 -6.68) rotate(1.51)"/><rect class="cls-1" x="302.02" y="-12.42" width="30.9" height="15.45" rx="5.62" ry="5.62" transform="translate(-0.01 -8.37) rotate(1.51)"/><rect class="cls-1" x="301.26" y="8.97" width="30.9" height="30.9" rx="5.62" ry="5.62" transform="translate(0.75 -8.34) rotate(1.51)"/><rect class="cls-1" x="278.53" y="45.24" width="30.9" height="30.9" rx="5.62" ry="5.62" transform="translate(1.7 -7.73) rotate(1.51)"/><rect class="cls-1" x="538.84" y="-6.18" width="30.9" height="15.45" rx="5.62" ry="5.62" transform="matrix(-1, -0.03, 0.03, -1, 1108.36, 17.71)"/><rect class="cls-1" x="538.08" y="15.22" width="30.9" height="30.9" rx="5.62" ry="5.62" transform="translate(1106.06 75.91) rotate(-178.49)"/><rect class="cls-1" x="537.6" y="162.63" width="27.5" height="30.9" rx="5.3" ry="5.3" transform="translate(1097.81 370.63) rotate(-178.49)"/><rect class="cls-1" x="503.53" y="161.73" width="27.5" height="30.9" rx="5.3" ry="5.3" transform="translate(1029.71 367.94) rotate(-178.49)"/><rect class="cls-1" x="469.47" y="160.84" width="27.5" height="30.9" rx="5.3" ry="5.3" transform="translate(961.62 365.25) rotate(-178.49)"/><rect class="cls-1" x="499.32" y="-7.22" width="30.9" height="15.45" rx="5.62" ry="5.62" transform="translate(1029.35 14.58) rotate(-178.49)"/><rect class="cls-1" x="498.55" y="14.17" width="30.9" height="30.9" rx="5.62" ry="5.62" transform="translate(1027.04 72.79) rotate(-178.49)"/><rect class="cls-1" x="459.79" y="-8.26" width="30.9" height="15.45" rx="5.62" ry="5.62" transform="translate(950.33 11.46) rotate(-178.49)"/><rect class="cls-1" x="459.02" y="13.13" width="30.9" height="30.9" rx="5.62" ry="5.62" transform="translate(948.03 69.66) rotate(-178.49)"/><rect class="cls-1" x="479.81" y="50.55" width="30.9" height="30.9" rx="5.62" ry="5.62" transform="translate(988.61 145.03) rotate(-178.49)"/><rect class="cls-1" x="420.26" y="-9.3" width="30.9" height="15.45" rx="5.62" ry="5.62" transform="translate(871.32 8.33) rotate(-178.49)"/><rect class="cls-1" x="419.49" y="12.09" width="30.9" height="30.9" rx="5.62" ry="5.62" transform="translate(869.01 66.54) rotate(-178.49)"/><rect class="cls-1" x="440.28" y="49.51" width="30.9" height="30.9" rx="5.62" ry="5.62" transform="translate(909.59 141.9) rotate(-178.49)"/><rect class="cls-1" x="415.61" y="159.68" width="47.56" height="30.9" rx="5.62" ry="5.62" transform="translate(874 361.78) rotate(-178.49)"/><rect class="cls-1" x="380.73" y="-10.34" width="30.9" height="15.45" rx="5.62" ry="5.62" transform="translate(792.3 5.2) rotate(-178.49)"/><rect class="cls-1" x="379.96" y="11.05" width="30.9" height="30.9" rx="5.62" ry="5.62" transform="translate(790 63.41) rotate(-178.49)"/><rect class="cls-1" x="400.75" y="48.46" width="30.9" height="30.9" rx="5.62" ry="5.62" transform="translate(830.58 138.78) rotate(-178.49)"/><rect class="cls-1" x="341.2" y="-11.39" width="30.9" height="15.45" rx="5.62" ry="5.62" transform="translate(713.29 2.08) rotate(-178.49)"/><rect class="cls-1" x="340.44" y="10.01" width="30.9" height="30.9" rx="5.62" ry="5.62" transform="translate(710.98 60.29) rotate(-178.49)"/><rect class="cls-1" x="361.22" y="47.42" width="30.9" height="30.9" rx="5.62" ry="5.62" transform="translate(751.56 135.65) rotate(-178.49)"/><rect class="cls-1" x="319.88" y="46.33" width="30.9" height="30.9" rx="5.62" ry="5.62" transform="translate(668.91 132.38) rotate(-178.49)"/><rect class="cls-1" x="140.8" y="78.48" width="30.9" height="30.9" rx="5.62" ry="5.62" transform="translate(2.53 -4.09) rotate(1.51)"/><rect class="cls-1" x="180.33" y="79.52" width="30.9" height="30.9" rx="5.62" ry="5.62" transform="translate(2.57 -5.13) rotate(1.51)"/><rect class="cls-1" x="219.86" y="80.56" width="30.9" height="30.9" rx="5.62" ry="5.62" transform="translate(2.61 -6.17) rotate(1.51)"/><rect class="cls-1" x="259.39" y="81.61" width="30.9" height="30.9" rx="5.62" ry="5.62" transform="translate(2.65 -7.21) rotate(1.51)"/><rect class="cls-1" x="298.92" y="82.65" width="30.9" height="30.9" rx="5.62" ry="5.62" transform="translate(2.69 -8.25) rotate(1.51)"/><rect class="cls-1" x="457.82" y="86.84" width="30.9" height="30.9" rx="5.62" ry="5.62" transform="translate(943.69 217.02) rotate(-178.49)"/><rect class="cls-1" x="418.3" y="85.8" width="30.9" height="30.9" rx="5.62" ry="5.62" transform="translate(864.68 213.89) rotate(-178.49)"/><rect class="cls-1" x="378.77" y="84.75" width="30.9" height="30.9" rx="5.62" ry="5.62" transform="translate(785.66 210.76) rotate(-178.49)"/><rect class="cls-1" x="339.24" y="83.71" width="30.9" height="30.9" rx="5.62" ry="5.62" transform="translate(706.65 207.64) rotate(-178.49)"/><rect class="cls-1" x="160.17" y="115.86" width="30.9" height="30.9" rx="5.62" ry="5.62" transform="translate(3.52 -4.58) rotate(1.51)"/><rect class="cls-1" x="199.7" y="116.9" width="30.9" height="30.9" rx="5.62" ry="5.62" transform="translate(3.56 -5.62) rotate(1.51)"/><rect class="cls-1" x="239.22" y="117.94" width="30.9" height="30.9" rx="5.62" ry="5.62" transform="translate(3.6 -6.67) rotate(1.51)"/><rect class="cls-1" x="278.75" y="118.98" width="30.9" height="30.9" rx="5.62" ry="5.62" transform="matrix(1, 0.03, -0.03, 1, 3.64, -7.71)"/><rect class="cls-1" x="318.28" y="120.03" width="30.9" height="30.9" rx="5.62" ry="5.62" transform="translate(3.69 -8.75) rotate(1.51)"/><rect class="cls-1" x="436.52" y="123.14" width="30.9" height="30.9" rx="5.62" ry="5.62" transform="translate(900.13 289.05) rotate(-178.49)"/><rect class="cls-1" x="396.99" y="122.1" width="30.9" height="30.9" rx="5.62" ry="5.62" transform="translate(821.11 285.93) rotate(-178.49)"/><rect class="cls-1" x="357.46" y="121.06" width="30.9" height="30.9" rx="5.62" ry="5.62" transform="translate(742.1 282.8) rotate(-178.49)"/><rect class="cls-4" x="64.2" y="-1.63" width="30.9" height="30.9" rx="5.62" ry="5.62" transform="translate(0.39 -2.09) rotate(1.51)"/><rect class="cls-4" x="63.23" y="35.44" width="47.83" height="30.9" rx="4.63" ry="4.63" transform="translate(1.37 -2.28) rotate(1.51)"/><rect class="cls-4" x="520.3" y="47.49" width="47.83" height="30.9" rx="4.63" ry="4.63" transform="translate(1.85 -14.32) rotate(1.51)"/><rect class="cls-4" x="62.25" y="72.58" width="70.45" height="30.9" rx="5.62" ry="5.62" transform="translate(2.35 -2.54) rotate(1.51)"/><rect class="cls-4" x="497.27" y="84.04" width="70.45" height="30.9" rx="5.62" ry="5.62" transform="translate(2.81 -14) rotate(1.51)"/><rect class="cls-4" x="61.28" y="109.65" width="88.22" height="30.9" rx="6.29" ry="6.29" transform="translate(3.33 -2.73) rotate(1.51)"/><rect class="cls-4" x="478.53" y="120.65" width="88.22" height="30.9" rx="6.29" ry="6.29" transform="translate(3.77 -13.73) rotate(1.51)"/><rect class="cls-4" x="60.32" y="145.7" width="27.5" height="30.9" rx="5.3" ry="5.3" transform="translate(4.27 -1.9) rotate(1.51)"/><rect class="cls-4" x="94.38" y="146.59" width="27.5" height="30.9" rx="5.3" ry="5.3" transform="translate(4.31 -2.79) rotate(1.51)"/><rect class="cls-4" x="128.45" y="147.49" width="27.5" height="30.9" rx="5.3" ry="5.3" transform="translate(4.34 -3.69) rotate(1.51)"/><rect class="cls-4" x="103.73" y="-0.59" width="30.9" height="30.9" rx="5.62" ry="5.62" transform="translate(0.43 -3.14) rotate(1.51)"/><rect class="cls-4" x="143.26" y="0.46" width="30.9" height="30.9" rx="5.62" ry="5.62" transform="translate(0.47 -4.18) rotate(1.51)"/><rect class="cls-4" x="120.53" y="36.72" width="30.9" height="30.9" rx="5.62" ry="5.62" transform="translate(1.42 -3.57) rotate(1.51)"/><rect class="cls-4" x="182.79" y="1.5" width="30.9" height="30.9" rx="5.62" ry="5.62" transform="translate(0.52 -5.22) rotate(1.51)"/><rect class="cls-4" x="160.06" y="37.77" width="30.9" height="30.9" rx="5.62" ry="5.62" transform="translate(1.46 -4.61) rotate(1.51)"/><rect class="cls-4" x="162.25" y="148.65" width="47.56" height="30.9" rx="5.62" ry="5.62" transform="translate(4.39 -4.85) rotate(1.51)"/><rect class="cls-4" x="222.32" y="2.54" width="30.9" height="30.9" rx="5.62" ry="5.62" transform="translate(0.56 -6.26) rotate(1.51)"/><rect class="cls-4" x="199.59" y="38.81" width="30.9" height="30.9" rx="5.62" ry="5.62" transform="translate(1.5 -5.65) rotate(1.51)"/><rect class="cls-4" x="218.4" y="151.99" width="189.07" height="30.9" rx="5.62" ry="5.62" transform="translate(4.52 -8.19) rotate(1.51)"/><rect class="cls-4" x="261.84" y="3.58" width="30.9" height="30.9" rx="5.62" ry="5.62" transform="translate(0.6 -7.3) rotate(1.51)"/><rect class="cls-4" x="239.11" y="39.85" width="30.9" height="30.9" rx="5.62" ry="5.62" transform="translate(1.55 -6.69) rotate(1.51)"/><rect class="cls-4" x="301.37" y="4.62" width="30.9" height="30.9" rx="5.62" ry="5.62" transform="translate(0.64 -8.34) rotate(1.51)"/><rect class="cls-4" x="278.64" y="40.89" width="30.9" height="30.9" rx="5.62" ry="5.62" transform="translate(1.59 -7.73) rotate(1.51)"/><rect class="cls-4" x="538.96" y="-10.53" width="30.9" height="15.45" rx="5.62" ry="5.62" transform="translate(1108.7 9.01) rotate(-178.49)"/><rect class="cls-4" x="538.19" y="10.87" width="30.9" height="30.9" rx="5.62" ry="5.62" transform="translate(1106.4 67.22) rotate(-178.49)"/><rect class="cls-4" x="537.71" y="158.28" width="27.5" height="30.9" rx="5.3" ry="5.3" transform="translate(1098.15 361.94) rotate(-178.49)"/><rect class="cls-4" x="503.65" y="157.38" width="27.5" height="30.9" rx="5.3" ry="5.3" transform="translate(1030.06 359.24) rotate(-178.49)"/><rect class="cls-4" x="469.58" y="156.48" width="27.5" height="30.9" rx="5.3" ry="5.3" transform="translate(961.96 356.55) rotate(-178.49)"/><rect class="cls-4" x="499.43" y="-11.57" width="30.9" height="15.45" rx="5.62" ry="5.62" transform="translate(1029.69 5.88) rotate(-178.49)"/><rect class="cls-4" x="498.66" y="9.82" width="30.9" height="30.9" rx="5.62" ry="5.62" transform="translate(1027.39 64.09) rotate(-178.49)"/><rect class="cls-4" x="459.9" y="-12.61" width="30.9" height="15.45" rx="5.62" ry="5.62" transform="translate(950.67 2.76) rotate(-178.49)"/><rect class="cls-4" x="459.14" y="8.78" width="30.9" height="30.9" rx="5.62" ry="5.62" transform="matrix(-1, -0.03, 0.03, -1, 948.37, 60.97)"/><rect class="cls-4" x="479.92" y="46.2" width="30.9" height="30.9" rx="5.62" ry="5.62" transform="translate(988.95 136.33) rotate(-178.49)"/><rect class="cls-4" x="420.38" y="-13.65" width="30.9" height="15.45" rx="5.62" ry="5.62" transform="matrix(-1, -0.03, 0.03, -1, 871.66, -0.37)"/><rect class="cls-4" x="419.61" y="7.74" width="30.9" height="30.9" rx="5.62" ry="5.62" transform="translate(869.36 57.84) rotate(-178.49)"/><rect class="cls-4" x="440.39" y="45.16" width="30.9" height="30.9" rx="5.62" ry="5.62" transform="translate(909.94 133.21) rotate(-178.49)"/><rect class="cls-4" x="415.72" y="155.33" width="47.56" height="30.9" rx="5.62" ry="5.62" transform="translate(874.35 353.09) rotate(-178.49)"/><rect class="cls-4" x="380.85" y="-14.7" width="30.9" height="15.45" rx="5.62" ry="5.62" transform="translate(792.64 -3.49) rotate(-178.49)"/><rect class="cls-4" x="380.08" y="6.7" width="30.9" height="30.9" rx="5.62" ry="5.62" transform="translate(790.34 54.72) rotate(-178.49)"/><rect class="cls-4" x="400.87" y="44.11" width="30.9" height="30.9" rx="5.62" ry="5.62" transform="translate(830.92 130.08) rotate(-178.49)"/><rect class="cls-4" x="340.55" y="5.66" width="30.9" height="30.9" rx="5.62" ry="5.62" transform="translate(711.33 51.59) rotate(-178.49)"/><rect class="cls-4" x="361.34" y="43.07" width="30.9" height="30.9" rx="5.62" ry="5.62" transform="translate(751.91 126.96) rotate(-178.49)"/><rect class="cls-4" x="319.99" y="41.98" width="30.9" height="30.9" rx="5.62" ry="5.62" transform="translate(669.25 123.69) rotate(-178.49)"/><rect class="cls-4" x="140.92" y="74.13" width="30.9" height="30.9" rx="5.62" ry="5.62" transform="translate(2.42 -4.09) rotate(1.51)"/><rect class="cls-4" x="180.45" y="75.17" width="30.9" height="30.9" rx="5.62" ry="5.62" transform="translate(2.46 -5.13) rotate(1.51)"/><rect class="cls-4" x="219.97" y="76.21" width="30.9" height="30.9" rx="5.62" ry="5.62" transform="translate(2.5 -6.17) rotate(1.51)"/><rect class="cls-4" x="259.5" y="77.26" width="30.9" height="30.9" rx="5.62" ry="5.62" transform="translate(2.54 -7.21) rotate(1.51)"/><rect class="cls-4" x="299.03" y="78.3" width="30.9" height="30.9" rx="5.62" ry="5.62" transform="translate(2.58 -8.25) rotate(1.51)"/><rect class="cls-4" x="457.94" y="82.49" width="30.9" height="30.9" rx="5.62" ry="5.62" transform="matrix(-1, -0.03, 0.03, -1, 944.04, 208.32)"/><rect class="cls-4" x="418.41" y="81.44" width="30.9" height="30.9" rx="5.62" ry="5.62" transform="translate(865.02 205.19) rotate(-178.49)"/><rect class="cls-4" x="378.88" y="80.4" width="30.9" height="30.9" rx="5.62" ry="5.62" transform="translate(786.01 202.07) rotate(-178.49)"/><rect class="cls-4" x="339.36" y="79.36" width="30.9" height="30.9" rx="5.62" ry="5.62" transform="translate(706.99 198.94) rotate(-178.49)"/><rect class="cls-4" x="160.28" y="111.51" width="30.9" height="30.9" rx="5.62" ry="5.62" transform="translate(3.41 -4.59) rotate(1.51)"/><rect class="cls-4" x="199.81" y="112.55" width="30.9" height="30.9" rx="5.62" ry="5.62" transform="translate(3.45 -5.63) rotate(1.51)"/><rect class="cls-4" x="239.34" y="113.59" width="30.9" height="30.9" rx="5.62" ry="5.62" transform="translate(3.49 -6.67) rotate(1.51)"/><rect class="cls-4" x="278.87" y="114.63" width="30.9" height="30.9" rx="5.62" ry="5.62" transform="translate(3.53 -7.71) rotate(1.51)"/><rect class="cls-4" x="318.4" y="115.68" width="30.9" height="30.9" rx="5.62" ry="5.62" transform="translate(3.57 -8.75) rotate(1.51)"/><rect class="cls-4" x="436.63" y="118.79" width="30.9" height="30.9" rx="5.62" ry="5.62" transform="translate(900.47 280.36) rotate(-178.49)"/><rect class="cls-4" x="397.1" y="117.75" width="30.9" height="30.9" rx="5.62" ry="5.62" transform="translate(821.46 277.23) rotate(-178.49)"/><rect class="cls-4" x="357.58" y="116.71" width="30.9" height="30.9" rx="5.62" ry="5.62" transform="translate(742.44 274.11) rotate(-178.49)"/><rect class="cls-5" x="355.04" y="469.57" width="7.53" height="19.71" rx="3.19" ry="3.19" transform="translate(128.25 -73.23) rotate(14.17)"/><rect class="cls-5" x="348.83" y="494.17" width="7.53" height="19.71" rx="3.19" ry="3.19" transform="translate(134.08 -70.97) rotate(14.17)"/><rect class="cls-5" x="336.48" y="392.43" width="7.53" height="22.48" rx="3.41" ry="3.41" transform="translate(814.91 172.56) rotate(104.17)"/><rect class="cls-1" x="-1.94" y="429.62" width="387.35" height="281.61" rx="13.05" ry="13.05" transform="translate(791.73 524.12) rotate(104.17)"/><rect class="cls-6" x="-0.61" y="424.34" width="387.35" height="281.61" rx="13.05" ry="13.05" transform="translate(788.28 516.26) rotate(104.17)"/><rect class="cls-4" x="70.55" y="405.72" width="246.53" height="311.73" transform="translate(143.34 -30.36) rotate(14.17)"/><circle class="cls-7" cx="150.52" cy="733.7" r="12.19" transform="translate(-597.71 700.08) rotate(-75.83)"/><circle class="cls-8" cx="150.52" cy="733.7" r="12.19" transform="translate(-597.71 700.08) rotate(-75.83)"/><path class="cls-3" d="M150.51,721.51v.5a11.69,11.69,0,1,1-11.32,8.83A11.73,11.73,0,0,1,150.51,722v-.5m0,0a12.2,12.2,0,1,0,3,.37,12.19,12.19,0,0,0-3-.37Z"/><circle class="cls-4" cx="235.19" cy="397.66" r="3.78" transform="translate(-207.94 528.38) rotate(-75.83)"/><rect class="cls-1" x="373.85" y="565.95" width="220.07" height="123.03" rx="16.72" ry="16.72" transform="translate(931.4 -26.44) rotate(72.02)"/><rect class="cls-5" x="519.83" y="545.05" width="5.98" height="15.66" rx="2.54" ry="2.54" transform="translate(-145.1 188.33) rotate(-17.98)"/><rect class="cls-5" x="405.13" y="581.92" width="5.98" height="15.66" rx="2.54" ry="2.54" transform="translate(-162.08 154.73) rotate(-17.98)"/><rect class="cls-5" x="410.71" y="599.11" width="5.98" height="15.66" rx="2.54" ry="2.54" transform="translate(-167.11 157.29) rotate(-17.98)"/><rect class="cls-9" x="372.51" y="561.81" width="220.07" height="123.03" rx="16.72" ry="16.72" transform="matrix(0.31, 0.95, -0.95, 0.31, 926.53, -28.03)"/><polygon class="cls-4" points="507.78 525.03 519.14 560.01 523.28 572.78 528.41 588.6 554.65 669.47 559.04 683.02 561.37 690.21 551.78 693.32 493.09 712.36 482.45 715.81 473.88 718.59 457.99 723.76 446.06 687 439.13 665.63 435.9 655.66 404.4 558.56 407.01 557.71 420.57 553.31 428.04 550.89 469.65 537.4 476.34 535.22 490.71 530.57 507.78 525.03"/><circle class="cls-10" cx="514.12" cy="717.41" r="6.53" transform="translate(-196.3 193.68) rotate(-17.98)"/><circle class="cls-11" cx="514.12" cy="717.41" r="6.53" transform="translate(-196.3 193.68) rotate(-17.98)"/><path class="cls-7" d="M514.12,711.12h0a6.29,6.29,0,1,1-1.94.31,6.27,6.27,0,0,1,1.94-.31m0-.25a6.54,6.54,0,1,0,6.21,4.52,6.53,6.53,0,0,0-6.21-4.52Z"/><circle class="cls-4" cx="435.38" cy="538.7" r="2.1" transform="translate(-144.99 160.65) rotate(-17.98)"/><circle class="cls-4" cx="451.16" cy="526.58" r="1.38" transform="translate(-140.48 164.93) rotate(-17.98)"/><rect class="cls-4" x="441.12" y="532.16" width="24.18" height="1.51" rx="0.75" ry="0.75" transform="matrix(0.95, -0.31, 0.31, 0.95, -142.34, 165.87)"/></svg>