<svg id="intro_unplugged" data-name="intro/unplugged" xmlns="http://www.w3.org/2000/svg" xmlns:xlink="http://www.w3.org/1999/xlink" viewBox="0 0 615 812"><defs><style>.cls-1{fill:#1a1a1a;}.cls-2{fill:url(#linear-gradient);}.cls-3{fill:#ccc;}.cls-4{fill:#303030;}.cls-5{fill:#999;}.cls-6{fill:url(#linear-gradient-2);}.cls-12,.cls-7{fill:#b3b3b3;}.cls-13,.cls-8{fill:none;stroke:#303030;stroke-miterlimit:10;}.cls-8{stroke-width:2px;}.cls-9{fill:url(#linear-gradient-3);}.cls-10{fill:url(#radial-gradient);}.cls-11{fill:#fffbef;}.cls-12{opacity:0.6;}.cls-14{font-size:30.71px;letter-spacing:0.02em;}.cls-14,.cls-16{font-family:SFProDisplay-Thin, SF Pro Display;}.cls-15{letter-spacing:0em;}.cls-16{font-size:7.89px;letter-spacing:0.02em;}.cls-17{letter-spacing:-0.08em;}.cls-18{letter-spacing:-0.06em;}.cls-19{letter-spacing:0em;}</style><linearGradient id="linear-gradient" x1="313.01" y1="-54.95" x2="313.01" y2="320.17" gradientTransform="translate(-3.39 8.29) rotate(-1.51)" gradientUnits="userSpaceOnUse"><stop offset="0" stop-color="#ccc"/><stop offset="0.31" stop-color="#c9c9c9"/><stop offset="0.51" stop-color="#c1c1c1"/><stop offset="0.68" stop-color="#b2b2b2"/><stop offset="0.83" stop-color="#9d9d9d"/><stop offset="0.97" stop-color="#828282"/><stop offset="0.98" stop-color="gray"/></linearGradient><linearGradient id="linear-gradient-2" x1="619.28" y1="1400.1" x2="619.28" y2="1787.54" gradientTransform="matrix(0, -1, 1, 0, -1400.97, 1182.83)" gradientUnits="userSpaceOnUse"><stop offset="0" stop-color="#ccc"/><stop offset="0.23" stop-color="#c8c8c8"/><stop offset="0.45" stop-color="#bcbcbc"/><stop offset="0.68" stop-color="#a9a9a9"/><stop offset="0.9" stop-color="#8d8d8d"/><stop offset="0.98" stop-color="gray"/></linearGradient><linearGradient id="linear-gradient-3" x1="307.66" y1="-889.1" x2="307.66" y2="-668.97" gradientTransform="translate(1261.8 929.4) rotate(-90.04)" xlink:href="#linear-gradient-2"/><radialGradient id="radial-gradient" cx="1274.86" cy="415.92" r="170.09" gradientTransform="matrix(1.19, 0, 0, 1.19, -1047.75, 107.18)" gradientUnits="userSpaceOnUse"><stop offset="0" stop-color="#a4bdbe" stop-opacity="0.8"/><stop offset="0.17" stop-color="#a4bdbe" stop-opacity="0.55"/><stop offset="0.35" stop-color="#a4bdbe" stop-opacity="0.32"/><stop offset="0.52" stop-color="#a4bdbe" stop-opacity="0.14"/><stop offset="0.66" stop-color="#a4bdbe" stop-opacity="0.04"/><stop offset="0.75" stop-color="#a4bdbe" stop-opacity="0"/></radialGradient></defs><title>Interactive-Underpowered Assets</title><rect class="cls-1" x="25.78" y="-39.04" width="574.01" height="360.69" rx="10.87" ry="10.87" transform="translate(3.83 -8.19) rotate(1.51)"/><rect class="cls-2" x="26.01" y="-47.74" width="574.01" height="360.69" rx="10.87" ry="10.87" transform="translate(3.6 -8.2) rotate(1.51)"/><rect class="cls-3" x="201.85" y="-181.2" width="224.83" height="532.46" rx="10.6" ry="10.6" transform="translate(220.99 396.95) rotate(-88.49)"/><rect class="cls-3" x="245.47" y="212.56" width="128.72" height="81.95" rx="7.96" ry="7.96" transform="translate(6.79 -8.08) rotate(1.51)"/><rect class="cls-1" x="64.09" y="1.68" width="30.9" height="30.9" rx="5.62" ry="5.62" transform="translate(0.48 -2.09) rotate(1.51)"/><rect class="cls-1" x="63.11" y="38.75" width="47.83" height="30.9" rx="4.63" ry="4.63" transform="translate(1.46 -2.27) rotate(1.51)"/><rect class="cls-1" x="520.19" y="50.8" width="47.83" height="30.9" rx="4.63" ry="4.63" transform="translate(1.93 -14.32) rotate(1.51)"/><rect class="cls-1" x="62.14" y="75.89" width="70.45" height="30.9" rx="5.62" ry="5.62" transform="translate(2.44 -2.53) rotate(1.51)"/><rect class="cls-1" x="497.16" y="87.36" width="70.45" height="30.9" rx="5.62" ry="5.62" transform="translate(2.89 -13.99) rotate(1.51)"/><rect class="cls-1" x="61.17" y="112.97" width="88.22" height="30.9" rx="6.29" ry="6.29" transform="translate(3.42 -2.73) rotate(1.51)"/><rect class="cls-1" x="478.41" y="123.97" width="88.22" height="30.9" rx="6.29" ry="6.29" transform="translate(3.86 -13.72) rotate(1.51)"/><rect class="cls-1" x="60.2" y="149.01" width="27.5" height="30.9" rx="5.3" ry="5.3" transform="translate(4.36 -1.89) rotate(1.51)"/><rect class="cls-1" x="94.27" y="149.91" width="27.5" height="30.9" rx="5.3" ry="5.3" transform="translate(4.4 -2.79) rotate(1.51)"/><rect class="cls-1" x="128.34" y="150.81" width="27.5" height="30.9" rx="5.3" ry="5.3" transform="translate(4.43 -3.69) rotate(1.51)"/><rect class="cls-1" x="103.62" y="2.73" width="30.9" height="30.9" rx="5.62" ry="5.62" transform="translate(0.52 -3.13) rotate(1.51)"/><rect class="cls-1" x="143.14" y="3.77" width="30.9" height="30.9" rx="5.62" ry="5.62" transform="translate(0.56 -4.17) rotate(1.51)"/><rect class="cls-1" x="120.42" y="40.04" width="30.9" height="30.9" rx="5.62" ry="5.62" transform="translate(1.51 -3.56) rotate(1.51)"/><rect class="cls-1" x="182.67" y="4.81" width="30.9" height="30.9" rx="5.62" ry="5.62" transform="translate(0.6 -5.21) rotate(1.51)"/><rect class="cls-1" x="159.94" y="41.08" width="30.9" height="30.9" rx="5.62" ry="5.62" transform="translate(1.55 -4.6) rotate(1.51)"/><rect class="cls-1" x="162.13" y="151.96" width="47.56" height="30.9" rx="5.62" ry="5.62" transform="translate(4.48 -4.84) rotate(1.51)"/><rect class="cls-1" x="222.97" y="-15.54" width="30.9" height="15.45" rx="5.62" ry="5.62" transform="translate(-0.12 -6.29) rotate(1.51)"/><rect class="cls-1" x="222.2" y="5.85" width="30.9" height="30.9" rx="5.62" ry="5.62" transform="translate(0.64 -6.26) rotate(1.51)"/><rect class="cls-1" x="199.47" y="42.12" width="30.9" height="30.9" rx="5.62" ry="5.62" transform="translate(1.59 -5.64) rotate(1.51)"/><rect class="cls-1" x="218.29" y="155.31" width="189.07" height="30.9" rx="5.62" ry="5.62" transform="translate(4.61 -8.18) rotate(1.51)"/><rect class="cls-1" x="262.5" y="-14.5" width="30.9" height="15.45" rx="5.62" ry="5.62" transform="translate(-0.08 -7.33) rotate(1.51)"/><rect class="cls-1" x="261.73" y="6.89" width="30.9" height="30.9" rx="5.62" ry="5.62" transform="translate(0.69 -7.3) rotate(1.51)"/><rect class="cls-1" x="239" y="43.16" width="30.9" height="30.9" rx="5.62" ry="5.62" transform="translate(1.63 -6.69) rotate(1.51)"/><rect class="cls-1" x="302.02" y="-13.46" width="30.9" height="15.45" rx="5.62" ry="5.62" transform="translate(-0.04 -8.37) rotate(1.51)"/><rect class="cls-1" x="301.26" y="7.94" width="30.9" height="30.9" rx="5.62" ry="5.62" transform="translate(0.73 -8.34) rotate(1.51)"/><rect class="cls-1" x="278.53" y="44.21" width="30.9" height="30.9" rx="5.62" ry="5.62" transform="translate(1.67 -7.73) rotate(1.51)"/><rect class="cls-1" x="538.84" y="-7.21" width="30.9" height="15.45" rx="5.62" ry="5.62" transform="translate(1108.39 15.63) rotate(-178.49)"/><rect class="cls-1" x="538.08" y="14.18" width="30.9" height="30.9" rx="5.62" ry="5.62" transform="translate(1106.08 73.84) rotate(-178.49)"/><rect class="cls-1" x="537.6" y="161.59" width="27.5" height="30.9" rx="5.3" ry="5.3" transform="translate(1097.84 368.56) rotate(-178.49)"/><rect class="cls-1" x="503.53" y="160.7" width="27.5" height="30.9" rx="5.3" ry="5.3" transform="translate(1029.74 365.87) rotate(-178.49)"/><rect class="cls-1" x="469.47" y="159.8" width="27.5" height="30.9" rx="5.3" ry="5.3" transform="translate(961.65 363.17) rotate(-178.49)"/><rect class="cls-1" x="499.32" y="-8.26" width="30.9" height="15.45" rx="5.62" ry="5.62" transform="translate(1029.37 12.51) rotate(-178.49)"/><rect class="cls-1" x="498.55" y="13.14" width="30.9" height="30.9" rx="5.62" ry="5.62" transform="matrix(-1, -0.03, 0.03, -1, 1027.07, 70.72)"/><rect class="cls-1" x="459.79" y="-9.3" width="30.9" height="15.45" rx="5.62" ry="5.62" transform="translate(950.36 9.38) rotate(-178.49)"/><rect class="cls-1" x="459.02" y="12.1" width="30.9" height="30.9" rx="5.62" ry="5.62" transform="matrix(-1, -0.03, 0.03, -1, 948.06, 67.59)"/><rect class="cls-1" x="479.81" y="49.51" width="30.9" height="30.9" rx="5.62" ry="5.62" transform="translate(988.63 142.96) rotate(-178.49)"/><rect class="cls-1" x="420.26" y="-10.34" width="30.9" height="15.45" rx="5.62" ry="5.62" transform="translate(871.34 6.26) rotate(-178.49)"/><rect class="cls-1" x="419.49" y="11.05" width="30.9" height="30.9" rx="5.62" ry="5.62" transform="translate(869.04 64.46) rotate(-178.49)"/><rect class="cls-1" x="440.28" y="48.47" width="30.9" height="30.9" rx="5.62" ry="5.62" transform="translate(909.62 139.83) rotate(-178.49)"/><rect class="cls-1" x="415.61" y="158.64" width="47.56" height="30.9" rx="5.62" ry="5.62" transform="translate(874.03 359.71) rotate(-178.49)"/><rect class="cls-1" x="380.73" y="-11.38" width="30.9" height="15.45" rx="5.62" ry="5.62" transform="translate(792.33 3.13) rotate(-178.49)"/><rect class="cls-1" x="379.96" y="10.01" width="30.9" height="30.9" rx="5.62" ry="5.62" transform="translate(790.03 61.34) rotate(-178.49)"/><rect class="cls-1" x="400.75" y="47.43" width="30.9" height="30.9" rx="5.62" ry="5.62" transform="translate(830.6 136.71) rotate(-178.49)"/><rect class="cls-1" x="341.2" y="-12.42" width="30.9" height="15.45" rx="5.62" ry="5.62" transform="translate(713.31 0.01) rotate(-178.49)"/><rect class="cls-1" x="340.44" y="8.97" width="30.9" height="30.9" rx="5.62" ry="5.62" transform="translate(711.01 58.21) rotate(-178.49)"/><rect class="cls-1" x="361.22" y="46.39" width="30.9" height="30.9" rx="5.62" ry="5.62" transform="translate(751.59 133.58) rotate(-178.49)"/><rect class="cls-1" x="319.88" y="45.3" width="30.9" height="30.9" rx="5.62" ry="5.62" transform="translate(668.94 130.31) rotate(-178.49)"/><rect class="cls-1" x="140.8" y="77.44" width="30.9" height="30.9" rx="5.62" ry="5.62" transform="translate(2.5 -4.09) rotate(1.51)"/><rect class="cls-1" x="180.33" y="78.49" width="30.9" height="30.9" rx="5.62" ry="5.62" transform="translate(2.54 -5.13) rotate(1.51)"/><rect class="cls-1" x="219.86" y="79.53" width="30.9" height="30.9" rx="5.62" ry="5.62" transform="translate(2.58 -6.17) rotate(1.51)"/><rect class="cls-1" x="259.39" y="80.57" width="30.9" height="30.9" rx="5.62" ry="5.62" transform="translate(2.63 -7.21) rotate(1.51)"/><rect class="cls-1" x="298.92" y="81.61" width="30.9" height="30.9" rx="5.62" ry="5.62" transform="translate(2.67 -8.25) rotate(1.51)"/><rect class="cls-1" x="457.82" y="85.8" width="30.9" height="30.9" rx="5.62" ry="5.62" transform="translate(943.72 214.94) rotate(-178.49)"/><rect class="cls-1" x="418.3" y="84.76" width="30.9" height="30.9" rx="5.62" ry="5.62" transform="translate(864.71 211.82) rotate(-178.49)"/><rect class="cls-1" x="378.77" y="83.72" width="30.9" height="30.9" rx="5.62" ry="5.62" transform="translate(785.69 208.69) rotate(-178.49)"/><rect class="cls-1" x="339.24" y="82.67" width="30.9" height="30.9" rx="5.62" ry="5.62" transform="translate(706.68 205.57) rotate(-178.49)"/><rect class="cls-1" x="160.17" y="114.82" width="30.9" height="30.9" rx="5.62" ry="5.62" transform="translate(3.49 -4.58) rotate(1.51)"/><rect class="cls-1" x="199.7" y="115.86" width="30.9" height="30.9" rx="5.62" ry="5.62" transform="translate(3.54 -5.62) rotate(1.51)"/><rect class="cls-1" x="239.22" y="116.91" width="30.9" height="30.9" rx="5.62" ry="5.62" transform="translate(3.58 -6.67) rotate(1.51)"/><rect class="cls-1" x="278.75" y="117.95" width="30.9" height="30.9" rx="5.62" ry="5.62" transform="translate(3.62 -7.71) rotate(1.51)"/><rect class="cls-1" x="318.28" y="118.99" width="30.9" height="30.9" rx="5.62" ry="5.62" transform="translate(3.66 -8.75) rotate(1.51)"/><rect class="cls-1" x="436.52" y="122.11" width="30.9" height="30.9" rx="5.62" ry="5.62" transform="translate(900.16 286.98) rotate(-178.49)"/><rect class="cls-1" x="396.99" y="121.06" width="30.9" height="30.9" rx="5.62" ry="5.62" transform="translate(821.14 283.86) rotate(-178.49)"/><rect class="cls-1" x="357.46" y="120.02" width="30.9" height="30.9" rx="5.62" ry="5.62" transform="translate(742.13 280.73) rotate(-178.49)"/><rect class="cls-4" x="64.2" y="-2.67" width="30.9" height="30.9" rx="5.62" ry="5.62" transform="translate(0.36 -2.09) rotate(1.51)"/><rect class="cls-4" x="63.23" y="34.4" width="47.83" height="30.9" rx="4.63" ry="4.63" transform="translate(1.34 -2.28) rotate(1.51)"/><rect class="cls-4" x="520.3" y="46.45" width="47.83" height="30.9" rx="4.63" ry="4.63" transform="translate(1.82 -14.32) rotate(1.51)"/><rect class="cls-4" x="62.25" y="71.54" width="70.45" height="30.9" rx="5.62" ry="5.62" transform="translate(2.33 -2.54) rotate(1.51)"/><rect class="cls-4" x="497.27" y="83.01" width="70.45" height="30.9" rx="5.62" ry="5.62" transform="translate(2.78 -14) rotate(1.51)"/><rect class="cls-4" x="61.28" y="108.62" width="88.22" height="30.9" rx="6.29" ry="6.29" transform="translate(3.31 -2.73) rotate(1.51)"/><rect class="cls-4" x="478.53" y="119.62" width="88.22" height="30.9" rx="6.29" ry="6.29" transform="translate(3.74 -13.73) rotate(1.51)"/><rect class="cls-4" x="60.32" y="144.66" width="27.5" height="30.9" rx="5.3" ry="5.3" transform="translate(4.25 -1.9) rotate(1.51)"/><rect class="cls-4" x="94.38" y="145.56" width="27.5" height="30.9" rx="5.3" ry="5.3" transform="translate(4.28 -2.79) rotate(1.51)"/><rect class="cls-4" x="128.45" y="146.46" width="27.5" height="30.9" rx="5.3" ry="5.3" transform="translate(4.32 -3.69) rotate(1.51)"/><rect class="cls-4" x="103.73" y="-1.62" width="30.9" height="30.9" rx="5.62" ry="5.62" transform="translate(0.41 -3.14) rotate(1.51)"/><rect class="cls-4" x="143.26" y="-0.58" width="30.9" height="30.9" rx="5.62" ry="5.62" transform="translate(0.45 -4.18) rotate(1.51)"/><rect class="cls-4" x="120.53" y="35.69" width="30.9" height="30.9" rx="5.62" ry="5.62" transform="translate(1.39 -3.57) rotate(1.51)"/><rect class="cls-4" x="182.79" y="0.46" width="30.9" height="30.9" rx="5.62" ry="5.62" transform="translate(0.49 -5.22) rotate(1.51)"/><rect class="cls-4" x="160.06" y="36.73" width="30.9" height="30.9" rx="5.62" ry="5.62" transform="translate(1.44 -4.61) rotate(1.51)"/><rect class="cls-4" x="162.25" y="147.61" width="47.56" height="30.9" rx="5.62" ry="5.62" transform="translate(4.36 -4.85) rotate(1.51)"/><rect class="cls-4" x="222.32" y="1.5" width="30.9" height="30.9" rx="5.62" ry="5.62" transform="translate(0.53 -6.26) rotate(1.51)"/><rect class="cls-4" x="199.59" y="37.77" width="30.9" height="30.9" rx="5.62" ry="5.62" transform="translate(1.48 -5.65) rotate(1.51)"/><rect class="cls-4" x="218.4" y="150.96" width="189.07" height="30.9" rx="5.62" ry="5.62" transform="translate(4.49 -8.19) rotate(1.51)"/><rect class="cls-4" x="261.84" y="2.54" width="30.9" height="30.9" rx="5.62" ry="5.62" transform="translate(0.57 -7.3) rotate(1.51)"/><rect class="cls-4" x="239.11" y="38.81" width="30.9" height="30.9" rx="5.62" ry="5.62" transform="translate(1.52 -6.69) rotate(1.51)"/><rect class="cls-4" x="301.37" y="3.59" width="30.9" height="30.9" rx="5.62" ry="5.62" transform="translate(0.61 -8.34) rotate(1.51)"/><rect class="cls-4" x="278.64" y="39.86" width="30.9" height="30.9" rx="5.62" ry="5.62" transform="translate(1.56 -7.73) rotate(1.51)"/><rect class="cls-4" x="538.96" y="-11.56" width="30.9" height="15.45" rx="5.62" ry="5.62" transform="translate(1108.73 6.94) rotate(-178.49)"/><rect class="cls-4" x="538.19" y="9.83" width="30.9" height="30.9" rx="5.62" ry="5.62" transform="translate(1106.43 65.14) rotate(-178.49)"/><rect class="cls-4" x="537.71" y="157.24" width="27.5" height="30.9" rx="5.3" ry="5.3" transform="translate(1098.18 359.87) rotate(-178.49)"/><rect class="cls-4" x="503.65" y="156.35" width="27.5" height="30.9" rx="5.3" ry="5.3" transform="translate(1030.09 357.17) rotate(-178.49)"/><rect class="cls-4" x="469.58" y="155.45" width="27.5" height="30.9" rx="5.3" ry="5.3" transform="translate(961.99 354.48) rotate(-178.49)"/><rect class="cls-4" x="499.43" y="-12.61" width="30.9" height="15.45" rx="5.62" ry="5.62" transform="translate(1029.72 3.81) rotate(-178.49)"/><rect class="cls-4" x="498.66" y="8.79" width="30.9" height="30.9" rx="5.62" ry="5.62" transform="translate(1027.41 62.02) rotate(-178.49)"/><rect class="cls-4" x="459.9" y="-13.65" width="30.9" height="15.45" rx="5.62" ry="5.62" transform="translate(950.7 0.69) rotate(-178.49)"/><rect class="cls-4" x="459.14" y="7.75" width="30.9" height="30.9" rx="5.62" ry="5.62" transform="translate(948.4 58.89) rotate(-178.49)"/><rect class="cls-4" x="479.92" y="45.16" width="30.9" height="30.9" rx="5.62" ry="5.62" transform="translate(988.98 134.26) rotate(-178.49)"/><rect class="cls-4" x="420.38" y="-14.69" width="30.9" height="15.45" rx="5.62" ry="5.62" transform="translate(871.69 -2.44) rotate(-178.49)"/><rect class="cls-4" x="419.61" y="6.7" width="30.9" height="30.9" rx="5.62" ry="5.62" transform="translate(869.38 55.77) rotate(-178.49)"/><rect class="cls-4" x="440.39" y="44.12" width="30.9" height="30.9" rx="5.62" ry="5.62" transform="translate(909.96 131.14) rotate(-178.49)"/><rect class="cls-4" x="415.72" y="154.29" width="47.56" height="30.9" rx="5.62" ry="5.62" transform="matrix(-1, -0.03, 0.03, -1, 874.37, 351.01)"/><rect class="cls-4" x="380.08" y="5.66" width="30.9" height="30.9" rx="5.62" ry="5.62" transform="matrix(-1, -0.03, 0.03, -1, 790.37, 52.64)"/><rect class="cls-4" x="400.87" y="43.08" width="30.9" height="30.9" rx="5.62" ry="5.62" transform="translate(830.95 128.01) rotate(-178.49)"/><rect class="cls-4" x="340.55" y="4.62" width="30.9" height="30.9" rx="5.62" ry="5.62" transform="translate(711.36 49.52) rotate(-178.49)"/><rect class="cls-4" x="361.34" y="42.04" width="30.9" height="30.9" rx="5.62" ry="5.62" transform="translate(751.93 124.88) rotate(-178.49)"/><rect class="cls-4" x="319.99" y="40.95" width="30.9" height="30.9" rx="5.62" ry="5.62" transform="translate(669.28 121.62) rotate(-178.49)"/><rect class="cls-4" x="140.92" y="73.09" width="30.9" height="30.9" rx="5.62" ry="5.62" transform="translate(2.39 -4.09) rotate(1.51)"/><rect class="cls-4" x="180.45" y="74.13" width="30.9" height="30.9" rx="5.62" ry="5.62" transform="translate(2.43 -5.13) rotate(1.51)"/><rect class="cls-4" x="219.97" y="75.18" width="30.9" height="30.9" rx="5.62" ry="5.62" transform="translate(2.47 -6.17) rotate(1.51)"/><rect class="cls-4" x="259.5" y="76.22" width="30.9" height="30.9" rx="5.62" ry="5.62" transform="translate(2.51 -7.21) rotate(1.51)"/><rect class="cls-4" x="299.03" y="77.26" width="30.9" height="30.9" rx="5.62" ry="5.62" transform="translate(2.55 -8.26) rotate(1.51)"/><rect class="cls-4" x="457.94" y="81.45" width="30.9" height="30.9" rx="5.62" ry="5.62" transform="matrix(-1, -0.03, 0.03, -1, 944.07, 206.25)"/><rect class="cls-4" x="418.41" y="80.41" width="30.9" height="30.9" rx="5.62" ry="5.62" transform="translate(865.05 203.12) rotate(-178.49)"/><rect class="cls-4" x="378.88" y="79.37" width="30.9" height="30.9" rx="5.62" ry="5.62" transform="translate(786.04 199.99) rotate(-178.49)"/><rect class="cls-4" x="339.36" y="78.32" width="30.9" height="30.9" rx="5.62" ry="5.62" transform="translate(707.02 196.87) rotate(-178.49)"/><rect class="cls-4" x="160.28" y="110.47" width="30.9" height="30.9" rx="5.62" ry="5.62" transform="translate(3.38 -4.59) rotate(1.51)"/><rect class="cls-4" x="199.81" y="111.51" width="30.9" height="30.9" rx="5.62" ry="5.62" transform="translate(3.42 -5.63) rotate(1.51)"/><rect class="cls-4" x="239.34" y="112.56" width="30.9" height="30.9" rx="5.62" ry="5.62" transform="translate(3.46 -6.67) rotate(1.51)"/><rect class="cls-4" x="278.87" y="113.6" width="30.9" height="30.9" rx="5.62" ry="5.62" transform="translate(3.5 -7.71) rotate(1.51)"/><rect class="cls-4" x="318.4" y="114.64" width="30.9" height="30.9" rx="5.62" ry="5.62" transform="translate(3.54 -8.75) rotate(1.51)"/><rect class="cls-4" x="436.63" y="117.76" width="30.9" height="30.9" rx="5.62" ry="5.62" transform="translate(900.5 278.28) rotate(-178.49)"/><rect class="cls-4" x="397.1" y="116.71" width="30.9" height="30.9" rx="5.62" ry="5.62" transform="translate(821.49 275.16) rotate(-178.49)"/><rect class="cls-4" x="357.58" y="115.67" width="30.9" height="30.9" rx="5.62" ry="5.62" transform="translate(742.47 272.03) rotate(-178.49)"/><rect class="cls-5" x="355.04" y="468.54" width="7.53" height="19.71" rx="3.19" ry="3.19" transform="translate(127.99 -73.26) rotate(14.17)"/><rect class="cls-5" x="348.83" y="493.13" width="7.53" height="19.71" rx="3.19" ry="3.19" transform="translate(133.83 -71) rotate(14.17)"/><rect class="cls-5" x="336.48" y="391.39" width="7.53" height="22.48" rx="3.41" ry="3.41" transform="translate(813.91 171.27) rotate(104.17)"/><rect class="cls-1" x="-1.94" y="428.58" width="387.35" height="281.61" rx="13.05" ry="13.05" transform="translate(790.73 522.83) rotate(104.17)"/><rect class="cls-6" x="-0.61" y="423.3" width="387.35" height="281.61" rx="13.05" ry="13.05" transform="translate(787.27 514.97) rotate(104.17)"/><rect class="cls-4" x="70.55" y="404.69" width="246.53" height="311.73" transform="translate(143.08 -30.39) rotate(14.17)"/><circle class="cls-7" cx="150.52" cy="732.67" r="12.19" transform="translate(-596.7 699.3) rotate(-75.83)"/><circle class="cls-8" cx="150.52" cy="732.67" r="12.19" transform="translate(-596.7 699.3) rotate(-75.83)"/><path class="cls-3" d="M150.51,720.48v.5h0a11.73,11.73,0,0,1,2.87.36,11.69,11.69,0,0,1-2.85,23,11.74,11.74,0,0,1-2.87-.36,11.69,11.69,0,0,1,2.85-23v-.5m0,0a12.2,12.2,0,1,0,3,.37,12.19,12.19,0,0,0-3-.37Z"/><circle class="cls-4" cx="235.19" cy="396.62" r="3.78" transform="translate(-206.93 527.59) rotate(-75.83)"/><rect class="cls-1" x="373.85" y="564.92" width="220.07" height="123.03" rx="16.72" ry="16.72" transform="translate(930.41 -27.16) rotate(72.02)"/><rect class="cls-5" x="519.83" y="544.02" width="5.98" height="15.66" rx="2.54" ry="2.54" transform="translate(-144.78 188.28) rotate(-17.98)"/><rect class="cls-5" x="405.13" y="580.88" width="5.98" height="15.66" rx="2.54" ry="2.54" transform="translate(-161.76 154.68) rotate(-17.98)"/><rect class="cls-5" x="410.71" y="598.07" width="5.98" height="15.66" rx="2.54" ry="2.54" transform="translate(-166.79 157.24) rotate(-17.98)"/><rect class="cls-9" x="372.51" y="560.78" width="220.07" height="123.03" rx="16.72" ry="16.72" transform="translate(925.55 -28.74) rotate(72.02)"/><polygon class="cls-10" points="585.13 405.31 604.65 465.54 611.78 487.54 620.6 514.78 665.69 654.04 673.24 677.36 677.24 689.75 647.02 699.56 462.01 759.66 428.49 770.54 401.48 779.3 351.39 795.6 330.87 732.29 318.97 695.5 313.42 678.33 259.3 511.12 267.52 508.45 310.27 494.57 333.81 486.93 464.94 444.34 486.04 437.48 531.32 422.79 585.13 405.31"/><polygon class="cls-11" points="507.78 523.99 519.14 558.97 523.28 571.75 528.41 587.57 554.65 668.43 559.04 681.98 561.37 689.17 551.78 692.28 493.09 711.33 482.45 714.77 473.88 717.55 457.99 722.72 446.06 685.96 439.13 664.59 435.9 654.62 404.4 557.52 407.01 556.68 420.57 552.28 428.04 549.86 469.65 536.36 476.34 534.18 490.71 529.53 507.78 523.99"/><circle class="cls-12" cx="514.12" cy="716.37" r="6.53" transform="translate(-195.98 193.62) rotate(-17.98)"/><circle class="cls-13" cx="514.12" cy="716.37" r="6.53" transform="translate(-195.98 193.62) rotate(-17.98)"/><path class="cls-7" d="M514.12,710.09h0a6.29,6.29,0,1,1-1.94.31,6.27,6.27,0,0,1,1.94-.31m0-.25a6.54,6.54,0,1,0,6.21,4.52,6.53,6.53,0,0,0-6.21-4.52Z"/><circle class="cls-4" cx="435.38" cy="537.67" r="2.1" transform="translate(-144.67 160.6) rotate(-17.98)"/><circle class="cls-4" cx="451.16" cy="525.54" r="1.38" transform="translate(-140.16 164.88) rotate(-17.98)"/><rect class="cls-4" x="441.12" y="531.13" width="24.18" height="1.51" rx="0.75" ry="0.75" transform="translate(-142.02 165.82) rotate(-17.98)"/><text class="cls-14" transform="translate(438.47 593.92) rotate(-17.93)">1<tspan class="cls-15" x="12.82" y="0">1</tspan><tspan x="24.9" y="0">:00</tspan></text><text class="cls-16" transform="translate(439.9 605.61) rotate(-17.93)">Monda<tspan class="cls-17" x="23.27" y="0">y</tspan><tspan class="cls-18" x="26.1" y="0">,</tspan><tspan x="27.24" y="0" xml:space="preserve"> December </tspan><tspan class="cls-19" x="65.88" y="0">1</tspan><tspan x="68.98" y="0">4</tspan></text></svg>