<svg id="Layer_1" data-name="Layer 1" xmlns="http://www.w3.org/2000/svg" xmlns:xlink="http://www.w3.org/1999/xlink" viewBox="0 0 662 316"><defs><style>.cls-1{fill:#fffbef;}.cls-2{fill:#d1cdc0;}.cls-3{fill:#493e7a;}.cls-4{fill:#8f8b80;}.cls-5{opacity:0.7;}.cls-11,.cls-12,.cls-14,.cls-15,.cls-17,.cls-18,.cls-20,.cls-21,.cls-23,.cls-24,.cls-6,.cls-7,.cls-8{fill:none;stroke-miterlimit:10;}.cls-6{stroke:#666;stroke-width:1.02px;}.cls-11,.cls-12,.cls-14,.cls-15,.cls-17,.cls-18,.cls-20,.cls-21,.cls-23,.cls-24,.cls-7,.cls-8{stroke:#303030;stroke-linecap:round;}.cls-7{stroke-width:1.14px;}.cls-8{stroke-width:0.76px;}.cls-13,.cls-16,.cls-19,.cls-22,.cls-25,.cls-9{opacity:0.3;}.cls-9{fill:url(#New_Gradient_Swatch_2);}.cls-10{fill:#303030;}.cls-11{stroke-width:1.59px;}.cls-12{stroke-width:1.06px;}.cls-13{fill:url(#New_Gradient_Swatch_2-2);}.cls-14{stroke-width:1.22px;}.cls-15{stroke-width:0.81px;}.cls-16{fill:url(#New_Gradient_Swatch_2-3);}.cls-17{stroke-width:1.37px;}.cls-18{stroke-width:0.91px;}.cls-19{fill:url(#New_Gradient_Swatch_2-4);}.cls-20{stroke-width:0.88px;}.cls-21{stroke-width:0.58px;}.cls-22{fill:url(#New_Gradient_Swatch_2-5);}.cls-23{stroke-width:1.38px;}.cls-24{stroke-width:0.92px;}.cls-25{fill:url(#New_Gradient_Swatch_2-6);}</style><radialGradient id="New_Gradient_Swatch_2" cx="486.88" cy="342.75" r="20.1" gradientTransform="translate(-209.02 -354.12) rotate(6.43)" gradientUnits="userSpaceOnUse"><stop offset="0" stop-color="#a4bdbe" stop-opacity="0.1"/><stop offset="0.3" stop-color="#c8d5d1" stop-opacity="0.3"/><stop offset="0.6" stop-color="#e6eae1" stop-opacity="0.46"/><stop offset="0.82" stop-color="#f8f6eb" stop-opacity="0.56"/><stop offset="0.95" stop-color="#fffbef" stop-opacity="0.6"/></radialGradient><radialGradient id="New_Gradient_Swatch_2-2" cx="957" cy="671.86" r="28" gradientTransform="translate(-344.3 -711.57) rotate(12.29)" xlink:href="#New_Gradient_Swatch_2"/><radialGradient id="New_Gradient_Swatch_2-3" cx="6661" cy="-1222.41" r="21.58" gradientTransform="matrix(-0.91, 0.42, 0.42, 0.91, 7142.59, -1530.35)" xlink:href="#New_Gradient_Swatch_2"/><radialGradient id="New_Gradient_Swatch_2-4" cx="6695.33" cy="-743.57" r="24.2" gradientTransform="matrix(-0.97, 0.25, 0.25, 0.97, 7008.46, -844.34)" xlink:href="#New_Gradient_Swatch_2"/><radialGradient id="New_Gradient_Swatch_2-5" cx="6372.35" cy="-460.86" r="15.48" gradientTransform="matrix(-0.99, 0.16, 0.16, 0.99, 6902.07, -536.98)" xlink:href="#New_Gradient_Swatch_2"/><radialGradient id="New_Gradient_Swatch_2-6" cx="-459.03" cy="-1207.11" r="24.29" gradientTransform="matrix(0.92, -0.4, 0.4, 0.92, 985.31, 1074.32)" xlink:href="#New_Gradient_Swatch_2"/></defs><title>Interactive-Underpowered Assets</title><polygon class="cls-1" points="655.94 246.8 511.88 297.27 388.72 271.66 271.32 247.25 266.43 248.38 72.65 292.87 42.99 206.03 6.06 97.95 137.81 67.69 199.39 53.55 204.73 52.33 230.56 57.7 445.28 102.34 468.53 94.2 589.35 51.87 604.03 94.84 655.94 246.8"/><polygon class="cls-2" points="204.73 52.33 271.32 247.25 511.88 297.27 445.28 102.34 204.73 52.33"/><path class="cls-3" d="M140.09,76.46l-.21.41-.33-.28Z"/><path class="cls-3" d="M140.5,76.37l-.41.09.16-.29Z"/><path class="cls-4" d="M471.34,127.92a8.12,8.12,0,0,1-2.61,5c-6.11,6.1-16.5,6.79-20.06,15-2.62,6.07-.25,13.94-3.51,19.6-3,5.2-9.15,6.08-14.85,6l-6,7a2.12,2.12,0,0,1-2,.93l-8.27.16a5.25,5.25,0,0,1-1.78-.17c-1.37-.47-2.14-2-3.45-2.65-2.55-1.26-6.29,1.13-8.18-1a6,6,0,0,1-1-3,12.15,12.15,0,0,0-.84-2.59c-5.87.21-11.61,1.36-16.36,5-3,2.31-5.32,5.43-8,8.06-8.44,8.1-20.77,10.81-31.33,6.88-4.89,10.41-10.55,21.62-20.34,25.93-8.17,3.6-17.77,1.37-25.09-4.07a60.64,60.64,0,0,1-4.84-4.42,2.53,2.53,0,0,1-1.62.44,3.64,3.64,0,0,1-1.6-.74l-16.92-11.58a6.48,6.48,0,0,1-2.05-1.91c-.81-1.41-.46-3.29-1.41-4.61a5.63,5.63,0,0,0-2.73-1.7L254,184.9a5.92,5.92,0,0,1-4.8-5.86l-2-11.68.72-1.57c-1.21.49-2.43-1.07-2.14-2.34a3.75,3.75,0,0,1,1.31-1.93c-5.68-6.14-9.46-10.27-9.46-10.27a74.37,74.37,0,0,0-8.23,1.57,64.52,64.52,0,0,1-24.68.87,20.61,20.61,0,0,1-7.5-2.37,27.66,27.66,0,0,1-5.93-5.41l-15.14-16.74a15.18,15.18,0,0,1-2.89-4c-.72-1.65-.88-3.55-1.51-5.25-3.34-9-17.13-7.83-20.32-16.87-.71-2-.75-4.22-1.52-6.17-1.1-2.77-3.47-4.57-5.43-6.66-5.34-5.66-7.74-14.38-6.69-22.48l66.93-15.37c3.43.41,22.38,4.84,25.83,5.37l214.73,44.64,23.25-8.14a6.36,6.36,0,0,1,.71,2.6c.15,2.78-1.42,5.27-2.36,7.85a18.66,18.66,0,0,0,1.06,15.07C469.38,122.35,471.57,124.86,471.34,127.92Z"/><path class="cls-3" d="M547.71,200.72l-.68.56c.21-.19.44-.38.66-.58Z"/><path class="cls-3" d="M547.71,200.72l-.68.56c.21-.19.44-.38.66-.58Z"/><path class="cls-4" d="M544.82,83.27c-3.43-1.85-8,.94-9,4.68s.55,7.78,2.88,10.89c.9,1.2,2,2.57,1.6,4-.46,1.83-2.75,2.34-4.6,2.74s-4.05,1.75-3.56,3.57c.28,1,1.34,1.63,1.93,2.52,1.21,1.81.21,4.3-1.19,6s-3.22,3.12-3.89,5.19a1.91,1.91,0,0,0,0,1.49,2.32,2.32,0,0,0,1.54.9l11.11,3a2.29,2.29,0,0,0,1.51.05c.83-.37.9-1.5.93-2.42a16.67,16.67,0,0,1,8.14-13.77c1.74-1,3.68-1.71,5.26-3,2.76-2.2,4-5.75,5.08-9.11a11.37,11.37,0,0,0,.83-5.4c-.56-3.16-3.56-5.19-6.3-6.85L549.2,83A9.87,9.87,0,0,0,545,81.24a3.38,3.38,0,0,0-3.61,2.23"/><path class="cls-4" d="M510.39,127.52c-2.34-.93-4.82,1.76-4.71,4.28s1.84,4.63,3.48,6.54a11.4,11.4,0,0,0,7.22-1.53c-.23-1.75.83-3.38,1.4-5s.35-4-1.32-4.57-4,1.39-5.58.26"/><path class="cls-4" d="M266.43,248.38,72.65,292.87,43,206a56.74,56.74,0,0,1,8.41-12.29,13.34,13.34,0,0,1,6.33-4.47c6.22-1.65,13.08,3.39,19.17,1.46,3.91-1.23,5.65-4.8,8.46-7.3,5.67-5,16.84-5,22.51,0,3.45,3.06,4.79,7.36,8.2,10.44a26,26,0,0,0,5.38,3.49h0l9.3-.38c2-.09,4.18-.14,5.91.91s3.25,3.31,5.31,2.92c.62-.12,1.18-.49,1.8-.56a3.94,3.94,0,0,1,2.12.57q6.56,3.22,12.78,7.08a102.67,102.67,0,0,0,13.36.27,12.76,12.76,0,0,1,5,.39c1.89.71,3,2.27,4.2,3.64,6.68,7.7,18,11.13,29.79,13.21l.76-.13a10.8,10.8,0,0,1,1.8-3.8,3.68,3.68,0,0,1,3.78-1.32c.62.21,1.15.64,1.77.87,2.19.76,4.45-1.37,6.75-1.13a7.23,7.23,0,0,1,2.13.73,86.21,86.21,0,0,0,24.47,7.16,8.73,8.73,0,0,1,2.29.52c1.72.74,2.73,2.52,3.45,4.25a30.18,30.18,0,0,1,1.94,7,23.53,23.53,0,0,1,3.52,3.87A23.81,23.81,0,0,1,266.43,248.38Z"/><path class="cls-4" d="M44.52,139.06a31,31,0,0,0,8.4,11.7,17.82,17.82,0,0,0,6.95,4c3.06.81,6.29.42,9.45.21a83.14,83.14,0,0,1,15.11.37,9,9,0,0,1,4.75,1.55c1.3,1.06,2,2.79,3.44,3.66,2,1.22,4.61.31,6.77-.62l8.87-3.81a1.7,1.7,0,0,0,1.26-2.38l-2.43-11.94a9.06,9.06,0,0,0-1.49-4,11.25,11.25,0,0,0-2.82-2.17,23,23,0,0,1-7.89-8.72c-2-4-2.94-8.55-5.7-12.05-5.2-6.61-15-7.13-23.31-5.73-1.65.28-3.46.72-4.38,2.11-.5.76-.66,1.71-1.15,2.48a7,7,0,0,1-3.08,2.21,59.46,59.46,0,0,0-11.07,6.93,12.07,12.07,0,0,0-3.74,4.2c-1.88,4.12.74,8.8,3.26,12.57"/><path class="cls-4" d="M604,94.84c-6.24,2.72-11.28,8.29-17.94,9.87-2.75.64-5.71.6-8.25,1.87-7.93,4-5.47,16.17-10.12,23.73-3.31,5.37-9.76,7.68-15.26,10.77-1.18.67-2.45,1.54-2.7,2.87a5.33,5.33,0,0,0,1,3.35,35.5,35.5,0,0,1,3.52,23.8l-1.21-.17c-.87-.13-1.92-.17-2.44.54a3.75,3.75,0,0,0-.42,1.63c-.57,2.89-4.27,3.55-7,4.66a3.07,3.07,0,0,0-1.3.86c-1.06,1.33.19,3.22,1.39,4.44a21.61,21.61,0,0,0-5.72,5.54,1.8,1.8,0,0,0-.44,1.19,1.83,1.83,0,0,0,.64,1L541,194a30.85,30.85,0,0,1-5.37,3.48,18.24,18.24,0,0,0-4.46,2.71c-3.1,3-3,7.82-3.61,12.07-1.46,10-15.74,12.84-17.91,22.7a3.82,3.82,0,0,0,1.33,3.63l-.56.34a3.13,3.13,0,0,0-1.37,1.36,4.16,4.16,0,0,0,.13,2.14,6.49,6.49,0,0,1-2.51,6.25,4.1,4.1,0,0,0,2.71,1.42,14.59,14.59,0,0,1-7.56,4.68,6.65,6.65,0,0,0-3.26,1.3,2.42,2.42,0,0,0-.23.26c-4.26-5.78-8.75-11-15.54-12.73-4.11-1-8.6-.52-12.5-2.21-5.18-2.27-8.33-8-13.7-9.78-3.63-1.18-8.18-.57-10.65-3.48-1.28-1.51-1.6-3.63-2.75-5.25-1.87-2.62-5.49-3.37-8.7-3.09s-6.31,1.36-9.54,1.51c-8,.37-16-5-23.69-2.72-8.19,2.46-11.48,12.06-13.56,20.36l.48-.46c-1.6,3.21-5.82,3.79-9.25,4.86s-7.08,4.71-5.17,7.76a7.32,7.32,0,0,0,1.76,1.74A57.45,57.45,0,0,1,385.43,263a15.79,15.79,0,0,1,2.89,5.2,12.33,12.33,0,0,1,.41,3.49l123.15,25.61,15.58-5.46,6.49-2.28,122-42.74ZM547.69,200.7l0,0-.68.56C547.25,201.08,547.48,200.9,547.69,200.7Z"/><g class="cls-5"><polygon class="cls-6" points="644.15 238.94 507.74 286.91 267.07 237.21 78.81 281.75 14.27 100.63 206.83 58.25 446.43 105.79 582.84 57.82 644.15 238.94"/><line class="cls-6" x1="37.91" y1="95.99" x2="101.38" y2="276.03"/><line class="cls-6" x1="63.45" y1="90.22" x2="126.92" y2="270.26"/><line class="cls-6" x1="89" y1="84.45" x2="152.46" y2="264.49"/><line class="cls-6" x1="114.54" y1="78.68" x2="178" y2="258.72"/><line class="cls-6" x1="140.08" y1="72.91" x2="203.31" y2="252.29"/><line class="cls-6" x1="165.62" y1="67.13" x2="228.77" y2="246.27"/><line class="cls-6" x1="191.16" y1="61.36" x2="254.22" y2="240.25"/><line class="cls-6" x1="219.14" y1="60.69" x2="279.33" y2="239.49"/><line class="cls-6" x1="244.01" y1="65.63" x2="304.49" y2="245.3"/><line class="cls-6" x1="269.15" y1="70.29" x2="329.66" y2="250.04"/><line class="cls-6" x1="294.14" y1="75.57" x2="354.83" y2="255.85"/><line class="cls-6" x1="319.4" y1="80.59" x2="379.99" y2="260.59"/><line class="cls-6" x1="344.66" y1="85.6" x2="405.16" y2="265.32"/><line class="cls-6" x1="369.53" y1="90.54" x2="430.33" y2="271.14"/><line class="cls-6" x1="394.79" y1="95.55" x2="455.49" y2="275.87"/><line class="cls-6" x1="419.66" y1="100.48" x2="480.66" y2="281.69"/><line class="cls-6" x1="444.9" y1="105.43" x2="506.93" y2="286.52"/><line class="cls-6" x1="562.28" y1="64.79" x2="623.6" y2="245.91"/><line class="cls-6" x1="539.43" y1="72.75" x2="600.75" y2="253.86"/><line class="cls-6" x1="516.52" y1="81.81" x2="577.84" y2="262.92"/><line class="cls-6" x1="493.59" y1="88.71" x2="554.91" y2="269.82"/><line class="cls-6" x1="469" y1="98.57" x2="530.31" y2="279.69"/><polyline class="cls-6" points="634.52 210.47 498.11 258.44 257.44 208.74 69.18 253.28"/><polyline class="cls-6" points="623.83 179.82 487.42 227.79 246.74 178.09 58.48 222.63"/><polyline class="cls-6" points="613.13 148.1 476.72 196.07 236.05 146.37 46.71 191.98"/><polyline class="cls-6" points="603.51 117.45 467.1 165.42 226.43 115.72 36.02 162.41"/><polyline class="cls-6" points="592.82 85.73 455.33 134.77 214.66 85.08 25.32 130.68"/></g><line class="cls-7" x1="229.24" y1="36.77" x2="230.15" y2="62.02"/><polyline class="cls-8" points="229.68 45.47 233.18 42.06 234.63 46.85 237.02 40.44 237.85 50.81 241.48 45.26"/><line class="cls-7" x1="244.2" y1="34.21" x2="237.23" y2="62.81"/><path class="cls-9" d="M227.16,62.34a1.91,1.91,0,0,1-1.69-1.92c0-2.78,0-8-.54-8.75-3.94-4.94-6.37-9.8-5.66-16.09,1.16-10.34,10-17.84,19.66-16.75s16.61,10.36,15.45,20.7c-.71,6.3-4.43,10.7-9.1,14.43-.72.57-1.89,5.69-2.48,8.41a1.91,1.91,0,0,1-2.08,1.49Z"/><rect class="cls-10" x="224.82" y="61.43" width="18.4" height="1.93" rx="0.92" ry="0.92" transform="translate(8.45 -25.8) rotate(6.43)"/><rect class="cls-10" x="225.88" y="64.08" width="15.69" height="1.93" rx="0.92" ry="0.92" transform="translate(8.75 -25.75) rotate(6.43)"/><path class="cls-10" d="M239.63,67.41h0c-.3,2.65-3.17,3.6-6.53,3.22s-6-1.95-5.65-4.59h0Z"/><path class="cls-10" d="M231.76,70.63l-4.53,40.22c-.19,1.71,2.48,1.69,2.67,0l4.53-40.22c.19-1.71-2.48-1.69-2.67,0Z"/><line class="cls-11" x1="438.41" y1="141.73" x2="436.07" y2="176.84"/><polyline class="cls-12" points="437.77 153.85 443.1 149.62 444.44 156.47 448.67 147.91 448.34 162.41 454.16 155.23"/><line class="cls-11" x1="459.49" y1="140.3" x2="445.76" y2="178.94"/><path class="cls-13" d="M431.89,176.87a2.65,2.65,0,0,1-2.07-2.9c.45-3.85,1.18-11.13.49-12.2-4.76-7.41-7.43-14.48-5.56-23.1,3.08-14.16,16.35-23.3,29.63-20.41s21.54,16.72,18.46,30.88c-1.88,8.62-7.66,14.2-14.66,18.7-1.08.69-3.43,7.61-4.63,11.3a2.65,2.65,0,0,1-3.09,1.77Z"/><rect class="cls-10" x="428.57" y="176.58" width="25.63" height="2.69" rx="1.28" ry="1.28" transform="translate(47.98 -89.86) rotate(12.29)"/><rect class="cls-10" x="429.67" y="180.2" width="21.86" height="2.69" rx="1.28" ry="1.28" transform="translate(48.73 -89.61) rotate(12.29)"/><path class="cls-10" d="M448.44,185.66h0c-.79,3.63-4.9,4.54-9.51,3.53s-8-3.54-7.18-7.17h0Z"/><path class="cls-10" d="M437.13,188.71l-12,55.09c-.51,2.33,3.08,3.33,3.59,1l12-55.09c.51-2.33-3.08-3.33-3.59-1Z"/><line class="cls-14" x1="588.79" y1="146.26" x2="596.41" y2="172.29"/><polyline class="cls-15" points="591.29 155.27 586.58 152.98 586.71 158.36 582.11 152.63 584.77 163.48 579.2 159.05"/><line class="cls-14" x1="572.7" y1="148.71" x2="589.47" y2="175.48"/><path class="cls-16" d="M599.56,171.61a2,2,0,0,0,1.08-2.53c-1-2.82-2.75-8.17-2.41-9.1,2.34-6.36,3.18-12.13.33-18.31-4.68-10.14-16.19-14.8-25.69-10.41s-13.42,16.17-8.73,26.31c2.85,6.17,8.13,9.4,14.15,11.62.93.34,3.85,5.15,5.37,7.73a2,2,0,0,0,2.62.82Z"/><rect class="cls-10" x="582.72" y="172.95" width="19.75" height="2.07" rx="0.98" ry="0.98" transform="translate(1203.52 83.45) rotate(155.21)"/><rect class="cls-10" x="585.37" y="175.54" width="16.84" height="2.07" rx="0.98" ry="0.98" transform="translate(1206.89 87.89) rotate(155.21)"/><path class="cls-10" d="M588.58,181h0c1.2,2.6,4.44,2.6,7.74,1.07s5.4-4,4.21-6.59h0Z"/><path class="cls-10" d="M595.08,182.79l18.22,39.44c.77,1.67,3.24.22,2.48-1.45l-18.22-39.44c-.77-1.67-3.24-.22-2.48,1.45Z"/><line class="cls-17" x1="343.76" y1="75.15" x2="346.81" y2="105.41"/><polyline class="cls-18" points="344.66 85.6 339.93 82.1 338.98 88.06 335.08 80.8 335.79 93.31 330.55 87.28"/><line class="cls-17" x1="325.51" y1="74.54" x2="338.5" y2="107.51"/><path class="cls-19" d="M350.42,105.31a2.29,2.29,0,0,0,1.7-2.56c-.5-3.31-1.35-9.57-.78-10.53,3.89-6.54,6-12.72,4.12-20.12-3.08-12.14-14.8-19.64-26.19-16.75s-18.11,15.07-15,27.21c1.88,7.39,7,12,13.21,15.72,1,.57,3.19,6.47,4.33,9.63a2.29,2.29,0,0,0,2.72,1.44Z"/><rect class="cls-10" x="331.17" y="105.33" width="22.15" height="2.32" rx="1.1" ry="1.1" transform="translate(700.18 125.56) rotate(165.76)"/><rect class="cls-10" x="333.59" y="108.44" width="18.89" height="2.32" rx="1.1" ry="1.1" transform="translate(702.49 131.48) rotate(165.76)"/><path class="cls-10" d="M336.38,113.39h0c.79,3.11,4.37,3.77,8.32,2.77s6.78-3.29,6-6.4h0Z"/><path class="cls-10" d="M343.15,116.59l12,47.22c.51,2,3.61,1.15,3.1-.85l-12-47.22c-.51-2-3.61-1.15-3.1.85Z"/><line class="cls-20" x1="545.23" y1="43.95" x2="545.54" y2="63.4"/><polyline class="cls-21" points="545.24 50.66 542.42 48.17 541.49 51.91 539.4 47.08 539.17 55.09 536.16 50.96"/><line class="cls-20" x1="533.64" y1="42.57" x2="540.13" y2="64.28"/><path class="cls-22" d="M547.85,63.53A1.47,1.47,0,0,0,549.07,62c-.14-2.14-.34-6.17.07-6.75,2.83-4,4.51-7.78,3.71-12.6-1.31-7.9-8.37-13.32-15.78-12.09S524.71,39.17,526,47.07c.8,4.81,3.83,8.05,7.57,10.73.58.41,1.68,4.3,2.24,6.37a1.47,1.47,0,0,0,1.66,1.07Z"/><rect class="cls-10" x="535.49" y="63.1" width="14.17" height="1.48" rx="0.71" ry="0.71" transform="translate(1088.3 38.35) rotate(170.61)"/><rect class="cls-10" x="536.87" y="65.12" width="12.08" height="1.48" rx="0.71" ry="0.71" transform="matrix(-0.99, 0.16, -0.16, -0.99, 1089.29, 42.31)"/><path class="cls-10" d="M538.47,67.92h0c.33,2,2.58,2.64,5.15,2.22s4.5-1.73,4.16-3.76h0Z"/><path class="cls-10" d="M542.62,70.41l5.08,30.74c.22,1.3,2.2.75,2-.55l-5.08-30.74c-.22-1.3-2.2-.75-2,.55Z"/><line class="cls-23" x1="75.47" y1="147.82" x2="91.57" y2="173.76"/><polyline class="cls-24" points="81.15 156.69 82.77 151.01 87.17 155.16 85.83 147 92.93 157.39 93.4 149.38"/><line class="cls-23" x1="89.61" y1="136.17" x2="99.46" y2="170.34"/><path class="cls-25" d="M88.63,175.89a2.3,2.3,0,0,1-2.93-1c-1.63-2.94-4.79-8.44-5.82-8.85-7.1-2.82-12.56-6.45-15.59-13.48-5-11.54-.25-24.69,10.58-29.36s23.64.9,28.62,12.44c3,7,1.78,13.88-.89,20.59-.41,1,1.43,7.1,2.45,10.31a2.3,2.3,0,0,1-1.28,2.81Z"/><rect class="cls-10" x="84.74" y="170.67" width="22.23" height="2.33" rx="1.11" ry="1.11" transform="translate(-60.24 52.05) rotate(-23.34)"/><rect class="cls-10" x="87.65" y="173.62" width="18.96" height="2.33" rx="1.11" ry="1.11" transform="translate(-61.31 52.8) rotate(-23.34)"/><path class="cls-10" d="M104.75,173.73h0c1.28,3-1.16,5.68-4.92,7.3s-7.41,1.53-8.68-1.43h0Z"/><path class="cls-10" d="M98.43,181.84l19.38,44.9c.82,1.9,3.6.26,2.79-1.63l-19.38-44.9c-.82-1.9-3.6-.26-2.79,1.63Z"/></svg>