<svg id="Layer_1" data-name="Layer 1" xmlns="http://www.w3.org/2000/svg" xmlns:xlink="http://www.w3.org/1999/xlink" viewBox="0 0 662 316"><defs><style>.cls-1{fill:#fffbef;}.cls-2{fill:#d1cdc0;}.cls-3{fill:#493e7a;}.cls-4{fill:#8f8b80;}.cls-5{opacity:0.7;}.cls-12,.cls-13,.cls-15,.cls-16,.cls-18,.cls-19,.cls-21,.cls-22,.cls-24,.cls-25,.cls-6,.cls-8,.cls-9{fill:none;}.cls-6{stroke:#666;stroke-width:1.02px;}.cls-11,.cls-12,.cls-13,.cls-14,.cls-15,.cls-16,.cls-17,.cls-18,.cls-19,.cls-20,.cls-21,.cls-22,.cls-23,.cls-24,.cls-25,.cls-6,.cls-7,.cls-8,.cls-9{stroke-miterlimit:10;}.cls-11,.cls-14,.cls-17,.cls-20,.cls-23,.cls-7{stroke:#fffbef;opacity:0.3;}.cls-7{fill:url(#New_Gradient_Swatch_1);}.cls-12,.cls-13,.cls-15,.cls-16,.cls-18,.cls-19,.cls-21,.cls-22,.cls-24,.cls-25,.cls-8,.cls-9{stroke:#fbde44;stroke-linecap:round;}.cls-8{stroke-width:1.38px;}.cls-9{stroke-width:0.92px;}.cls-10{fill:#303030;}.cls-11{fill:url(#New_Gradient_Swatch_1-2);}.cls-12{stroke-width:1.14px;}.cls-13{stroke-width:0.76px;}.cls-14{fill:url(#New_Gradient_Swatch_1-3);}.cls-15{stroke-width:1.59px;}.cls-16{stroke-width:1.06px;}.cls-17{fill:url(#New_Gradient_Swatch_1-4);}.cls-18{stroke-width:1.22px;}.cls-19{stroke-width:0.81px;}.cls-20{fill:url(#New_Gradient_Swatch_1-5);}.cls-21{stroke-width:1.37px;}.cls-22{stroke-width:0.91px;}.cls-23{fill:url(#New_Gradient_Swatch_1-6);}.cls-24{stroke-width:0.88px;}.cls-25{stroke-width:0.58px;}.cls-26,.cls-27,.cls-28,.cls-30,.cls-31{opacity:0.5;}.cls-26{fill:url(#radial-gradient);}.cls-27{fill:url(#radial-gradient-2);}.cls-28{fill:url(#radial-gradient-3);}.cls-29{opacity:0.4;fill:url(#radial-gradient-4);}.cls-30{fill:url(#radial-gradient-5);}.cls-31{fill:url(#radial-gradient-6);}</style><radialGradient id="New_Gradient_Swatch_1" cx="-611.19" cy="-1227.24" r="24.29" gradientTransform="matrix(0.92, -0.4, 0.4, 0.92, 1132.99, 1043.81)" gradientUnits="userSpaceOnUse"><stop offset="0" stop-color="#fbde44"/><stop offset="0.22" stop-color="#fbde44" stop-opacity="0.78"/><stop offset="0.49" stop-color="#fbde44" stop-opacity="0.53"/><stop offset="0.72" stop-color="#fbde44" stop-opacity="0.35"/><stop offset="0.9" stop-color="#fbde44" stop-opacity="0.24"/><stop offset="1" stop-color="#fbde44" stop-opacity="0.2"/></radialGradient><radialGradient id="New_Gradient_Swatch_1-2" cx="529.86" cy="351.65" r="20.1" gradientTransform="translate(-250.73 -356.47) rotate(6.43)" xlink:href="#New_Gradient_Swatch_1"/><radialGradient id="New_Gradient_Swatch_1-3" cx="1038.72" cy="674.38" r="28" gradientTransform="translate(-423.63 -720.11) rotate(12.29)" xlink:href="#New_Gradient_Swatch_1"/><radialGradient id="New_Gradient_Swatch_1-4" cx="6822.03" cy="-1246.49" r="21.58" gradientTransform="matrix(-0.91, 0.42, 0.42, 0.91, 7298.87, -1564.7)" xlink:href="#New_Gradient_Swatch_1"/><radialGradient id="New_Gradient_Swatch_1-5" cx="6789.76" cy="-744.05" r="24.2" gradientTransform="matrix(-0.97, 0.25, 0.25, 0.97, 7100.11, -855.78)" xlink:href="#New_Gradient_Swatch_1"/><radialGradient id="New_Gradient_Swatch_1-6" cx="6434.97" cy="-454.69" r="15.48" gradientTransform="matrix(-0.99, 0.16, 0.16, 0.99, 6962.85, -541.97)" xlink:href="#New_Gradient_Swatch_1"/><radialGradient id="radial-gradient" cx="334.82" cy="87.97" r="47.02" gradientUnits="userSpaceOnUse"><stop offset="0" stop-color="#fbde44" stop-opacity="0.7"/><stop offset="0.11" stop-color="#fbde44" stop-opacity="0.66"/><stop offset="0.29" stop-color="#fbde44" stop-opacity="0.54"/><stop offset="0.54" stop-color="#fbde44" stop-opacity="0.35"/><stop offset="0.83" stop-color="#fbde44" stop-opacity="0.09"/><stop offset="0.93" stop-color="#fbde44" stop-opacity="0"/></radialGradient><radialGradient id="radial-gradient-2" cx="447.61" cy="160.66" r="50.05" xlink:href="#radial-gradient"/><radialGradient id="radial-gradient-3" cx="583.26" cy="165.09" r="46.27" xlink:href="#radial-gradient"/><radialGradient id="radial-gradient-4" cx="540.13" cy="58.39" r="37.71" xlink:href="#radial-gradient"/><radialGradient id="radial-gradient-5" cx="85.91" cy="157.41" r="51.7" xlink:href="#radial-gradient"/><radialGradient id="radial-gradient-6" cx="236.82" cy="48.84" r="41.43" xlink:href="#radial-gradient"/></defs><title>Interactive-Underpowered Assets</title><polygon class="cls-1" points="655.94 258.11 511.88 308.58 388.72 282.97 271.32 258.56 266.43 259.69 72.65 304.18 42.99 217.35 6.06 109.26 137.81 79.01 199.39 64.86 204.73 63.64 230.56 69.01 445.28 113.65 468.53 105.51 589.35 63.18 604.03 106.16 655.94 258.11"/><polygon class="cls-2" points="204.73 63.64 271.32 258.56 511.88 308.58 445.28 113.65 204.73 63.64"/><path class="cls-3" d="M140.09,87.77l-.21.41-.33-.28Z"/><path class="cls-3" d="M140.5,87.68l-.41.09.16-.29Z"/><path class="cls-4" d="M471.34,139.23a8.12,8.12,0,0,1-2.61,5c-6.11,6.1-16.5,6.79-20.06,15-2.62,6.07-.25,13.94-3.51,19.6-3,5.2-9.15,6.08-14.85,6l-6,7a2.12,2.12,0,0,1-2,.93l-8.27.16a5.25,5.25,0,0,1-1.78-.17c-1.37-.47-2.14-2-3.45-2.65-2.55-1.26-6.29,1.13-8.18-1a6,6,0,0,1-1-3,12.15,12.15,0,0,0-.84-2.59c-5.87.21-11.61,1.36-16.36,5-3,2.31-5.32,5.43-8,8.06-8.44,8.1-20.77,10.81-31.33,6.88-4.89,10.41-10.55,21.62-20.34,25.93-8.17,3.6-17.77,1.37-25.09-4.07a60.64,60.64,0,0,1-4.84-4.42,2.53,2.53,0,0,1-1.62.44,3.64,3.64,0,0,1-1.6-.74l-16.92-11.58a6.48,6.48,0,0,1-2.05-1.91c-.81-1.41-.46-3.29-1.41-4.61a5.63,5.63,0,0,0-2.73-1.7L254,196.21a5.92,5.92,0,0,1-4.8-5.86l-2-11.68.72-1.57c-1.21.49-2.43-1.07-2.14-2.34a3.75,3.75,0,0,1,1.31-1.93c-5.68-6.14-9.46-10.27-9.46-10.27a74.37,74.37,0,0,0-8.23,1.57,64.52,64.52,0,0,1-24.68.87,20.61,20.61,0,0,1-7.5-2.37,27.66,27.66,0,0,1-5.93-5.41l-15.14-16.74a15.18,15.18,0,0,1-2.89-4c-.72-1.65-.88-3.55-1.51-5.25-3.34-9-17.13-7.83-20.32-16.87-.71-2-.75-4.22-1.52-6.17-1.1-2.77-3.47-4.57-5.43-6.66-5.34-5.66-7.74-14.38-6.69-22.48l66.93-15.37c3.43.41,22.38,4.84,25.83,5.37l214.73,44.64,23.25-8.14a6.36,6.36,0,0,1,.71,2.6c.15,2.78-1.42,5.27-2.36,7.85A18.66,18.66,0,0,0,467.94,131C469.38,133.66,471.57,136.17,471.34,139.23Z"/><path class="cls-3" d="M547.71,212l-.68.56c.21-.19.44-.38.66-.58Z"/><path class="cls-3" d="M547.71,212l-.68.56c.21-.19.44-.38.66-.58Z"/><path class="cls-4" d="M544.82,94.58c-3.43-1.85-8,.94-9,4.68s.55,7.78,2.88,10.89c.9,1.2,2,2.57,1.6,4-.46,1.83-2.75,2.34-4.6,2.74s-4.05,1.75-3.56,3.57c.28,1,1.34,1.63,1.93,2.52,1.21,1.81.21,4.3-1.19,6s-3.22,3.12-3.89,5.19a1.91,1.91,0,0,0,0,1.49,2.32,2.32,0,0,0,1.54.9l11.11,3a2.29,2.29,0,0,0,1.51.05c.83-.37.9-1.5.93-2.42a16.67,16.67,0,0,1,8.14-13.77c1.74-1,3.68-1.71,5.26-3,2.76-2.2,4-5.75,5.08-9.11a11.37,11.37,0,0,0,.83-5.4c-.56-3.16-3.56-5.19-6.3-6.85l-7.89-4.78A9.87,9.87,0,0,0,545,92.55a3.38,3.38,0,0,0-3.61,2.23"/><path class="cls-4" d="M510.39,138.83c-2.34-.93-4.82,1.76-4.71,4.28s1.84,4.63,3.48,6.54a11.4,11.4,0,0,0,7.22-1.53c-.23-1.75.83-3.38,1.4-5s.35-4-1.32-4.57-4,1.39-5.58.26"/><path class="cls-4" d="M266.43,259.69,72.65,304.18,43,217.35a56.74,56.74,0,0,1,8.41-12.29,13.34,13.34,0,0,1,6.33-4.47c6.22-1.65,13.08,3.39,19.17,1.46,3.91-1.23,5.65-4.8,8.46-7.3,5.67-5,16.84-5,22.51,0,3.45,3.06,4.79,7.36,8.2,10.44a26,26,0,0,0,5.38,3.49h0l9.3-.38c2-.09,4.18-.14,5.91.91s3.25,3.31,5.31,2.92c.62-.12,1.18-.49,1.8-.56a3.94,3.94,0,0,1,2.12.57q6.56,3.22,12.78,7.08a102.67,102.67,0,0,0,13.36.27,12.76,12.76,0,0,1,5,.39c1.89.71,3,2.27,4.2,3.64,6.68,7.7,18,11.13,29.79,13.21l.76-.13a10.8,10.8,0,0,1,1.8-3.8,3.68,3.68,0,0,1,3.78-1.32c.62.21,1.15.64,1.77.87,2.19.76,4.45-1.37,6.75-1.13a7.23,7.23,0,0,1,2.13.73,86.21,86.21,0,0,0,24.47,7.16,8.73,8.73,0,0,1,2.29.52c1.72.74,2.73,2.52,3.45,4.25a30.18,30.18,0,0,1,1.94,7,23.53,23.53,0,0,1,3.52,3.87A23.81,23.81,0,0,1,266.43,259.69Z"/><path class="cls-4" d="M44.52,150.37a31,31,0,0,0,8.4,11.7,17.82,17.82,0,0,0,6.95,4c3.06.81,6.29.42,9.45.21a83.14,83.14,0,0,1,15.11.37,9,9,0,0,1,4.75,1.55c1.3,1.06,2,2.79,3.44,3.66,2,1.22,4.61.31,6.77-.62l8.87-3.81a1.7,1.7,0,0,0,1.26-2.38L107.11,153a9.06,9.06,0,0,0-1.49-4,11.25,11.25,0,0,0-2.82-2.17,23,23,0,0,1-7.89-8.72c-2-4-2.94-8.55-5.7-12.05-5.2-6.61-15-7.13-23.31-5.73-1.65.28-3.46.72-4.38,2.11-.5.76-.66,1.71-1.15,2.48a7,7,0,0,1-3.08,2.21,59.46,59.46,0,0,0-11.07,6.93,12.07,12.07,0,0,0-3.74,4.2c-1.88,4.12.74,8.8,3.26,12.57"/><path class="cls-4" d="M604,106.15c-6.24,2.72-11.28,8.29-17.94,9.87-2.75.64-5.71.6-8.25,1.87-7.93,4-5.47,16.17-10.12,23.73-3.31,5.37-9.76,7.68-15.26,10.77-1.18.67-2.45,1.54-2.7,2.87a5.33,5.33,0,0,0,1,3.35,35.5,35.5,0,0,1,3.52,23.8l-1.21-.17c-.87-.13-1.92-.17-2.44.54a3.75,3.75,0,0,0-.42,1.63c-.57,2.89-4.27,3.55-7,4.66a3.07,3.07,0,0,0-1.3.86c-1.06,1.33.19,3.22,1.39,4.44a21.61,21.61,0,0,0-5.72,5.54,1.8,1.8,0,0,0-.44,1.19,1.83,1.83,0,0,0,.64,1L541,205.3a30.85,30.85,0,0,1-5.37,3.48,18.24,18.24,0,0,0-4.46,2.71c-3.1,3-3,7.82-3.61,12.07-1.46,10-15.74,12.84-17.91,22.7a3.82,3.82,0,0,0,1.33,3.63l-.56.34a3.13,3.13,0,0,0-1.37,1.36,4.16,4.16,0,0,0,.13,2.14,6.49,6.49,0,0,1-2.51,6.25,4.1,4.1,0,0,0,2.71,1.42,14.59,14.59,0,0,1-7.56,4.68,6.65,6.65,0,0,0-3.26,1.3,2.42,2.42,0,0,0-.23.26c-4.26-5.78-8.75-11-15.54-12.73-4.11-1-8.6-.52-12.5-2.21-5.18-2.27-8.33-8-13.7-9.78-3.63-1.18-8.18-.57-10.65-3.48-1.28-1.51-1.6-3.63-2.75-5.25-1.87-2.62-5.49-3.37-8.7-3.09s-6.31,1.36-9.54,1.51c-8,.37-16-5-23.69-2.72-8.19,2.46-11.48,12.06-13.56,20.36l.48-.46c-1.6,3.21-5.82,3.79-9.25,4.86s-7.08,4.71-5.17,7.76a7.32,7.32,0,0,0,1.76,1.74,57.45,57.45,0,0,1,9.91,10.13,15.79,15.79,0,0,1,2.89,5.2,12.33,12.33,0,0,1,.41,3.49l123.15,25.61,15.58-5.46,6.49-2.28,122-42.74ZM547.69,212l0,0-.68.56C547.25,212.4,547.48,212.21,547.69,212Z"/><g class="cls-5"><polygon class="cls-6" points="644.15 250.25 507.74 298.22 267.07 248.52 78.81 293.06 14.27 111.94 206.83 69.56 446.43 117.11 582.84 69.14 644.15 250.25"/><line class="cls-6" x1="37.91" y1="107.3" x2="101.38" y2="287.35"/><line class="cls-6" x1="63.45" y1="101.53" x2="126.92" y2="281.57"/><line class="cls-6" x1="89" y1="95.76" x2="152.46" y2="275.8"/><line class="cls-6" x1="114.54" y1="89.99" x2="178" y2="270.03"/><line class="cls-6" x1="140.08" y1="84.22" x2="203.31" y2="263.61"/><line class="cls-6" x1="165.62" y1="78.45" x2="228.77" y2="257.58"/><line class="cls-6" x1="191.16" y1="72.67" x2="254.22" y2="251.56"/><line class="cls-6" x1="219.14" y1="72" x2="279.33" y2="250.8"/><line class="cls-6" x1="244.01" y1="76.94" x2="304.49" y2="256.61"/><line class="cls-6" x1="269.15" y1="81.6" x2="329.66" y2="261.35"/><line class="cls-6" x1="294.14" y1="86.89" x2="354.83" y2="267.16"/><line class="cls-6" x1="319.4" y1="91.9" x2="379.99" y2="271.9"/><line class="cls-6" x1="344.66" y1="96.91" x2="405.16" y2="276.64"/><line class="cls-6" x1="369.53" y1="101.85" x2="430.33" y2="282.45"/><line class="cls-6" x1="394.79" y1="106.86" x2="455.49" y2="287.19"/><line class="cls-6" x1="419.66" y1="111.79" x2="480.66" y2="293"/><line class="cls-6" x1="444.9" y1="116.74" x2="506.93" y2="297.83"/><line class="cls-6" x1="562.28" y1="76.1" x2="623.6" y2="257.22"/><line class="cls-6" x1="539.43" y1="84.06" x2="600.75" y2="265.17"/><line class="cls-6" x1="516.52" y1="93.12" x2="577.84" y2="274.24"/><line class="cls-6" x1="493.59" y1="100.02" x2="554.91" y2="281.14"/><line class="cls-6" x1="469" y1="109.88" x2="530.31" y2="291"/><polyline class="cls-6" points="634.52 221.78 498.11 269.75 257.44 220.05 69.18 264.59"/><polyline class="cls-6" points="623.83 191.13 487.42 239.1 246.74 189.4 58.48 233.94"/><polyline class="cls-6" points="613.13 159.41 476.72 207.38 236.05 157.68 46.71 203.29"/><polyline class="cls-6" points="603.51 128.76 467.1 176.73 226.43 127.03 36.02 173.72"/><polyline class="cls-6" points="592.82 97.04 455.33 146.08 214.66 96.39 25.32 142"/></g><path class="cls-7" d="M88.63,187.2a2.3,2.3,0,0,1-2.93-1c-1.63-2.94-4.79-8.44-5.82-8.85-7.1-2.82-12.56-6.45-15.59-13.48-5-11.54-.25-24.69,10.58-29.36s23.64.9,28.62,12.44c3,7,1.78,13.88-.89,20.59-.41,1,1.43,7.1,2.45,10.31a2.3,2.3,0,0,1-1.28,2.81Z"/><line class="cls-8" x1="75.47" y1="159.13" x2="91.57" y2="185.07"/><polyline class="cls-9" points="81.15 168 82.77 162.32 87.17 166.47 85.83 158.31 92.93 168.7 93.4 160.7"/><line class="cls-8" x1="89.61" y1="147.48" x2="99.46" y2="181.65"/><rect class="cls-10" x="84.74" y="181.98" width="22.23" height="2.33" rx="1.11" ry="1.11" transform="translate(-64.73 52.98) rotate(-23.34)"/><rect class="cls-10" x="87.65" y="184.93" width="18.96" height="2.33" rx="1.11" ry="1.11" transform="translate(-65.79 53.72) rotate(-23.34)"/><path class="cls-10" d="M104.75,185h0c1.28,3-1.16,5.68-4.92,7.3s-7.41,1.53-8.68-1.43h0Z"/><path class="cls-10" d="M98.43,193.16l19.38,44.9c.82,1.9,3.6.26,2.79-1.63l-19.38-44.9c-.82-1.9-3.6-.26-2.79,1.63Z"/><path class="cls-11" d="M227.16,73.65a1.91,1.91,0,0,1-1.69-1.92c0-2.78,0-8-.54-8.75-3.94-4.94-6.37-9.8-5.66-16.09,1.16-10.34,10-17.84,19.66-16.75s16.61,10.36,15.45,20.7c-.71,6.3-4.43,10.7-9.1,14.43-.72.57-1.89,5.69-2.48,8.41a1.91,1.91,0,0,1-2.08,1.49Z"/><line class="cls-12" x1="229.24" y1="48.08" x2="230.15" y2="73.33"/><polyline class="cls-13" points="229.68 56.78 233.18 53.37 234.63 58.16 237.02 51.75 237.85 62.12 241.48 56.57"/><line class="cls-12" x1="244.2" y1="45.52" x2="237.23" y2="74.12"/><rect class="cls-10" x="224.82" y="72.74" width="18.4" height="1.93" rx="0.92" ry="0.92" transform="translate(9.72 -25.73) rotate(6.43)"/><rect class="cls-10" x="225.88" y="75.39" width="15.69" height="1.93" rx="0.92" ry="0.92" transform="translate(10.01 -25.68) rotate(6.43)"/><path class="cls-10" d="M239.63,78.72h0c-.3,2.65-3.17,3.6-6.53,3.22s-6-1.95-5.65-4.59h0Z"/><path class="cls-10" d="M231.76,81.95l-4.53,40.22c-.19,1.71,2.48,1.69,2.67,0l4.53-40.22c.19-1.71-2.48-1.69-2.67,0Z"/><path class="cls-14" d="M431.89,188.18a2.65,2.65,0,0,1-2.07-2.9c.45-3.85,1.18-11.13.49-12.2-4.76-7.41-7.43-14.48-5.56-23.1,3.08-14.16,16.35-23.3,29.63-20.41s21.54,16.72,18.46,30.88c-1.88,8.62-7.66,14.2-14.66,18.7-1.08.69-3.43,7.61-4.63,11.3a2.65,2.65,0,0,1-3.09,1.77Z"/><line class="cls-15" x1="438.41" y1="153.04" x2="436.07" y2="188.15"/><polyline class="cls-16" points="437.77 165.16 443.1 160.93 444.44 167.78 448.67 159.23 448.34 173.72 454.16 166.54"/><line class="cls-15" x1="459.49" y1="151.61" x2="445.76" y2="190.25"/><rect class="cls-10" x="428.57" y="187.89" width="25.63" height="2.69" rx="1.28" ry="1.28" transform="translate(50.39 -89.6) rotate(12.29)"/><rect class="cls-10" x="429.67" y="191.51" width="21.86" height="2.69" rx="1.28" ry="1.28" transform="translate(51.14 -89.35) rotate(12.29)"/><path class="cls-10" d="M448.44,197h0c-.79,3.63-4.9,4.54-9.51,3.53s-8-3.54-7.18-7.17h0Z"/><path class="cls-10" d="M437.13,200l-12,55.09c-.51,2.33,3.08,3.33,3.59,1l12-55.09c.51-2.33-3.08-3.33-3.59-1Z"/><path class="cls-17" d="M599.56,182.92a2,2,0,0,0,1.08-2.53c-1-2.82-2.75-8.17-2.41-9.1,2.34-6.36,3.18-12.13.33-18.31-4.68-10.14-16.19-14.8-25.69-10.41s-13.42,16.17-8.73,26.31c2.85,6.17,8.13,9.4,14.15,11.62.93.34,3.85,5.15,5.37,7.73a2,2,0,0,0,2.62.82Z"/><line class="cls-18" x1="588.79" y1="157.57" x2="596.41" y2="183.6"/><polyline class="cls-19" points="591.29 166.58 586.58 164.29 586.71 169.67 582.11 163.94 584.77 174.79 579.2 170.36"/><line class="cls-18" x1="572.7" y1="160.02" x2="589.47" y2="186.8"/><rect class="cls-10" x="582.72" y="184.26" width="19.75" height="2.07" rx="0.98" ry="0.98" transform="translate(1208.27 105.03) rotate(155.21)"/><rect class="cls-10" x="585.37" y="186.85" width="16.84" height="2.07" rx="0.98" ry="0.98" transform="translate(1211.64 109.47) rotate(155.21)"/><path class="cls-10" d="M588.58,192.3h0c1.2,2.6,4.44,2.6,7.74,1.07s5.4-4,4.21-6.59h0Z"/><path class="cls-10" d="M595.08,194.1l18.22,39.44c.77,1.67,3.24.22,2.48-1.45l-18.22-39.44c-.77-1.67-3.24-.22-2.48,1.45Z"/><path class="cls-20" d="M350.42,116.62a2.29,2.29,0,0,0,1.7-2.56c-.5-3.31-1.35-9.57-.78-10.53,3.89-6.54,6-12.72,4.12-20.12-3.08-12.14-14.8-19.64-26.19-16.75s-18.11,15.07-15,27.21c1.88,7.39,7,12,13.21,15.72,1,.57,3.19,6.47,4.33,9.63a2.29,2.29,0,0,0,2.72,1.44Z"/><line class="cls-21" x1="343.76" y1="86.46" x2="346.81" y2="116.72"/><polyline class="cls-22" points="344.66 96.91 339.93 93.41 338.98 99.37 335.08 92.11 335.79 104.62 330.55 98.59"/><line class="cls-21" x1="325.51" y1="85.85" x2="338.5" y2="118.82"/><rect class="cls-10" x="331.17" y="116.65" width="22.15" height="2.32" rx="1.1" ry="1.1" transform="translate(702.96 147.84) rotate(165.76)"/><rect class="cls-10" x="333.59" y="119.75" width="18.89" height="2.32" rx="1.1" ry="1.1" transform="translate(705.27 153.75) rotate(165.76)"/><path class="cls-10" d="M336.38,124.7h0c.79,3.11,4.37,3.77,8.32,2.77s6.78-3.29,6-6.4h0Z"/><path class="cls-10" d="M343.15,127.91l12,47.22c.51,2,3.61,1.15,3.1-.85l-12-47.22c-.51-2-3.61-1.15-3.1.85Z"/><path class="cls-23" d="M547.85,74.84a1.47,1.47,0,0,0,1.23-1.54c-.14-2.14-.34-6.17.07-6.75,2.83-4,4.51-7.78,3.71-12.6-1.31-7.9-8.37-13.32-15.78-12.09S524.71,50.48,526,58.38c.8,4.81,3.83,8.05,7.57,10.73.58.41,1.68,4.3,2.24,6.37a1.47,1.47,0,0,0,1.66,1.07Z"/><line class="cls-24" x1="545.23" y1="55.26" x2="545.54" y2="74.71"/><polyline class="cls-25" points="545.24 61.97 542.42 59.48 541.49 63.23 539.4 58.39 539.17 66.4 536.16 62.27"/><line class="cls-24" x1="533.64" y1="53.88" x2="540.13" y2="75.6"/><rect class="cls-10" x="535.49" y="74.41" width="14.17" height="1.48" rx="0.71" ry="0.71" transform="translate(1090.14 60.82) rotate(170.61)"/><rect class="cls-10" x="536.87" y="76.43" width="12.08" height="1.48" rx="0.71" ry="0.71" transform="translate(1091.14 64.78) rotate(170.61)"/><path class="cls-10" d="M538.47,79.23h0c.33,2,2.58,2.64,5.15,2.22s4.5-1.73,4.16-3.76h0Z"/><path class="cls-10" d="M542.62,81.72l5.08,30.74c.22,1.3,2.2.75,2-.55l-5.08-30.74c-.22-1.3-2.2-.75-2,.55Z"/><circle class="cls-26" cx="334.82" cy="87.97" r="47.02"/><circle class="cls-27" cx="447.61" cy="160.66" r="50.05"/><circle class="cls-28" cx="583.26" cy="165.09" r="46.27"/><circle class="cls-29" cx="540.13" cy="58.39" r="37.71"/><circle class="cls-30" cx="85.91" cy="157.41" r="51.7"/><circle class="cls-31" cx="236.82" cy="48.84" r="41.43"/></svg>