<svg xmlns="http://www.w3.org/2000/svg" xmlns:xlink="http://www.w3.org/1999/xlink" viewBox="0 0 417 417"><defs><style>.cls-1{isolation:isolate;}.cls-2{fill:#303030;}.cls-3{fill:url(#New_Gradient_Swatch_4);}.cls-4,.cls-5{fill:#404040;}.cls-14,.cls-4{stroke:#b3b3b3;stroke-width:10px;}.cls-10,.cls-14,.cls-4{stroke-miterlimit:10;}.cls-6{fill:#153460;}.cls-7{fill:#fffbef;}.cls-8{fill:#457373;}.cls-9{fill:#fbde44;}.cls-10,.cls-14{fill:none;}.cls-10{stroke:#fffbef;stroke-width:0.94px;}.cls-11{fill:#bfbcb3;}.cls-12{opacity:0.64;mix-blend-mode:multiply;}.cls-13{fill:#8f8d86;}</style><linearGradient id="New_Gradient_Swatch_4" x1="205.16" y1="179.6" x2="205.16" y2="392.75" gradientUnits="userSpaceOnUse"><stop offset="0.39" stop-color="#303030"/><stop offset="0.46" stop-color="#3b3b3b"/><stop offset="0.66" stop-color="#525252"/><stop offset="0.84" stop-color="#616161"/><stop offset="1" stop-color="#666"/></linearGradient></defs><title>Interactive-Underpowered Assets</title><g class="cls-1"><g id="intro_unplugged" data-name="intro/unplugged"><rect class="cls-2" x="46.23" y="312.13" width="25.97" height="22.9" rx="6.59" ry="6.59"/><rect class="cls-2" x="338.12" y="312.13" width="25.97" height="22.9" rx="6.59" ry="6.59"/><rect class="cls-2" x="107.17" y="377.07" width="25.97" height="18.89" rx="5.98" ry="5.98"/><rect class="cls-2" x="277.18" y="377.07" width="25.97" height="18.89" rx="5.98" ry="5.98"/><path class="cls-3" d="M54,179.6H356.3a13.16,13.16,0,0,1,13.16,13.16V277.3A115.45,115.45,0,0,1,254,392.75h-97.7A115.45,115.45,0,0,1,40.86,277.3V192.76A13.16,13.16,0,0,1,54,179.6Z"/><path class="cls-4" d="M374.16,165.76A68.91,68.91,0,0,1,373,178.54a74.55,74.55,0,0,1-6.17,18.69c-21.16,44-85.52,76-161.64,76-72.33,0-134-28.89-158.15-69.52a78.94,78.94,0,0,1-7.64-17,70.33,70.33,0,0,1-3.2-20.92c0-59.34,75.66-107.45,169-107.45S374.16,106.42,374.16,165.76Z"/><rect class="cls-5" x="363.05" y="221.54" width="35.68" height="12.02" rx="5.14" ry="5.14"/><rect class="cls-2" x="358.3" y="195.21" width="35.68" height="12.02" rx="5.14" ry="5.14"/><rect class="cls-5" x="371.67" y="208.52" width="38.13" height="12.02" rx="5.31" ry="5.31" transform="translate(540.43 -205.34) rotate(80.85)"/><rect class="cls-5" x="11.59" y="221.54" width="35.68" height="12.02" rx="5.14" ry="5.14" transform="translate(58.85 455.11) rotate(-180)"/><rect class="cls-2" x="16.34" y="195.21" width="35.68" height="12.02" rx="5.14" ry="5.14" transform="translate(68.37 402.44) rotate(-180)"/><rect class="cls-5" x="0.52" y="208.52" width="38.13" height="12.02" rx="5.31" ry="5.31" transform="translate(234.51 229.3) rotate(99.15)"/><path class="cls-6" d="M369.47,253.28v24c0,63.5-52,115.45-115.46,115.45h-97.7c-63.5,0-115.45-51.95-115.45-115.45v-24c0,63.5,52,115.45,115.45,115.45H254C317.51,368.73,369.47,316.78,369.47,253.28Z"/><path class="cls-6" d="M243.17,323.89v50.36c0,.46,0,.91,0,1.37H167.19c0-.45,0-.9,0-1.37V323.89a24.54,24.54,0,0,1,24.54-24.54h26.94A24.54,24.54,0,0,1,243.17,323.89Z"/><rect class="cls-7" x="185.37" y="330.14" width="41.47" height="17.65"/><rect class="cls-8" x="187.19" y="356.18" width="14.84" height="4.01" rx="2" ry="2"/><rect class="cls-9" x="210.17" y="356.18" width="14.84" height="4.01" rx="2" ry="2"/><line class="cls-10" x1="185.37" y1="324.75" x2="226.84" y2="324.75"/><line class="cls-10" x1="185.37" y1="319.36" x2="226.84" y2="319.36"/><path class="cls-7" d="M366.79,197.23c-7.68,16-21.06,30.36-38.62,42.21a175.75,175.75,0,0,1-32.64,17.14c-26.14,10.53-57.14,16.63-90.38,16.63-51.64,0-97.87-14.73-128.86-37.94q-2.14-1.61-4.18-3.25A107.55,107.55,0,0,1,47,203.69a52.77,52.77,0,0,1-1.8-14.54c0-3.65,3.07-7.73,6.67-8.82,6-1.84,5.74-9.77,12-11.69,4.64-1.43,11.39-.59,12.78-5,.58-1.85-.19-4,.9-5.66.65-1,3.81-1.49,4.92-2,7.1-3,12.49-5.11,20.27-5,4.6,0,10.15.87,13-2.6,1.15-1.43,1.5-3.28,2.19-5,3.19-7.76,13.05-10.77,21.78-11.44s15.08-.11,22.57-4.43a30,30,0,0,1,8.05-2.28,13.52,13.52,0,0,1,4.55.81,75.94,75.94,0,0,0,19.08,1.57A29.84,29.84,0,0,1,207,128.9c4.48,1.65,8.55,5,13.35,4.77,2.52-.09,4.88-1.17,7.19-2.15a57.77,57.77,0,0,1,12-3.8c6.19-1.15,12.86-.79,18.44,2s8.72.08,13,4.27c4.81,4.72,9.41,4.88,16.11,4.24a22.62,22.62,0,0,1,8.51,1.11c11.36,3.33,21,10.43,30.38,17.39l1.92,1.43c10.58,7.86,9.86,20.33,20.14,27.93,5,3.71,13,2.72,16.69,7.58A16.88,16.88,0,0,1,366.79,197.23Z"/><path class="cls-11" d="M98.9,172.28a4.8,4.8,0,0,1,5.73-5.18c3,.85,4.37,4.41,7.07,6a10.76,10.76,0,0,0,5.08,1.13c3.54.13,7.26-.2,10.28-2.07s5.1-5.61,4.08-9c-.3-1-.85-2.11-.4-3.06a2.77,2.77,0,0,1,.91-1,9.51,9.51,0,0,1,10.23-.54c3.91,2.3,5.64,7.08,9.11,10,2.55,2.13,5.86,3.12,8.62,5s5.05,5.27,3.86,8.37-4.76,4-7.93,4.17-6.54-.27-9.32,1.24c-2.52,1.36-4.13,4.08-6.72,5.33-5.23,2.51-11.18-2.07-17-1.87-4.36.15-8.33,3-12.69,2.9a4,4,0,0,1-3.06-1.2c-.86-1.06-.72-2.61-1.28-3.85-1.09-2.39-4.2-2.84-6.74-3.5s-5.41-3-4.36-5.37a5.23,5.23,0,0,1,1.16-1.51l4.94-5"/><path class="cls-11" d="M132.15,233.07c-1.51-1-.58-3.68,1.13-4.35s3.62-.1,5.41.35,3.86.69,5.29-.47c1.18-1,1.69-2.74,3.14-3.22,1.81-.61,3.41,1.23,5.09,2.12,3.84,2,8.24-.94,12.17-2.79a24.46,24.46,0,0,1,19.53-.45,4.13,4.13,0,0,1,1.47.9c1.91,2-1,5.27-.5,8,.37,2,2.45,3.16,4.4,3.7s4.09.76,5.68,2c3.1,2.43,1.78,8.37-2.06,9.26-2.07.48-4.19-.32-6.27-.76a18.84,18.84,0,0,0-12.42,1.68,6,6,0,0,1-3.19,1.05c-1.35-.13-2.35-1.25-3.33-2.2A17.1,17.1,0,0,0,151,243.67c-1.42.45-2.78,1.1-4.22,1.48-4.71,1.22-10-.59-14.43,1.37L131.69,236"/><path class="cls-11" d="M82.22,199.21c1.07.31,2.19-.49,3.3-.34,1.94.28,2.29,3,3.76,4.29,2.26,2,5.9,0,8.81.77a6.12,6.12,0,0,1,3.79,3.82,18.11,18.11,0,0,1,.91,5.49,1.33,1.33,0,0,1-1.37,1.71l-7.86,1.49a3.63,3.63,0,0,1-2.48-.12c-1-.56-1.19-1.82-1.62-2.86A6.12,6.12,0,0,0,85,209.84c-2.66-.5-6.08.55-7.65-1.65a3.86,3.86,0,0,1,.33-4.36A11.32,11.32,0,0,1,81.33,201l.58,1.53"/><path class="cls-11" d="M174.1,173a6.17,6.17,0,0,1,4.41-6.76c2.69-.68,5.78.53,8.21-.82,3.72-2.07,2.83-8.22,6.18-10.85a9.75,9.75,0,0,1,3.52-1.5c5.84-1.62,12.56-3.11,17.6.27a10.74,10.74,0,0,1,4.67,8.51c-1.73.87-3.75.88-5.64,1.32s-3.88,1.59-4.23,3.5c-.23,1.28.34,2.71-.27,3.87a4.06,4.06,0,0,1-2.51,1.65,42.92,42.92,0,0,1-12.7,2.11,5.28,5.28,0,0,0-2.85.55c-2.95,1.92.42,7.34-2,9.84-1.21,1.23-3.21,1.05-4.92.79l-10.11-1.57a1,1,0,0,1-.55-.2,1,1,0,0,1-.16-.91l1.3-9,0,.82"/><path class="cls-11" d="M219.1,175.83c-1.5,1.44.13,4.13,2.15,4.66s4.15-.15,6.22,0c3.44.26,6.7,3.62,5.83,7a25.42,25.42,0,0,0,5.75-.2,3.47,3.47,0,0,0,1.49-.48,3.74,3.74,0,0,0,1.17-1.87,12.77,12.77,0,0,0,1.16-5.17,4.36,4.36,0,0,0-2.89-4.06c-1.39-.36-3,.24-4.25-.41-2.71-1.37-1.09-6.27-3.59-8-1.41-1-3.33-.35-4.85.43a29.56,29.56,0,0,0-7.94,6"/><path class="cls-11" d="M228.76,198a15.58,15.58,0,0,1-.38,5.48c2.5-1,4.91,1.92,7.59,2,3.18.08,5-3.73,5-6.91a1.67,1.67,0,0,0-.46-1.31,1.77,1.77,0,0,0-1.11-.25l-8.45,0a1.09,1.09,0,0,0-.89.27c-.2.25.06.75.34.61"/><path class="cls-11" d="M211.21,237.08l-1,7.3a1.84,1.84,0,0,0,1.59,2.56l4.82,1.29a2,2,0,0,0,1.16.07,2.2,2.2,0,0,0,1-1,9.33,9.33,0,0,1,4.42-3.57,4,4,0,0,0,1.47-.76,3.32,3.32,0,0,0,.73-1.78l1.34-7a1.19,1.19,0,0,0-1.34-1.74l-4.86,0a2.24,2.24,0,0,0-1.86.6,8.16,8.16,0,0,0-.51,1.36c-.56,1.14-2.16,1.12-3.44,1.1s-2.94.63-2.78,1.89"/><path class="cls-11" d="M236.5,218.55a19.52,19.52,0,0,1-1.15,4.87,4.16,4.16,0,0,0-.41,1.76c.15,1.87,2.59,2.34,4.34,3,4.12,1.51,6.22,6.41,5.74,10.77s-3,8.22-5.79,11.61a2.58,2.58,0,0,0-.76,1.51c0,.94,1,1.54,1.8,2l2.86,1.4a3.83,3.83,0,0,0,2.81.56c.89-.3,1.41-1.19,2-2a12.57,12.57,0,0,1,12.44-5,3.89,3.89,0,0,0,2.42,0,3.35,3.35,0,0,0,1.24-1.31l4.78-7.4a2.73,2.73,0,0,0,.56-1.34,2.25,2.25,0,0,0-.43-1.24c-2.27-3.56-7.67-4.31-9.53-8.1-2.08-4.26,1.61-9,2.39-13.66a28.93,28.93,0,0,0-8.29-3.67c-3-.62-6.33-.19-8.57,1.86-1.18,1.08-2,2.55-3.38,3.37a4.55,4.55,0,0,1-3.62.44"/><path class="cls-11" d="M255.32,176.53a25.68,25.68,0,0,1-2.74,12,5.35,5.35,0,0,0-.83,2.51c.05,1.4,1.26,2.45,2.38,3.29,2.86,2.17,6.11,4.92,5.82,8.5a7.71,7.71,0,0,0-.13,2.82c.58,1.92,3.17,2.13,5.17,2,3.06-.17,6.3-.16,9,1.37s4.39,5.07,2.93,7.76c4.11,1.72,9-1,11.18-4.86s2.12-8.62,1.63-13.05A2.91,2.91,0,0,0,289,197c-.79-.75-2.08-.42-3.15-.66-2.73-.61-3-4.51-1.89-7.07s3.09-5.05,2.65-7.82-2.89-4.43-5.15-5.9c-.72-.47-1.78-.9-2.35-.26a3.75,3.75,0,0,0-.47,1.2c-.49,1.25-2.26,1.53-3.46.93a9.34,9.34,0,0,1-2.86-2.8,12.7,12.7,0,0,0-6.45-4.61c-5-1.27-10.54,2.89-10.75,8"/><path class="cls-11" d="M278.61,225.73a2.65,2.65,0,0,0-1.27,1.29,3.86,3.86,0,0,0,1,4,29.78,29.78,0,0,0,3.43,2.72,12.21,12.21,0,0,1,3.7,5.1,2.27,2.27,0,0,0,.49.89,2.09,2.09,0,0,0,1.33.4,16.8,16.8,0,0,0,6.39-.4c2-.67,3.9-2.36,4.1-4.5a8.38,8.38,0,0,0-.23-2.4c-.35-1.78-.9-3.82-2.57-4.52-1.26-.54-3-.22-3.77-1.35-.37-.55-.37-1.3-.79-1.81a2.78,2.78,0,0,0-2.24-.68q-3.95,0-7.89.15"/><path class="cls-11" d="M223.9,149.89a5.28,5.28,0,0,1,5.65-7.6c1.53.28,3.06,1.24,4.54.76,1.65-.53,2.31-2.54,3.75-3.49,2.08-1.37,4.85-.12,6.94,1.24,1.76,1.15,3.55,2.47,4.37,4.41a19.65,19.65,0,0,1-4.24,4.37,6.64,6.64,0,0,1-5.8,1,8.58,8.58,0,0,0-1.46-.51c-2.43-.4-3.66,2.79-5.6,4.3a4.67,4.67,0,0,1-7.42-4.72"/><path class="cls-11" d="M253.29,155.15c.23.17-.32.43-.42.16s.18-.53.43-.68c2.75-1.6,6.19-.4,9.3.23s7.26,0,8.09-3a13.36,13.36,0,0,1,.48-2.13c.73-1.59,3-1.86,4.58-1.18s2.85,2,4.32,2.92a15.26,15.26,0,0,0,7.88,2,4.6,4.6,0,0,1,2.31.42,4.17,4.17,0,0,1,1.5,2.24,69,69,0,0,1,3.75,14.66c-2.16,1.43-5.13.66-7.3-.78s-3.91-3.45-6.17-4.73a21.81,21.81,0,0,0-4.2-1.68c-5.55-1.77-11.42-3.39-17.12-2.19a23.45,23.45,0,0,1-4.9.9,4.29,4.29,0,0,1-4.08-2.34c-.56-1.47.11-3.11.78-4.54.27-.59,1.24-1.13,1.36-.49"/><path class="cls-11" d="M296.82,182.53c-.47,1.51-1.53,2.88-1.49,4.46.11,4,6.54,4.77,8,8.53.31.79.36,1.67.69,2.46,1.18,2.8,5,3.09,8,2.93l2.52-7.3a4.79,4.79,0,0,0,.37-1.74c-.09-2.21-3-3.45-3.19-5.65-.09-1.32.88-2.74.22-3.89-.5-.87-1.66-1-2.66-1.12l-8.4-.66c-.73-.06-1.81.29-1.56,1"/><path class="cls-11" d="M299.34,217.8c-1.91-.27-2.16-3.32-.64-4.51s3.71-.94,5.54-.32,3.64,1.53,5.57,1.46c3.74-.13,6.32-3.79,7.66-7.28s2.2-7.41,5-9.91a3.51,3.51,0,0,1,1.95-1c1.18-.11,2.2.73,3.09,1.51l6,5.31a4,4,0,0,1,1.8,3.33c.32,2.74.54,5.82-1.21,8-2.69,3.27-8.31,2.32-11.32,5.3-1.8,1.79-2.17,4.51-3.1,6.88s-3.17,4.74-5.62,4.06c-1.69-.47-2.66-2.2-4-3.37-1.74-1.56-4.1-2.15-6.21-3.15s-4.2-2.77-4.24-5.1"/><path class="cls-11" d="M59.1,194.56A16,16,0,0,0,68,185c.63-1.87,1.15-4.15,3-4.84a5.56,5.56,0,0,1,3.74.42l7.4,2.67c1.62.58,3.43,1.36,4,3,.71,2.18-1.42,4.32-3.6,5s-4.6.66-6.64,1.72a13.48,13.48,0,0,0-4.1,3.91L68.53,201a7.45,7.45,0,0,1-2.1,2,4.71,4.71,0,0,1-5.24-.86,8.76,8.76,0,0,1-2.49-5c-.14-.75.69-1.86,1-1.17"/><path class="cls-7" d="M94.26,201.75c-1.65-.82-1.09-3.56.51-4.46s3.57-.61,5.4-.42,3.92.14,5.17-1.22c1-1.12,1.29-2.95,2.65-3.63,1.71-.86,3.55.74,5.34,1.38,4.08,1.46,8-2.09,11.65-4.48a24.46,24.46,0,0,1,19.28-3.21,4.13,4.13,0,0,1,1.59.68c2.18,1.74-.25,5.36.64,8,.65,1.92,2.87,2.78,4.88,3s4.15.17,5.9,1.19c3.41,2,2.95,8-.73,9.45-2,.77-4.19.28-6.32.14a18.84,18.84,0,0,0-12.06,3.42,6,6,0,0,1-3,1.49c-1.36.07-2.51-.91-3.6-1.71a17.1,17.1,0,0,0-17.09-1.85c-1.35.65-2.59,1.48-4,2.06-4.49,1.88-10,.82-14.09,3.39l-2.18-10.27"/><path class="cls-7" d="M143.27,160.71l-3,8.26c3,2.94,6.3,6.05,10.46,6.29,2.3.13,4.57-.66,6.87-.53,4.47.24,8,3.79,10.82,7.26a2,2,0,0,0,1.17.86,1.94,1.94,0,0,0,1.2-.42l5-3.11a5,5,0,0,0,2.92-4.12L180.93,165c-5-.22-8.68-5.61-8.13-10.56.19-1.7.77-3.37.6-5.07s-1.47-3.49-3.17-3.35a8.85,8.85,0,0,0-2.61,1.09c-2.7,1.16-6.67.12-8,2.71a18.69,18.69,0,0,0-.74,2.66c-.88,2.52-3.94,3.46-6.59,3.67s-5.56.09-7.68,1.71"/><path class="cls-7" d="M192.8,171.31a19.52,19.52,0,0,1-.45,5,4.16,4.16,0,0,0-.16,1.8c.41,1.83,2.89,1.95,4.72,2.34,4.29.91,7.07,5.47,7.2,9.85s-1.82,8.56-4.1,12.31a2.58,2.58,0,0,0-.54,1.6c.12.93,1.17,1.39,2.06,1.68l3,1a3.83,3.83,0,0,0,2.86.16,4.51,4.51,0,0,0,1.66-2.21,12.57,12.57,0,0,1,11.61-6.69,3.89,3.89,0,0,0,2.4-.3,3.35,3.35,0,0,0,1-1.48l3.69-8a2.73,2.73,0,0,0,.36-1.4,2.25,2.25,0,0,0-.6-1.17c-2.75-3.2-8.2-3.18-10.58-6.68-2.67-3.92.32-9.12.44-13.86a28.93,28.93,0,0,0-8.73-2.46c-3-.2-6.29.71-8.22,3.05-1,1.23-1.63,2.81-2.87,3.82a4.55,4.55,0,0,1-3.52.95"/><path class="cls-11" d="M155.79,144l-1.5.12c.48,1.41-.85,2.83-.77,4.32.13,2.3,3.16,3,5.46,3l6.48.13a9.78,9.78,0,0,1,4.55.83c1.37.75,2.36,2.43,1.79,3.89a31,31,0,0,0,7.13-4.17,1.72,1.72,0,0,0,.73-.92,2.24,2.24,0,0,0-.43-1.38c-1.46-2.9.73-6.29.68-9.54a1.92,1.92,0,0,0-.31-1.17,2.19,2.19,0,0,0-1.65-.6,36.33,36.33,0,0,0-7.07.26,7.32,7.32,0,0,1-2.56.07,8,8,0,0,1-2.3-1.13,8.24,8.24,0,0,0-4.68-1.44,3.87,3.87,0,0,0-3.63,2.85c-.18,1,.15,2,.06,3s-.94,2.09-1.9,1.81"/><path class="cls-11" d="M186.46,199.35l-4.09,7.76c2.51,3.32,5.38,6.88,9.47,7.7,2.26.45,4.62,0,6.87.44,4.39.87,7.37,4.88,9.68,8.71a2,2,0,0,0,1,1,1.94,1.94,0,0,0,1.24-.24l5.36-2.38a5,5,0,0,0,3.47-3.67l3.62-9.74c-4.89-.92-7.8-6.78-6.55-11.6.43-1.65,1.24-3.23,1.31-4.93s-1-3.66-2.67-3.76a8.85,8.85,0,0,0-2.74.71c-2.83.77-6.62-.83-8.35,1.55a18.69,18.69,0,0,0-1.11,2.53c-1.23,2.37-4.39,2.87-7,2.7s-5.52-.69-7.85.6"/><path class="cls-11" d="M118.17,210.35A10.88,10.88,0,0,1,121,206a3,3,0,0,1,1.27-.79,3.53,3.53,0,0,1,2.26.48l12.28,5.71a1.63,1.63,0,0,1,.85.66c.26.55-.14,1.17-.55,1.62a16.22,16.22,0,0,1-10,5.14,14,14,0,0,0-3.6.62c-2.46,1-3.69,3.81-4,6.44-.15,1.36-.16,2.87-1.08,3.89a5.16,5.16,0,0,1-1.58,1.06c-2.81,1.4-5.85,2.59-9,2.43s-6.36-2-7.31-5c3-3.94,9.28-4.31,11.9-8.5,1-1.54,1.27-3.4,2.17-5s2.82-2.88,4.46-2.13"/><path class="cls-11" d="M151.4,202.75a8.85,8.85,0,0,0,9.53-3,18,18,0,0,1,1.86-2.45,7.12,7.12,0,0,1,5-1.49,7.57,7.57,0,0,1,5.4,1.87c1.36,1.41,1.58,4,0,5.19a6.76,6.76,0,0,1-2,.88c-2.77.93-5.21,2.64-7.79,4s-5.52,2.43-8.4,1.87-5.49-3.22-5.08-6.11"/><g class="cls-12"><path class="cls-13" d="M364.72,193.68c-3.72-4.86-11.66-3.87-16.69-7.58-10.28-7.6-9.56-20.07-20.14-27.93L326,156.74c-9.37-7-19-14.06-30.38-17.39a22.62,22.62,0,0,0-8.51-1.11c-6.7.64-11.3.48-16.11-4.24-4.28-4.19-7.42-1.47-13-4.27s-12.25-3.17-18.44-2a57.77,57.77,0,0,0-12,3.8c-2.31,1-4.67,2.06-7.19,2.15-4.8.19-8.87-3.12-13.35-4.77a29.85,29.85,0,0,0-13.06-1.24,75.94,75.94,0,0,1-19.08-1.57,13.51,13.51,0,0,0-4.55-.81,30,30,0,0,0-8,2.28c-7.49,4.32-13.84,3.76-22.57,4.43s-18.59,3.68-21.78,11.44c-.69,1.67-1,3.52-2.19,5-2.81,3.47-8.36,2.65-13,2.6-7.78-.1-13.17,2-20.27,5-1.11.47-4.27,1-4.92,2-1.09,1.62-.32,3.81-.9,5.66-1.39,4.44-8.14,3.6-12.78,5-6.27,1.92-6,9.85-12,11.69-3.6,1.09-6.69,5.17-6.67,8.82A52.81,52.81,0,0,0,47,203.66s0,0,0,0l.27.44c.15.26.31.52.47.78.32.53.65,1.05,1,1.57.54.84,1.1,1.68,1.68,2.51.4.59.82,1.18,1.25,1.76a4.12,4.12,0,0,0,.25.34q.69,1,1.41,1.89c.44.57.88,1.13,1.33,1.69l.54.65c.46.58,1,1.15,1.44,1.73s1.15,1.33,1.75,2,1,1.15,1.57,1.71l.59.63,1.53,1.57c.61.62,1.24,1.24,1.87,1.84s1,1,1.53,1.45c.33.31.66.62,1,.91.59.55,1.2,1.09,1.81,1.63C99,255.69,148.85,273.2,205.16,273.2c50.77,0,96.31-14.23,127.29-36.76h0c1-.7,1.92-1.41,2.86-2.13s1.86-1.45,2.77-2.18q2-1.65,4-3.36l1.28-1.14c.85-.76,1.68-1.53,2.5-2.31l1.22-1.18,1.29-1.28c.36-.37.72-.73,1.07-1.1.77-.8,1.53-1.61,2.26-2.42l1.1-1.23,1.06-1.22c.35-.42.71-.84,1.05-1.26s.69-.83,1-1.25q1.51-1.89,2.91-3.83l.79-1.11c1.55-2.22,3-4.48,4.32-6.78.24-.42.48-.84.71-1.26a.55.55,0,0,0,0-.08c.25-.45.5-.9.73-1.36.48-.9.94-1.82,1.38-2.73A16.89,16.89,0,0,0,364.72,193.68Zm-46.45,40.64c-15.71,4.18-30,11.09-44.77,18.28-5.12,2.49-12.18,3.32-17.65,5-18,5.6-37.38,1.86-56.25.51-14-1-29.05-.44-43.08,0s-25.42-5-38.48-10S96.92,235.48,89,221c-2-3.27-.82-7.68,1.67-10.57s6-4.61,9.47-6.25l23.29-11.09c4.14-2,8.4-4,11.42-7.48,5.35-6.12,6.86-16.43,14.64-18.78,3-.9,6.16-.3,9.26-.12,13.5.77,26.69-6.58,40.09-4.78,9.27,1.25,18.13,6.83,27.33,5.17,6.48-1.17,13-5.85,19-3.33,2.66,1.1,4.62,3.43,7.15,4.79,6.95,3.73,17-.24,22.56,5.35,2.47,2.49,3.2,6.18,4.83,9.3,6.67,12.75,26.35,13.19,34.08,25.34,3.1,4.88,3.72,10.89,5.69,16.34.44,1.21.94,2.38,1.49,3.53A4.21,4.21,0,0,1,318.27,234.32Z"/></g><path class="cls-14" d="M374.16,165.75A69.75,69.75,0,0,1,373,178.53a74.18,74.18,0,0,1-6.18,18.69c-.44.91-.9,1.83-1.38,2.73-.23.46-.48.91-.73,1.36a.55.55,0,0,1,0,.08c-.23.42-.47.84-.71,1.26-1.32,2.3-2.77,4.56-4.32,6.78l-.79,1.11q-1.39,1.94-2.91,3.83c-.33.42-.67.83-1,1.25s-.7.84-1.05,1.26l-1.06,1.22-1.1,1.23c-.73.81-1.49,1.62-2.26,2.42-.35.37-.71.73-1.07,1.1l-1.29,1.28-1.22,1.18c-.82.78-1.65,1.55-2.5,2.31l-1.28,1.14c-1.3,1.15-2.63,2.26-4,3.36-.91.73-1.84,1.46-2.77,2.18s-1.89,1.43-2.85,2.14c-31,22.53-76.52,36.76-127.29,36.76-56.31,0-106.18-17.51-136.89-44.43-.61-.54-1.22-1.08-1.81-1.63-.33-.29-.66-.6-1-.91-.52-.47-1-1-1.53-1.45s-1.26-1.22-1.87-1.84l-1.53-1.57-.59-.63c-.53-.56-1.06-1.13-1.57-1.71s-1.18-1.32-1.75-2-1-1.15-1.44-1.73l-.54-.65c-.45-.56-.89-1.12-1.33-1.69s-.95-1.25-1.41-1.89a4.12,4.12,0,0,1-.25-.34c-.43-.58-.85-1.17-1.25-1.76-.58-.83-1.14-1.67-1.68-2.51-.34-.52-.67-1-1-1.57-.16-.26-.32-.52-.47-.78s-.19-.31-.28-.46a79.68,79.68,0,0,1-7.62-17,70,70,0,0,1-3.2-20.92c0-59.34,75.65-107.45,169-107.45S374.16,106.41,374.16,165.75Z"/></g></g></svg>