<svg id="Layer_1" data-name="Layer 1" xmlns="http://www.w3.org/2000/svg" xmlns:xlink="http://www.w3.org/1999/xlink" viewBox="0 0 305 579"><defs><style>.cls-1{fill:#303030;}.cls-2{fill:#999;}.cls-3{fill:#ccc;}.cls-4{fill:#404040;}.cls-5{fill:url(#radial-gradient);}.cls-6{fill:#fff;}</style><radialGradient id="radial-gradient" cx="235.31" cy="98.69" r="20.87" gradientUnits="userSpaceOnUse"><stop offset="0" stop-color="#a4bdbe" stop-opacity="0.8"/><stop offset="0.17" stop-color="#a4bdbe" stop-opacity="0.55"/><stop offset="0.35" stop-color="#a4bdbe" stop-opacity="0.32"/><stop offset="0.52" stop-color="#a4bdbe" stop-opacity="0.14"/><stop offset="0.66" stop-color="#a4bdbe" stop-opacity="0.04"/><stop offset="0.75" stop-color="#a4bdbe" stop-opacity="0"/></radialGradient></defs><title>Interactive-Underpowered Assets</title><path class="cls-1" d="M282,110.45V468.56a34.31,34.31,0,0,1-34.2,34.21H57.19A34.31,34.31,0,0,1,23,468.56V110.45A34.33,34.33,0,0,1,52.07,76.63a33.27,33.27,0,0,1,5.12-.39H247.82a33.14,33.14,0,0,1,5.11.39A34.32,34.32,0,0,1,282,110.45Z"/><rect class="cls-2" x="31.31" y="443.51" width="242.38" height="51.04" rx="24.24" ry="24.24"/><rect class="cls-3" x="31.31" y="443.51" width="242.38" height="46.04" rx="23.02" ry="23.02"/><rect class="cls-1" x="51.78" y="457.71" width="35.27" height="17.64" rx="4.05" ry="4.05"/><rect class="cls-3" x="53.56" y="459.63" width="31.71" height="9.11" rx="2.76" ry="2.76"/><rect class="cls-1" x="100.34" y="457.71" width="35.27" height="17.64" rx="4.05" ry="4.05"/><rect class="cls-3" x="102.12" y="459.63" width="31.71" height="9.11" rx="2.76" ry="2.76"/><circle class="cls-1" cx="241.32" cy="466.53" r="13.25"/><circle class="cls-1" cx="160.57" cy="468.75" r="2.22" transform="translate(-33.73 12.95) rotate(-4.18)"/><circle class="cls-1" cx="170.85" cy="468.75" r="2.22" transform="translate(-33.71 13.7) rotate(-4.18)"/><circle class="cls-1" cx="181.13" cy="468.75" r="2.22" transform="translate(-33.68 14.45) rotate(-4.18)"/><circle class="cls-1" cx="191.42" cy="468.75" r="2.22" transform="translate(-33.65 15.2) rotate(-4.18)"/><circle class="cls-1" cx="201.7" cy="468.75" r="2.22" transform="translate(-33.62 15.95) rotate(-4.18)"/><path class="cls-4" d="M252.93,76.63V443.52H52.07V76.63a33.27,33.27,0,0,1,5.12-.39H247.82A33.14,33.14,0,0,1,252.93,76.63Z"/><circle class="cls-5" cx="235.31" cy="98.69" r="20.87"/><circle class="cls-6" cx="235.31" cy="98.69" r="6.54"/><path class="cls-1" d="M186.29,248.66l-31.08.72a2,2,0,0,1-1.94-2.44l11.63-45.76L118.71,271.1l31.08-.72a2,2,0,0,1,1.94,2.44L140.1,318.57Z"/></svg>