<svg xmlns="http://www.w3.org/2000/svg" xmlns:xlink="http://www.w3.org/1999/xlink" viewBox="0 0 1440 248"><defs><style>.cls-1{isolation:isolate;}.cls-2{fill:none;stroke:#303030;stroke-miterlimit:10;stroke-width:10px;}.cls-3{fill:url(#linear-gradient);}.cls-4{font-size:65.85px;fill:#303030;font-family:SFProDisplay-Thin, SF Pro Display;letter-spacing:-0.01em;}.cls-5{letter-spacing:0.02em;}.cls-6{letter-spacing:-0.06em;}.cls-7{opacity:0.8;}.cls-8{fill:#fffbef;opacity:0.7;mix-blend-mode:soft-light;}</style><linearGradient id="linear-gradient" x1="60.06" y1="85.07" x2="985.88" y2="85.07" gradientUnits="userSpaceOnUse"><stop offset="0" stop-color="#021c33"/><stop offset="0.11" stop-color="#0d213e"/><stop offset="0.48" stop-color="#2e315f"/><stop offset="0.79" stop-color="#423b73"/><stop offset="1" stop-color="#493e7a"/></linearGradient></defs><title>Interactive-Underpowered Assets</title><g class="cls-1"><g id="Layer_1" data-name="Layer 1"><rect class="cls-2" x="38.06" y="26.53" width="1363.87" height="117.07" rx="58.54" ry="58.54"/><path class="cls-3" d="M985.88,85.07a40.25,40.25,0,0,1-40.13,40.13H100.19c-.67,0-1.33,0-2,0a40.13,40.13,0,0,1,2-80.21H945.75a40,40,0,0,1,11.16,1.59,40.42,40.42,0,0,1,23.92,19.11A39.87,39.87,0,0,1,985.88,85.07Z"/><text class="cls-4" transform="translate(585.43 217.74) scale(1.03 1)">L<tspan class="cls-5" x="32" y="0">oading..</tspan><tspan class="cls-6" x="251.62" y="0">.</tspan></text><g class="cls-7"><path class="cls-8" d="M157.74,44.94,98.2,125.15a40,40,0,0,1-28-13.55l49.48-66.66Z"/><polygon class="cls-8" points="222.24 44.94 162.67 125.2 124.57 125.2 184.14 44.94 222.24 44.94"/><polygon class="cls-8" points="286.73 44.94 227.16 125.2 189.06 125.2 248.63 44.94 286.73 44.94"/><polygon class="cls-8" points="351.23 44.94 291.66 125.2 253.56 125.2 313.13 44.94 351.23 44.94"/><polygon class="cls-8" points="415.73 44.94 356.16 125.2 318.06 125.2 377.63 44.94 415.73 44.94"/><polygon class="cls-8" points="480.22 44.94 420.65 125.2 382.56 125.2 442.13 44.94 480.22 44.94"/><polygon class="cls-8" points="544.72 44.94 485.15 125.2 447.05 125.2 506.62 44.94 544.72 44.94"/><polygon class="cls-8" points="609.22 44.94 549.65 125.2 511.55 125.2 571.12 44.94 609.22 44.94"/><polygon class="cls-8" points="673.71 44.94 614.14 125.2 576.05 125.2 635.62 44.94 673.71 44.94"/><polygon class="cls-8" points="738.21 44.94 678.64 125.2 640.54 125.2 700.11 44.94 738.21 44.94"/><polygon class="cls-8" points="802.71 44.94 743.14 125.2 705.04 125.2 764.61 44.94 802.71 44.94"/><polygon class="cls-8" points="867.21 44.94 807.64 125.2 769.54 125.2 829.11 44.94 867.21 44.94"/><polygon class="cls-8" points="931.7 44.94 872.13 125.2 834.03 125.2 893.6 44.94 931.7 44.94"/><path class="cls-8" d="M980.83,65.64l-44.2,59.56h-38.1l58.38-78.67A40.42,40.42,0,0,1,980.83,65.64Z"/></g></g></g></svg>