<svg id="Layer_1" data-name="Layer 1" xmlns="http://www.w3.org/2000/svg" xmlns:xlink="http://www.w3.org/1999/xlink" viewBox="0 0 321 458"><defs><style>.cls-1{fill:url(#radial-gradient);}.cls-2{fill:url(#radial-gradient-2);}.cls-3{fill:url(#linear-gradient);}.cls-4{fill:#b3b3b3;}.cls-5{fill:url(#linear-gradient-2);}.cls-6{fill:#a4bdbe;}.cls-7{fill:#e5e5e5;}.cls-8{font-size:6.47px;font-family:SFProDisplay-Medium, SF Pro Display;}.cls-23,.cls-9{fill:none;stroke-miterlimit:10;}.cls-9{stroke:#000;stroke-width:0.25px;}.cls-10,.cls-22{fill:#fff;}.cls-11{fill:#303030;}.cls-12,.cls-22{font-size:6.42px;font-family:SFProDisplay-Regular, SF Pro Display;}.cls-13{letter-spacing:-0.01em;}.cls-14{letter-spacing:-0.01em;}.cls-15{letter-spacing:-0.05em;}.cls-16{letter-spacing:0em;}.cls-17{letter-spacing:-0.05em;}.cls-18{letter-spacing:-0.02em;}.cls-19{letter-spacing:-0.02em;}.cls-20{letter-spacing:-0.01em;}.cls-21{fill:#32558b;}.cls-23{stroke:#e5e5e5;}.cls-24{fill:#999;}</style><radialGradient id="radial-gradient" cx="80.3" cy="494.95" r="81.34" gradientTransform="translate(0 -362.15) scale(1 1.12)" gradientUnits="userSpaceOnUse"><stop offset="0" stop-color="#a4bdbe" stop-opacity="0.9"/><stop offset="0.08" stop-color="#a4bdbe" stop-opacity="0.75"/><stop offset="0.23" stop-color="#a4bdbe" stop-opacity="0.52"/><stop offset="0.36" stop-color="#a4bdbe" stop-opacity="0.34"/><stop offset="0.47" stop-color="#a4bdbe" stop-opacity="0.24"/><stop offset="0.54" stop-color="#a4bdbe" stop-opacity="0.2"/><stop offset="0.69" stop-color="#a4bdbe" stop-opacity="0.18"/><stop offset="0.84" stop-color="#a4bdbe" stop-opacity="0.12"/><stop offset="0.99" stop-color="#a4bdbe" stop-opacity="0.01"/><stop offset="1" stop-color="#a4bdbe" stop-opacity="0"/></radialGradient><radialGradient id="radial-gradient-2" cx="4540.24" cy="494.95" r="81.34" gradientTransform="matrix(-1, 0, 0, 1.12, 4781.84, -362.15)" xlink:href="#radial-gradient"/><linearGradient id="linear-gradient" x1="160.5" y1="111.98" x2="160.5" y2="280.57" gradientUnits="userSpaceOnUse"><stop offset="0" stop-color="#ccc"/><stop offset="0.23" stop-color="#c8c8c8"/><stop offset="0.45" stop-color="#bcbcbc"/><stop offset="0.68" stop-color="#a9a9a9"/><stop offset="0.9" stop-color="#8d8d8d"/><stop offset="0.98" stop-color="gray"/></linearGradient><linearGradient id="linear-gradient-2" y1="344.31" y2="270.51" xlink:href="#linear-gradient"/></defs><title>Interactive-Underpowered Assets</title><polygon class="cls-1" points="160.6 128.15 0 98.65 0 282.62 160.6 255.35 160.6 128.15"/><polygon class="cls-2" points="161.3 128.15 321.9 98.65 321.9 282.62 161.3 255.35 161.3 128.15"/><rect class="cls-3" x="34.65" y="111.98" width="251.7" height="168.59" rx="10.61" ry="10.61"/><path class="cls-4" d="M318,335.42v5.69a13.63,13.63,0,0,1-13.63,13.64H16.65A13.63,13.63,0,0,1,3,341.11v-5.69a8.86,8.86,0,0,1,.76-3.59H317.21A8.86,8.86,0,0,1,318,335.42Z"/><path class="cls-5" d="M318,335.42a8.89,8.89,0,0,1-8.89,8.89H11.91a8.87,8.87,0,0,1-8.13-12.48c.06-.13.12-.27.19-.4l30.67-60.93h251.7L317,331.43c.07.13.13.27.19.4A8.86,8.86,0,0,1,318,335.42Z"/><rect class="cls-6" x="47.87" y="129.03" width="225.27" height="134.5"/><path class="cls-7" d="M49.81,275H271.19a3,3,0,0,1,2.71,1.78L288.26,310a3,3,0,0,1-2.71,4.13H35.48A3,3,0,0,1,32.77,310L47.1,276.82A3,3,0,0,1,49.81,275Z"/><path class="cls-7" d="M127,320H194a2,2,0,0,1,1.9,1.36l3.9,11.49a2,2,0,0,1-1.9,2.64H123.09a2,2,0,0,1-1.9-2.64l3.89-11.49A2,2,0,0,1,127,320Z"/><rect class="cls-7" x="47.87" y="129.03" width="225.27" height="11.3"/><text class="cls-8" transform="translate(231.07 136.99)">Mon 3:00PM</text><rect class="cls-9" x="69.13" y="133.53" width="9.05" height="4.92" rx="1" ry="1"/><path d="M78.55,134.88v2.21a1.11,1.11,0,0,0,0-2.21Z"/><path d="M76,134v4H70.08a.51.51,0,0,1-.49-.53v-2.89a.51.51,0,0,1,.49-.53Z"/><path class="cls-10" d="M260.67,153v98.34a6.35,6.35,0,0,1-6.34,6.34H66.68a6.35,6.35,0,0,1-6.34-6.34V153a6.34,6.34,0,0,1,6.34-6.33H254.32A6.34,6.34,0,0,1,260.67,153Z"/><rect class="cls-11" x="63.66" y="157.59" width="148.07" height="84.62"/><rect class="cls-11" x="63.66" y="243.41" width="148.07" height="9.14"/><rect class="cls-11" x="213.52" y="157.59" width="43.81" height="23.04"/><rect class="cls-11" x="213.52" y="181.56" width="43.81" height="23.04"/><rect class="cls-11" x="213.52" y="205.54" width="43.81" height="23.04"/><rect class="cls-11" x="213.52" y="229.51" width="43.81" height="23.04"/><path class="cls-7" d="M260.67,153v1.9H60.33V153a6.34,6.34,0,0,1,6.34-6.33H254.32A6.34,6.34,0,0,1,260.67,153Z"/><path class="cls-10" d="M238.32,182.56V219.5a5.18,5.18,0,0,1-5.18,5.17H87.87a5.18,5.18,0,0,1-5.18-5.17V182.56a5.18,5.18,0,0,1,5.18-5.17H233.13A5.18,5.18,0,0,1,238.32,182.56Z"/><text class="cls-12" transform="translate(91.12 197.64)">The meeting has s<tspan class="cls-13" x="48.97" y="0">t</tspan><tspan x="50.84" y="0">ar</tspan><tspan class="cls-14" x="56.04" y="0">t</tspan><tspan x="57.88" y="0">ed</tspan><tspan class="cls-15" x="64.72" y="0">.</tspan><tspan class="cls-16" x="65.78" y="0"> </tspan><tspan class="cls-17" x="67.1" y="0">W</tspan><tspan x="72.68" y="0">ould </tspan><tspan class="cls-18" x="85.65" y="0">y</tspan><tspan x="88.65" y="0">ou li</tspan><tspan class="cls-19" x="99.38" y="0">k</tspan><tspan x="102.34" y="0">e </tspan><tspan class="cls-20" x="106.94" y="0">t</tspan><tspan x="108.78" y="0">o join now?</tspan></text><rect class="cls-21" x="146.77" y="205.96" width="41.49" height="10.57" rx="2.4" ry="2.4"/><text class="cls-22" transform="translate(150.18 213.21)">Join Meeting</text><rect class="cls-7" x="194.06" y="205.96" width="35.82" height="10.57" rx="2.23" ry="2.23"/><text class="cls-12" transform="translate(202.56 213.21)">Cancel</text><path class="cls-7" d="M238.32,182.56V186H82.68v-3.46a5.18,5.18,0,0,1,5.18-5.17H233.13A5.18,5.18,0,0,1,238.32,182.56Z"/><path class="cls-11" d="M52.46,277.29H268.55a2.88,2.88,0,0,1,2.62,1.58L284,308.19a2.64,2.64,0,0,1-2.62,3.65H39.63A2.64,2.64,0,0,1,37,308.19l12.83-29.32A2.88,2.88,0,0,1,52.46,277.29Z"/><path d="M65.18,133.68a9.83,9.83,0,0,0-9.69,0c-.28.15,0,.59.25.43a9.31,9.31,0,0,1,9.19,0c.28.15.53-.28.25-.43Z"/><path d="M64,134.83a8.85,8.85,0,0,0-7.23,0c-.29.12-.17.6.13.48a8.55,8.55,0,0,1,7,0c.3.12.43-.36.13-.48Z"/><path d="M62.49,136.14a9.2,9.2,0,0,0-2.15-.41,9.2,9.2,0,0,0-2.15.41c-.31.08-.18.56.13.48a9,9,0,0,1,2-.39,8.36,8.36,0,0,1,2,.39c.31.08.45-.41.13-.48Z"/><path d="M59.77,137.78l.39.4a.25.25,0,0,0,.35,0l.39-.4a.25.25,0,0,0-.18-.43h-.79c-.32,0-.32.51,0,.5h.79l-.18-.43-.39.4h.35l-.39-.4A.25.25,0,0,0,59.77,137.78Z"/><line class="cls-23" x1="47.81" y1="313.06" x2="62.81" y2="275.99"/><line class="cls-23" x1="61.55" y1="313.06" x2="76.55" y2="275.99"/><line class="cls-23" x1="75.29" y1="313.06" x2="89.27" y2="275.99"/><line class="cls-23" x1="89.03" y1="313.06" x2="101.99" y2="275.99"/><line class="cls-23" x1="102.78" y1="313.06" x2="114.71" y2="275.99"/><line class="cls-23" x1="117.78" y1="313.06" x2="128.68" y2="275.99"/><line class="cls-23" x1="136.36" y1="302.75" x2="142.15" y2="276.02"/><line class="cls-23" x1="152.92" y1="302.75" x2="154.62" y2="276.02"/><circle class="cls-24" cx="67.75" cy="151.58" r="1.84"/><circle class="cls-24" cx="73.18" cy="151.58" r="1.84"/><circle class="cls-24" cx="78.61" cy="151.58" r="1.84"/><circle class="cls-24" cx="88.15" cy="182.36" r="1.84"/><line class="cls-23" x1="273.83" y1="313.06" x2="257.81" y2="275.99"/><line class="cls-23" x1="261.12" y1="313.06" x2="245.09" y2="275.99"/><line class="cls-23" x1="248.4" y1="313.06" x2="232.37" y2="275.99"/><line class="cls-23" x1="234.66" y1="313.06" x2="219.65" y2="275.99"/><line class="cls-23" x1="220.91" y1="313.06" x2="206.94" y2="275.99"/><line class="cls-23" x1="205.99" y1="313.1" x2="194.06" y2="276.03"/><line class="cls-23" x1="187.13" y1="302.75" x2="180.32" y2="276.02"/><line class="cls-23" x1="170.07" y1="302.72" x2="167.35" y2="275.99"/><line class="cls-23" x1="45.26" y1="282.62" x2="273.9" y2="282.62"/><line class="cls-23" x1="41.48" y1="292.48" x2="278.16" y2="292.48"/><line class="cls-23" x1="35.89" y1="302.75" x2="283.27" y2="302.75"/></svg>