<svg id="Layer_1" data-name="Layer 1" xmlns="http://www.w3.org/2000/svg" xmlns:xlink="http://www.w3.org/1999/xlink" viewBox="0 0 321 458"><defs><style>.cls-1{opacity:0.9;}.cls-2{fill:url(#radial-gradient);}.cls-3{fill:url(#radial-gradient-2);}.cls-4{fill:url(#linear-gradient);}.cls-5{fill:#404040;}.cls-6{fill:url(#linear-gradient-2);}.cls-7{fill:#153460;}.cls-8{fill:#e5e5e5;}.cls-9{font-size:6.47px;font-family:SFProDisplay-Medium, SF Pro Display;}.cls-10,.cls-25{fill:none;stroke-miterlimit:10;}.cls-10{stroke:#000;stroke-width:0.25px;}.cls-11,.cls-23{fill:#fff;}.cls-12{fill:#303030;}.cls-13,.cls-23{font-size:6.42px;font-family:SFProDisplay-Regular, SF Pro Display;}.cls-14{letter-spacing:-0.01em;}.cls-15{letter-spacing:-0.01em;}.cls-16{letter-spacing:-0.05em;}.cls-17{letter-spacing:0em;}.cls-18{letter-spacing:-0.05em;}.cls-19{letter-spacing:-0.02em;}.cls-20{letter-spacing:-0.02em;}.cls-21{letter-spacing:-0.01em;}.cls-22{fill:#32558b;}.cls-24{fill:#b3b3b3;}.cls-25{stroke:#404040;}.cls-26{fill:#999;}</style><radialGradient id="radial-gradient" cx="80.3" cy="601.9" r="81.34" gradientTransform="translate(0 -502.92) scale(1 1.16)" gradientUnits="userSpaceOnUse"><stop offset="0" stop-color="#a4bdbe" stop-opacity="0.9"/><stop offset="0.08" stop-color="#a4bdbe" stop-opacity="0.75"/><stop offset="0.23" stop-color="#a4bdbe" stop-opacity="0.52"/><stop offset="0.36" stop-color="#a4bdbe" stop-opacity="0.34"/><stop offset="0.47" stop-color="#a4bdbe" stop-opacity="0.24"/><stop offset="0.54" stop-color="#a4bdbe" stop-opacity="0.2"/><stop offset="0.69" stop-color="#a4bdbe" stop-opacity="0.18"/><stop offset="0.84" stop-color="#a4bdbe" stop-opacity="0.12"/><stop offset="0.99" stop-color="#a4bdbe" stop-opacity="0.01"/><stop offset="1" stop-color="#a4bdbe" stop-opacity="0"/></radialGradient><radialGradient id="radial-gradient-2" cx="3513.57" cy="601.9" r="81.34" gradientTransform="matrix(-1, 0, 0, 1.16, 3755.16, -502.92)" xlink:href="#radial-gradient"/><linearGradient id="linear-gradient" x1="160.42" y1="280.57" x2="160.42" y2="111.98" gradientUnits="userSpaceOnUse"><stop offset="0.02" stop-color="#303030"/><stop offset="0.2" stop-color="#434343"/><stop offset="0.46" stop-color="#565656"/><stop offset="0.73" stop-color="#626262"/><stop offset="1" stop-color="#666"/></linearGradient><linearGradient id="linear-gradient-2" x1="160.42" y1="270.51" x2="160.42" y2="344.31" xlink:href="#linear-gradient"/></defs><title>Interactive-Underpowered Assets</title><g class="cls-1"><polygon class="cls-2" points="160.6 129.24 0 98.65 0 289.38 160.6 261.11 160.6 129.24"/><polygon class="cls-3" points="161.3 129.24 321.9 98.65 321.9 289.38 161.3 261.11 161.3 129.24"/></g><rect class="cls-4" x="34.57" y="111.98" width="251.7" height="168.59" rx="10.61" ry="10.61"/><path class="cls-5" d="M317.89,335.42v5.69a13.63,13.63,0,0,1-13.63,13.64H16.57A13.63,13.63,0,0,1,2.94,341.11v-5.69a8.86,8.86,0,0,1,.76-3.59H317.13A8.86,8.86,0,0,1,317.89,335.42Z"/><path class="cls-6" d="M317.89,335.42a8.89,8.89,0,0,1-8.89,8.89H11.83a8.87,8.87,0,0,1-8.13-12.48c.06-.13.12-.27.19-.4l30.67-60.93h251.7l30.67,60.93c.07.13.13.27.19.4A8.86,8.86,0,0,1,317.89,335.42Z"/><rect class="cls-7" x="47.78" y="129.03" width="225.27" height="134.5"/><path class="cls-5" d="M49.73,275H271.11a3,3,0,0,1,2.71,1.78L288.18,310a3,3,0,0,1-2.71,4.13H35.4A3,3,0,0,1,32.69,310L47,276.82A3,3,0,0,1,49.73,275Z"/><path class="cls-5" d="M126.9,320H194a2,2,0,0,1,1.9,1.36l3.9,11.49a2,2,0,0,1-1.9,2.64H123a2,2,0,0,1-1.9-2.64L125,321.38A2,2,0,0,1,126.9,320Z"/><rect class="cls-8" x="47.78" y="129.03" width="225.27" height="11.3"/><text class="cls-9" transform="translate(230.99 136.99)">Mon 2:45PM</text><rect class="cls-10" x="69.05" y="133.53" width="9.05" height="4.92" rx="1" ry="1"/><path d="M78.46,134.88v2.21a1.11,1.11,0,0,0,0-2.21Z"/><path d="M72.22,134v4H69.71c-.11,0-.21-.24-.21-.53v-2.89c0-.29.09-.53.21-.53Z"/><path class="cls-11" d="M260.58,153v98.34a6.35,6.35,0,0,1-6.34,6.34H66.6a6.35,6.35,0,0,1-6.34-6.34V153a6.34,6.34,0,0,1,6.34-6.33H254.24A6.34,6.34,0,0,1,260.58,153Z"/><rect class="cls-12" x="63.58" y="157.59" width="148.07" height="84.62"/><rect class="cls-12" x="63.58" y="243.41" width="148.07" height="9.14"/><rect class="cls-12" x="213.44" y="157.59" width="43.81" height="23.04"/><rect class="cls-12" x="213.44" y="181.56" width="43.81" height="23.04"/><rect class="cls-12" x="213.44" y="205.54" width="43.81" height="23.04"/><rect class="cls-12" x="213.44" y="229.51" width="43.81" height="23.04"/><path class="cls-8" d="M260.58,153v1.9H60.25V153a6.34,6.34,0,0,1,6.34-6.33H254.24A6.34,6.34,0,0,1,260.58,153Z"/><path class="cls-11" d="M238.24,182.56V219.5a5.18,5.18,0,0,1-5.18,5.17H87.78a5.18,5.18,0,0,1-5.18-5.17V182.56a5.18,5.18,0,0,1,5.18-5.17H233.05A5.18,5.18,0,0,1,238.24,182.56Z"/><text class="cls-13" transform="translate(91.04 197.64)">The meeting has s<tspan class="cls-14" x="48.97" y="0">t</tspan><tspan x="50.84" y="0">ar</tspan><tspan class="cls-15" x="56.04" y="0">t</tspan><tspan x="57.88" y="0">ed</tspan><tspan class="cls-16" x="64.72" y="0">.</tspan><tspan class="cls-17" x="65.78" y="0"> </tspan><tspan class="cls-18" x="67.1" y="0">W</tspan><tspan x="72.68" y="0">ould </tspan><tspan class="cls-19" x="85.65" y="0">y</tspan><tspan x="88.65" y="0">ou li</tspan><tspan class="cls-20" x="99.38" y="0">k</tspan><tspan x="102.34" y="0">e </tspan><tspan class="cls-21" x="106.94" y="0">t</tspan><tspan x="108.78" y="0">o join now?</tspan></text><rect class="cls-22" x="146.68" y="205.96" width="41.49" height="10.57" rx="2.4" ry="2.4"/><text class="cls-23" transform="translate(150.09 213.21)">Join Meeting</text><rect class="cls-8" x="193.98" y="205.96" width="35.82" height="10.57" rx="2.23" ry="2.23"/><text class="cls-13" transform="translate(202.48 213.21)">Cancel</text><path class="cls-8" d="M238.24,182.56V186H82.6v-3.46a5.18,5.18,0,0,1,5.18-5.17H233.05A5.18,5.18,0,0,1,238.24,182.56Z"/><path class="cls-12" d="M52.38,277.29H268.46a2.88,2.88,0,0,1,2.62,1.58l12.86,29.32a2.64,2.64,0,0,1-2.62,3.65H39.55a2.64,2.64,0,0,1-2.62-3.65l12.83-29.32A2.88,2.88,0,0,1,52.38,277.29Z"/><path class="cls-24" d="M65.1,133.68a9.83,9.83,0,0,0-9.69,0c-.28.15,0,.59.25.43a9.31,9.31,0,0,1,9.19,0c.28.15.53-.28.25-.43Z"/><path class="cls-24" d="M63.87,134.83a8.85,8.85,0,0,0-7.23,0c-.29.12-.17.6.13.48a8.55,8.55,0,0,1,7,0c.3.12.43-.36.13-.48Z"/><path d="M62.41,136.14a9.2,9.2,0,0,0-2.15-.41,9.2,9.2,0,0,0-2.15.41c-.31.08-.18.56.13.48a9,9,0,0,1,2-.39,8.36,8.36,0,0,1,2,.39c.31.08.45-.41.13-.48Z"/><path d="M59.68,137.78l.39.4a.25.25,0,0,0,.35,0l.39-.4a.25.25,0,0,0-.18-.43h-.79c-.32,0-.32.51,0,.5h.79l-.18-.43-.39.4h.35l-.39-.4A.25.25,0,0,0,59.68,137.78Z"/><line class="cls-25" x1="47.73" y1="313.06" x2="62.73" y2="275.99"/><line class="cls-25" x1="61.47" y1="313.06" x2="76.47" y2="275.99"/><line class="cls-25" x1="75.21" y1="313.06" x2="89.19" y2="275.99"/><line class="cls-25" x1="88.95" y1="313.06" x2="101.91" y2="275.99"/><line class="cls-25" x1="102.69" y1="313.06" x2="114.62" y2="275.99"/><line class="cls-25" x1="117.69" y1="313.06" x2="128.6" y2="275.99"/><line class="cls-25" x1="136.28" y1="302.75" x2="142.07" y2="276.02"/><line class="cls-25" x1="152.84" y1="302.75" x2="154.54" y2="276.02"/><circle class="cls-26" cx="67.67" cy="151.58" r="1.84"/><circle class="cls-26" cx="73.1" cy="151.58" r="1.84"/><circle class="cls-26" cx="78.53" cy="151.58" r="1.84"/><circle class="cls-26" cx="88.07" cy="182.36" r="1.84"/><line class="cls-25" x1="273.75" y1="313.06" x2="257.73" y2="275.99"/><line class="cls-25" x1="261.03" y1="313.06" x2="245.01" y2="275.99"/><line class="cls-25" x1="248.32" y1="313.06" x2="232.29" y2="275.99"/><line class="cls-25" x1="234.57" y1="313.06" x2="219.57" y2="275.99"/><line class="cls-25" x1="220.83" y1="313.06" x2="206.85" y2="275.99"/><line class="cls-25" x1="205.91" y1="313.1" x2="193.98" y2="276.03"/><line class="cls-25" x1="187.05" y1="302.75" x2="180.24" y2="276.02"/><line class="cls-25" x1="169.99" y1="302.72" x2="167.27" y2="275.99"/><line class="cls-25" x1="45.18" y1="282.62" x2="273.82" y2="282.62"/><line class="cls-25" x1="41.39" y1="292.48" x2="278.08" y2="292.48"/><line class="cls-25" x1="35.81" y1="302.75" x2="283.19" y2="302.75"/></svg>