<svg id="Layer_1" data-name="Layer 1" xmlns="http://www.w3.org/2000/svg" xmlns:xlink="http://www.w3.org/1999/xlink" viewBox="0 0 321 458"><defs><style>.cls-1{opacity:0.7;}.cls-2{fill:url(#radial-gradient);}.cls-3{fill:url(#radial-gradient-2);}.cls-4{fill:url(#linear-gradient);}.cls-5{fill:#404040;}.cls-6{fill:url(#linear-gradient-2);}.cls-7{fill:#153460;}.cls-8{fill:#e5e5e5;}.cls-9{font-size:6.47px;font-family:SFProDisplay-Medium, SF Pro Display;}.cls-10,.cls-16{fill:none;stroke-miterlimit:10;}.cls-10{stroke:#000;stroke-width:0.25px;}.cls-11,.cls-14{fill:#fff;}.cls-12,.cls-26{fill:#303030;}.cls-13{fill:#32558b;}.cls-14,.cls-18{font-size:6.42px;}.cls-14,.cls-18,.cls-26{font-family:SFProDisplay-Regular, SF Pro Display;}.cls-15{fill:#b3b3b3;}.cls-16{stroke:#404040;}.cls-17{fill:#999;}.cls-19{letter-spacing:-0.09em;}.cls-20{letter-spacing:-0.02em;}.cls-21{letter-spacing:-0.01em;}.cls-22{letter-spacing:0em;}.cls-23{letter-spacing:-0.02em;}.cls-24{letter-spacing:-0.05em;}.cls-25{fill:#ccc;}.cls-26{font-size:10.03px;}</style><radialGradient id="radial-gradient" cx="80.22" cy="852.3" r="81.34" gradientTransform="translate(0 -883.23) scale(1 1.27)" gradientUnits="userSpaceOnUse"><stop offset="0" stop-color="#a4bdbe" stop-opacity="0.9"/><stop offset="0.11" stop-color="#a4bdbe" stop-opacity="0.76"/><stop offset="0.39" stop-color="#a4bdbe" stop-opacity="0.44"/><stop offset="0.63" stop-color="#a4bdbe" stop-opacity="0.2"/><stop offset="0.81" stop-color="#a4bdbe" stop-opacity="0.05"/><stop offset="0.92" stop-color="#a4bdbe" stop-opacity="0"/></radialGradient><radialGradient id="radial-gradient-2" cx="2680.37" cy="852.3" r="81.34" gradientTransform="matrix(-1, 0, 0, 1.27, 2921.89, -883.23)" xlink:href="#radial-gradient"/><linearGradient id="linear-gradient" x1="160.5" y1="280.57" x2="160.5" y2="111.98" gradientUnits="userSpaceOnUse"><stop offset="0.02" stop-color="#303030"/><stop offset="0.2" stop-color="#434343"/><stop offset="0.46" stop-color="#565656"/><stop offset="0.73" stop-color="#626262"/><stop offset="1" stop-color="#666"/></linearGradient><linearGradient id="linear-gradient-2" x1="160.5" y1="270.51" x2="160.5" y2="344.31" xlink:href="#linear-gradient"/></defs><title>Interactive-Underpowered Assets</title><g class="cls-1"><polygon class="cls-2" points="160.52 126.12 -0.08 92.64 -0.08 301.42 160.52 270.48 160.52 126.12"/><polygon class="cls-3" points="161.21 126.12 321.82 92.64 321.82 301.42 161.21 270.48 161.21 126.12"/></g><rect class="cls-4" x="34.65" y="111.98" width="251.7" height="168.59" rx="10.61" ry="10.61"/><path class="cls-5" d="M318,335.42v5.69a13.63,13.63,0,0,1-13.63,13.64H16.65A13.63,13.63,0,0,1,3,341.11v-5.69a8.86,8.86,0,0,1,.76-3.59H317.21A8.86,8.86,0,0,1,318,335.42Z"/><path class="cls-6" d="M318,335.42a8.89,8.89,0,0,1-8.89,8.89H11.91a8.87,8.87,0,0,1-8.13-12.48c.06-.13.12-.27.19-.4l30.67-60.93h251.7L317,331.43c.07.13.13.27.19.4A8.86,8.86,0,0,1,318,335.42Z"/><rect class="cls-7" x="47.87" y="129.03" width="225.27" height="134.5"/><path class="cls-5" d="M49.81,275H271.19a3,3,0,0,1,2.71,1.78L288.26,310a3,3,0,0,1-2.71,4.13H35.48A3,3,0,0,1,32.77,310L47.1,276.82A3,3,0,0,1,49.81,275Z"/><path class="cls-5" d="M127,320H194a2,2,0,0,1,1.9,1.36l3.9,11.49a2,2,0,0,1-1.9,2.64H123.09a2,2,0,0,1-1.9-2.64l3.89-11.49A2,2,0,0,1,127,320Z"/><rect class="cls-8" x="47.87" y="129.03" width="225.27" height="11.3"/><text class="cls-9" transform="translate(231.07 136.99)">Mon 2:45PM</text><rect class="cls-10" x="69.13" y="133.53" width="9.05" height="4.92" rx="1" ry="1"/><path d="M78.55,134.88v2.21a1.11,1.11,0,0,0,0-2.21Z"/><path d="M72.3,134v4H69.8c-.11,0-.21-.24-.21-.53v-2.89c0-.29.09-.53.21-.53Z"/><path class="cls-11" d="M260.67,153v98.34a6.35,6.35,0,0,1-6.34,6.34H66.68a6.35,6.35,0,0,1-6.34-6.34V153a6.34,6.34,0,0,1,6.34-6.33H254.32A6.34,6.34,0,0,1,260.67,153Z"/><rect class="cls-12" x="63.66" y="157.59" width="148.07" height="84.62"/><rect class="cls-12" x="63.66" y="243.41" width="148.07" height="9.14"/><rect class="cls-12" x="213.52" y="157.59" width="43.81" height="23.04"/><rect class="cls-12" x="213.52" y="181.56" width="43.81" height="23.04"/><rect class="cls-12" x="213.52" y="205.54" width="43.81" height="23.04"/><rect class="cls-12" x="213.52" y="229.51" width="43.81" height="23.04"/><path class="cls-8" d="M260.67,153v1.9H60.33V153a6.34,6.34,0,0,1,6.34-6.33H254.32A6.34,6.34,0,0,1,260.67,153Z"/><path class="cls-11" d="M238.32,182.56V219.5a5.18,5.18,0,0,1-5.18,5.17H87.87a5.18,5.18,0,0,1-5.18-5.17V182.56a5.18,5.18,0,0,1,5.18-5.17H233.13A5.18,5.18,0,0,1,238.32,182.56Z"/><rect class="cls-13" x="139.75" y="207.96" width="41.49" height="10.57" rx="2.4" ry="2.4"/><text class="cls-14" transform="translate(146.02 215.21)">Reconnect</text><path class="cls-8" d="M238.32,182.56V186H82.68v-3.46a5.18,5.18,0,0,1,5.18-5.17H233.13A5.18,5.18,0,0,1,238.32,182.56Z"/><path class="cls-12" d="M52.46,277.29H268.55a2.88,2.88,0,0,1,2.62,1.58L284,308.19a2.64,2.64,0,0,1-2.62,3.65H39.63A2.64,2.64,0,0,1,37,308.19l12.83-29.32A2.88,2.88,0,0,1,52.46,277.29Z"/><path class="cls-15" d="M65.18,133.68a9.83,9.83,0,0,0-9.69,0c-.28.15,0,.59.25.43a9.31,9.31,0,0,1,9.19,0c.28.15.53-.28.25-.43Z"/><path class="cls-15" d="M64,134.83a8.85,8.85,0,0,0-7.23,0c-.29.12-.17.6.13.48a8.55,8.55,0,0,1,7,0c.3.12.43-.36.13-.48Z"/><path d="M62.49,136.14a9.2,9.2,0,0,0-2.15-.41,9.2,9.2,0,0,0-2.15.41c-.31.08-.18.56.13.48a9,9,0,0,1,2-.39,8.36,8.36,0,0,1,2,.39c.31.08.45-.41.13-.48Z"/><path d="M59.77,137.78l.39.4a.25.25,0,0,0,.35,0l.39-.4a.25.25,0,0,0-.18-.43h-.79c-.32,0-.32.51,0,.5h.79l-.18-.43-.39.4h.35l-.39-.4A.25.25,0,0,0,59.77,137.78Z"/><line class="cls-16" x1="47.81" y1="313.06" x2="62.81" y2="275.99"/><line class="cls-16" x1="61.55" y1="313.06" x2="76.55" y2="275.99"/><line class="cls-16" x1="75.29" y1="313.06" x2="89.27" y2="275.99"/><line class="cls-16" x1="89.03" y1="313.06" x2="101.99" y2="275.99"/><line class="cls-16" x1="102.78" y1="313.06" x2="114.71" y2="275.99"/><line class="cls-16" x1="117.78" y1="313.06" x2="128.68" y2="275.99"/><line class="cls-16" x1="136.36" y1="302.75" x2="142.15" y2="276.02"/><line class="cls-16" x1="152.92" y1="302.75" x2="154.62" y2="276.02"/><circle class="cls-17" cx="67.75" cy="151.58" r="1.84"/><circle class="cls-17" cx="73.18" cy="151.58" r="1.84"/><circle class="cls-17" cx="78.61" cy="151.58" r="1.84"/><circle class="cls-17" cx="88.15" cy="182.36" r="1.84"/><line class="cls-16" x1="273.83" y1="313.06" x2="257.81" y2="275.99"/><line class="cls-16" x1="261.12" y1="313.06" x2="245.09" y2="275.99"/><line class="cls-16" x1="248.4" y1="313.06" x2="232.37" y2="275.99"/><line class="cls-16" x1="234.66" y1="313.06" x2="219.65" y2="275.99"/><line class="cls-16" x1="220.91" y1="313.06" x2="206.94" y2="275.99"/><line class="cls-16" x1="205.99" y1="313.1" x2="194.06" y2="276.03"/><line class="cls-16" x1="187.13" y1="302.75" x2="180.32" y2="276.02"/><line class="cls-16" x1="170.07" y1="302.72" x2="167.35" y2="275.99"/><line class="cls-16" x1="45.26" y1="282.62" x2="273.9" y2="282.62"/><line class="cls-16" x1="41.48" y1="292.48" x2="278.16" y2="292.48"/><line class="cls-16" x1="35.89" y1="302.75" x2="283.27" y2="302.75"/><text class="cls-18" transform="translate(106.25 201.03)"><tspan class="cls-19">Y</tspan><tspan x="3.33" y="0">ou ha</tspan><tspan class="cls-20" x="18.12" y="0">v</tspan><tspan x="21.09" y="0">e been disconnec</tspan><tspan class="cls-21" x="68.27" y="0">t</tspan><tspan class="cls-22" x="70.11" y="0">ed f</tspan><tspan class="cls-23" x="80.22" y="0">r</tspan><tspan x="82.04" y="0">om the meeting</tspan><tspan class="cls-24" x="123.8" y="0">.</tspan></text><path class="cls-25" d="M95.17,192.95l-5.06,8.77a1.68,1.68,0,0,0,1.46,2.52h10.12a1.68,1.68,0,0,0,1.46-2.52l-5.06-8.77A1.68,1.68,0,0,0,95.17,192.95Z"/><text class="cls-26" transform="translate(95.34 202.48)">!</text></svg>