<svg xmlns="http://www.w3.org/2000/svg" xmlns:xlink="http://www.w3.org/1999/xlink" viewBox="0 0 480 604"><defs><style>.cls-1,.cls-2{fill:none;stroke:#303030;stroke-linecap:round;}.cls-1,.cls-2,.cls-3{stroke-miterlimit:10;}.cls-1{stroke-width:12px;}.cls-2{stroke-width:8px;}.cls-3{stroke:#ccc;stroke-width:3px;opacity:0.3;fill:url(#New_Gradient_Swatch_2);}.cls-4{fill:#303030;}</style><radialGradient id="New_Gradient_Swatch_2" cx="240" cy="262.08" r="211.86" gradientUnits="userSpaceOnUse"><stop offset="0" stop-color="#a4bdbe" stop-opacity="0.1"/><stop offset="0.3" stop-color="#c8d5d1" stop-opacity="0.3"/><stop offset="0.6" stop-color="#e6eae1" stop-opacity="0.46"/><stop offset="0.82" stop-color="#f8f6eb" stop-opacity="0.56"/><stop offset="0.95" stop-color="#fffbef" stop-opacity="0.6"/></radialGradient></defs><title>Interactive-Underpowered Assets</title><g id="loading_screen" data-name="loading screen"><line class="cls-1" x1="163.23" y1="226.58" x2="202.47" y2="489.92"/><polyline class="cls-2" points="178.04 317.18 210.63 277.33 231.57 325.8 249.03 255.79 269.97 363.5 301.38 301.03"/><line class="cls-1" x1="316.77" y1="182.1" x2="277.53" y2="489.83"/><path class="cls-3" d="M168.11,496.84a20.08,20.08,0,0,1-20-18.1c-2.89-29.2-9.16-84.15-16-91C85,340.64,53.82,292.66,53.82,225.89,53.82,116.23,137.17,27.32,240,27.32s186.18,88.9,186.18,198.57c0,66.77-33.73,117.29-78.28,161.84-6.86,6.86-13.13,61.81-16,91a20.08,20.08,0,0,1-20,18.1Z"/><rect class="cls-4" x="143.04" y="479.16" width="193.92" height="20.32" rx="9.66" ry="9.66"/><rect class="cls-4" x="157.31" y="507.19" width="165.38" height="20.32" rx="9.66" ry="9.66"/><path class="cls-4" d="M304.62,535.21v0c0,28.07-28.93,41.43-64.62,41.43s-64.62-13.36-64.62-41.43v0Z"/></g></svg>