<svg xmlns="http://www.w3.org/2000/svg" xmlns:xlink="http://www.w3.org/1999/xlink" viewBox="0 0 653 307"><defs><style>.cls-1{isolation:isolate;}.cls-2{fill:url(#linear-gradient);}.cls-20,.cls-3{fill:#32558b;}.cls-4{fill:#153460;}.cls-5{font-size:30.27px;}.cls-10,.cls-13,.cls-5{fill:#021c33;}.cls-10,.cls-13,.cls-14,.cls-16,.cls-29,.cls-5,.cls-7{font-family:SFProDisplay-Bold, SF Pro Display;}.cls-10,.cls-13,.cls-14,.cls-16,.cls-23,.cls-29,.cls-5,.cls-7{font-weight:700;}.cls-27,.cls-31,.cls-34,.cls-35,.cls-36,.cls-6,.cls-9{fill:none;}.cls-6,.cls-9{stroke:#153460;}.cls-27,.cls-28,.cls-31,.cls-34,.cls-35,.cls-36,.cls-6,.cls-9{stroke-miterlimit:10;}.cls-6{stroke-width:1.5px;}.cls-7{font-size:57.51px;}.cls-14,.cls-16,.cls-28,.cls-7,.cls-8{fill:#fffbef;}.cls-9{stroke-width:7.21px;}.cls-10{font-size:22.13px;}.cls-11{fill:#404040;opacity:0.6;mix-blend-mode:hard-light;}.cls-12{fill:url(#linear-gradient-2);}.cls-13{font-size:30.27px;}.cls-14{font-size:57.51px;}.cls-15{fill:url(#linear-gradient-3);}.cls-16{font-size:57.51px;}.cls-17{fill:url(#linear-gradient-4);}.cls-18{fill:#303030;}.cls-19{fill:url(#linear-gradient-5);}.cls-20,.cls-21{opacity:0.9;}.cls-21{fill:#493e7a;}.cls-22{font-size:50.16px;font-family:MonumentExtended-Regular, Monument Extended;}.cls-22,.cls-23,.cls-29{fill:#fff;}.cls-23{font-size:19.39px;font-family:MonumentExtended-Ultrabold, Monument Extended;letter-spacing:-0.04em;}.cls-24{letter-spacing:-0.12em;}.cls-25{letter-spacing:-0.11em;}.cls-26{letter-spacing:0.05em;}.cls-27,.cls-28,.cls-31{stroke:#404040;}.cls-27,.cls-31{stroke-width:0.72px;}.cls-28{stroke-width:0.72px;}.cls-29{font-size:12.94px;letter-spacing:0.05em;}.cls-30{font-size:22.68px;letter-spacing:0.05em;}.cls-31{stroke-dasharray:2.91 2.91;}.cls-32{fill:url(#linear-gradient-6);}.cls-33{fill:url(#linear-gradient-7);}.cls-34,.cls-35,.cls-36{stroke:#303030;}.cls-34{stroke-width:0.33px;}.cls-35{stroke-width:0.32px;}.cls-36{stroke-width:0.32px;}.cls-37{fill:url(#linear-gradient-8);}</style><linearGradient id="linear-gradient" x1="-69.09" y1="604.69" x2="290.66" y2="604.69" gradientTransform="translate(291.03 -509.61) rotate(15.2)" gradientUnits="userSpaceOnUse"><stop offset="0" stop-color="#fffbef"/><stop offset="0.07" stop-color="#cdd3d7"/><stop offset="0.23" stop-color="#516e9a"/><stop offset="0.27" stop-color="#32558b"/><stop offset="0.36" stop-color="#37598d"/><stop offset="0.46" stop-color="#456494"/><stop offset="0.57" stop-color="#5c779f"/><stop offset="0.68" stop-color="#7c91af"/><stop offset="0.8" stop-color="#a5b2c3"/><stop offset="0.92" stop-color="#d7dadb"/><stop offset="1" stop-color="#fffbef"/></linearGradient><linearGradient id="linear-gradient-2" x1="19.46" y1="445.29" x2="379.21" y2="445.29" gradientTransform="matrix(0.99, 0.17, -0.17, 0.99, 175.52, -340.29)" xlink:href="#linear-gradient"/><linearGradient id="linear-gradient-3" x1="12.64" y1="388.32" x2="372.39" y2="388.32" gradientTransform="translate(110.97 -236.26) rotate(6.72)" xlink:href="#linear-gradient"/><linearGradient id="linear-gradient-4" x1="112.49" y1="88.65" x2="472.24" y2="88.65" gradientTransform="matrix(1, -0.07, 0.07, 1, -68.42, 144.68)" xlink:href="#linear-gradient"/><linearGradient id="linear-gradient-5" x1="380.75" y1="251.32" x2="380.75" y2="428.61" gradientTransform="translate(805.13 -261.35) rotate(90)" gradientUnits="userSpaceOnUse"><stop offset="0" stop-color="#a4bdbe"/><stop offset="0.06" stop-color="#adc3c3"/><stop offset="0.39" stop-color="#d9e1db"/><stop offset="0.64" stop-color="#f5f4e9"/><stop offset="0.79" stop-color="#fffbef"/></linearGradient><linearGradient id="linear-gradient-6" x1="539.04" y1="55.21" x2="539.04" y2="232.51" gradientTransform="translate(-42.9 43.37)" xlink:href="#linear-gradient-5"/><linearGradient id="linear-gradient-7" x1="594.18" y1="118.98" x2="614.4" y2="118.98" gradientTransform="translate(-5.55 34.03) rotate(-3.22)" gradientUnits="userSpaceOnUse"><stop offset="0" stop-color="#c6a105"/><stop offset="0.5" stop-color="#f2cb2a"/><stop offset="1" stop-color="#c6a105"/></linearGradient><linearGradient id="linear-gradient-8" x1="576.86" y1="70.72" x2="597.08" y2="70.72" gradientTransform="translate(9.7 -68.41) rotate(6.82)" xlink:href="#linear-gradient-7"/></defs><title>Interactive-Underpowered Assets</title><g class="cls-1"><g id="loading_screen" data-name="loading screen"><polygon class="cls-2" points="423.01 77.9 302.52 71.64 170.44 18.12 78.1 10.69 55.84 128.04 148.18 135.47 280.26 189 400.75 195.25 423.01 77.9"/><polygon class="cls-3" points="423.19 77.27 302.7 71.01 170.61 17.48 78.09 10 75.45 23.91 168.12 31.4 300.21 84.93 420.7 91.18 423.19 77.27"/><polygon class="cls-3" points="401.22 196.03 280.1 189.6 148.01 136.07 138.01 135.26 103.89 132.5 55.34 128.58 57.98 114.68 106.52 118.61 140.65 121.37 150.5 122.16 282.59 175.69 403.71 182.12 401.22 196.03"/><path class="cls-4" d="M122.37,13.68l34.06,2.75-7,36.68-34.12-2.76,7-36.68Z"/><path class="cls-4" d="M138,135.26l-34.12-2.76,2.64-13.9.36-1.9h.06L141,119.47s-.13.7-.36,1.9Z"/><path class="cls-4" d="M324.1,78.94c.26-1.32,1.25-6.58,1.31-6.86l3.75.19c-.26,1.32-1.25,6.58-1.31,6.86Z"/><path class="cls-4" d="M322,90.11c.26-1.32,1.25-6.58,1.31-6.86l3.75.19c-.26,1.32-1.25,6.58-1.31,6.86Z"/><path class="cls-4" d="M319.89,101.28c.26-1.32,1.25-6.58,1.31-6.86l3.75.19c-.26,1.32-1.25,6.58-1.31,6.86Z"/><path class="cls-4" d="M317.79,112.46c.26-1.32,1.25-6.58,1.31-6.86l3.75.19c-.26,1.32-1.25,6.58-1.31,6.86Z"/><path class="cls-4" d="M315.68,123.63c.26-1.32,1.25-6.58,1.31-6.86l3.75.19c-.26,1.32-1.25,6.58-1.31,6.86Z"/><path class="cls-4" d="M313.58,134.8c.26-1.32,1.25-6.58,1.31-6.86l3.75.19c-.26,1.32-1.25,6.58-1.31,6.86Z"/><path class="cls-4" d="M311.47,146c.26-1.32,1.25-6.58,1.31-6.86l3.75.19c-.26,1.32-1.25,6.58-1.31,6.86Z"/><path class="cls-4" d="M309.37,157.14c.26-1.32,1.25-6.58,1.31-6.86l3.75.19c-.26,1.32-1.25,6.58-1.31,6.86Z"/><path class="cls-4" d="M307.27,168.31c.26-1.32,1.25-6.58,1.31-6.86l3.75.19c-.26,1.32-1.25,6.58-1.31,6.86Z"/><path class="cls-4" d="M305.16,179.49c.26-1.32,1.25-6.58,1.31-6.86l3.75.19c-.26,1.32-1.25,6.58-1.31,6.86Z"/><path class="cls-4" d="M303.06,190.66c.26-1.32,1.25-6.58,1.31-6.86l3.75.19c-.26,1.32-1.25,6.58-1.31,6.86Z"/><text class="cls-5" transform="translate(96.96 70.75) rotate(-79.25)">100</text><circle class="cls-4" cx="228.26" cy="104.8" r="35.31" transform="translate(44.41 275.94) rotate(-67.61)"/><circle class="cls-6" cx="228.26" cy="104.8" r="39.89" transform="translate(44.41 275.94) rotate(-67.61)"/><text class="cls-7" transform="translate(205.65 118.85) rotate(22.39)">P</text><rect class="cls-8" x="213.27" y="96.06" width="41.2" height="3.38" transform="translate(54.86 -81.71) rotate(22.39)"/><rect class="cls-8" x="210.42" y="102.96" width="41.2" height="3.38" transform="translate(57.27 -80.1) rotate(22.39)"/><circle class="cls-4" cx="369.89" cy="122.23" r="12.88" transform="translate(154.97 447.14) rotate(-74.8)"/><line class="cls-9" x1="345.03" y1="143.74" x2="390.43" y2="146.15"/><text class="cls-10" transform="translate(356.17 187.45) rotate(2.7)">100</text><polygon class="cls-11" points="170.44 18.12 148.18 135.47 280.26 189 302.52 71.64 170.44 18.12"/><polygon class="cls-12" points="475.9 90.67 355.35 95.59 218.88 54.51 126.25 55.65 114.94 174.56 207.57 173.42 344.04 214.5 464.59 209.58 475.9 90.67"/><polygon class="cls-3" points="476.02 90.03 355.47 94.94 218.99 53.86 126.18 54.97 124.84 69.06 217.8 67.95 354.27 109.03 474.82 104.11 476.02 90.03"/><polygon class="cls-3" points="465.13 210.31 343.93 215.11 207.46 174.03 197.43 174.15 163.19 174.56 114.5 175.14 115.84 161.06 164.53 160.48 198.77 160.07 208.65 159.95 345.12 201.03 466.32 196.23 465.13 210.31"/><path class="cls-4" d="M170.61,54.54l34.17-.41L201.25,91.3,167,91.71l3.54-37.17Z"/><path class="cls-4" d="M197.43,174.15l-34.23.41,1.34-14.08c.09-1,.16-1.66.18-1.92h.06l34.18-.41s-.07.71-.18,1.92Z"/><path class="cls-4" d="M377.51,100.86c.13-1.34.64-6.66.67-7l3.75-.15c-.13,1.34-.64,6.66-.67,7Z"/><path class="cls-4" d="M376.45,112.18c.13-1.34.64-6.66.67-7l3.75-.15c-.13,1.34-.64,6.66-.67,7Z"/><path class="cls-4" d="M375.38,123.5c.13-1.34.64-6.66.67-7l3.75-.15c-.13,1.34-.64,6.66-.67,7Z"/><path class="cls-4" d="M374.32,134.81c.13-1.34.64-6.66.67-7l3.75-.15c-.13,1.34-.64,6.66-.67,7Z"/><path class="cls-4" d="M373.26,146.13c.13-1.34.64-6.66.67-7l3.75-.15c-.13,1.34-.64,6.66-.67,7Z"/><path class="cls-4" d="M372.2,157.45c.13-1.34.64-6.66.67-7l3.75-.15c-.13,1.34-.64,6.66-.67,7Z"/><path class="cls-4" d="M371.14,168.77c.13-1.34.64-6.66.67-7l3.75-.15c-.13,1.34-.64,6.66-.67,7Z"/><path class="cls-4" d="M370.08,180.09c.13-1.34.64-6.66.67-7l3.75-.15c-.13,1.34-.64,6.66-.67,7Z"/><path class="cls-4" d="M369,191.41c.13-1.34.64-6.66.67-7l3.75-.15c-.13,1.34-.64,6.66-.67,7Z"/><path class="cls-4" d="M368,202.72c.13-1.34.64-6.66.67-7l3.75-.15c-.13,1.34-.64,6.66-.67,7Z"/><path class="cls-4" d="M366.89,214c.13-1.34.64-6.66.67-7l3.75-.15c-.13,1.34-.64,6.66-.67,7Z"/><text class="cls-13" transform="matrix(0.09, -1, 1, 0.09, 150.64, 113.7)">100</text><circle class="cls-4" cx="284.47" cy="135.47" r="35.31" transform="matrix(0.29, -0.96, 0.96, 0.29, 71.42, 367.6)"/><circle class="cls-6" cx="284.47" cy="135.47" r="39.89" transform="translate(71.42 367.6) rotate(-72.92)"/><text class="cls-14" transform="translate(263.27 151.57) rotate(17.08)">P</text><rect class="cls-8" x="268.8" y="126.24" width="41.2" height="3.38" transform="translate(50.34 -79.36) rotate(17.08)"/><rect class="cls-8" x="266.61" y="133.38" width="41.2" height="3.38" transform="translate(52.34 -78.4) rotate(17.08)"/><circle class="cls-4" cx="427.11" cy="139.73" r="12.88" transform="translate(216.11 536.49) rotate(-80.11)"/><line class="cls-9" x1="404.35" y1="163.45" x2="449.77" y2="161.65"/><text class="cls-10" transform="translate(419.5 205.94) rotate(-2.61)">100</text><polygon class="cls-11" points="218.88 54.51 207.57 173.42 344.04 214.5 355.35 95.59 218.88 54.51"/><polygon class="cls-15" points="434.6 120.07 314.51 131.64 175.97 98.16 83.55 104.42 78.83 223.77 171.25 217.51 309.78 250.99 429.88 239.42 434.6 120.07"/><polygon class="cls-3" points="434.68 119.42 314.58 130.99 176.05 97.51 83.44 103.75 82.88 117.89 175.64 111.64 314.17 145.12 434.27 133.55 434.68 119.42"/><polygon class="cls-3" points="430.45 240.12 309.71 251.61 171.18 218.14 161.16 218.81 127.01 221.11 78.42 224.38 78.97 210.25 127.56 206.98 161.73 204.68 171.59 204.01 310.12 237.49 430.87 225.99 430.45 240.12"/><path class="cls-4" d="M127.78,100.86l34.1-2.3-1.48,37.3-34.16,2.3,1.48-37.3Z"/><path class="cls-4" d="M161.16,218.81,127,221.11l.56-14.14c0-1,.06-1.66.08-1.93h.06l34.1-2.29s0,.71-.08,1.93Z"/><path class="cls-4" d="M336.92,135.68c.06-1.35.27-6.69.28-7l3.74-.36c-.06,1.35-.27,6.69-.28,7Z"/><path class="cls-4" d="M336.48,147c.06-1.35.27-6.69.28-7l3.74-.36c-.06,1.35-.27,6.69-.28,7Z"/><path class="cls-4" d="M336,158.4c.06-1.35.27-6.69.28-7l3.74-.36c-.06,1.35-.27,6.69-.28,7Z"/><path class="cls-4" d="M335.62,169.75c.06-1.35.27-6.69.28-7l3.74-.36c-.06,1.35-.27,6.69-.28,7Z"/><path class="cls-4" d="M335.18,181.11c.06-1.35.27-6.69.28-7l3.74-.36c-.06,1.35-.27,6.69-.28,7Z"/><path class="cls-4" d="M334.75,192.47c.06-1.35.27-6.69.28-7l3.74-.36c-.06,1.35-.27,6.69-.28,7Z"/><path class="cls-4" d="M334.31,203.83c.06-1.35.27-6.69.28-7l3.74-.36c-.06,1.35-.27,6.69-.28,7Z"/><path class="cls-4" d="M333.88,215.19c.06-1.35.27-6.69.28-7l3.74-.36c-.06,1.35-.27,6.69-.28,7Z"/><path class="cls-4" d="M333.44,226.55c.06-1.35.27-6.69.28-7l3.74-.36c-.06,1.35-.27,6.69-.28,7Z"/><path class="cls-4" d="M333,237.91c.06-1.35.27-6.69.28-7l3.74-.36c-.06,1.35-.27,6.69-.28,7Z"/><path class="cls-4" d="M332.58,249.27c.06-1.35.27-6.69.28-7l3.74-.36c-.06,1.35-.27,6.69-.28,7Z"/><text class="cls-13" transform="matrix(0.04, -1, 1, 0.04, 111.04, 161.04)">100</text><circle class="cls-4" cx="245.94" cy="175.38" r="35.31" transform="translate(16.57 371.93) rotate(-76.09)"/><circle class="cls-6" cx="245.94" cy="175.38" r="39.89" transform="translate(16.57 371.93) rotate(-76.09)"/><text class="cls-16" transform="matrix(0.97, 0.24, -0.24, 0.97, 225.63, 192.6)">P</text><rect class="cls-8" x="229.84" y="165.88" width="41.2" height="3.38" transform="translate(47.64 -55.3) rotate(13.91)"/><rect class="cls-8" x="228.05" y="173.13" width="41.2" height="3.38" transform="translate(49.33 -54.66) rotate(13.91)"/><circle class="cls-4" cx="388.59" cy="171.74" r="12.88" transform="translate(172.55 537.56) rotate(-83.28)"/><line class="cls-9" x1="367.18" y1="196.69" x2="412.43" y2="192.38"/><text class="cls-10" transform="matrix(0.99, -0.1, 0.1, 0.99, 384.68, 238.33)">100</text><polygon class="cls-11" points="175.97 98.16 171.25 217.51 309.78 250.99 314.51 131.64 175.97 98.16"/><polygon class="cls-17" points="394.51 127.45 278.76 161.47 136.4 154.73 46.81 178.31 64.69 296.41 154.27 272.83 296.63 279.57 412.39 245.55 394.51 127.45"/><polygon class="cls-3" points="394.46 126.79 278.71 160.81 136.35 154.07 46.58 177.67 48.7 191.66 138.61 168.03 280.97 174.77 396.73 140.75 394.46 126.79"/><polygon class="cls-3" points="413.09 246.12 296.68 280.19 154.32 273.45 144.61 276 111.5 284.7 64.4 297.08 62.28 283.1 109.38 270.72 142.5 262.01 152.06 259.5 294.42 266.24 410.83 232.17 413.09 246.12"/><path class="cls-4" d="M89.57,166.47l33.05-8.69,5.59,36.91L95.1,203.4l-5.59-36.91Z"/><path class="cls-4" d="M144.61,276l-33.11,8.7-2.12-14c-.15-1-.25-1.64-.29-1.91l.06,0,33.06-8.69s.1.7.29,1.91Z"/><path class="cls-4" d="M301.53,161.2c-.2-1.33-1-6.62-1-6.91l3.6-1.06c.2,1.33,1,6.62,1,6.91Z"/><path class="cls-4" d="M303.24,172.44c-.2-1.33-1-6.62-1-6.91l3.6-1.06c.2,1.33,1,6.62,1,6.91Z"/><path class="cls-4" d="M305,183.68c-.2-1.33-1-6.62-1-6.91l3.6-1.06c.2,1.33,1,6.62,1,6.91Z"/><path class="cls-4" d="M306.68,194.92c-.2-1.33-1-6.62-1-6.91l3.6-1.06c.2,1.33,1,6.62,1,6.91Z"/><path class="cls-4" d="M308.39,206.15c-.2-1.33-1-6.62-1-6.91l3.6-1.06c.2,1.33,1,6.62,1,6.91Z"/><path class="cls-4" d="M310.11,217.39c-.2-1.33-1-6.62-1-6.91l3.6-1.06c.2,1.33,1,6.62,1,6.91Z"/><path class="cls-4" d="M311.83,228.63c-.2-1.33-1-6.62-1-6.91l3.6-1.06c.2,1.33,1,6.62,1,6.91Z"/><path class="cls-4" d="M313.54,239.87c-.2-1.33-1-6.62-1-6.91l3.6-1.06c.2,1.33,1,6.62,1,6.91Z"/><path class="cls-4" d="M315.26,251.11c-.2-1.33-1-6.62-1-6.91l3.6-1.06c.2,1.33,1,6.62,1,6.91Z"/><path class="cls-4" d="M317,262.34c-.2-1.33-1-6.62-1-6.91l3.6-1.06c.2,1.33,1,6.62,1,6.91Z"/><path class="cls-4" d="M318.69,273.58c-.2-1.33-1-6.62-1-6.91l3.6-1.06c.2,1.33,1,6.62,1,6.91Z"/><text class="cls-5" transform="translate(84.5 228.73) rotate(-98.6)">100</text><circle class="cls-4" cx="219.67" cy="217.36" r="35.31" transform="translate(-9.03 425.19) rotate(-86.96)"/><circle class="cls-6" cx="219.67" cy="217.36" r="39.89" transform="translate(-9.03 425.19) rotate(-86.96)"/><text class="cls-14" transform="matrix(1, 0.05, -0.05, 1, 202.99, 238.05)">P</text><rect class="cls-8" x="202.02" y="207.15" width="41.2" height="3.38" transform="translate(11.39 -11.51) rotate(3.04)"/><rect class="cls-8" x="201.63" y="214.61" width="41.2" height="3.38" transform="translate(11.78 -11.48) rotate(3.04)"/><circle class="cls-4" cx="359.07" cy="186.87" r="12.88" transform="translate(-12.59 26.49) rotate(-4.15)"/><line class="cls-9" x1="342.75" y1="215.41" x2="386.38" y2="202.64"/><text class="cls-10" transform="translate(367.81 253.01) rotate(-16.65)">100</text><polygon class="cls-11" points="136.4 154.73 154.27 272.83 296.63 279.57 278.76 161.47 136.4 154.73"/><rect class="cls-18" x="378.83" y="-17.19" width="177.3" height="281.19" rx="11.08" ry="11.08" transform="translate(289.17 572.81) rotate(-83.15)"/><rect class="cls-19" x="376.52" y="-21.19" width="177.3" height="281.19" rx="11.08" ry="11.08" transform="translate(291.11 566.99) rotate(-83.15)"/><path class="cls-20" d="M607.18,116,595.5,213.19a11.11,11.11,0,0,1-12.32,9.68L384.9,199c39.59-35.79,83.31-56.62,124.07-68.47A377.41,377.41,0,0,1,607.18,116Z"/><path class="cls-21" d="M581.18,222.63,326,192a11.11,11.11,0,0,1-9.68-12.32l13.46-112c33.92.91,112.55,9.23,179.18,63C536.39,152.68,561.78,182.49,581.18,222.63Z"/><text class="cls-22" transform="translate(328.14 170.94) rotate(6.85)">3G</text><text class="cls-23" transform="translate(424.86 161.66) rotate(6.85)">D<tspan class="cls-24" x="16.25" y="0">A</tspan><tspan class="cls-25" x="33.04" y="0">T</tspan><tspan class="cls-26" x="47.98" y="0">A</tspan><tspan class="cls-26"><tspan x="0" y="23.27">SIM</tspan></tspan></text><path class="cls-27" d="M538,56.53l-3.38,28.13a3.84,3.84,0,0,0,1,3.11L544.47,97a3.84,3.84,0,0,0,2.32,1.16l45.66,5.49a3.84,3.84,0,0,0,4.27-3.36l4.35-36.21a3.84,3.84,0,0,0-3.36-4.27l-55.49-6.67A3.84,3.84,0,0,0,538,56.53Z"/><path class="cls-28" d="M557.31,60.44,555.16,78.3a2.44,2.44,0,0,0,.66,2l5.62,5.88a2.44,2.44,0,0,0,1.47.74l29,3.48a2.44,2.44,0,0,0,2.71-2.13l2.76-23a2.44,2.44,0,0,0-2.13-2.71L560,58.31A2.44,2.44,0,0,0,557.31,60.44Z"/><text class="cls-29" transform="translate(344.86 45.28) rotate(6.85)">P<tspan class="cls-30" x="8.64" y="0">100</tspan></text><path class="cls-31" d="M533.74,53.39l-3.87,32.17a4.39,4.39,0,0,0,1.19,3.56l10.13,10.59a4.39,4.39,0,0,0,2.65,1.33l52.22,6.28a4.39,4.39,0,0,0,4.89-3.84l5-41.41a4.39,4.39,0,0,0-3.84-4.89l-63.46-7.63A4.39,4.39,0,0,0,533.74,53.39Z"/><rect class="cls-18" x="358.53" y="102.11" width="281.19" height="177.3" rx="11.08" ry="11.08" transform="translate(-10.56 30.34) rotate(-3.44)"/><rect class="cls-32" x="355.54" y="98.59" width="281.19" height="177.3" rx="11.08" ry="11.08" transform="translate(-10.35 30.15) rotate(-3.44)"/><path class="cls-20" d="M635.25,158.51l5.88,97.7a11.11,11.11,0,0,1-10.4,11.73l-199.34,12c32.55-42.3,71.84-70.6,109.83-89.55A377.41,377.41,0,0,1,635.25,158.51Z"/><path class="cls-21" d="M628.74,268.06,372.18,283.51a11.11,11.11,0,0,1-11.73-10.4l-6.78-112.64c33.54-5.17,112.39-11,187.55,29.92C572.16,207.24,602.47,232,628.74,268.06Z"/><text class="cls-22" transform="translate(370.57 262.41) rotate(-3.44)">3G</text><text class="cls-23" transform="translate(464.07 236) rotate(-3.44)">D<tspan class="cls-24" x="16.25" y="0">A</tspan><tspan class="cls-25" x="33.04" y="0">T</tspan><tspan class="cls-26" x="47.98" y="0">A</tspan><tspan class="cls-26"><tspan x="0" y="23.27">SIM</tspan></tspan></text><path class="cls-27" d="M556.51,112.36l1.7,28.28a3.84,3.84,0,0,0,1.58,2.88l10.37,7.53a3.84,3.84,0,0,0,2.49.73L618.55,149a3.84,3.84,0,0,0,3.6-4.06L620,108.55a3.84,3.84,0,0,0-4.06-3.6l-55.78,3.36A3.84,3.84,0,0,0,556.51,112.36Z"/><path class="cls-28" d="M576.25,112.75l1.08,18a2.44,2.44,0,0,0,1,1.83l6.58,4.78a2.44,2.44,0,0,0,1.58.46L615.65,136a2.44,2.44,0,0,0,2.29-2.58l-1.39-23.12A2.44,2.44,0,0,0,614,108l-35.42,2.13A2.44,2.44,0,0,0,576.25,112.75Z"/><text class="cls-29" transform="translate(364.55 135.79) rotate(-3.44)">P<tspan class="cls-30" x="8.64" y="0">100</tspan></text><path class="cls-31" d="M551.8,110l1.95,32.35a4.39,4.39,0,0,0,1.8,3.29l11.86,8.61a4.39,4.39,0,0,0,2.84.83l52.5-3.16a4.39,4.39,0,0,0,4.12-4.65l-2.51-41.63a4.39,4.39,0,0,0-4.65-4.12l-63.8,3.84A4.39,4.39,0,0,0,551.8,110Z"/><path class="cls-33" d="M614.3,113.52l.54,9.52a2.94,2.94,0,0,1-2.75,3.09l-14.34.81a3,3,0,0,1-3.09-2.76l-.54-9.52a3,3,0,0,1,2.76-3.09l14.34-.81A2.94,2.94,0,0,1,614.3,113.52Z"/><rect class="cls-34" x="601.8" y="114.83" width="5.36" height="8.03" rx="1.57" ry="1.57" transform="translate(-5.73 34.17) rotate(-3.22)"/><line class="cls-34" x1="601.68" y1="116.77" x2="594.26" y2="117.19"/><line class="cls-34" x1="601.93" y1="121.23" x2="594.51" y2="121.65"/><line class="cls-34" x1="614.44" y1="116.05" x2="607.02" y2="116.47"/><line class="cls-34" x1="614.7" y1="120.52" x2="607.28" y2="120.93"/><path class="cls-35" d="M603,123l.08,1.46a.94.94,0,0,1-.42.82"/><polygon class="cls-18" points="602.82 125.33 600.76 126.78 600.21 126.81 602.62 125.11 602.82 125.33"/><path class="cls-35" d="M606.36,122.77l.08,1.46a.94.94,0,0,0,.51.77"/><polygon class="cls-18" points="606.85 125.11 609.05 126.31 609.61 126.28 607.02 124.87 606.85 125.11"/><path class="cls-36" d="M602.59,114.93l-.08-1.46a.94.94,0,0,0-.51-.77"/><polygon class="cls-18" points="602.1 112.59 599.9 111.39 599.34 111.42 601.93 112.84 602.1 112.59"/><path class="cls-36" d="M605.91,114.75l-.08-1.46a.94.94,0,0,1,.42-.82"/><polygon class="cls-18" points="606.13 112.37 608.19 110.93 608.75 110.89 606.33 112.59 606.13 112.37"/><path class="cls-37" d="M594.72,68l-1.13,9.47A2.94,2.94,0,0,1,590.34,80L576.08,78.3A3,3,0,0,1,573.51,75l1.13-9.47A3,3,0,0,1,577.91,63l14.26,1.71A2.94,2.94,0,0,1,594.72,68Z"/><rect class="cls-34" x="581.44" y="67.49" width="5.36" height="8.03" rx="1.57" ry="1.57" transform="translate(12.62 -68.85) rotate(6.82)"/><line class="cls-34" x1="581.73" y1="68.96" x2="574.35" y2="68.08"/><line class="cls-34" x1="581.2" y1="73.4" x2="573.82" y2="72.52"/><line class="cls-34" x1="594.43" y1="70.48" x2="587.05" y2="69.6"/><line class="cls-34" x1="593.9" y1="74.92" x2="586.52" y2="74.04"/><path class="cls-35" d="M582,75.29l-.17,1.45a.94.94,0,0,1-.55.73"/><polygon class="cls-18" points="581.36 77.6 579.09 78.66 578.53 78.59 581.21 77.35 581.36 77.6"/><path class="cls-35" d="M585.3,75.69l-.17,1.45a.94.94,0,0,0,.37.84"/><polygon class="cls-18" points="585.37 78.08 587.33 79.65 587.89 79.71 585.58 77.87 585.37 78.08"/><path class="cls-36" d="M582.95,67.32l.17-1.45a.94.94,0,0,0-.37-.84"/><polygon class="cls-18" points="582.88 64.93 580.91 63.36 580.36 63.29 582.66 65.14 582.88 64.93"/><path class="cls-36" d="M586.25,67.71l.17-1.45a.94.94,0,0,1,.55-.73"/><polygon class="cls-18" points="586.88 65.41 589.16 64.35 589.72 64.41 587.04 65.66 586.88 65.41"/></g></g></svg>