<svg xmlns="http://www.w3.org/2000/svg" xmlns:xlink="http://www.w3.org/1999/xlink" viewBox="0 0 1440 248"><defs><style>.cls-1{fill:url(#linear-gradient);}.cls-2{stroke:#fff;stroke-width:3px;opacity:0.3;fill:url(#radial-gradient);}.cls-2,.cls-6{stroke-miterlimit:10;}.cls-3{fill:url(#linear-gradient-2);}.cls-4{fill:url(#linear-gradient-3);}.cls-5{fill:#303030;}.cls-6{fill:none;stroke:#b3b3b3;stroke-width:4px;}.cls-7{fill:#b3b3b3;}</style><linearGradient id="linear-gradient" x1="-39.49" y1="159.35" x2="-39.49" y2="-849.34" gradientTransform="translate(525.06 163.49) rotate(90) scale(1 1.07)" gradientUnits="userSpaceOnUse"><stop offset="0" stop-color="#fbde44" stop-opacity="0.5"/><stop offset="1" stop-color="#fbde44" stop-opacity="0"/></linearGradient><radialGradient id="radial-gradient" cx="-39.74" cy="95.77" r="42.44" gradientTransform="translate(450.68 163.49) rotate(90)" gradientUnits="userSpaceOnUse"><stop offset="0" stop-color="#fbde44"/><stop offset="0.1" stop-color="#fce468" stop-opacity="0.9"/><stop offset="0.28" stop-color="#fdee9e" stop-opacity="0.76"/><stop offset="0.46" stop-color="#fef5c9" stop-opacity="0.65"/><stop offset="0.64" stop-color="#fefbe7" stop-opacity="0.56"/><stop offset="0.82" stop-color="#fffef9" stop-opacity="0.52"/><stop offset="1" stop-color="#fff" stop-opacity="0.5"/></radialGradient><linearGradient id="linear-gradient-2" x1="-40.09" y1="442.01" x2="-40.09" y2="162.07" gradientTransform="translate(108.55 425.45) rotate(180)" gradientUnits="userSpaceOnUse"><stop offset="0" stop-color="#303030"/><stop offset="0.12" stop-color="#3b3b3b"/><stop offset="0.44" stop-color="#525252"/><stop offset="0.75" stop-color="#616161"/><stop offset="1" stop-color="#666"/></linearGradient><linearGradient id="linear-gradient-3" x1="-40.09" y1="209.88" x2="-40.09" y2="85.56" gradientTransform="translate(450.68 163.49) rotate(90)" xlink:href="#linear-gradient-2"/></defs><title>Interactive-Underpowered Assets</title><g id="lighting_the_way" data-name="lighting the way"><polyline class="cls-1" points="354.9 71.6 1431.99 2.51 1431.99 245.5 354.9 175.22 354.9 71.6"/><ellipse class="cls-2" cx="354.91" cy="123.75" rx="21.98" ry="55.84"/><path class="cls-3" d="M130.66-16.56h36a15.9,15.9,0,0,1,15.9,15.9v264a0,0,0,0,1,0,0H114.76a0,0,0,0,1,0,0V-.67A15.9,15.9,0,0,1,130.66-16.56Z" transform="translate(25.23 272.05) rotate(-90)"/><path class="cls-4" d="M365.12,72.56v101.7c0,3.63-4,6.5-8.65,6.22l-60.39-3.6a54.5,54.5,0,0,1-17.56-4L245.05,159c-2.62-1.08-4.25-3.2-4.25-5.5V93.27c0-2.3,1.63-4.42,4.25-5.5l33.48-13.87a54.5,54.5,0,0,1,17.56-4l60.39-3.6C361.14,66.06,365.12,68.92,365.12,72.56Z"/><path class="cls-5" d="M365.12,71.6V175.22c0,3.7-3.51,6.62-7.63,6.34L340,180.95V65.87l17.54-.61C361.61,65,365.12,67.9,365.12,71.6Z"/><line class="cls-6" x1="240.39" y1="89.53" x2="240.39" y2="157.28"/><line class="cls-6" x1="50.05" y1="89.53" x2="50.05" y2="157.28"/><rect class="cls-5" x="167.11" y="101.82" width="20.22" height="43.17" rx="8.79" ry="8.79" transform="translate(300.63 -53.81) rotate(90)"/><rect class="cls-7" x="178.58" y="113.49" width="17.12" height="19.84" rx="7.17" ry="7.17" transform="translate(310.55 -63.73) rotate(90)"/></g></svg>