<svg xmlns="http://www.w3.org/2000/svg" xmlns:xlink="http://www.w3.org/1999/xlink" viewBox="0 0 148 148"><defs><style>.cls-1{fill:url(#linear-gradient);}.cls-2{fill:url(#linear-gradient-2);}.cls-3{fill:url(#linear-gradient-3);}.cls-4{fill:url(#linear-gradient-4);}.cls-5{fill:url(#linear-gradient-5);}.cls-6{fill:url(#linear-gradient-6);}.cls-7{fill:url(#linear-gradient-7);}.cls-10,.cls-11,.cls-8,.cls-9{opacity:0.9;}.cls-8{fill:url(#radial-gradient);}.cls-9{fill:#fbde44;}.cls-10{fill:url(#radial-gradient-2);}.cls-11{fill:url(#radial-gradient-3);}</style><linearGradient id="linear-gradient" x1="-469.7" y1="-612.88" x2="-469.7" y2="-711.88" gradientTransform="matrix(0.75, 1.46, -0.66, 0.34, 31.25, 965.14)" gradientUnits="userSpaceOnUse"><stop offset="0" stop-color="#fbde44" stop-opacity="0.5"/><stop offset="1" stop-color="#fbde44" stop-opacity="0"/></linearGradient><linearGradient id="linear-gradient-2" x1="-478.08" y1="-641.1" x2="-478.08" y2="-740.1" gradientTransform="matrix(-0.74, 0.89, -0.57, -0.47, -632.04, 198.85)" xlink:href="#linear-gradient"/><linearGradient id="linear-gradient-3" x1="-556.91" y1="-516.75" x2="-556.91" y2="-615.75" gradientTransform="matrix(1.29, -1.02, 0.46, 0.58, 1027.96, -205.07)" xlink:href="#linear-gradient"/><linearGradient id="linear-gradient-4" x1="-508.05" y1="-418.4" x2="-508.05" y2="-517.41" gradientTransform="matrix(1.09, 0.36, -0.23, 0.7, 534.01, 549.83)" xlink:href="#linear-gradient"/><linearGradient id="linear-gradient-5" x1="-424.08" y1="-753.39" x2="-424.08" y2="-845.73" gradientTransform="matrix(1.64, 0.11, 0.05, -0.74, 808.51, -427.33)" xlink:href="#linear-gradient"/><linearGradient id="linear-gradient-6" x1="-487.9" y1="-390" x2="-487.9" y2="-482.34" gradientTransform="matrix(0.03, 1.64, 0.74, -0.01, 363.06, 869.7)" xlink:href="#linear-gradient"/><linearGradient id="linear-gradient-7" x1="-398.78" y1="-462.33" x2="-398.78" y2="-554.67" gradientTransform="matrix(0.8, 0.83, 0.53, -0.51, 628.6, 175.36)" xlink:href="#linear-gradient"/><radialGradient id="radial-gradient" cx="74" cy="74" r="45.52" gradientUnits="userSpaceOnUse"><stop offset="0" stop-color="#fbde44"/><stop offset="0.1" stop-color="#fbde44" stop-opacity="0.93"/><stop offset="0.31" stop-color="#fbde44" stop-opacity="0.75"/><stop offset="0.6" stop-color="#fbde44" stop-opacity="0.45"/><stop offset="0.95" stop-color="#fbde44" stop-opacity="0.06"/><stop offset="1" stop-color="#fbde44" stop-opacity="0"/></radialGradient><radialGradient id="radial-gradient-2" cx="74" cy="74" r="77.32" xlink:href="#radial-gradient"/><radialGradient id="radial-gradient-3" cx="74" cy="74" r="58.3" xlink:href="#radial-gradient"/></defs><title>Interactive-Underpowered Assets</title><g id="lighting_the_way" data-name="lighting the way"><polyline class="cls-1" points="75.39 63.83 135.17 20.5 153.13 55.38 83.05 78.7 75.39 63.83"/><polyline class="cls-2" points="87.41 71.31 148.6 111.85 131.05 133.03 79.92 80.34 87.41 71.31"/><polyline class="cls-3" points="66.91 71.31 12.8 21.07 43.53 -3.32 80.02 60.91 66.91 71.31"/><polyline class="cls-4" points="70.08 70.12 85.73 -1.59 111.83 7.1 81.21 73.83 70.08 70.12"/><polyline class="cls-5" points="68.84 81.7 54.09 148.97 90.61 151.32 84.42 82.7 68.84 81.7"/><polyline class="cls-6" points="63.09 63.72 -5.13 54.37 -4.57 90.96 63.34 79.32 63.09 63.72"/><polyline class="cls-7" points="60.05 77.94 6.06 120.04 23.9 138.47 67.66 85.8 60.05 77.94"/><circle class="cls-8" cx="74" cy="74" r="45.52"/><circle class="cls-9" cx="74" cy="74" r="36.36"/><circle class="cls-10" cx="74" cy="74" r="77.32"/><circle class="cls-11" cx="74" cy="74" r="58.3"/></g></svg>