<svg xmlns="http://www.w3.org/2000/svg" xmlns:xlink="http://www.w3.org/1999/xlink" viewBox="0 0 497 293"><defs><style>.cls-1{fill:url(#linear-gradient);}.cls-2{fill:#404040;}.cls-3{fill:#303030;}.cls-4{fill:#333;}.cls-5{fill:url(#linear-gradient-2);}.cls-16,.cls-21,.cls-25,.cls-6{fill:#1a1a1a;}.cls-7{fill:url(#linear-gradient-3);}.cls-8{fill:url(#linear-gradient-4);}.cls-9{fill:gray;stroke:#404040;stroke-width:1.73px;}.cls-12,.cls-14,.cls-15,.cls-16,.cls-17,.cls-18,.cls-19,.cls-20,.cls-21,.cls-22,.cls-23,.cls-24,.cls-25,.cls-26,.cls-9{stroke-miterlimit:10;}.cls-10{fill:url(#linear-gradient-5);}.cls-11{fill:url(#linear-gradient-6);}.cls-12{fill:#021c33;stroke:#021c33;stroke-width:6px;}.cls-13{fill:url(#linear-gradient-7);}.cls-14,.cls-15,.cls-17,.cls-18,.cls-19,.cls-20,.cls-22,.cls-23,.cls-24,.cls-26{fill:none;}.cls-14,.cls-15,.cls-16,.cls-17,.cls-19,.cls-20,.cls-21,.cls-22,.cls-23,.cls-24,.cls-25,.cls-26{stroke:#1a1a1a;}.cls-14{stroke-width:1.63px;}.cls-15{stroke-width:0.54px;}.cls-16{stroke-width:0.85px;}.cls-17{stroke-width:0.27px;}.cls-18{stroke:#303030;stroke-width:1.07px;}.cls-19{stroke-width:1.67px;}.cls-20{stroke-width:0.56px;}.cls-21{stroke-width:0.87px;}.cls-22{stroke-width:0.28px;}.cls-23{stroke-width:1.76px;}.cls-24{stroke-width:0.59px;}.cls-25{stroke-width:0.92px;}.cls-26{stroke-width:0.29px;}</style><linearGradient id="linear-gradient" x1="-3.14" y1="146.5" x2="500.14" y2="146.5" gradientUnits="userSpaceOnUse"><stop offset="0" stop-color="#021c33"/><stop offset="1" stop-color="#493e7a"/></linearGradient><linearGradient id="linear-gradient-2" x1="225.62" y1="82.59" x2="347.07" y2="82.59" gradientUnits="userSpaceOnUse"><stop offset="0" stop-color="#666" stop-opacity="0.8"/><stop offset="0.06" stop-color="#6f6f6f" stop-opacity="0.73"/><stop offset="0.48" stop-color="#a1a1a1" stop-opacity="0.34"/><stop offset="0.8" stop-color="silver" stop-opacity="0.09"/><stop offset="1" stop-color="#ccc" stop-opacity="0"/></linearGradient><linearGradient id="linear-gradient-3" x1="120.71" y1="260.4" x2="120.71" y2="147.26" gradientUnits="userSpaceOnUse"><stop offset="0.12" stop-color="#303030"/><stop offset="0.69" stop-color="#525252"/><stop offset="1" stop-color="#666"/></linearGradient><linearGradient id="linear-gradient-4" x1="293.68" y1="260.4" x2="293.68" y2="79.88" gradientUnits="userSpaceOnUse"><stop offset="0.12" stop-color="#303030"/><stop offset="0.34" stop-color="#373737"/><stop offset="0.65" stop-color="#494949"/><stop offset="1" stop-color="#666"/></linearGradient><linearGradient id="linear-gradient-5" x1="272.56" y1="50.45" x2="442.02" y2="50.45" xlink:href="#linear-gradient-2"/><linearGradient id="linear-gradient-6" x1="86.66" y1="77.9" x2="159.25" y2="77.9" xlink:href="#linear-gradient-2"/><linearGradient id="linear-gradient-7" x1="44.91" y1="87.26" x2="139.24" y2="87.26" xlink:href="#linear-gradient-2"/></defs><title>03 Powerplant</title><g id="lighting_the_way" data-name="lighting the way"><rect class="cls-1" x="-3.14" y="-1.85" width="503.27" height="296.7"/><polygon class="cls-2" points="77.43 222.87 39.12 222.87 44.92 102.22 71.63 102.22 77.43 222.87"/><ellipse class="cls-3" cx="58.28" cy="102.22" rx="13.36" ry="3.05"/><polygon class="cls-2" points="117.9 208.98 79.59 208.98 85.39 88.33 112.1 88.33 117.9 208.98"/><path class="cls-3" d="M112.14,88.3c0,.69-1,1.39-2.69,1.82a38.06,38.06,0,0,1-10.75,1.3c-5.29,0-9.79-.69-12-1.73-.87-.43-1.39-.87-1.39-1.39s.61-1,1.65-1.39c2.25-1,6.67-1.65,11.7-1.65,6.76,0,12.4,1.13,13.26,2.6C112.06,88,112.14,88.13,112.14,88.3Z"/><polygon class="cls-2" points="261.26 232.23 219.98 232.23 226.22 102.22 255.01 102.22 261.26 232.23"/><ellipse class="cls-3" cx="240.62" cy="102.22" rx="14.39" ry="3.29"/><rect class="cls-4" x="160.47" y="184.97" width="113.22" height="66.75"/><path class="cls-5" d="M338.15,78.5c-5,.47-10.24-1-15,.59-7.33,2.52-11.3,11.6-19.12,12.13-5.46.35-10.93-3.93-16.08-2.05-3.23,1.11-5,4.28-7.58,6.44-5.15,4.51-13.16,4.69-19.93,2.81-1.24-.35-2.61-.76-3.73-.23s-1.34.54-1.37,1.67a7.84,7.84,0,0,1,0,1.11,2.76,2.76,0,0,1-.56,1.76c-1.32,1.83-7.88,2.78-14,2.78-5.65,0-12.89-.88-14.34-2.75a4.1,4.1,0,0,1-.81-2.28c-.43-4.34,5.4-10,9.56-11.13,1.37-.41,2.86-.41,4.16-.94,4.59-1.87,5.28-9,10.18-10,2.11-.41,4.35.53,6.46.12,3.41-.7,4.84-4.45,7.2-6.8C269,66,279,68.78,287,67s15.4-8.73,23.53-7c5.9,1.23,10.12,6.68,16.14,7.38,3.54.41,7.08-.94,10.68-1.46s7.95.35,9.31,3.51C348.64,73.76,343.12,78,338.15,78.5Z"/><rect class="cls-6" x="203.97" y="182.1" width="87.46" height="8.77"/><rect class="cls-7" x="30.13" y="147.26" width="181.18" height="113.14"/><polygon class="cls-8" points="322.34 260.4 265.02 260.4 273.69 79.88 313.66 79.88 322.34 260.4"/><path class="cls-3" d="M313.68,79.92q0,.91-1.3,1.56c-2.86,1.73-10.14,2.95-18.72,2.95-7.89,0-14.74-1-17.94-2.51-1.3-.61-2-1.3-2-2a1.91,1.91,0,0,1,.87-1.39c2.51-1.82,10.14-3.21,19.07-3.21,9.54,0,17.51,1.56,19.5,3.55A1.5,1.5,0,0,1,313.68,79.92Z"/><rect class="cls-9" x="41.93" y="167.63" width="41.6" height="15.13"/><rect class="cls-9" x="99.91" y="167.63" width="41.6" height="15.13"/><rect class="cls-9" x="157.89" y="167.63" width="41.6" height="15.13"/><path class="cls-10" d="M429.57,44.34c-7,.69-14.3-1.47-20.89.87C398.45,48.93,392.9,62.37,382,63.15c-7.63.52-15.26-5.81-22.45-3-4.51,1.65-7,6.33-10.58,9.54-7.19,6.67-17.39,6.18-26.84,3.41-1.73-.52-3.64-1.13-5.2-.35-1.39.69-2.95,2.08-2.77,3.64a5.23,5.23,0,0,1,0,1.65,5.37,5.37,0,0,1-.78,2.6c-2.25,2.61-11.13,3.82-19.71,3.82-13,0-18.71-2-19.94-4.31a6.3,6.3,0,0,1-1.13-3.38C272,70.32,280,62.11,285.85,60.38c1.91-.61,4-.61,5.81-1.39,6.41-2.77,7.37-13.35,14.22-14.82,2.95-.61,6.07.78,9,.17,4.77-1,6.76-6.59,10.06-10.05,8.06-8.41,22-4.33,33.2-7,11.36-2.77,21.5-12.92,32.85-10.4,8.23,1.82,14.13,9.88,22.54,10.92,4.94.61,9.88-1.39,14.91-2.17s11.09.52,13,5.2C444.22,37.32,436.5,43.65,429.57,44.34Z"/><path class="cls-11" d="M157.31,77.21c-3.47,2.77-8.67.87-12.83,2.43-2.95,1-5.11,3.81-8.23,4.42a9.9,9.9,0,0,1-5-.17c-5.2-1.73-6.59-.35-11.7-.09a9.92,9.92,0,0,0-4.77,1.13A10,10,0,0,0,112,87.87a1.53,1.53,0,0,0-.35.43,8.94,8.94,0,0,1-2.17,1.82,38.06,38.06,0,0,1-10.75,1.3c-5.29,0-9.79-.69-12-1.73a5.25,5.25,0,0,1,.17-2.6c0-.09,0-.09.09-.17.78-2.17,4.07-5.11,5.72-6.67C95,78.16,97.32,76,100.27,75c2.6-1,5.37-.87,8.15-1.39,8.75-1.91,16.12-10.84,25-8.93,3.12.69,5.81,2.69,9,3.12,4.94.61,10.49-2.6,14.56.26A6.06,6.06,0,0,1,157.31,77.21Z"/><rect class="cls-6" x="28.2" y="146.26" width="4.67" height="111.7"/><rect class="cls-6" x="208.97" y="146.26" width="4.67" height="111.7"/><rect class="cls-6" x="25.2" y="138.49" width="191.89" height="8.77"/><path class="cls-12" d="M0,260v38.49q233.55,3,467.09-2.83,15-.36,29.91-.78V252.43c-50.48-9.12-74.67-13.85-156.52-9.06Z"/><path class="cls-13" d="M132.52,84c-3.79.37-7.73-.78-11.29.46-5.53,2-8.52,9.12-14.42,9.54-4.12.28-8.24-3.09-12.13-1.61-2.44.88-3.79,3.36-5.71,5.07C85.08,101,80.73,101,75.63,99.56a4,4,0,0,0-2.81-.18c-.75.37-1,.43-1,1.31a6.43,6.43,0,0,1,0,.88,2.24,2.24,0,0,1-.42,1.38c-1,1.44-7.65,2.08-12.28,2.33s-12.46-.68-13.56-2.15a3.31,3.31,0,0,1-.61-1.8c-.33-3.41,6.81-7.85,10-8.77,1-.32,2.15-.32,3.14-.74,3.47-1.47,4-7.1,7.68-7.88,1.59-.32,3.28.41,4.87.09,2.58-.55,3.65-3.5,5.43-5.34,4.36-4.47,11.89-2.3,17.94-3.73s11.61-6.87,17.75-5.53c4.45,1,7.63,5.25,12.18,5.81,2.67.32,5.34-.74,8.06-1.15s6,.28,7,2.76C140.43,80.3,136.26,83.66,132.52,84Z"/><polyline class="cls-14" points="361.81 249.07 346.47 191.05 346.47 108.23 325.22 108.23 325.22 191.05 309.88 249.07"/><polygon class="cls-15" points="325.22 191.05 346.47 191.05 320.95 207.21 350.74 207.21 325.22 191.05"/><polyline class="cls-15" points="325.22 191.05 346.47 174.5 325.22 174.5 346.47 191.05"/><polyline class="cls-15" points="325.22 174.5 346.47 157.95 325.22 157.95 346.47 174.5"/><polyline class="cls-15" points="325.22 157.95 346.47 141.41 325.22 141.41 346.47 157.95"/><polyline class="cls-15" points="325.22 141.41 346.47 124.86 325.22 124.86 346.47 141.41"/><polyline class="cls-15" points="325.22 124.86 346.47 108.31 325.22 108.31 346.47 124.86"/><polyline class="cls-15" points="350.74 207.21 317.31 220.99 354.38 220.99 320.95 207.21"/><polyline class="cls-15" points="354.38 220.99 313.66 234.77 358.03 234.77 317.31 220.99"/><polyline class="cls-15" points="325.22 146.44 297.38 157.95 374.31 157.95 346.47 146.44"/><polyline class="cls-15" points="325.22 124.79 307.02 132.31 364.67 132.31 346.47 124.79"/><line class="cls-14" x1="335.86" y1="108.23" x2="335.86" y2="242.01"/><rect class="cls-16" x="332.58" y="241.64" width="6.53" height="3.63"/><rect class="cls-16" x="306.62" y="248.62" width="6.53" height="3.63"/><rect class="cls-16" x="358.55" y="248.62" width="6.53" height="3.63"/><polyline class="cls-17" points="324.72 157.95 317.83 149.68 317.83 157.95 311.81 152.42 311.81 157.95 306.86 154.03 306.86 157.95 302.74 155.74 302.74 157.95"/><polyline class="cls-17" points="347.12 157.95 354.01 149.68 354.01 157.95 360.04 152.42 360.04 157.95 364.98 154.03 364.98 157.95 369.1 155.74 369.1 157.95"/><polyline class="cls-17" points="324.63 132.07 320.54 126.98 320.54 132.31 316.66 128.55 316.66 132.31 313.2 129.76 313.2 132.31"/><polyline class="cls-17" points="347.12 132.07 351.21 126.98 351.21 132.31 355.1 128.55 355.1 132.31 358.55 129.76 358.55 132.31"/><path class="cls-18" d="M298.37,164.86s16,45.49,56.51,13.36"/><path class="cls-18" d="M364.13,139.62s15.58,37.31,58.25,12.86"/><polyline class="cls-19" points="420 264.43 404.25 204.87 404.25 119.85 382.44 119.85 382.44 204.87 366.69 264.43"/><polygon class="cls-20" points="382.44 204.87 404.25 204.87 378.06 221.45 408.64 221.45 382.44 204.87"/><path class="cls-18" d="M422.38,151.4S437,191,478.95,165.71"/><polyline class="cls-20" points="382.44 204.87 404.25 187.88 382.44 187.88 404.25 204.87"/><polyline class="cls-20" points="382.44 187.88 404.25 170.9 382.44 170.9 404.25 187.88"/><polyline class="cls-20" points="382.44 170.9 404.25 153.91 382.44 153.91 404.25 170.9"/><polyline class="cls-20" points="382.44 153.91 404.25 136.92 382.44 136.92 404.25 153.91"/><polyline class="cls-20" points="382.44 136.92 404.25 119.94 382.44 119.94 404.25 136.92"/><polyline class="cls-20" points="408.64 221.45 374.32 235.6 412.38 235.6 378.06 221.45"/><polyline class="cls-20" points="412.38 235.6 370.58 249.75 416.12 249.75 374.32 235.6"/><polyline class="cls-20" points="382.44 159.08 353.86 170.9 432.84 170.9 404.25 159.08"/><polyline class="cls-20" points="382.44 136.85 363.76 144.57 422.94 144.57 404.25 136.85"/><rect class="cls-21" x="421.36" y="144.75" width="2.04" height="7.32"/><line class="cls-19" x1="393.36" y1="119.85" x2="393.36" y2="257.17"/><rect class="cls-21" x="390" y="256.8" width="6.7" height="3.72"/><rect class="cls-21" x="363.35" y="263.97" width="6.7" height="3.72"/><path class="cls-18" d="M431.82,178.22s9.89,34.36,57,15.31"/><rect class="cls-21" x="416.65" y="263.97" width="6.7" height="3.72"/><polyline class="cls-22" points="381.93 170.9 374.86 162.4 374.86 170.9 368.67 165.22 368.67 170.9 363.6 166.87 363.6 170.9 359.37 168.62 359.37 170.9"/><polyline class="cls-22" points="404.92 170.9 412 162.4 412 170.9 418.18 165.22 418.18 170.9 423.26 166.87 423.26 170.9 427.48 168.62 427.48 170.9"/><polyline class="cls-22" points="381.84 144.33 377.64 139.1 377.64 144.57 373.65 140.71 373.65 144.57 370.1 141.95 370.1 144.57"/><polyline class="cls-22" points="404.92 144.33 409.12 139.1 409.12 144.57 413.11 140.71 413.11 144.57 416.66 141.95 416.66 144.57"/><polyline class="cls-23" points="476.45 283.98 459.93 221.49 459.93 132.29 437.04 132.29 437.04 221.49 420.52 283.98"/><polygon class="cls-24" points="437.04 221.49 459.93 221.49 432.44 238.88 464.53 238.88 437.04 221.49"/><polyline class="cls-24" points="437.04 221.49 459.93 203.66 437.04 203.66 459.93 221.49"/><polyline class="cls-24" points="437.04 203.66 459.93 185.84 437.04 185.84 459.93 203.66"/><polyline class="cls-24" points="437.04 185.84 459.93 168.02 437.04 168.02 459.93 185.84"/><polyline class="cls-24" points="437.04 168.02 459.93 150.2 437.04 150.2 459.93 168.02"/><polyline class="cls-24" points="437.04 150.2 459.93 132.38 437.04 132.38 459.93 150.2"/><polyline class="cls-24" points="464.53 238.88 428.52 253.73 468.45 253.73 432.44 238.88"/><polyline class="cls-24" points="468.45 253.73 424.59 268.57 472.38 268.57 428.52 253.73"/><polyline class="cls-24" points="437.04 173.45 407.06 185.84 489.91 185.84 459.93 173.45"/><polyline class="cls-24" points="437.04 150.13 417.44 158.23 479.53 158.23 459.93 150.13"/><rect class="cls-25" x="477.88" y="158.42" width="2.14" height="7.68"/><line class="cls-23" x1="448.5" y1="132.29" x2="448.5" y2="276.36"/><rect class="cls-25" x="444.97" y="275.97" width="7.03" height="3.9"/><path class="cls-18" d="M373.32,165.09s12.73,42.12,58.5,13.13"/><rect class="cls-25" x="417.01" y="283.49" width="7.03" height="3.9"/><rect class="cls-25" x="472.93" y="283.49" width="7.03" height="3.9"/><polyline class="cls-26" points="436.51 185.84 429.08 176.93 429.08 185.84 422.6 179.88 422.6 185.84 417.27 181.62 417.27 185.84 412.84 183.45 412.84 185.84"/><polyline class="cls-26" points="460.63 185.84 468.05 176.93 468.05 185.84 474.54 179.88 474.54 185.84 479.87 181.62 479.87 185.84 484.3 183.45 484.3 185.84"/><polyline class="cls-26" points="436.41 157.97 432 152.48 432 158.23 427.82 154.18 427.82 158.23 424.1 155.48 424.1 158.23"/><polyline class="cls-26" points="460.63 157.97 465.04 152.48 465.04 158.23 469.22 154.18 469.22 158.23 472.94 155.48 472.94 158.23"/><path class="cls-18" d="M307.42,139.94s16.2,44.66,56.75,12.53"/><rect class="cls-16" x="297.38" y="157.95" width="1.99" height="7.13"/><rect class="cls-16" x="306.42" y="132.49" width="1.99" height="7.13"/><rect class="cls-16" x="363.14" y="132.49" width="1.99" height="7.13"/><rect class="cls-16" x="372.33" y="157.95" width="1.99" height="7.13"/><path class="cls-18" d="M364.16,151.4s18.33,36.28,54,13.82"/><rect class="cls-25" x="416.8" y="158.42" width="2.14" height="7.68"/><rect class="cls-21" x="363.15" y="144.75" width="2.04" height="7.32"/><rect class="cls-21" x="430.8" y="170.9" width="2.04" height="7.32"/><rect class="cls-25" x="487.78" y="185.84" width="2.14" height="7.68"/><path class="cls-18" d="M354.88,178.22s18.44,29,53.25,15.31"/><rect class="cls-25" x="407.06" y="185.84" width="2.14" height="7.68"/><rect class="cls-21" x="353.86" y="170.9" width="2.04" height="7.32"/></g></svg>