<svg xmlns="http://www.w3.org/2000/svg" viewBox="0 0 533 758"><defs><style>.cls-1,.cls-3{fill:#c2bcab;}.cls-1{fill-opacity:0.6;opacity:0.6;}.cls-2{fill:#fffbef;}.cls-3{opacity:0.5;}.cls-4,.cls-6{fill:#303030;}.cls-5,.cls-7,.cls-8{fill:none;stroke:#303030;stroke-miterlimit:10;}.cls-5{stroke-width:4px;}.cls-6{font-size:45.74px;font-family:SFProDisplay-BoldItalic, SF Pro Display;font-weight:700;font-style:italic;letter-spacing:0.05em;}.cls-7{stroke-width:2px;}.cls-8{stroke-width:2.36px;}</style></defs><title>Interactive-Underpowered Assets</title><g id="lighting_the_way" data-name="lighting the way"><polygon class="cls-1" points="481.13 746.73 509.63 496.17 481.13 266.09 509.63 31.29 37.86 31.29 9.36 266.09 37.86 496.17 9.36 746.73 481.13 746.73"/><polygon class="cls-2" points="493.14 736.72 521.64 486.16 493.14 256.08 521.64 21.28 49.87 21.28 21.37 256.08 49.87 486.16 21.37 736.72 493.14 736.72"/><polygon class="cls-3" points="21.37 256.08 493.14 256.08 521.64 486.16 49.87 486.16 21.37 256.08"/><path class="cls-4" d="M48,309H178a1.88,1.88,0,0,0,0-3.75H48A1.88,1.88,0,0,0,48,309Z"/><path class="cls-4" d="M50,332H254a1.88,1.88,0,0,0,0-3.75H50A1.88,1.88,0,0,0,50,332Z"/><path class="cls-4" d="M57.62,359H178a1.88,1.88,0,0,0,0-3.75H57.62a1.88,1.88,0,0,0,0,3.75Z"/><path class="cls-4" d="M63.13,383.9h130a1.88,1.88,0,0,0,0-3.75h-130a1.88,1.88,0,0,0,0,3.75Z"/><path class="cls-4" d="M65.13,406.9h204a1.88,1.88,0,0,0,0-3.75h-204a1.88,1.88,0,0,0,0,3.75Z"/><path class="cls-4" d="M72.72,433.9h135.4a1.88,1.88,0,0,0,0-3.75H72.72a1.88,1.88,0,0,0,0,3.75Z"/><path class="cls-4" d="M193.13,309H307.66a1.88,1.88,0,0,0,0-3.75H193.13a1.88,1.88,0,0,0,0,3.75Z"/><path class="cls-4" d="M321.07,309H472a1.88,1.88,0,0,0,0-3.75h-151a1.88,1.88,0,0,0,0,3.75Z"/><path class="cls-4" d="M265.5,332H347a1.88,1.88,0,0,0,0-3.75H265.5a1.88,1.88,0,0,0,0,3.75Z"/><path class="cls-4" d="M356.92,332H462a1.88,1.88,0,0,0,0-3.75H356.92a1.88,1.88,0,0,0,0,3.75Z"/><path class="cls-4" d="M190,359H381a1.88,1.88,0,0,0,0-3.75H190a1.88,1.88,0,0,0,0,3.75Z"/><path class="cls-4" d="M391.36,359h88.33a1.88,1.88,0,0,0,0-3.75H391.36a1.88,1.88,0,0,0,0,3.75Z"/><path class="cls-4" d="M204.12,383.9H341.35a1.88,1.88,0,0,0,0-3.75H204.12a1.88,1.88,0,0,0,0,3.75Z"/><path class="cls-4" d="M351.36,383.9H472a1.88,1.88,0,0,0,0-3.75H351.36a1.88,1.88,0,0,0,0,3.75Z"/><path class="cls-4" d="M279.13,406.9H379a1.88,1.88,0,0,0,0-3.75h-99.9a1.88,1.88,0,0,0,0,3.75Z"/><path class="cls-4" d="M388.46,406.9h99.9a1.88,1.88,0,0,0,0-3.75h-99.9a1.88,1.88,0,0,0,0,3.75Z"/><path class="cls-4" d="M220.06,433.9H325.41a1.88,1.88,0,0,0,0-3.75H220.06a1.88,1.88,0,0,0,0,3.75Z"/><path class="cls-4" d="M336.69,433.9h143a1.88,1.88,0,0,0,0-3.75h-143a1.88,1.88,0,0,0,0,3.75Z"/><polygon class="cls-5" points="362.5 115.78 193.13 115.25 202.51 44.4 371.88 44.93 362.5 115.78"/><text class="cls-6" transform="translate(219.06 97.06) rotate(-0.02)">PLAN</text><polygon class="cls-7" points="63.36 522.29 44.31 691.95 185.34 691.95 203.94 522.29 63.36 522.29"/><path class="cls-4" d="M229.74,520.72h61.83a1.88,1.88,0,0,0,0-3.75H229.74a1.88,1.88,0,0,0,0,3.75Z"/><path class="cls-4" d="M226.41,538.78H353.57a1.88,1.88,0,0,0,0-3.75H226.41a1.88,1.88,0,0,0,0,3.75Z"/><path class="cls-4" d="M223.07,556.83h92.5a1.88,1.88,0,0,0,0-3.75h-92.5a1.88,1.88,0,0,0,0,3.75Z"/><path class="cls-4" d="M219.74,574.89h71.83a1.88,1.88,0,0,0,0-3.75H219.74a1.88,1.88,0,0,0,0,3.75Z"/><path class="cls-4" d="M216.41,592.94h140.5a1.88,1.88,0,0,0,0-3.75H216.41a1.88,1.88,0,0,0,0,3.75Z"/><path class="cls-4" d="M206.41,638.1h69.17a1.88,1.88,0,0,0,0-3.75H206.41a1.88,1.88,0,0,0,0,3.75Z"/><path class="cls-4" d="M203.07,660.16h93.53a1.88,1.88,0,0,0,0-3.75H203.07a1.88,1.88,0,0,0,0,3.75Z"/><path class="cls-4" d="M199.74,680.21h112.5a1.88,1.88,0,0,0,0-3.75H199.74a1.88,1.88,0,0,0,0,3.75Z"/><path class="cls-4" d="M196.41,702.27h90.25a1.88,1.88,0,0,0,0-3.75H196.41a1.88,1.88,0,0,0,0,3.75Z"/><path class="cls-4" d="M284.37,638.1h130a1.88,1.88,0,0,0,0-3.75h-130a1.88,1.88,0,0,0,0,3.75Z"/><path class="cls-4" d="M305.32,660.16H487.7a1.88,1.88,0,0,0,0-3.75H305.32a1.88,1.88,0,0,0,0,3.75Z"/><path class="cls-4" d="M321,680.21h60a1.88,1.88,0,0,0,0-3.75H321a1.88,1.88,0,0,0,0,3.75Z"/><path class="cls-4" d="M295.66,702.27h112a1.88,1.88,0,0,0,0-3.75h-112a1.88,1.88,0,0,0,0,3.75Z"/><path class="cls-4" d="M423.7,638.1h68a1.88,1.88,0,0,0,0-3.75h-68a1.88,1.88,0,0,0,0,3.75Z"/><path class="cls-4" d="M388.36,680.12H475.7a1.78,1.78,0,0,0,0-3.56H388.36a1.78,1.78,0,0,0,0,3.56Z"/><polygon class="cls-8" points="483.78 133.39 471.76 232.4 377.19 232.4 390.8 133.39 483.78 133.39"/><path class="cls-4" d="M60,152.69H129.2a1.88,1.88,0,0,0,0-3.75H60a1.88,1.88,0,0,0,0,3.75Z"/><path class="cls-4" d="M56.7,174.74h93.53a1.88,1.88,0,0,0,0-3.75H56.7a1.88,1.88,0,0,0,0,3.75Z"/><path class="cls-4" d="M53.36,194.8h112.5a1.88,1.88,0,0,0,0-3.75H53.36a1.88,1.88,0,0,0,0,3.75Z"/><path class="cls-4" d="M50,216.86h90.25a1.88,1.88,0,0,0,0-3.75H50a1.88,1.88,0,0,0,0,3.75Z"/><path class="cls-4" d="M138,152.69H268a1.88,1.88,0,0,0,0-3.75H138a1.88,1.88,0,0,0,0,3.75Z"/><path class="cls-4" d="M158.95,174.74h93.53a1.88,1.88,0,0,0,0-3.75H158.95a1.88,1.88,0,0,0,0,3.75Z"/><path class="cls-4" d="M174.66,194.8h60a1.88,1.88,0,0,0,0-3.75h-60a1.88,1.88,0,0,0,0,3.75Z"/><path class="cls-4" d="M261.32,174.74h90.54a1.88,1.88,0,0,0,0-3.75H261.32a1.88,1.88,0,0,0,0,3.75Z"/><path class="cls-4" d="M244.7,194.77H361a1.85,1.85,0,0,0,0-3.69H244.7a1.85,1.85,0,0,0,0,3.69Z"/><path class="cls-4" d="M149.28,216.86h112a1.88,1.88,0,0,0,0-3.75h-112a1.88,1.88,0,0,0,0,3.75Z"/><path class="cls-4" d="M269.13,216.86h72.22a1.88,1.88,0,0,0,0-3.75H269.13a1.88,1.88,0,0,0,0,3.75Z"/></g></svg>