<svg xmlns="http://www.w3.org/2000/svg" viewBox="0 0 243 345"><defs><style>.cls-1,.cls-3{fill:#fffbef;}.cls-1,.cls-6,.cls-7{stroke:#c2bcab;}.cls-1,.cls-5,.cls-6,.cls-7{stroke-miterlimit:10;}.cls-1,.cls-7{stroke-width:11px;}.cls-2{fill:#a4bdbe;}.cls-4{opacity:0.8;}.cls-5,.cls-6,.cls-7{fill:none;}.cls-5{stroke:#868070;stroke-width:0.25px;}.cls-6{stroke-width:0.83px;}.cls-12,.cls-8{font-size:7.5px;}.cls-12,.cls-18,.cls-8{fill:#153460;font-family:SFProDisplay-Bold, SF Pro Display;font-weight:700;}.cls-14,.cls-8{letter-spacing:-0.02em;}.cls-9{letter-spacing:0.01em;}.cls-10{letter-spacing:0em;}.cls-11,.cls-12{letter-spacing:0.01em;}.cls-13{letter-spacing:-0.01em;}.cls-15{letter-spacing:-0.02em;}.cls-16{letter-spacing:-0.09em;}.cls-17{letter-spacing:0.01em;}.cls-18{font-size:10px;letter-spacing:-0.01em;}.cls-19{letter-spacing:0.01em;}.cls-20{letter-spacing:-0.02em;}.cls-21{letter-spacing:-0.01em;}.cls-22{letter-spacing:0.01em;}.cls-23{letter-spacing:-0.01em;}.cls-24{letter-spacing:-0.09em;}</style></defs><title>Interactive-Underpowered Assets</title><g id="lighting_the_way" data-name="lighting the way"><rect class="cls-1" x="8.26" y="9.29" width="226.49" height="326.41"/><path class="cls-2" d="M180.09,221.82c-.9,2-2.9,3.37-4.94,4.27s-4.22-.17-6.14,1a6.79,6.79,0,0,0-1.49,2.19c-.79,1.41,1.26,4.29,2.87,4.28-.6,1.31-3.12,1.7-4.55,1.59s-2.88-.56-4.29-.25c-2,.44-2.56,1.44-4.39,2.37,0,0-5.39,1.66-3.24,5.34.55.94,1.92,1,2.92,1.41a2.82,2.82,0,0,1,1.11,1.93c0,.52-.51.89-.67,1.38-.32,1,.8,1.81,1.77,2.18,1.64.64.87.26,2.61.5.65.09,4,.9,4.25.32.15-.29.12.19,0-.12a7.18,7.18,0,0,0-1.75-3.61,13.77,13.77,0,0,1,9.27,2.23,10.88,10.88,0,0,0,2.36,1.42,2.42,2.42,0,0,0,2.57-.44c.35-.38,1.34-.91,1.68-1.3.61-.7,1-.8,1.67-.22a1.87,1.87,0,0,1,.29,2.49c1.36,1.64,4.79,1.38,5,3.51.14,1.31-1.25,2.23-2.5,2.66s-3.54,0-4.08,1.19a2.16,2.16,0,0,0,.88,2.67c.38.22,2.49,2,2.85,2.21,1.15.79,0,2.68-1,3.66s-3.22,1.44-4.32,2.3-.22,2.5.6,3.64c1.21,1.67,4.33.41,5.65,2,.61.74-.12,2.8-.73,3.55a15.82,15.82,0,0,1-6.48,4.13c1.48,2.65,1.91,5.37,4.58,4.16,2.89-1.3,6.32-5.71,9.36-4.84a51.49,51.49,0,0,0-2.32,15c1.09.33,2.42,1,2.26,2.13-.1.74-.82,1.2-1.38,1.7-2.75,2.44-1.43,7.84,2.14,8.74-3.18,1-6.77,2.4-7.89,5.54-2.71-1.18.32-6.41-2.17-8a3.79,3.79,0,0,0-1.88-.43c-8.23-.43-16.77-.51-24.36,2.71a29.71,29.71,0,0,0-7.68,4.74,2.57,2.57,0,0,1-1.73.85,2.09,2.09,0,0,1-1-.42,7.4,7.4,0,0,1-3.08-4.78,3.13,3.13,0,0,0-.58-1.71,2.6,2.6,0,0,0-2-.5c-20.82.67-41.65.51-62.47,1.18A82,82,0,0,0,75.9,291.7a1.52,1.52,0,0,0-2-1.54l-9.39.86a112.29,112.29,0,0,1,4.53-17.76,9.59,9.59,0,0,0,.75-3.46c-.1-2.52-2.26-4.7-2.06-7.22s2.73-4.51,2.74-7.06c0-1.76-1.19-3.26-1.86-4.89-1.74-4.21.08-9,1.93-13.13l-3.28-6.64c-1.38-2.8-2.8-5.83-2.31-8.91.58-3.67,3.82-7,2.82-10.58a11.66,11.66,0,0,0-2.65-4A27.92,27.92,0,0,1,58.78,189l3.63,5.59c1.43,2.2,3,4.54,5.46,5.48,3.34,1.29,7.11-.43,10.66.05,1.46.2,2.86.77,4.32.9,4.44.4,8.37-3.45,9.63-7.74s.5-8.86-.26-13.26l-1.35-7.75c-.41-2.35-.82-4.7-1.45-7-.54-2-1.24-3.9-1.95-5.82l-6.1-16.69c-1.77-4.83-3.55-9.78-3.59-14.92s2-10.6,6.42-13.28l.06,0-2-3.21c1.69-1.25,4,.23,5.56,1.65l4.07,3.73a2.16,2.16,0,0,0,1.68.79c.84-.15,1.23-1.2,2-1.48,1-.34,1.9.59,2.34,1.51s.77,2,1.68,2.48,2.34-.59,1.69-1.38c.71.61,2.73,1.39,3.38.72s-.16-2.69-.79-3.39c.31-1.15,2.06-.54,2.93.27,2,1.84,2.27,3.67,4.24,5.51-1.94,1-2.45,1.69-4.65,1.86,1,.67,2.88,2.28,3.15,3.45s-.9,1.78-2,1.26c-.81-.39-2.6-.67-3.22-1.32-1-1-3.78-1.18-4.34.14s-1.28,1.43,0,3.2c2.55,3.54,10,4.83,14,6.68,3.39,1.58,6.4,4.31,10.13,4.58,2.28.17,5.14-.4,6.4,1.5a15.17,15.17,0,0,1,.83,2c.75,1.56,2.4,2.43,3.67,3.61a3.36,3.36,0,0,1,.19,4.57c-.42.49-.22,1.59-.65,2.08-1.34,1.55,3.57,3.29,4.2,3.37,2,.27,2.12-2.28,3.49-3.8a3.78,3.78,0,0,1,1.53,3.51c-.35,1-1.84,1.8-2,2.8a6.2,6.2,0,0,0,.44,3c.9,2.78,1.83,5.65,3.73,7.87s5,3.69,7.78,2.79c4.21-1.36,5.88-7.23,10.22-8.08.61-.12,1.38-.05,1.66.5a1.74,1.74,0,0,1-.14,1.4,43.55,43.55,0,0,0-2.58,9.5,87,87,0,0,0-.75,9.35,3.85,3.85,0,0,0,.74,3,6.86,6.86,0,0,0,2.18,1c2.31,1,3.24,3.69,4.44,5.9,2.32,4.29,6.37,7.45,8.68,11.74a17.46,17.46,0,0,1,1,14.19"/><path class="cls-2" d="M178.3,220.78c-3,5.22-10.64,1.59-12.67,7.68-1,3.1,1.17,6.28,4.21,7.07l-.91-3.46c-1.91,2.3-6.54.19-9.21,1.23a37.34,37.34,0,0,0-4.72,2.62c-2.83,1.65-5.16,5.07-2.55,8.13.52.61,1.18.75,1.69,1.23,1.61,1.49.61.29,1.07,2,.51,2,.71,2.95,2.79,4,2.29,1.12,6.72,1.89,9.06.77,1.33-.63,1.17-2.3.42-3.25-.45-.57-.92-2.68-1.81-3.69l-1.46,3.53a14.28,14.28,0,0,1,8.22,1.95,13.26,13.26,0,0,0,3.13,1.67c2.69.65,4.35-1.08,6.36-2.58h-2.09l.21.53a2,2,0,0,0,.53,2c.58.5,1.44.86,2,1.37,1.14,1.07,1.82.51-.3,1.58-1.42.72-2.61.25-3.56,1.91a4.33,4.33,0,0,0,.16,4.05c.58,1,3.57,2.34,3.7,3.2.38,2.43-8.12,2.2-5.77,7.82a5.39,5.39,0,0,0,3.33,3.22c.67.24,2.13,0,2.59.4,1.54,1.37-4.23,4.06-5.37,4.52a2.11,2.11,0,0,0-1.24,3c1.21,2.37,2.28,5.57,5.47,5.44,4-.16,6.16-5.52,10.25-5.09l-2-2.62a60.33,60.33,0,0,0-2.39,15.51,2.14,2.14,0,0,0,1.52,2c-1.3-.53-2.07,6.08-1.94,6.8a7.4,7.4,0,0,0,5,5.77v-4c-3.77,1.24-7.32,2.75-9.13,6.49l2.83-.74c-.6-.43-.06-3.86-.17-4.56a4.72,4.72,0,0,0-1.58-3.12c-2.77-2.29-9-1.31-12.22-1.23a45,45,0,0,0-16,3,31.21,31.21,0,0,0-5.78,3.11c-.87.59-1.55,1.41-2.68,1.43-2.14,0-1.79-1.9-2.65-3.62-1.75-3.52-4.75-2.8-8.32-2.7-6.18.17-12.36.27-18.55.36-13.34.18-26.68.29-40,.7l2.07,2.07a90.47,90.47,0,0,0-.81-11.07c-.29-2.08-.35-5.28-1.37-7.13-2.19-4-9.46-1.51-13-1.18l2,2.62a119.13,119.13,0,0,1,3.67-15.15c1.4-4.43,1.64-6.25.57-10.57-.87-3.53.27-5,1.28-8a6.81,6.81,0,0,0,.34-3.55c-.4-2.42-2.17-4.43-2.38-6.94-.3-3.5,2.17-5.87,2.44-9.09s-2.76-6.9-4.07-9.9c-1.49-3.41-1.65-6-.22-9.42a20.56,20.56,0,0,0,1.72-4.69c.54-3.5-1.24-5.78-3.28-8.42A27.25,27.25,0,0,1,60.84,189L57,190c2.39,3.68,4.73,8.9,8.67,11.23,4.39,2.59,9.71.46,14.46,1.32,9.19,1.66,14.92-5.36,15.08-14.22.21-11.78-3.79-24.12-7.78-35C84,144,73,123.55,85.3,116.32a2.1,2.1,0,0,0,.74-2.83l-2-3.21-1.24,3c3.76-1.55,6.67,5.84,10.21,6.17.61.06,1.07-.23,1.59-.21a4.07,4.07,0,0,0,1.14-.71q.84-.18.83.95c1.59,1.09,1.56,2.92,4,2.59a3.09,3.09,0,0,0,2.78-3.48l-3.11,1.79c4.75,3,8.58-.75,5.42-5.5l-.32,2.51c-.3.35,3.56,5,4.24,5.78l.42-3.25a11.2,11.2,0,0,1-4.16,1.65c-2,.31-1.72,2.85-.49,3.78.57.43,3.77,2.29,1.7.57a11.24,11.24,0,0,0-2.45-1.25,6,6,0,0,0-4.12-.33,4.83,4.83,0,0,0-3.09,5.45c.73,2.9,4.26,4.68,6.71,5.75,4.69,2,9.24,3.56,13.78,6a16.16,16.16,0,0,0,6,2.06,8.06,8.06,0,0,1,6.08,3c1.69,1.82,3.54,3.42,3.3,6.06-.12,1.29-1.16,2.42-.88,3.76.47,2.17,3.46,3.74,5.46,4.12,3.67.71,4.47-2.08,6.24-4.64l-3.25.42c1.16,1-.84,3.49-1.07,4.57-.37,1.72.39,3.63.93,5.22,1.18,3.5,2.75,7,5.86,9.19a8.78,8.78,0,0,0,8.77,1.08c1.7-.78,7.82-8.36,9.24-7.34l-1-1.79c.23,2.06-1.57,5.1-2,7.12a54.75,54.75,0,0,0-1.12,7.5c-.35,4.08-1.23,7.88,2,10.73,2.13,1.9,3.67,2.74,5.08,5.29a36.43,36.43,0,0,0,3.91,5.61c4.9,6,8.35,11.39,5.83,19.3-.81,2.54,3.18,3.63,4,1.1a20.26,20.26,0,0,0-.27-13.82c-2-5.07-6.42-8.42-9.17-13-1.05-1.75-1.77-3.75-3.11-5.32-1.13-1.33-2.79-1.79-3.69-3.24-1.63-2.62-.32-8.45.25-11.44.52-2.7,1.74-5.23,2.3-7.88.45-2.15,0-4.14-2.55-4.52-3.36-.5-6,2.76-8,4.94-.75.84-2.05,2.64-3.15,3-2.57.76-5.45-.7-6.91-2.74-1.86-2.59-3.22-6.25-2.06-9.29,1.06-2.77,1.64-4.82-1.05-7.15a2.11,2.11,0,0,0-3.25.42c-1,1.49-1,3.06-2.88,2.21s-.31-1.23.24-3.37c.8-3.1-.86-4.72-2.87-6.74-2.3-2.31-2.69-5.33-6.16-6.16-1.86-.44-3.83,0-5.69-.46-2.66-.62-5-2.54-7.36-3.75-3-1.51-6.25-2.26-9.34-3.51a13,13,0,0,1-3.59-1.92c-.79-.67-2.21-1.07-.48-1.28,1.57-.19,3.1,1.11,4.68,1.42,2,.4,3.92-.06,4.45-2.23.68-2.76-2.09-4.81-4-6.27l-.49,3.78a14.1,14.1,0,0,0,5.15-2.07,2.09,2.09,0,0,0,.42-3.25c-1.93-2.12-6.26-10.35-10.09-5.78a2.13,2.13,0,0,0-.32,2.51,1.56,1.56,0,0,1,.58,1.79l1.44-1.44a1.47,1.47,0,0,1-1.79-.51,2.08,2.08,0,0,0-3.11,1.79q1.54-.93.49-2.15l-.59-.87a5,5,0,0,0-1.56-1.34c-1.82-.85-2.48.62-3.93.6-2,0-4.47-3.73-6.36-4.87a5.71,5.71,0,0,0-5.57-.67,2.1,2.1,0,0,0-1.24,3l2,3.21.74-2.83c-6.41,3.78-8.14,11.91-7.2,18.78,1.47,10.77,7,21.13,10.5,31.37,1.72,5.11,2.46,10.45,3.37,15.75,1,5.64,2.81,13.09-1.53,17.87-2.81,3.09-5.71,2.14-9.29,1.62a24.71,24.71,0,0,0-6,.2c-3.61.34-6.05-.66-8.2-3.68-1.54-2.17-2.91-4.47-4.36-6.7a2.08,2.08,0,0,0-3.85,1A31.61,31.61,0,0,0,59,201.07a29.86,29.86,0,0,0,3.32,6c2.19,3,4,4.46,2.71,8.75-1.08,3.46-2.76,5.87-2,9.73.9,4.57,3.69,8.86,5.73,13v-2.09c-1.7,4-3.45,8.17-2.7,12.57.35,2,1.95,3.83,2.23,5.76.31,2.14-1.52,3.84-2.18,5.76a7.3,7.3,0,0,0-.24,4.05c.8,3.53,2,4.75.89,9-1.5,5.65-3.21,11.11-4.24,16.89-.21,1.2.54,2.75,2,2.62,2.12-.19,5.45-1.15,7.51-.69,2.76.62.87-1.53,2.23,1.74,1.66,4,1.28,10,1.34,14.19a2.09,2.09,0,0,0,2.07,2.07c12.36-.38,24.73-.5,37.09-.66,6.18-.08,12.37-.17,18.55-.32,2.2-.05,5.87-1,7.43.5,1.07,1,1.24,3.5,2.5,4.75,2.13,2.12,3.88,2.3,6.34.83,5.19-3.09,9.16-5.8,15.35-6.78,3.27-.52,15.18-2.41,16.51,1.15,1,2.74-.78,4.53,2.14,6.62a2.08,2.08,0,0,0,2.83-.74c1.33-2.76,3.94-3.69,6.66-4.59a2.09,2.09,0,0,0,0-4c-5.34-2.12.81-5.88.72-8.72-.07-2.21-2-3.13-3.75-3.85l1.52,2a55.66,55.66,0,0,1,2.24-14.41,2.1,2.1,0,0,0-2-2.62c-2.27-.24-3.9.66-5.78,1.89-3.18,2.08-4.19,4.09-6.37-.19l-1.24,3c3.4-1.37,11.57-5.63,8.44-10.72-.77-1.26-6.23-2.28-6-3.39.07-.34,3.23-1.56,3.74-2a7.13,7.13,0,0,0,1.86-2.81c.66-2.16-.37-3.24-1.87-4.59l-1.39-1.1q-.95-.49.25-.43c.45-.43,2.68-.62,3.36-1.07,1.75-1.14,2.8-3.16,1.94-5.18-1-2.34-3.55-2.16-5.27-3.64l.53,2c1.14-2.86-1-6.14-4.2-5.2-1,.28-1.51,1.64-2.47,1.89-1.64.43-2.94-1.13-4.24-1.81a16.84,16.84,0,0,0-8.91-1.69,2.1,2.1,0,0,0-1.46,3.53c.94,1.07.95,2.59,1.81,3.69l.42-3.25c-.45.21-1.89-.34-2.51-.43-1.38-.2-2.41-.11-2.8-.87s.34-2.29-.3-3.39-1.94-1.2-2.52-2c-2-2.55,4.87-4.91,6.84-4.91,3,0,6,.73,8.17-1.93a2.09,2.09,0,0,0-.91-3.46c-4.65-1.21,1.72-2.83,2.65-3a13.22,13.22,0,0,0,3.2-.95,11.3,11.3,0,0,0,5.08-4.71c1.34-2.31-2.23-4.39-3.57-2.09Z"/><path class="cls-2" d="M95.74,55.54c-.23-.86-.86-1.56-1.14-2.41s0-2,.92-2.14c1.52-.18,1.7,2.73,3.21,2.93a1.62,1.62,0,0,0,1.57-1.17,7.81,7.81,0,0,0,.25-2.1,15.82,15.82,0,0,1,2-5.8,4.75,4.75,0,0,1,1.56-2.05,1.64,1.64,0,0,1,2.28.43c.32.66,0,1.46.19,2.16a3.38,3.38,0,0,0,.69,1.08,9.62,9.62,0,0,1,.88,10.41c-.83,1.49-2.1,2.89-2.07,4.6,0,.81.33,1.58.36,2.39s-.27,1.69-.23,2.53a10,10,0,0,0,1.07,3.1,3.16,3.16,0,0,1-.11,3.14c-.25.3-.61.55-.71.93-.4,1.44,2.92,1.83,2.49,3.26-.12.42-.55.66-.78,1-.61,1,.41,2.14,1.12,3.07A8.91,8.91,0,0,1,110.93,87a26.5,26.5,0,0,1-1.46,6.23l-1.77,5.52a2.44,2.44,0,0,0-.16.85,1.88,1.88,0,0,0,.42,1c.74,1,1.89,1.59,2.71,2.51s1.18,2.52.23,3.3c-.34.28-.82.42-1.07.79s-.16,1.12-.3,1.67c-.31,1.23-1.9,1.58-3.17,1.45s-2.65-.49-3.73.18c-.78.49-1.19,1.4-1.85,2s-1.95.87-2.38.06a1.16,1.16,0,1,0-1.16-2c-.48-1.3,2.33-2.44,2.12-3.81-.14-.94-2.93-1.53-3-2.48s.25-1.53,1.2-1.64,3.66.8,4.41.21,1.67-3.13.72-3.78c-.44-.3-1.84-.41-2.16-.84-.7-1,.44-2.67-.52-3.37-.52-.38-1.27-.09-1.88-.29-1-.32-1.13-1.64-.92-2.64a8.75,8.75,0,0,1,1.07-2.75,7.68,7.68,0,0,0,1.14-2.19,1.67,1.67,0,0,0-1-2c-.75-.19-1.52.39-2.28.25s-1.54-1-2.16-.5c-.26.2-.33.55-.49.83-.68,1.23-2.79.68-3.29-.63a6.77,6.77,0,0,0-.43-1.21c-.68-1.1-2.61-1.09-3-2.33-.26-.91.54-1.72,1-2.54.87-1.47.77-3.43,1.89-4.73A13,13,0,0,1,92,72.54a2.52,2.52,0,0,0,1.21-2.33,4.33,4.33,0,0,0-1.12-1.7,1.72,1.72,0,0,1-.4-1.88c.2-.32.56-.51.75-.83.42-.71-.2-1.64,0-2.44.13-.51.59-.91.65-1.44.14-1.22-1.89-2.13-1.36-3.24a1.4,1.4,0,0,1,1.6-.52,6.32,6.32,0,0,0,1.77.37,1.65,1.65,0,0,0,.71-3.06"/><path class="cls-3" d="M89.41,142.26a5.74,5.74,0,0,0-2.11.94,2,2,0,0,0-.72,2.06,3.59,3.59,0,0,0,.75,1.05A7.19,7.19,0,0,1,89,149.89a18.47,18.47,0,0,0,.28,2c.46,1.73,2,3,2.54,4.7.39,1.23.21,2.58.58,3.82.22.74,0,1.51.76,1.4.55-.08,2.58.25,2.88-.21.47-.72.09-2.4-.11-3.23-.14-.57-.57-1-.74-1.61-.28-.91.14-1.87.22-2.82.12-1.3-.41-2.59-.38-3.89a18.29,18.29,0,0,1,.64-3.16,3.74,3.74,0,0,0-.47-3.09A1.93,1.93,0,0,0,94,143a4.77,4.77,0,0,0-1.08,0c-1.09.08-2.05-1.07-3.47-.8"/><path class="cls-2" d="M89.27,141.77c-1.65.55-3.62,1.44-3.2,3.57.24,1.22,1.77,2.44,2.17,3.72.44,1.44.3,2.65.93,4,1,2.26,1.93,3.46,2.44,6.07.06.29.18,2.39.61,2.76a4.61,4.61,0,0,0,3.54.32c1-.56,1-1.25.92-2.4-.08-1.7-.93-3.13-1-4.86,0-1.21,0-2.52-.05-3.75,0-2.06,1.54-5.94-.14-7.85-1.25-1.42-4.32-1.59-6.09-1.63a.52.52,0,0,0,0,1c1.72,0,5.13,1.23,5.8,3,.33.85-.66,4.37-.65,5.55a37.22,37.22,0,0,0,0,5.41c.21,1.22,2.13,3.45.39,4.57-2.51,1.62-2.65-5-3.49-6.44a20.16,20.16,0,0,1-2.16-5.57c-.5-1.93-3.5-5.28.2-6.5.63-.21.36-1.21-.27-1Z"/><path class="cls-2" d="M135,102.83a3.52,3.52,0,0,1,2.11-2.13,8.34,8.34,0,0,0,2.67-1.55,2.4,2.4,0,0,1,.85-.75c.36-.13.88.17.76.53.51.31,1.12-.2,1.49-.66l3.83-4.71a3,3,0,0,0,.68-1.16,7.85,7.85,0,0,0-.17-2c-.05-1.66,1.51-2.85,2.91-3.74a1,1,0,0,1,.69-.23.75.75,0,0,1,.37.19c1.12,1,.1,3,.8,4.29.3.57.9.94,1.25,1.48a4.91,4.91,0,0,1,.52,2.32,15.48,15.48,0,0,0,1.6,5.7,4.19,4.19,0,0,1,.62,1.75c0,.74-.42,1.43-.44,2.17,0,1,.74,2.23.07,3-.27.32-.74.49-.91.87a1,1,0,0,0,.52,1.17,2.37,2.37,0,0,0,1.39.13,1.73,1.73,0,0,1,1.41.19,1.88,1.88,0,0,1,.42,1,4.75,4.75,0,0,0,1.6,2.51,5.06,5.06,0,0,1,.78.67,1.71,1.71,0,0,1-.33,2.39c-1.08.75-2.89.15-3.64,1.23a4.92,4.92,0,0,0-.4,1,5.26,5.26,0,0,1-1.17,1.57,2.41,2.41,0,0,1-1,.73,2.72,2.72,0,0,1-2-.66,11.62,11.62,0,0,0-4.77-1.66c-.25,0-.55,0-.66.2s.06.48.23.67a15.76,15.76,0,0,0,3.26,2.71,2,2,0,0,1,.94.92,1.34,1.34,0,0,1-1,1.52,6.89,6.89,0,0,1-2,.1,2.1,2.1,0,0,0-1.8.75c-.32.49-.31,1.23-.83,1.51-.93.5-1.9-1.21-2.9-.86-.79.28-.65,1.41-.41,2.21.49,1.61.68,3.56-.48,4.78a10.48,10.48,0,0,0-1,1c-.71,1-.29,2.32-.31,3.52a3.44,3.44,0,0,1-1.51,2.91,2.3,2.3,0,0,1-3-.58,9.92,9.92,0,0,0-.5-.89,5.41,5.41,0,0,0-1.2-.87,1.14,1.14,0,0,1-.55-1.26,3.81,3.81,0,0,1,.29-.44,1.14,1.14,0,0,0-.88-1.64c-.63,0-1.44.4-1.76-.13-.21-.34,0-.78.36-1s.72-.33,1-.57c.86-.69.8-2.28,1.85-2.62.25-.08.54-.07.78-.18.62-.27.68-1.14.45-1.78a7.48,7.48,0,0,1-.72-1.88c0-.6.21-1.25-.08-1.78s-1.15-.79-1.2-1.42c0-.45.36-.8.57-1.2.6-1.13-.16-2.91.92-3.59.83-.52,1.93.27,2.24,1.2a2.71,2.71,0,0,0,.45,1c.43.47,1.25.41,1.67.89a4.53,4.53,0,0,1,.46,1c.17.32.57.59.87.4s.23-.74.46-1.06,1-.24,1.44.07.95.69,1.45.51.65-1,.59-1.55a10.69,10.69,0,0,0-3.42-6.79,9.54,9.54,0,0,1-1.28-1.24c-.24-.31-.41-.67-.62-1a9.34,9.34,0,0,0-.8-1.07,18.49,18.49,0,0,0-2.15-2.14,22.28,22.28,0,0,0-3.51-2.4c-.31-.17-.67-.45-.57-.79s.68-.36,1-.6.32-.84.4-1.3.76-1.15,1.06-.8"/><path class="cls-2" d="M135.86,103.35c.51-1,5.06-2.89,4.61-3.9a1,1,0,0,0,.89.51c2.57-.13,4.17-3.19,5.58-5.09a13.3,13.3,0,0,0,1.44-2.34c.18-.38-.21-1.06,0-1.4l2.35-2.49,0,1.18c1.38,1.78,1.93,5.26,2.43,7.37.65,2.79,2.11,5.58,1.58,8.49-.23,1.27-1.52,2.37-.86,3.75.29.59.77.73,1.25,1,1.71,1,2.12.14,3.14,2.31.67,1.42,2.15.85.31,3-.19.23-1,0-1.24.23a15.15,15.15,0,0,1-1.35,1c-.49.33-2.5,2.21-3.21,2.23-.55,0-1.93-1-2.55-1.17a5.71,5.71,0,0,0-3.68-.39,1,1,0,0,0-.72,1.27c.53,1.52,1.88,1.81,2.69,3.11,1.45,2.31-.26,1.26-1.84,1.8-1.38.47-.87,1.12-2.48,1.41-.64.12-1.34-.52-2-.18-.92.45-.75,1.09-1.06,1.82-.21.52.22,1.05.18,1.55-1.17,13.93-.81,2.47-1.47,5.19-.39,1.61-.8,5.89-3.63,4.5-2-1-.43-1.73-1.19-3-1.1-1.89-2.55-.64-.73-2.56,2.24-2.34,2.82-2.55,2.19-5.85-.29-1.5-2.22-6.81.21-6.49,0,0,2.4,2.78,2.57,2.89.79.52.7.89,1.76.91a1,1,0,0,0,.89-.51c.69-1.26,2.4,1,3.71-.9s-.55-5.56-1.68-7.2a37,37,0,0,0-7.64-8.29,11.12,11.12,0,0,1-2-1.32c-1.32-1.62-.16.7,0-.14a7.25,7.25,0,0,1,1-1.83c1.31-.2.75-2.19-.55-2-1.66.25-1.75,2-2.91,3a1,1,0,0,0-.27,1c.69,2.45,4.65,3.7,6.3,5.66,1,1.18,1.87,2.3,2.9,3.43s3,3.28,2.88,4.81c-.4,3.84.1.66-.88,1.14a9.52,9.52,0,0,0-1.85.19c-.14,0-.29.38-.37.37-.35,0,.33-.19,0-.31-1.76-.66-2.18-3.33-4.1-3.72-3.57-.73-3.58,5.23-3,7.18.15.54,1.07,2.48,1,3.29-.11,1.75-.43,1.2-1.35,2.43s-2.84,2.57-2.79,4.25a1.07,1.07,0,0,0,.76,1c2.13.71.95.86,1.79,2.44a9.29,9.29,0,0,0,3.66,3.52,3.66,3.66,0,0,0,4.19-1.37,6.29,6.29,0,0,0,.83-2.67c.41-1.8,1.33-3.37,1.85-5.12a18.38,18.38,0,0,0,.21-3c.26-1.78-.43-.9.91-1.53.38-.18,1.21,0,1.71-.13s1.31-1.31,1.94-1.61c1.44-.69,3.62-.34,4-2.34.51-2.73-3.56-3.06-4.34-5.31l-.72,1.27c2.77-.84,4.82,2.81,7.48,2.11,1.54-.4,1.81-1.86,2.8-2.77,1.88-1.73,5.48-1.47,4.65-5a16.65,16.65,0,0,0-3.23-5,12.88,12.88,0,0,0-2.9-.49c.2.44.93-2.63.94-2.85a16.16,16.16,0,0,0-.12-4.92c-.71-2.83-1.56-5.81-2.43-8.62-.15-.5-.72-.73-.91-1.19-.43-1-.18-2.84-.69-3.81-1.34-2.53-3.53-1.76-5.24.39-1.19,1.5-1.14,3.08-1.78,4.82-.46,1.25-2.07,4.68-3.48,5.19,0,0-.54.1-.44,0-.17.09-1.41,0-1.81.08-1.75.55-4.9,2.82-5.79,4.64-.59,1.19,1.2,2.24,1.79,1Z"/><path class="cls-3" d="M85.56,152.8a13.81,13.81,0,0,0,2.87-1.7c.52-.4,0-1.3-.52-.89A13.81,13.81,0,0,1,85,151.9c-.61.27-.08,1.16.52.89Z"/><path class="cls-3" d="M96.11,149.73c6.06-1.79,12.53-3.43,16.25,3.07,2.38,4.15,4.1,9.53,3.86,14.29a.52.52,0,0,0,.88.37c5.79-6.23,11.37-12.8,17.93-18.23.51-.42-.22-1.15-.73-.73a141.25,141.25,0,0,0-13.11,13c-.82.88-2,2.85-3,3.24-1.42.53-.59.6-1-1.21a48.53,48.53,0,0,0-2.28-7.6c-1.17-3-2.61-6.38-5.54-8-4.08-2.3-9.45-.4-13.54.81a.52.52,0,0,0,.27,1Z"/><path class="cls-3" d="M116.18,167.13a16.64,16.64,0,0,0-.34,9.78c.26.91.85,1.8,1,2.72.57,2.65-.67,5.34-1.71,7.67a70.23,70.23,0,0,1-3.61,6.83c-3.89,6.68-8.52,14-7.59,22.13.3,2.6,5.47,12,3.36,13.94-.94.88-6.15,0-7.44-.07-2.41-.16-4.91-.69-7.33-.35-3,.41-5,2.26-7.09,4.23-4.62,4.35-9.71,3.92-15.63,3.88a.52.52,0,0,0,0,1c3.52,0,7.87.69,11.26-.51,5.28-1.88,7-7.17,13.27-7.7,2.68-.22,5.62.51,8.31.57,1.26,0,4.33.54,5.41-.16,1.44-.94,1-2.07.61-3.74-1.37-5.77-4.47-10-3.48-16.29.95-6,4.21-11.24,7.24-16.44,2.15-3.68,4.59-7.71,5.48-11.93.41-1.92,0-2.8-.57-4.57a17,17,0,0,1-.2-10.75c.2-.64-.8-.91-1-.27Z"/><path class="cls-3" d="M184.07,308.65c-.89-2.38-2.08-5-4.17-6.55-2.72-2.07-6.77-2.34-9.86-3.74a19,19,0,0,1-4-2.12c-3.6-2.92-2.28-7.74-.48-11.34,1.47-2.95,4.6-5.51,5.52-8.73,1.25-4.36-3.36-6.06-7-7.23-4.84-1.57-10.66-2.24-13.6-7-2-3.3.11-6.61-.8-10-.5-1.88-1.85-3.45-2.29-5.44s-.31-4.12-.71-6.16a13.4,13.4,0,0,0-2.82-5.86c-2.11-2.84-2.83-6.53-5.23-9.07-1.11-1.17-2.52-1.92-3.69-3-2.77-2.61-2.58-5.77-2.32-9.23.52-6.83-1.93-13.61-4.65-19.82-2.32-5.31-5.49-9.9-10.53-12.92a.52.52,0,0,0-.52.89c7,4.19,10.11,11.58,12.55,19,1.4,4.28,2.47,8.32,2.12,12.84-.21,2.68-.62,5.39.77,7.84,1.82,3.21,5.46,4.15,7.14,7.7a39.72,39.72,0,0,0,3.64,6.51c3.16,4.47,2,8.34,3.53,13,.64,2,1.39,3,1.7,5.16s-.17,3.15-.09,5c.19,4.79,4.57,8,8.64,9.5,3.62,1.37,10.5,1.63,12.72,5.12s-3.75,8.87-5,11.36c-1.93,3.83-3.88,9-.06,12.17,6.4,5.31,15.15,3.42,18.5,12.39.23.62,1.23.35,1-.27Z"/><path class="cls-3" d="M102.94,100.58c2.26-.24,1.82,2.48,1.92,3.75a7.24,7.24,0,0,0,.53,2.4,3.74,3.74,0,0,0,3.2,2.22c.66.08.65-1,0-1-4.71-.55-.63-8.91-5.65-8.38-.65.07-.66,1.1,0,1Z"/><g class="cls-4"><line class="cls-5" x1="30.36" y1="9.29" x2="30.36" y2="334.9"/><line class="cls-5" x1="47.16" y1="9.7" x2="47.16" y2="335.3"/><line class="cls-5" x1="63.95" y1="10.1" x2="63.95" y2="335.71"/><line class="cls-5" x1="80.75" y1="10.51" x2="80.75" y2="336.11"/><line class="cls-5" x1="97.54" y1="10.91" x2="97.54" y2="336.52"/><line class="cls-5" x1="114.34" y1="11.32" x2="114.34" y2="336.92"/><line class="cls-5" x1="131.13" y1="11.72" x2="131.13" y2="337.33"/><line class="cls-5" x1="147.93" y1="12.13" x2="147.93" y2="337.73"/><line class="cls-5" x1="164.72" y1="12.53" x2="164.72" y2="338.13"/><line class="cls-5" x1="181.52" y1="12.94" x2="181.52" y2="338.54"/><line class="cls-5" x1="198.31" y1="13.34" x2="198.31" y2="338.94"/><line class="cls-5" x1="215.11" y1="13.75" x2="215.11" y2="339.35"/><line class="cls-5" x1="237.22" y1="31.56" x2="11.34" y2="31.56"/><line class="cls-5" x1="236.94" y1="48.36" x2="11.06" y2="48.36"/><line class="cls-5" x1="236.66" y1="65.15" x2="10.78" y2="65.15"/><line class="cls-5" x1="236.37" y1="81.95" x2="10.5" y2="81.95"/><line class="cls-5" x1="236.09" y1="98.74" x2="10.22" y2="98.74"/><line class="cls-5" x1="235.81" y1="115.54" x2="9.94" y2="115.54"/><line class="cls-5" x1="235.53" y1="132.33" x2="9.66" y2="132.33"/><line class="cls-5" x1="235.25" y1="149.13" x2="9.38" y2="149.13"/><line class="cls-5" x1="234.97" y1="165.92" x2="9.1" y2="165.92"/><line class="cls-5" x1="234.69" y1="182.72" x2="8.82" y2="182.72"/><line class="cls-5" x1="234.41" y1="199.51" x2="8.54" y2="199.51"/><line class="cls-5" x1="234.13" y1="216.31" x2="8.26" y2="216.31"/><line class="cls-5" x1="237.22" y1="233.1" x2="11.34" y2="233.1"/><line class="cls-5" x1="236.94" y1="249.9" x2="11.06" y2="249.9"/><line class="cls-5" x1="236.66" y1="266.69" x2="10.78" y2="266.69"/><line class="cls-5" x1="236.37" y1="283.49" x2="10.5" y2="283.49"/><line class="cls-5" x1="236.09" y1="300.28" x2="10.22" y2="300.28"/><line class="cls-5" x1="235.81" y1="317.08" x2="9.94" y2="317.08"/></g><line class="cls-6" x1="235.53" y1="333.88" x2="9.66" y2="333.88"/><rect class="cls-7" x="8.26" y="9.29" width="226.49" height="326.41"/><text class="cls-8" transform="translate(85.56 286.3)">A<tspan class="cls-9" x="5.01" y="0">GU</tspan><tspan class="cls-10" x="15.92" y="0">S</tspan><tspan class="cls-11" x="20.62" y="0">AN DEL SUR</tspan></text><text class="cls-12" transform="translate(137.37 222.14)">SURI<tspan class="cls-13" x="17.12" y="0">G</tspan><tspan class="cls-14" x="22.5" y="0">A</tspan><tspan x="27.51" y="0">O DEL SUR</tspan></text><text class="cls-8" transform="translate(34.03 190.78)">A<tspan class="cls-9" x="5.01" y="0">GU</tspan><tspan class="cls-10" x="15.92" y="0">S</tspan><tspan class="cls-11" x="20.62" y="0">AN DEL NORTE</tspan></text><text class="cls-12" transform="translate(48.78 136.85)">SURI<tspan class="cls-13" x="17.12" y="0">G</tspan><tspan class="cls-14" x="22.5" y="0">A</tspan><tspan x="27.51" y="0">O DEL NORTE</tspan></text><text class="cls-12" transform="translate(63.1 77.82)">DIN<tspan class="cls-15" x="12.82" y="0">A</tspan><tspan class="cls-13" x="17.83" y="0">G</tspan><tspan class="cls-16" x="23.21" y="0">A</tspan><tspan class="cls-17" x="27.76" y="0">T ISLANDS</tspan></text><text class="cls-18" transform="translate(39.04 33.82)">C<tspan class="cls-19" x="6.98" y="0">AR</tspan><tspan class="cls-20" x="20.5" y="0">A</tspan><tspan class="cls-21" x="27.19" y="0">G</tspan><tspan class="cls-22" x="34.36" y="0">A ADMINI</tspan><tspan class="cls-23" x="79.04" y="0">S</tspan><tspan class="cls-22" x="85.26" y="0">TR</tspan><tspan class="cls-24" x="97.87" y="0">A</tspan><tspan class="cls-22" x="103.95" y="0">TIVE REGION</tspan></text></g></svg>