<svg width="712" height="371" viewBox="0 0 712 371" fill="none" xmlns="http://www.w3.org/2000/svg">
<path d="M0.472375 98.2292L57.0758 135.09C57.2446 135.197 57.4378 135.254 57.6348 135.254C57.8317 135.254 58.025 135.197 58.1937 135.09L76.5348 121.441L74.9125 120.116L64.8258 189.04C64.7627 189.312 64.7937 189.599 64.9134 189.849C65.0331 190.099 65.2334 190.295 65.4781 190.402C65.7229 190.51 65.9959 190.521 66.2478 190.434C66.4997 190.347 66.7139 190.168 66.8515 189.928L96.4057 147.611L94.4976 146.429L79.4263 182.073C78.9556 183.192 80.2669 184.561 81.1663 183.494L144.267 109.497L153.085 99.1534L151.236 98.016L131.852 166.637L129.028 176.625C128.975 176.848 128.985 177.083 129.056 177.3C129.127 177.518 129.257 177.708 129.429 177.849C129.601 177.989 129.808 178.074 130.025 178.092C130.242 178.11 130.459 178.06 130.65 177.949L155.808 159.892L154.186 158.568L142.704 194.327C142.641 194.577 142.657 194.841 142.749 195.08C142.842 195.32 143.006 195.52 143.217 195.651L178.302 218.507C178.515 218.633 178.761 218.683 179.003 218.65C179.246 218.616 179.471 218.5 179.647 218.32L197.164 201.516L195.273 200.69L192.02 228.611C191.902 229.642 193.297 230.13 193.911 229.437L239.007 178.563L237.158 177.425L229.752 211.078C229.689 211.35 229.72 211.637 229.84 211.887C229.96 212.137 230.16 212.333 230.405 212.441C230.65 212.548 230.923 212.559 231.174 212.472C231.426 212.385 231.641 212.206 231.778 211.967L265.812 153.547L263.787 152.659L244.672 223.146C244.617 223.392 244.639 223.651 244.733 223.884C244.828 224.117 244.991 224.312 245.198 224.439C245.405 224.567 245.646 224.62 245.884 224.592C246.123 224.564 246.346 224.456 246.522 224.283L253.154 217.796L251.304 216.659L241.672 256.914C241.619 257.137 241.628 257.372 241.699 257.589C241.771 257.807 241.9 257.997 242.073 258.138C242.245 258.278 242.452 258.363 242.669 258.381C242.886 258.398 243.103 258.349 243.294 258.238L251.447 254.017L249.842 252.729L242.647 290.94C242.445 292.024 243.689 292.984 244.496 292.078L260.618 273.967C261.593 272.874 263.081 271.674 263.812 270.413C263.921 270.217 264.459 269.879 264.501 269.64C264.341 270.599 263.114 269 263.585 270.066C263.846 270.644 265.628 271.399 266.107 271.719L271.049 274.936L296.199 291.313C297.317 292.042 301.435 295.757 302.814 295.623C301.629 295.774 303.201 293.571 301.973 295.623C301.082 297.125 300.612 299.178 299.981 300.795L289.836 327.117C289.474 328.006 290.676 329.001 291.458 328.441L304.394 318.799L302.797 317.52L282.287 369.434C281.766 370.749 283.632 371.309 284.313 370.323L327.014 308.758L333.226 299.8L331.2 298.911L321.348 329.614C321.293 329.861 321.315 330.12 321.409 330.353C321.504 330.585 321.667 330.78 321.874 330.908C322.081 331.035 322.322 331.089 322.56 331.061C322.799 331.032 323.022 330.924 323.198 330.751L366.344 280.516L372.522 273.318L370.673 272.181L338.277 355.962L333.696 367.817C333.251 368.972 334.814 369.674 335.545 368.954L373.404 332.004C374.245 331.205 375.539 330.334 376.136 329.339C377.221 327.561 376.212 330.147 375.691 328.903C376.279 330.298 380.6 332.102 381.802 332.884L408.456 350.222L428.629 363.374C429.848 364.164 430.958 362.138 429.747 361.356L376.674 326.788C376.461 326.661 376.215 326.61 375.972 326.643C375.729 326.677 375.504 326.793 375.329 326.975L333.982 367.301L335.831 368.439L368.227 284.658L372.808 272.803C373.236 271.701 371.664 270.839 370.958 271.666L327.812 321.901L321.634 329.099L323.483 330.236L333.335 299.569C333.763 298.218 331.998 297.676 331.309 298.68L288.608 360.246L282.397 369.203L284.423 370.092L304.907 318.177C305.277 317.289 304.066 316.293 303.285 316.853L290.348 326.495L291.971 327.819L304.579 295.001C304.644 294.752 304.629 294.487 304.536 294.247C304.443 294.008 304.278 293.807 304.066 293.677L264.257 267.756C264.045 267.627 263.798 267.575 263.555 267.609C263.312 267.642 263.086 267.76 262.913 267.942L242.89 290.443L244.74 291.58L251.935 253.368C251.988 253.145 251.978 252.911 251.907 252.693C251.836 252.476 251.706 252.285 251.534 252.145C251.362 252.004 251.154 251.92 250.937 251.902C250.72 251.884 250.503 251.934 250.313 252.044L242.159 256.265L243.781 257.59L253.414 217.325C253.469 217.078 253.448 216.819 253.353 216.587C253.259 216.354 253.096 216.159 252.888 216.032C252.681 215.904 252.441 215.85 252.202 215.879C251.964 215.907 251.741 216.015 251.565 216.188L244.933 222.675L246.782 223.812L265.913 153.281C265.976 153.009 265.945 152.722 265.826 152.472C265.706 152.222 265.506 152.025 265.261 151.918C265.016 151.81 264.743 151.799 264.491 151.886C264.239 151.973 264.025 152.153 263.888 152.392L229.836 210.829L231.862 211.718L239.268 178.065C239.323 177.818 239.301 177.559 239.207 177.326C239.112 177.093 238.949 176.899 238.742 176.771C238.535 176.644 238.294 176.59 238.056 176.618C237.817 176.646 237.594 176.755 237.418 176.927L192.347 227.784L194.239 228.611L197.492 200.69C197.618 199.606 196.239 199.25 195.6 199.863L179.672 215.148C179.462 215.352 178.571 215.974 178.503 216.268C178.184 217.689 177.335 214.037 179.344 216.463C178.769 215.977 178.139 215.568 177.469 215.246L168.122 209.158L146.453 194.994C146.125 194.78 144.931 193.687 144.528 193.741C145.864 193.581 144.007 195.767 145.251 193.741C146.932 190.968 147.63 186.338 148.613 183.219L156.321 159.163C156.374 158.94 156.364 158.706 156.293 158.488C156.222 158.271 156.092 158.08 155.92 157.94C155.748 157.799 155.54 157.715 155.323 157.697C155.107 157.679 154.889 157.729 154.699 157.839L129.541 175.897L131.163 177.221L150.546 108.6L153.371 98.6113C153.426 98.3646 153.404 98.1057 153.31 97.8728C153.215 97.6399 153.052 97.4453 152.845 97.3178C152.638 97.1903 152.397 97.1367 152.159 97.1648C151.92 97.1929 151.697 97.3013 151.521 97.4739L88.454 171.498L79.6029 181.842L81.3428 183.263L96.4057 147.611C96.526 147.346 96.5476 147.042 96.4662 146.761C96.3848 146.479 96.2063 146.241 95.9661 146.092C95.7259 145.943 95.4416 145.895 95.1696 145.958C94.8976 146.02 94.6577 146.188 94.4976 146.429L64.9182 188.773L66.944 189.662L77.0307 120.739C77.1568 119.85 76.2826 118.766 75.4084 119.414L59.8076 131.029C58.9257 131.593 58.083 132.222 57.2859 132.913C57.5549 132.637 58.4123 133.615 57.7062 132.744C56.706 131.518 54.3944 130.585 53.1083 129.749L13.4086 103.89L1.64076 96.2031C0.421941 95.4122 -0.687602 97.4383 0.522807 98.2203L0.472375 98.2292Z" fill="#FFFBEF"/>
<path d="M428.486 363.098C426.805 361.632 428.965 355.989 429.839 354.887L641.367 85.735C642.207 84.6331 644.292 84.9263 645.956 86.3926C647.637 87.8588 648.276 89.9471 647.402 91.0491L435.874 360.192C435.009 361.294 430.15 364.564 428.486 363.098Z" fill="#B3B3B3"/>
<path opacity="0.8" d="M669.493 34.7534L459.52 301.808C458.066 303.657 462.218 308.118 467.8 313.023C473.381 317.928 478.29 321.43 479.744 319.581L689.716 52.5263L669.493 34.7534Z" fill="#F2F2F2"/>
<path opacity="0.75" d="M673.645 10.2268L448.148 297.081L429.949 353.261C429.386 355.278 435.531 360.672 437.304 359.721L486.217 330.529L711.722 43.6398L673.645 10.2268Z" fill="url(#paint0_linear)"/>
<path d="M571.214 181.477C559.9 171.533 550.2 164.104 549.628 164.877L473.373 261.882C472.767 262.655 481.442 271.337 492.756 281.281C504.07 291.225 513.77 298.654 514.342 297.88L590.597 200.876C591.203 200.094 582.528 191.412 571.214 181.477Z" fill="#153460"/>
<path d="M664.805 27.535L656.046 19.8386L635.931 45.426L644.69 53.1224L664.805 27.535Z" fill="#303030"/>
<path d="M661.093 2.48322L667.051 7.72243L576.694 122.749L570.736 117.51C569.987 116.852 569.516 115.905 569.426 114.879C569.337 113.853 569.636 112.832 570.259 112.039L655.922 2.98745C656.544 2.19513 657.439 1.6969 658.408 1.60233C659.378 1.50777 660.344 1.82463 661.093 2.48322Z" fill="#303030"/>
<path d="M591.161 103.393L590.159 102.513C588.51 101.064 586.062 101.302 584.691 103.046L578.287 111.193C576.916 112.936 577.142 115.525 578.791 116.974L579.793 117.854C581.442 119.304 583.891 119.065 585.262 117.321L591.666 109.175C593.037 107.431 592.811 104.842 591.161 103.393Z" fill="#303030"/>
<path d="M485.031 329.267C483.795 330.423 477.734 326.166 476.625 325.473C468.451 320.06 461.004 313.508 454.485 305.994C453.753 305.105 448.668 299.578 449.576 297.996C450.685 296.023 447.777 294.228 446.667 296.219C445.129 298.956 447.508 302.377 448.987 304.519C452.972 310.313 458.141 315.262 463.352 319.785C468.27 324.051 473.523 328.263 479.323 331.107C481.694 332.271 485.098 333.968 487.401 331.827C489.032 330.307 486.644 327.792 485.014 329.303L485.031 329.267Z" fill="#303030"/>
<defs>
<linearGradient id="paint0_linear" x1="544.009" y1="176.094" x2="583.838" y2="207.408" gradientUnits="userSpaceOnUse">
<stop offset="0.02" stop-color="#303030"/>
<stop offset="0.39" stop-color="#424242"/>
<stop offset="1" stop-color="#666666"/>
</linearGradient>
</defs>
</svg>
