<svg xmlns="http://www.w3.org/2000/svg" xmlns:xlink="http://www.w3.org/1999/xlink" viewBox="0 0 760 464"><defs><style>.cls-1{fill:#303030;}.cls-2{fill:#b3b3b3;}.cls-3{fill:#f2f2f2;opacity:0.8;}.cls-4{opacity:0.75;fill:url(#linear-gradient);}.cls-5{fill:#153460;}</style><linearGradient id="linear-gradient" x1="557.75" y1="154.38" x2="616.64" y2="154.38" gradientTransform="matrix(0.77, 0.64, -0.64, 0.77, 277.3, -260.78)" gradientUnits="userSpaceOnUse"><stop offset="0.02" stop-color="#303030"/><stop offset="0.39" stop-color="#424242"/><stop offset="1" stop-color="#666"/></linearGradient></defs><title>Interactive-Underpowered Assets</title><g id="go_haywire" data-name="go haywire"><path class="cls-1" d="M-38.67,127.43l67.34,41.48a1.29,1.29,0,0,0,1.33,0l21.82-15.36-1.93-1.49-12,77.56a1.32,1.32,0,0,0,2.41,1L75.46,183l-2.27-1.33L55.26,221.78c-.56,1.26,1,2.8,2.07,1.6l75.07-83.27,10.49-11.64-2.2-1.28-23.06,77.22-3.36,11.24a1.33,1.33,0,0,0,1.93,1.49l29.93-20.32-1.93-1.49-13.66,40.24a1.33,1.33,0,0,0,.61,1.49l41.74,25.72a1.35,1.35,0,0,0,1.6-.21l20.84-18.91-2.25-.93-3.87,31.42c-.14,1.16,1.52,1.71,2.25.93l53.65-57.25-2.2-1.28-8.81,37.87a1.32,1.32,0,0,0,2.41,1L277,189.68l-2.41-1L251.85,268a1.33,1.33,0,0,0,2.2,1.28l7.89-7.3-2.2-1.28L248.28,306a1.33,1.33,0,0,0,1.93,1.49l9.7-4.75L258,301.29l-8.56,43c-.24,1.22,1.24,2.3,2.2,1.28l19.18-20.38c1.16-1.23,2.93-2.58,3.8-4,.13-.22.77-.6.82-.87-.19,1.08-1.65-.72-1.09.48.31.65,2.43,1.5,3,1.86l5.88,3.62,29.92,18.43c1.33.82,6.23,5,7.87,4.85-1.41.17.46-2.31-1,0-1.06,1.69-1.62,4-2.37,5.82L305.58,385c-.43,1,1,2.12,1.93,1.49l15.39-10.85L321,374.2,296.6,432.62c-.62,1.48,1.6,2.11,2.41,1l50.8-69.28,7.39-10.08-2.41-1-11.72,34.55a1.33,1.33,0,0,0,2.2,1.28l51.33-56.53,7.35-8.1-2.2-1.28-38.54,94.28-5.45,13.34c-.53,1.3,1.33,2.09,2.2,1.28L405,390.5c1-.9,2.54-1.88,3.25-3,1.29-2,.09.91-.53-.49.7,1.57,5.84,3.6,7.27,4.48L446.7,411l24,14.8c1.45.89,2.77-1.39,1.33-2.27l-63.14-38.9a1.34,1.34,0,0,0-1.6.21L358.1,430.22l2.2,1.28,38.54-94.28,5.45-13.34c.51-1.24-1.36-2.21-2.2-1.28l-51.33,56.53-7.35,8.1,2.2,1.28L357.33,354c.51-1.52-1.59-2.13-2.41-1l-50.8,69.28-7.39,10.08,2.41,1,24.37-58.42c.44-1-1-2.12-1.93-1.49l-15.39,10.85,1.93,1.49,15-36.93a1.32,1.32,0,0,0-.61-1.49l-47.36-29.17a1.33,1.33,0,0,0-1.6.21l-23.82,25.32,2.2,1.28,8.56-43a1.33,1.33,0,0,0-1.93-1.49l-9.7,4.75,1.93,1.49,11.46-45.31a1.33,1.33,0,0,0-2.2-1.28l-7.89,7.3,2.2,1.28,22.76-79.37a1.32,1.32,0,0,0-2.41-1l-40.51,65.76,2.41,1,8.81-37.87a1.33,1.33,0,0,0-2.2-1.28L189.6,273.22l2.25.93,3.87-31.42c.15-1.22-1.49-1.62-2.25-.93L174.52,259c-.25.23-1.31.93-1.39,1.26-.38,1.6-1.39-2.51,1,.22a10.63,10.63,0,0,0-2.23-1.37l-11.12-6.85L135,236.32c-.39-.24-1.81-1.47-2.29-1.41,1.59-.18-.62,2.28.86,0,2-3.12,2.83-8.33,4-11.84L146.74,196a1.33,1.33,0,0,0-1.93-1.49l-29.93,20.32,1.93,1.49,23.06-77.22,3.36-11.24a1.33,1.33,0,0,0-2.2-1.28L66,209.88,55.47,221.52l2.07,1.6L75.46,183a1.32,1.32,0,0,0-2.27-1.33L38,229.32l2.41,1,12-77.56c.15-1-.89-2.22-1.93-1.49L31.92,164.34a25.72,25.72,0,0,0-3,2.12c.32-.31,1.34.79.5-.19-1.19-1.38-3.94-2.43-5.47-3.37l-47.23-29.1-14-8.65c-1.45-.89-2.77,1.39-1.33,2.27Z"/><path class="cls-2" d="M470.53,425.49h0c-2-1.65.57-8,1.61-9.24L723.79,113.37c1-1.24,3.48-.91,5.46.74h0c2,1.65,2.76,4,1.72,5.24L479.32,422.22C478.29,423.46,472.51,427.14,470.53,425.49Z"/><path class="cls-3" d="M757.25,56,507.45,356.52c-1.73,2.08,3.21,7.1,9.85,12.62s12.48,9.46,14.21,7.38L781.31,76Z"/><path class="cls-4" d="M762.19,28.4,493.92,351.2l-21.65,63.22c-.67,2.27,6.64,8.34,8.75,7.27l58.19-32.85L807.49,66Z"/><path class="cls-5" d="M640.33,221.11c-13.46-11.19-25-19.55-25.68-18.68L523.93,311.59c-.72.87,9.6,10.64,23.06,21.83s25,19.55,25.68,18.68l90.72-109.16C664.11,242.06,653.79,232.29,640.33,221.11Z"/><rect class="cls-1" x="727.73" y="39.22" width="13.55" height="37.44" transform="translate(206.65 -456.09) rotate(39.73)"/><path class="cls-1" d="M692.93,1.8h9.22a0,0,0,0,1,0,0V170.06a0,0,0,0,1,0,0h-9.22a4.37,4.37,0,0,1-4.37-4.37V6.17A4.37,4.37,0,0,1,692.93,1.8Z" transform="translate(215.5 -424.6) rotate(39.73)"/><rect class="cls-1" x="651.31" y="130.3" width="10.79" height="21.16" rx="4.62" ry="4.62" transform="translate(241.7 -387.21) rotate(39.73)"/><path class="cls-1" d="M537.8,387.42c-1.47,1.3-8.68-3.49-10-4.27a127.83,127.83,0,0,1-26.34-21.92c-.87-1-6.92-7.22-5.84-9,1.32-2.22-2.14-4.24-3.46-2-1.83,3.08,1,6.93,2.76,9.34,4.74,6.52,10.89,12.09,17.09,17.18,5.85,4.8,12.1,9.54,19,12.74,2.82,1.31,6.87,3.22,9.61.81,1.94-1.71-.9-4.54-2.84-2.84Z"/></g></svg>