<svg xmlns="http://www.w3.org/2000/svg" xmlns:xlink="http://www.w3.org/1999/xlink" viewBox="0 0 321 458"><defs><style>.cls-1{fill:#1a1a1a;}.cls-2{fill:#999;}.cls-3{fill:url(#linear-gradient);}.cls-4{fill:url(#radial-gradient);}.cls-5{fill:#fffbef;}.cls-6,.cls-8{fill:#b3b3b3;}.cls-6{opacity:0.6;}.cls-7{fill:none;stroke:#303030;stroke-miterlimit:10;stroke-width:1.64px;}.cls-9{fill:#303030;}.cls-10{font-size:50.35px;letter-spacing:0.02em;}.cls-10,.cls-14{font-family:SFProDisplay-Thin, SF Pro Display;}.cls-11{letter-spacing:0em;}.cls-12{letter-spacing:0.02em;}.cls-13{letter-spacing:0.02em;}.cls-14{font-size:12.94px;letter-spacing:-0.07em;}.cls-15{letter-spacing:0.03em;}.cls-16{letter-spacing:-0.08em;}.cls-17{letter-spacing:-0.06em;}.cls-18{letter-spacing:0.02em;}.cls-19{letter-spacing:0.01em;}</style><linearGradient id="linear-gradient" x1="588.24" y1="481.79" x2="588.24" y2="842.7" gradientTransform="translate(-505.66 822.77) rotate(-90.04)" gradientUnits="userSpaceOnUse"><stop offset="0" stop-color="#ccc"/><stop offset="0.23" stop-color="#c8c8c8"/><stop offset="0.45" stop-color="#bcbcbc"/><stop offset="0.68" stop-color="#a9a9a9"/><stop offset="0.9" stop-color="#8d8d8d"/><stop offset="0.98" stop-color="gray"/></linearGradient><radialGradient id="radial-gradient" cx="64.31" cy="512.14" r="162.07" gradientTransform="matrix(1.28, 0.83, -0.77, 1.73, 469.71, -703.98)" gradientUnits="userSpaceOnUse"><stop offset="0" stop-color="#a4bdbe" stop-opacity="0.8"/><stop offset="0.17" stop-color="#a4bdbe" stop-opacity="0.55"/><stop offset="0.35" stop-color="#a4bdbe" stop-opacity="0.32"/><stop offset="0.52" stop-color="#a4bdbe" stop-opacity="0.14"/><stop offset="0.66" stop-color="#a4bdbe" stop-opacity="0.04"/><stop offset="0.75" stop-color="#a4bdbe" stop-opacity="0"/></radialGradient></defs><title>Interactive-Underpowered Assets</title><g id="go_haywire" data-name="go haywire"><rect class="cls-1" x="-25.47" y="140.24" width="360.81" height="201.71" rx="27.42" ry="27.42" transform="translate(419.27 130.39) rotate(100)"/><rect class="cls-2" x="263.77" y="150.21" width="9.8" height="25.67" rx="4.16" ry="4.16" transform="translate(32.4 -44.18) rotate(10)"/><rect class="cls-2" x="69.34" y="115.37" width="9.8" height="25.67" rx="4.16" ry="4.16" transform="translate(23.4 -10.95) rotate(10)"/><rect class="cls-2" x="64.19" y="144.55" width="9.8" height="25.67" rx="4.16" ry="4.16" transform="translate(28.39 -9.61) rotate(10)"/><rect class="cls-3" x="-24.23" y="133.22" width="360.81" height="201.71" rx="27.42" ry="27.42" transform="translate(413.81 120.93) rotate(100)"/><polygon class="cls-4" points="398.48 43.57 381.4 140.35 375.16 175.69 367.43 219.45 327.91 443.17 321.29 480.63 317.76 500.52 280.81 494.01 54.62 454.17 13.64 446.94 -19.39 441.12 -80.64 430.36 -62.7 328.65 -52.25 269.56 -47.37 241.98 0.11 -26.62 10.16 -24.85 62.43 -15.64 91.2 -10.56 251.53 17.68 277.33 22.21 332.68 31.99 398.48 43.57"/><polygon class="cls-5" points="268.32 111.15 257.85 170.53 254.03 192.22 249.3 219.07 225.09 356.34 221.03 379.34 218.87 391.54 202.59 388.67 102.96 371.1 84.91 367.91 70.36 365.34 43.38 360.6 54.37 298.19 60.77 261.93 63.76 245.01 92.84 80.19 97.27 80.97 120.29 85.03 132.97 87.27 203.59 99.73 214.96 101.72 239.34 106.04 268.32 111.15"/><circle class="cls-6" cx="129.53" cy="394.58" r="10.71" transform="translate(-281.55 453.61) rotate(-80)"/><circle class="cls-7" cx="129.53" cy="394.58" r="10.71" transform="translate(-281.55 453.61) rotate(-80)"/><path class="cls-8" d="M129.52,384.28h0a10.31,10.31,0,0,1,10.16,12.09,10.28,10.28,0,0,1-10.13,8.52,10.4,10.4,0,0,1-1.8-.16,10.3,10.3,0,0,1,1.78-20.45m0-.41a10.72,10.72,0,1,0,1.87.16,10.72,10.72,0,0,0-1.87-.16Z"/><circle class="cls-9" cx="152.97" cy="75.26" r="3.44" transform="translate(52.28 212.84) rotate(-80)"/><circle class="cls-9" cx="185.13" cy="69.84" r="2.26" transform="translate(84.2 240.03) rotate(-80)"/><rect class="cls-9" x="163.42" y="79.37" width="39.64" height="2.47" rx="1.24" ry="1.24" transform="translate(16.78 -30.6) rotate(10)"/><text class="cls-10" transform="matrix(0.98, 0.17, -0.17, 0.98, 114.16, 159.06)">0<tspan class="cls-11" x="30.47" y="0">1</tspan><tspan class="cls-12" x="50.26" y="0">:</tspan><tspan class="cls-13" x="61.75" y="0">1</tspan><tspan class="cls-12" x="82.6" y="0">0</tspan></text><text class="cls-14" transform="matrix(0.98, 0.17, -0.17, 0.98, 107.24, 177.09)">T<tspan class="cls-15" x="6.21" y="0">uesda</tspan><tspan class="cls-16" x="39.71" y="0">y</tspan><tspan class="cls-17" x="44.35" y="0">,</tspan><tspan class="cls-18" x="46.22" y="0" xml:space="preserve"> December </tspan><tspan class="cls-19" x="109.56" y="0">1</tspan><tspan class="cls-18" x="114.78" y="0">5</tspan></text></g></svg>