<svg xmlns="http://www.w3.org/2000/svg" xmlns:xlink="http://www.w3.org/1999/xlink" viewBox="0 0 321 458"><defs><style>.cls-1{fill:#1a1a1a;}.cls-2{fill:#999;}.cls-3{fill:url(#linear-gradient);}.cls-4{fill:#303030;}.cls-5,.cls-7{fill:#b3b3b3;}.cls-5{opacity:0.6;}.cls-6{fill:none;stroke:#303030;stroke-miterlimit:10;stroke-width:1.64px;}</style><linearGradient id="linear-gradient" x1="574.12" y1="319.72" x2="574.12" y2="680.64" gradientTransform="matrix(0, -1, 1, 0, -343.61, 808.54)" gradientUnits="userSpaceOnUse"><stop offset="0" stop-color="#ccc"/><stop offset="0.23" stop-color="#c8c8c8"/><stop offset="0.45" stop-color="#bcbcbc"/><stop offset="0.68" stop-color="#a9a9a9"/><stop offset="0.9" stop-color="#8d8d8d"/><stop offset="0.98" stop-color="gray"/></linearGradient></defs><title>Interactive-Underpowered Assets</title><g id="go_haywire" data-name="go haywire"><rect class="cls-1" x="-25.47" y="140.24" width="360.81" height="201.71" rx="27.42" ry="27.42" transform="translate(419.27 130.39) rotate(100)"/><rect class="cls-2" x="263.77" y="150.21" width="9.8" height="25.67" rx="4.16" ry="4.16" transform="translate(32.4 -44.18) rotate(10)"/><rect class="cls-2" x="69.34" y="115.37" width="9.8" height="25.67" rx="4.16" ry="4.16" transform="translate(23.4 -10.95) rotate(10)"/><rect class="cls-2" x="64.19" y="144.55" width="9.8" height="25.67" rx="4.16" ry="4.16" transform="translate(28.39 -9.61) rotate(10)"/><rect class="cls-3" x="-24.23" y="133.22" width="360.81" height="201.71" rx="27.42" ry="27.42" transform="translate(413.81 120.93) rotate(100)"/><polygon class="cls-4" points="268.32 111.15 257.85 170.53 254.03 192.22 249.3 219.07 225.09 356.34 221.03 379.34 218.87 391.54 202.59 388.67 102.96 371.1 84.91 367.91 70.36 365.34 43.38 360.6 54.37 298.19 60.77 261.93 63.76 245.01 92.84 80.19 97.27 80.97 120.29 85.03 132.97 87.27 203.59 99.73 214.96 101.72 239.34 106.04 268.32 111.15"/><circle class="cls-5" cx="129.53" cy="394.58" r="10.71" transform="translate(-281.55 453.61) rotate(-80)"/><circle class="cls-6" cx="129.53" cy="394.58" r="10.71" transform="translate(-281.55 453.61) rotate(-80)"/><path class="cls-7" d="M129.52,384.28h0a10.31,10.31,0,0,1,10.16,12.09,10.28,10.28,0,0,1-10.13,8.52,10.4,10.4,0,0,1-1.8-.16,10.3,10.3,0,0,1,1.78-20.45m0-.41a10.72,10.72,0,1,0,1.87.16,10.72,10.72,0,0,0-1.87-.16Z"/><circle class="cls-4" cx="152.97" cy="75.26" r="3.44" transform="translate(52.28 212.84) rotate(-80)"/><circle class="cls-4" cx="185.13" cy="69.84" r="2.26" transform="translate(84.2 240.03) rotate(-80)"/><rect class="cls-4" x="163.42" y="79.37" width="39.64" height="2.47" rx="1.24" ry="1.24" transform="translate(16.78 -30.6) rotate(10)"/></g></svg>