<svg xmlns="http://www.w3.org/2000/svg" xmlns:xlink="http://www.w3.org/1999/xlink" viewBox="0 0 321 458"><defs><style>.cls-1{opacity:0.9;}.cls-2{fill:url(#radial-gradient);}.cls-3{fill:url(#radial-gradient-2);}.cls-4{fill:url(#linear-gradient);}.cls-22,.cls-5{fill:#404040;}.cls-6{fill:url(#linear-gradient-2);}.cls-7{fill:#153460;}.cls-8{fill:#e5e5e5;}.cls-9{font-size:6.47px;font-family:SFProDisplay-Medium, SF Pro Display;}.cls-10{letter-spacing:-0.09em;}.cls-11{letter-spacing:0em;}.cls-12,.cls-17,.cls-21{fill:none;stroke-miterlimit:10;}.cls-12{stroke:#000;stroke-width:0.25px;}.cls-13{fill:#fff;}.cls-14{fill:#32558b;}.cls-15{fill:#b3b3b3;}.cls-16{fill:#303030;}.cls-17{stroke:#404040;}.cls-18{fill:#999;}.cls-19{fill:#4d4d4d;}.cls-20{fill:#ccc;}.cls-21{stroke:#ccc;stroke-width:0.5px;}.cls-22{font-size:6px;font-family:SFProDisplay-Regular, SF Pro Display;letter-spacing:0.03em;}</style><radialGradient id="radial-gradient" cx="79.95" cy="451.37" r="81.34" gradientTransform="translate(0 -330.33) scale(1 1.16)" gradientUnits="userSpaceOnUse"><stop offset="0" stop-color="#a4bdbe" stop-opacity="0.9"/><stop offset="0.08" stop-color="#a4bdbe" stop-opacity="0.75"/><stop offset="0.23" stop-color="#a4bdbe" stop-opacity="0.52"/><stop offset="0.36" stop-color="#a4bdbe" stop-opacity="0.34"/><stop offset="0.47" stop-color="#a4bdbe" stop-opacity="0.24"/><stop offset="0.54" stop-color="#a4bdbe" stop-opacity="0.2"/><stop offset="0.69" stop-color="#a4bdbe" stop-opacity="0.18"/><stop offset="0.84" stop-color="#a4bdbe" stop-opacity="0.12"/><stop offset="0.99" stop-color="#a4bdbe" stop-opacity="0.01"/><stop offset="1" stop-color="#a4bdbe" stop-opacity="0"/></radialGradient><radialGradient id="radial-gradient-2" cx="-5110.98" cy="451.37" r="81.34" gradientTransform="matrix(-1, 0, 0, 1.16, -4869.73, -330.33)" xlink:href="#radial-gradient"/><linearGradient id="linear-gradient" x1="160.07" y1="278.87" x2="160.07" y2="110.28" gradientUnits="userSpaceOnUse"><stop offset="0.02" stop-color="#303030"/><stop offset="0.2" stop-color="#434343"/><stop offset="0.46" stop-color="#565656"/><stop offset="0.73" stop-color="#626262"/><stop offset="1" stop-color="#666"/></linearGradient><linearGradient id="linear-gradient-2" x1="160.07" y1="268.8" x2="160.07" y2="342.6" xlink:href="#linear-gradient"/></defs><title>Interactive-Underpowered Assets</title><g id="go_haywire" data-name="go haywire"><g class="cls-1"><polygon class="cls-2" points="160.25 127.53 -0.35 96.94 -0.35 287.68 160.25 259.41 160.25 127.53"/><polygon class="cls-3" points="160.94 127.53 321.55 96.94 321.55 287.68 160.94 259.41 160.94 127.53"/></g><rect class="cls-4" x="34.21" y="110.28" width="251.7" height="168.59" rx="10.61" ry="10.61"/><path class="cls-5" d="M317.54,333.71v5.69A13.63,13.63,0,0,1,303.92,353H16.22A13.63,13.63,0,0,1,2.59,339.4v-5.69a8.86,8.86,0,0,1,.76-3.59H316.78A8.86,8.86,0,0,1,317.54,333.71Z"/><path class="cls-6" d="M317.54,333.71a8.89,8.89,0,0,1-8.89,8.89H11.48a8.87,8.87,0,0,1-8.13-12.48c.06-.13.12-.27.19-.4L34.22,268.8h251.7l30.67,60.93c.07.13.13.27.19.4A8.86,8.86,0,0,1,317.54,333.71Z"/><rect class="cls-7" x="47.43" y="127.32" width="225.27" height="134.5"/><path class="cls-5" d="M49.38,273.33H270.76a3,3,0,0,1,2.71,1.78l14.36,33.15a3,3,0,0,1-2.71,4.13H35a3,3,0,0,1-2.71-4.13l14.33-33.15A3,3,0,0,1,49.38,273.33Z"/><path class="cls-5" d="M126.55,318.32h67.07a2,2,0,0,1,1.9,1.36l3.9,11.49a2,2,0,0,1-1.9,2.64H122.66a2,2,0,0,1-1.9-2.64l3.89-11.49A2,2,0,0,1,126.55,318.32Z"/><rect class="cls-8" x="47.43" y="127.32" width="225.27" height="11.3"/><text class="cls-9" transform="translate(230.64 135.28)"><tspan class="cls-10">T</tspan><tspan x="3.2" y="0">ues 1:1</tspan><tspan class="cls-11" x="21.93" y="0">5</tspan><tspan x="25.79" y="0">AM</tspan></text><rect class="cls-12" x="68.7" y="131.82" width="9.05" height="4.92" rx="1" ry="1"/><path d="M78.11,133.17v2.21a1.11,1.11,0,0,0,0-2.21Z"/><path d="M71.87,132.3v4H69.36c-.11,0-.21-.24-.21-.53v-2.89c0-.29.09-.53.21-.53Z"/><path class="cls-13" d="M265.48,148.64v104a6.71,6.71,0,0,1-6.7,6.72H60.88a6.69,6.69,0,0,1-6.67-6.26c0-.15,0-.31,0-.46v-104a6.7,6.7,0,0,1,6.69-6.7h197.9A6.7,6.7,0,0,1,265.48,148.64Z"/><path class="cls-14" d="M74.86,148.71v110.7h-14a6.69,6.69,0,0,1-6.67-6.26V148.71Z"/><rect class="cls-13" x="54.57" y="192.69" width="19.92" height="17.94"/><path class="cls-14" d="M74.11,193.06v17.19H54.94V193.06H74.11m.75-.75H54.19V211H74.86V192.31Z"/><rect class="cls-15" x="212.09" y="172.74" width="43.81" height="10.29"/><rect class="cls-15" x="212.09" y="185.24" width="43.81" height="10.29"/><rect class="cls-15" x="212.09" y="197.74" width="43.81" height="10.29"/><path class="cls-8" d="M265.48,148.27v1.9H54.19v-1.9a6.52,6.52,0,0,1,6.69-6.33h197.9A6.52,6.52,0,0,1,265.48,148.27Z"/><path class="cls-16" d="M52,275.58H268.11a2.88,2.88,0,0,1,2.62,1.58l12.86,29.32a2.64,2.64,0,0,1-2.62,3.65H39.2a2.64,2.64,0,0,1-2.62-3.65L49.4,277.16A2.88,2.88,0,0,1,52,275.58Z"/><path class="cls-15" d="M64.75,132a9.83,9.83,0,0,0-9.69,0c-.28.15,0,.59.25.43a9.31,9.31,0,0,1,9.19,0c.28.15.53-.28.25-.43Z"/><path class="cls-15" d="M63.52,133.13a8.85,8.85,0,0,0-7.23,0c-.29.12-.17.6.13.48a8.55,8.55,0,0,1,7,0c.3.12.43-.36.13-.48Z"/><path d="M62.05,134.44A9.2,9.2,0,0,0,59.9,134a9.2,9.2,0,0,0-2.15.41c-.31.08-.18.56.13.48a9,9,0,0,1,2-.39,8.36,8.36,0,0,1,2,.39c.31.08.45-.41.13-.48Z"/><path d="M59.33,136.08l.39.4a.25.25,0,0,0,.35,0l.39-.4a.25.25,0,0,0-.18-.43h-.79c-.32,0-.32.51,0,.5h.79l-.18-.43-.39.4h.35l-.39-.4A.25.25,0,0,0,59.33,136.08Z"/><line class="cls-17" x1="47.37" y1="311.35" x2="62.38" y2="274.29"/><line class="cls-17" x1="61.12" y1="311.35" x2="76.12" y2="274.29"/><line class="cls-17" x1="74.86" y1="311.35" x2="88.84" y2="274.29"/><line class="cls-17" x1="88.6" y1="311.35" x2="101.55" y2="274.29"/><line class="cls-17" x1="102.34" y1="311.35" x2="114.27" y2="274.29"/><line class="cls-17" x1="117.34" y1="311.35" x2="128.25" y2="274.29"/><line class="cls-17" x1="135.93" y1="301.04" x2="141.72" y2="274.31"/><line class="cls-17" x1="152.49" y1="301.04" x2="154.19" y2="274.31"/><circle class="cls-18" cx="61.61" cy="146.87" r="1.84"/><circle class="cls-18" cx="67.04" cy="146.87" r="1.84"/><circle class="cls-18" cx="72.47" cy="146.87" r="1.84"/><line class="cls-17" x1="273.4" y1="311.35" x2="257.38" y2="274.29"/><line class="cls-17" x1="260.68" y1="311.35" x2="244.66" y2="274.29"/><line class="cls-17" x1="247.96" y1="311.35" x2="231.94" y2="274.29"/><line class="cls-17" x1="234.22" y1="311.35" x2="219.22" y2="274.29"/><line class="cls-17" x1="220.48" y1="311.35" x2="206.5" y2="274.29"/><line class="cls-17" x1="205.56" y1="311.39" x2="193.63" y2="274.32"/><line class="cls-17" x1="186.7" y1="301.04" x2="179.89" y2="274.31"/><line class="cls-17" x1="169.64" y1="301.01" x2="166.92" y2="274.29"/><line class="cls-17" x1="44.82" y1="280.91" x2="273.47" y2="280.91"/><line class="cls-17" x1="41.04" y1="290.77" x2="277.73" y2="290.77"/><line class="cls-17" x1="35.46" y1="301.04" x2="282.84" y2="301.04"/><ellipse class="cls-13" cx="64.54" cy="159.33" rx="0.5" ry="0.53"/><ellipse class="cls-13" cx="64.54" cy="165.74" rx="0.5" ry="0.53"/><ellipse class="cls-13" cx="61.51" cy="162.54" rx="0.5" ry="0.53"/><ellipse class="cls-13" cx="67.57" cy="162.54" rx="0.5" ry="0.53"/><path class="cls-13" d="M62,164.43a.48.48,0,0,1,.7,0,.55.55,0,0,1,0,.74.48.48,0,0,1-.7,0A.55.55,0,0,1,62,164.43Z"/><path class="cls-13" d="M66.33,159.9a.48.48,0,0,1,.7,0,.55.55,0,0,1,0,.74.48.48,0,0,1-.7,0A.55.55,0,0,1,66.33,159.9Z"/><path class="cls-13" d="M66.33,165.17a.55.55,0,0,1,0-.74.48.48,0,0,1,.7,0,.55.55,0,0,1,0,.74A.48.48,0,0,1,66.33,165.17Z"/><path class="cls-13" d="M62,160.64a.55.55,0,0,1,0-.74.48.48,0,0,1,.7,0,.55.55,0,0,1,0,.74A.48.48,0,0,1,62,160.64Z"/><path class="cls-13" d="M66,156.67a.18.18,0,0,1,.17.22,1.64,1.64,0,0,1-3.24,0,.18.18,0,0,1,.17-.22Z"/><path class="cls-13" d="M66,168.37a.18.18,0,0,0,.17-.22,1.64,1.64,0,0,0-3.24,0,.18.18,0,0,0,.17.22Z"/><path class="cls-13" d="M61.65,157.29a.16.16,0,0,1,.26,0,1.84,1.84,0,0,1-.23,2.19,1.59,1.59,0,0,1-2.07.24.19.19,0,0,1,0-.28Z"/><path class="cls-13" d="M69.48,165.57a.19.19,0,0,0,0-.28,1.59,1.59,0,0,0-2.07.24,1.84,1.84,0,0,0-.23,2.19.16.16,0,0,0,.26,0Z"/><path class="cls-13" d="M59,161a.17.17,0,0,1,.2-.18,1.78,1.78,0,0,1,0,3.43.17.17,0,0,1-.2-.18Z"/><path class="cls-13" d="M70.07,161a.17.17,0,0,0-.2-.18,1.78,1.78,0,0,0,0,3.43.17.17,0,0,0,.2-.18Z"/><path class="cls-13" d="M59.6,165.57a.19.19,0,0,1,0-.28,1.59,1.59,0,0,1,2.07.24,1.84,1.84,0,0,1,.23,2.19.16.16,0,0,1-.26,0Z"/><path class="cls-13" d="M67.42,157.29a.16.16,0,0,0-.26,0,1.84,1.84,0,0,0,.23,2.19,1.59,1.59,0,0,0,2.07.24.19.19,0,0,0,0-.28Z"/><circle class="cls-13" cx="64.55" cy="181.68" r="4.93"/><path class="cls-19" d="M79.85,179.75h20.3a.5.5,0,0,0,0-1H79.85a.5.5,0,0,0,0,1Z"/><path class="cls-19" d="M79.85,184.46h20.3a.5.5,0,0,0,0-1H79.85a.5.5,0,0,0,0,1Z"/><path class="cls-19" d="M79.85,189.18h20.3a.5.5,0,0,0,0-1H79.85a.5.5,0,0,0,0,1Z"/><path class="cls-19" d="M79.85,193.89h20.3a.5.5,0,0,0,0-1H79.85a.5.5,0,0,0,0,1Z"/><path class="cls-19" d="M79.85,240.17h20.3a.5.5,0,0,0,0-1H79.85a.5.5,0,0,0,0,1Z"/><path class="cls-19" d="M79.85,244.88h20.3a.5.5,0,0,0,0-1H79.85a.5.5,0,0,0,0,1Z"/><path class="cls-20" d="M201.7,181.07v12.15H110.17V181.07H201.7m.69-.69H109.48v13.53h92.91V180.38Z"/><path class="cls-20" d="M201.7,194.6v12.15H110.17V194.6H201.7m.69-.69H109.48v13.53h92.91V193.91Z"/><path class="cls-20" d="M201.7,208.13v12.15H110.17V208.13H201.7m.69-.69H109.48V221h92.91V207.44Z"/><rect class="cls-15" x="109.48" y="172.74" width="92.91" height="8.91"/><path class="cls-20" d="M201.7,240.09v12.15H110.17V240.09H201.7m.69-.69H109.48v13.53h92.91V239.4Z"/><rect class="cls-15" x="109.48" y="231.75" width="92.91" height="8.91"/><path class="cls-13" d="M59,189.71H70.24a.21.21,0,0,0,0-.42H59a.21.21,0,0,0,0,.42Z"/><circle class="cls-14" cx="64.55" cy="200.79" r="4.93"/><path class="cls-14" d="M59,208.86H70.24a.25.25,0,0,0,0-.5H59a.25.25,0,0,0,0,.5Z"/><circle class="cls-13" cx="64.55" cy="219.9" r="4.93"/><path class="cls-13" d="M59,227.93H70.24a.21.21,0,0,0,0-.42H59a.21.21,0,0,0,0,.42Z"/><circle class="cls-13" cx="64.55" cy="239.01" r="4.93"/><path class="cls-13" d="M59,247H70.24a.21.21,0,0,0,0-.42H59a.21.21,0,0,0,0,.42Z"/><line class="cls-21" x1="79.22" y1="166.41" x2="256.9" y2="166.41"/><line class="cls-21" x1="209.06" y1="214.21" x2="259.52" y2="214.21"/><line class="cls-21" x1="209.06" y1="241.5" x2="259.52" y2="241.5"/><path class="cls-19" d="M212.09,220.87H255.9a.5.5,0,0,0,0-1H212.09a.5.5,0,0,0,0,1Z"/><path class="cls-19" d="M212.09,225.58H255.9a.5.5,0,0,0,0-1H212.09a.5.5,0,0,0,0,1Z"/><path class="cls-19" d="M212.09,230.29H255.9a.5.5,0,0,0,0-1H212.09a.5.5,0,0,0,0,1Z"/><path class="cls-19" d="M212.09,235H255.9a.5.5,0,0,0,0-1H212.09a.5.5,0,0,0,0,1Z"/><path class="cls-19" d="M212.09,248.72H255.9a.5.5,0,0,0,0-1H212.09a.5.5,0,0,0,0,1Z"/><path class="cls-19" d="M212.09,253.43H255.9a.5.5,0,0,0,0-1H212.09a.5.5,0,0,0,0,1Z"/><text class="cls-22" transform="translate(79.22 161.57)">Course</text><text class="cls-22" transform="translate(105.26 161.57)">Modules</text><path class="cls-20" d="M101.07,158.66l1.78,1.13v-.22l-1.78,1.15c-.13.09,0,.3.13.22l1.78-1.15a.13.13,0,0,0,0-.22l-1.78-1.13c-.14-.09-.26.13-.13.22Z"/></g></svg>