<svg xmlns="http://www.w3.org/2000/svg" viewBox="0 0 533 758"><defs><style>.cls-1{fill:#c2bcab;fill-opacity:0.6;}.cls-2{fill:#fffbef;}.cls-3{font-size:109.99px;letter-spacing:0.03em;}.cls-3,.cls-4{fill:#303030;font-family:TimesNewRomanPSMT, Times New Roman;}.cls-4{font-size:86.72px;letter-spacing:0.03em;}.cls-5,.cls-6,.cls-7{fill:none;stroke:#303030;stroke-miterlimit:10;}.cls-6{stroke-width:1.76px;}.cls-7{stroke-width:3px;}</style></defs><title>Interactive-Underpowered Assets</title><g id="go_haywire" data-name="go haywire"><polygon class="cls-1" points="512.51 28.26 271.5 46.76 30.5 28.26 44.51 376.24 30.5 739.75 271.5 724.25 512.51 739.75 502.5 384.25 512.51 28.26"/><path class="cls-2" d="M502.5,18.25l-241,18.5-241-18.5s13.94,260.91,14,348c.08,90.94-14,363.51-14,363.51l241-15.5,241,15.5-10-355.5Z"/><text class="cls-3" transform="translate(78.55 165.61)">R</text><text class="cls-4" transform="translate(144.54 183.78)">x</text><line class="cls-5" x1="57" y1="216.01" x2="481.52" y2="212.71"/><line class="cls-5" x1="57" y1="667.47" x2="481.52" y2="664.16"/><line class="cls-6" x1="283.63" y1="131.93" x2="377.31" y2="131.93"/><line class="cls-6" x1="384.51" y1="131.93" x2="462.05" y2="131.93"/><line class="cls-6" x1="283.63" y1="151.76" x2="354.55" y2="151.76"/><line class="cls-6" x1="363.8" y1="151.76" x2="462.05" y2="151.76"/><line class="cls-6" x1="283.63" y1="170.71" x2="406.09" y2="170.71"/><line class="cls-6" x1="283.63" y1="113.87" x2="335.61" y2="113.87"/><line class="cls-6" x1="342.66" y1="113.87" x2="462.05" y2="113.87"/><line class="cls-7" x1="283.63" y1="609.74" x2="462.05" y2="609.74"/></g></svg>