<svg xmlns="http://www.w3.org/2000/svg" viewBox="0 0 533 758"><defs><style>.cls-1{fill:#c2bcab;fill-opacity:0.6;}.cls-2{fill:#fffbef;}.cls-3{font-size:109.99px;letter-spacing:0.03em;}.cls-3,.cls-4,.cls-8{fill:#303030;}.cls-3,.cls-4{font-family:TimesNewRomanPSMT, Times New Roman;}.cls-4{font-size:86.72px;letter-spacing:0.03em;}.cls-5,.cls-6,.cls-7{fill:none;stroke:#303030;stroke-miterlimit:10;}.cls-6{stroke-width:1.76px;}.cls-7{stroke-width:3px;}</style></defs><title>Interactive-Underpowered Assets</title><g id="go_haywire" data-name="go haywire"><polygon class="cls-1" points="512.51 28.26 271.5 46.76 30.5 28.26 44.51 376.24 30.5 739.75 271.5 724.25 512.51 739.75 502.5 384.25 512.51 28.26"/><path class="cls-2" d="M502.5,18.25l-241,18.5-241-18.5s13.94,260.91,14,348c.08,90.94-14,363.51-14,363.51l241-15.5,241,15.5-10-355.5Z"/><text class="cls-3" transform="translate(78.55 165.61)">R</text><text class="cls-4" transform="translate(144.54 183.78)">x</text><line class="cls-5" x1="57" y1="216.01" x2="481.52" y2="212.71"/><line class="cls-5" x1="57" y1="667.47" x2="481.52" y2="664.16"/><line class="cls-6" x1="283.63" y1="131.93" x2="377.31" y2="131.93"/><line class="cls-6" x1="384.51" y1="131.93" x2="462.05" y2="131.93"/><line class="cls-6" x1="283.63" y1="151.76" x2="354.55" y2="151.76"/><line class="cls-6" x1="363.8" y1="151.76" x2="462.05" y2="151.76"/><line class="cls-6" x1="283.63" y1="170.71" x2="406.09" y2="170.71"/><line class="cls-6" x1="283.63" y1="113.87" x2="335.61" y2="113.87"/><line class="cls-6" x1="342.66" y1="113.87" x2="462.05" y2="113.87"/><line class="cls-7" x1="283.63" y1="609.74" x2="462.05" y2="609.74"/><path class="cls-8" d="M215.59,267.19A18.33,18.33,0,0,1,231,264.43c3.82,1.06,6.66,2.37,10.75,1.81s8.14-2.52,12.33-3.32c6.35-1.2,12.78-.33,19.1.58,1.57.22,2.25-2.18.66-2.41-5.72-.82-11.52-1.66-17.31-1.06-5.23.54-10,3-15.12,3.69s-9.59-2.32-14.72-2.49A20.8,20.8,0,0,0,214.32,265c-1.32.9-.07,3.06,1.26,2.16Z"/><path class="cls-8" d="M84.26,299.69A22,22,0,0,0,97,297.54c2.35-1.18,2.58-1.89,5-1.06,5.3,1.8,9.66,3.64,15.46,3.21a28.9,28.9,0,0,0,7.81-1.67c2.51-.92,4.6-2.88,7-3.79,2.56-1,8.06,1.66,10.68,2.26a103.65,103.65,0,0,0,10.25,1.77c16.63,2,33.34-.76,50-1.16a313.16,313.16,0,0,1,54,3.42c1.57.24,2.25-2.17.66-2.41a319.27,319.27,0,0,0-42-3.56c-14.45-.24-28.72,1.16-43.13,1.8a112.69,112.69,0,0,1-21.9-.92,100.34,100.34,0,0,1-9.87-2c-2.23-.57-5.91-2.52-8.23-2.41-1.73.08-3.62,2.46-5.23,3.31a25.59,25.59,0,0,1-7.59,2.56,26.21,26.21,0,0,1-19-4,1.21,1.21,0,0,0-1.26,0,21,21,0,0,1-15.36,4.33c-1.6-.17-1.59,2.34,0,2.5Z"/><path class="cls-8" d="M287.12,298.25c6.2-1.62,12.51-3.22,19-2.21,4.18.66,7.18.76,11.32-.56a91.7,91.7,0,0,1,16.24-3.82c3.25-.42,6.81-.94,10-.22,2.36.52,4.36,2,6.67,2.62,4,1.11,7.54-.7,11.3-2,5.55-1.93,11-1.38,16.73-.65,11.09,1.42,22.17,2.92,33.25,4.38,1.59.21,1.57-2.29,0-2.5-11.08-1.46-22.16-3-33.25-4.38-4.65-.6-9.44-1.22-14.09-.23-2.86.61-5.41,2.05-8.23,2.8-3.79,1-6.48-.7-9.9-1.9-8.33-2.92-19.68.36-27.72,2.93-3.48,1.11-6.52,2-10.25,1.42a39.5,39.5,0,0,0-6.26-.73c-5.26,0-10.43,1.31-15.48,2.64a1.25,1.25,0,0,0,.66,2.41Z"/><path class="cls-8" d="M180.2,395.13c9.23-1.87,21-9.72,20-20.51-.85-9.12-12.64-8.31-13.66.32-1.25,10.59,11.62,17.17,20.59,16.22,6.84-.73,11.34-6.53,18.21-6.88,5.41-.28,10.87,1,15.5-2.49L239,380.71c.37,4.94,4.55,7.35,9.11,6.19,1.71-.44,1.38-.83,3.71-1,2-.18,2.26.25,4,.32a9.66,9.66,0,0,0,4.06-.49,29.39,29.39,0,0,0,3.87-2.08c3.42-1.86,6.53-1.93,10.31-.89,8.94,2.47,17.47,2.58,26.69,1.67,10.2-1,20.4-2.55,30.56-.33,1.57.34,2.24-2.07.66-2.41-15.88-3.47-31.6,2.17-47.53.68-6.6-.62-13.66-4.91-20.13-1.86-1.46.69-2.75,1.67-4.2,2.37-2.75,1.32-4.24,0-6.88-.12-3.82-.14-11.18,4.92-11.7-2-.06-.83-1.06-1.71-1.88-1.08-5.58,4.26-13,.81-19.26,3-3.55,1.22-6.24,4-9.78,5.28A17.34,17.34,0,0,1,200,388a16.25,16.25,0,0,1-9.46-6.94,10,10,0,0,1-1.6-5.39q1.41-7.78,8-3.53c1.09,1.37.85,4.08.56,5.6C196,386,187,391.2,179.54,392.72c-1.58.32-.91,2.73.66,2.41Z"/><path class="cls-8" d="M91,434.09c8-7.12,19.59,2.07,28.8-1.58,3.45-1.36,4.69-3.16,8.7-2.79,3.58.33,3.53,1.4,6.26,2.87,3,1.64,6.69,1.47,10,.72,5.63-1.3,10.57-4.92,16.53-4.62,4.6.23,8.87,3.2,13.56,2.66s7.08-5.63,12-3.35c3.29,1.52,5.9,3.71,9.71,3.51,1.6-.08,1.61-2.58,0-2.5-4.61.24-7.64-3.94-12.07-4.37s-6.67,4.21-11.06,4.25c-5.34,0-9.83-3.4-15.37-2.62s-10.36,4.31-16,4.94c-4,.45-6.27-1.17-9.27-3.38a7.18,7.18,0,0,0-3.62-1.7c-4.79-.55-8.66,4.11-13.24,4.74-9.08,1.25-18.7-5.69-26.71,1.45-1.2,1.07.57,2.83,1.77,1.77Z"/><path class="cls-8" d="M230.34,428.59c2.63-6.1,9.61.55,12.79,2a15.73,15.73,0,0,0,6.38,1.31c6.81,0,13-3.55,19.77-3.93,7.54-.42,14.39,2.85,22.08,1.9,7.21-.89,14.38-2.5,21.53-3.8,4.09-.74,9.32-2.55,13.41-1.32,3.12.94,5.4,3,8.73,3.46,7.64,1.13,15.81.63,23.52.79q25.55.54,51.11.39a1.25,1.25,0,0,0,0-2.5q-27.52.15-55-.47-6.88-.16-13.76-.37a32.83,32.83,0,0,1-6.91-.54c-2.14-.56-3.65-1.79-5.62-2.6-6-2.49-13.77.34-19.84,1.45-8.85,1.61-18.3,4.46-27.3,2.82-7.2-1.31-12.75-2.07-19.95-.16-3.83,1-7.73,2.44-11.73,2.41-4.7,0-7.27-2.72-11.24-4.59-3.62-1.69-8.32-1.56-10.09,2.55-.63,1.46,1.52,2.74,2.16,1.26Z"/><path class="cls-8" d="M78.68,524.1A15.5,15.5,0,0,0,92,500.19a1.26,1.26,0,0,0-1.71-.45A12.11,12.11,0,0,0,91.86,520c9.49,5.4,19.74-1,24.47-9.5l-2,.25a39.37,39.37,0,0,0,12.29,9.34c1.44.71,2.71-1.45,1.26-2.16A37.84,37.84,0,0,1,116.13,509a1.26,1.26,0,0,0-2,.25c-3.5,6.27-9.91,11.55-17.53,9.91s-12.37-11.77-5.13-17.25l-1.71-.45c5.53,9.12-.46,20.05-11.13,20.14a1.25,1.25,0,0,0,0,2.5Z"/><path class="cls-8" d="M150.85,520.87c3.42-5.72,10.9-8.26,16.95-5.08,3.6,1.89,6.33,5.36,10.73,5.27,4.15-.09,7.19-3.22,9.62-6.25,2.15-2.68,1.72-3.58,6.81-2.35.82.2,1.57.72,2.39,1a10,10,0,0,0,5.27.11,33.66,33.66,0,0,0,5.43-2.16c4.21-1.8,6.93-1.5,10.91.64,4.49,2.41,8.47,1.33,13.28.65,11.69-1.66,23,6,34.54,1.78,1.5-.54.85-3-.66-2.41-6.77,2.46-13.43.53-20.19-.91a42.32,42.32,0,0,0-16.11-.55c-4.92.77-7.75,0-12.06-2.12a9.7,9.7,0,0,0-5.19-1.09,19,19,0,0,0-5.77,1.86c-4.3,1.83-6.58,2.54-11.26.8-3.74-1.39-5.75-1.14-8.36,2-2.75,3.28-5.31,7.12-10.32,6.41-2.83-.4-5.35-3.43-7.78-4.76-7.2-3.93-16.27-.86-20.37,6a1.25,1.25,0,0,0,2.16,1.26Z"/><path class="cls-8" d="M64.95,263.69A64.28,64.28,0,0,1,80.8,251.12l-1.71-.45c3.28,4.25,7,8.9,12.62,9.76,7,1.07,8.77-4.54,13.75-7.84l-1.88-1.08c.52,5.84,6.4,7.7,11.41,8.63s10.91,1.55,14.08-3.24l-2.28-.3c4,9.81,19.64,5,27.28,4a32.1,32.1,0,0,1,5.24-.63c5.15.28,3.46,1.58,6,2.86a12.48,12.48,0,0,0,5.07,1.51c5.7.29,12-3.63,17.21-.09,1.33.91,2.58-1.26,1.26-2.16-3.11-2.12-6.45-2-10-1.4-2.59.42-5.18,1.21-7.82,1.15-3.54-.08-5-2.48-7.9-3.76-4.52-2-11.6.34-16.27.94-5,.63-15.11,3.19-17.66-3.07a1.27,1.27,0,0,0-2.28-.3c-3.46,5.22-20.23,2.65-20.83-4.13a1.26,1.26,0,0,0-1.88-1.08c-3.3,2.19-5.06,6.12-9,7.19-6.18,1.68-10.61-3.87-14-8.22a1.29,1.29,0,0,0-1.71-.45,66.33,66.33,0,0,0-16.36,13c-1.09,1.18.68,3,1.77,1.77Z"/><path class="cls-8" d="M61.18,394.11l6.7-12.5H65.72c2,3.1,4.44,6.6,8.13,7.76a7.57,7.57,0,0,0,4.49,0c3.72-1.08,6.28-1.82,10.23-1.06,5.52,1.06,15.74,2.14,15.61-6.35l-2.13.88c1.78,2.1,4.05,4.52,7,4.6,2,.05,3.94-1.33,6-1.09,1.6.19,3.37,1.27,5,1.55,4.53.75,9.28.23,13.84.07l16.74-.59c1.6-.06,1.61-2.56,0-2.5-8.5.3-17.06.93-25.57.86a25.26,25.26,0,0,1-6.07-.59c-1.55-.4-3.55-1.83-5.28-1.79-.81,0-.93.36-1.92.52-4.5.75-5.73-.15-8-2.8a1.26,1.26,0,0,0-2.13.88c.14,8.58-13.19,3.11-17.53,3.21a16.17,16.17,0,0,0-4.94,1.16c-5.57,1.83-8.48-1.56-11.33-6a1.26,1.26,0,0,0-2.16,0L59,392.85c-.76,1.42,1.4,2.68,2.16,1.26Z"/><path class="cls-8" d="M289.32,628.85a145.19,145.19,0,0,0,39.44-33c4.13-5,10-12.6,8.27-19.64-1.35-5.6-6.58-2.47-9.61-.18-4,3-10.6,9.16-10.9,14.63s6.83,8.21,11.14,8.94c17.34,2.94,30.41-12.92,47.23-13.09l-1.25-1.25a20.47,20.47,0,0,0,2.63,8.14,1.27,1.27,0,0,0,1.41.57c5-1.41,17.08-7.09,21.46-2.66,2.29,2.32,3,4.77,6.72,5.26,3.88.51,7.69-1.71,11.21-2.94,6.08-2.11,12-1,16.19,4.12,1,1.24,2.79-.54,1.77-1.77a16.12,16.12,0,0,0-11.48-6c-6-.34-12,5.27-17.75,3.84-5.38-1.33-5-8-11.6-7-3.14.45-6.4,1.74-9.44,2.6a31.28,31.28,0,0,1-5.16,1.46c-3.12.29-3.14-2.92-3.45-5.58a1.28,1.28,0,0,0-1.25-1.25c-11.92.12-21.09,7.46-31.92,11.27-5.45,1.92-11.75,3.12-17.38,1.26-1.28-.42-4.17-1.42-5-2.74-1.29-2.06-.83-5.11.33-7a32.23,32.23,0,0,1,6.23-7.35c2.29-2,7-5.81,7.5-.39.31,3.23-2.17,7.39-3.84,10-3.46,5.32-8,10.08-12.48,14.55a145.48,145.48,0,0,1-30.27,23.09,1.25,1.25,0,0,0,1.26,2.16Z"/></g></svg>