<svg xmlns="http://www.w3.org/2000/svg" xmlns:xlink="http://www.w3.org/1999/xlink" viewBox="0 0 321 458"><defs><style>.cls-1{fill:#fffbef;}.cls-2{fill:#a4bdbe;}.cls-3{fill:url(#New_Gradient_Swatch_5);}.cls-4{fill:#999;}.cls-5{fill:url(#linear-gradient);}.cls-6{fill:url(#linear-gradient-2);}.cls-7{fill:#404040;}.cls-8,.cls-9{fill:#457373;}.cls-9{opacity:0.7;}.cls-10{fill:#303030;}.cls-11{fill:url(#New_Gradient_Swatch_5-2);}.cls-12{fill:url(#New_Gradient_Swatch_5-3);}.cls-13{fill:url(#linear-gradient-3);}.cls-14{fill:#b3b3b3;}.cls-15{fill:gray;}.cls-16{fill:url(#linear-gradient-4);}.cls-17,.cls-23{fill:#e5e5e5;}.cls-18{fill:#f2f2f2;}.cls-19{fill:#ccc;}.cls-20{fill:url(#linear-gradient-5);}.cls-21,.cls-22{fill:#fff;}.cls-21,.cls-23{opacity:0.8;}.cls-24{font-size:151.53px;font-family:SFProDisplay-Medium, SF Pro Display;}.cls-25{letter-spacing:-0.01em;}</style><linearGradient id="New_Gradient_Swatch_5" x1="72.03" y1="178.5" x2="72.03" y2="133.89" gradientUnits="userSpaceOnUse"><stop offset="0" stop-color="#a4bdbe"/><stop offset="0.18" stop-color="#84a4a5"/><stop offset="0.38" stop-color="#688f8f"/><stop offset="0.59" stop-color="#557f7f"/><stop offset="0.79" stop-color="#497676"/><stop offset="1" stop-color="#457373"/></linearGradient><linearGradient id="linear-gradient" x1="52.52" y1="170.71" x2="52.52" y2="159.93" gradientUnits="userSpaceOnUse"><stop offset="0" stop-color="#4d4d4d"/><stop offset="0" stop-color="#4d4d4d"/><stop offset="0.44" stop-color="#767676"/><stop offset="0.79" stop-color="#909090"/><stop offset="1" stop-color="#999"/></linearGradient><linearGradient id="linear-gradient-2" x1="91.58" y1="170.71" x2="91.58" y2="159.93" xlink:href="#linear-gradient"/><linearGradient id="New_Gradient_Swatch_5-2" x1="248.36" y1="379.82" x2="220.36" y2="379.82" xlink:href="#New_Gradient_Swatch_5"/><linearGradient id="New_Gradient_Swatch_5-3" x1="132.29" y1="269.29" x2="132.29" y2="458" xlink:href="#New_Gradient_Swatch_5"/><linearGradient id="linear-gradient-3" x1="230.98" y1="175.82" x2="230.98" y2="152.74" gradientUnits="userSpaceOnUse"><stop offset="0" stop-color="#303030"/><stop offset="0.12" stop-color="#3b3b3b"/><stop offset="0.44" stop-color="#525252"/><stop offset="0.75" stop-color="#616161"/><stop offset="1" stop-color="#666"/></linearGradient><linearGradient id="linear-gradient-4" x1="246.15" y1="149.44" x2="246.15" y2="136.96" xlink:href="#linear-gradient-3"/><linearGradient id="linear-gradient-5" x1="147" y1="312.82" x2="147" y2="253.44" gradientUnits="userSpaceOnUse"><stop offset="0" stop-color="gray"/><stop offset="0.17" stop-color="#8b8b8b"/><stop offset="0.7" stop-color="#a8a8a8"/><stop offset="1" stop-color="#b3b3b3"/></linearGradient></defs><title>Interactive-Underpowered Assets</title><g id="pitch_black" data-name="pitch black"><polygon class="cls-1" points="108.39 305.7 0.55 305.82 0 305.82 0 269.29 0.55 269.29 0.55 190.43 108.26 190.31 108.26 194.44 108.35 269.29 108.37 283.85 108.39 305.7"/><rect class="cls-1" x="108.33" y="190.24" width="115.39" height="115.39" transform="translate(-0.29 0.19) rotate(-0.07)"/><polygon class="cls-1" points="321 190.06 321 305.45 223.78 305.57 223.65 194.31 223.65 190.17 321 190.06"/><rect class="cls-2" x="105.64" y="190.31" width="5.38" height="115.39" transform="translate(-0.29 0.13) rotate(-0.07)"/><rect class="cls-3" x="67.83" y="133.89" width="8.39" height="44.61" rx="3.83" ry="3.83"/><rect class="cls-4" x="68.75" y="143.28" width="6.56" height="3.66" rx="0.94" ry="0.94"/><rect class="cls-2" x="67.01" y="122.05" width="10.04" height="23.68" rx="3.96" ry="3.96"/><rect class="cls-4" x="49.56" y="168.61" width="5.93" height="3.41" rx="1.53" ry="1.53"/><path class="cls-5" d="M50,170.71h5a2.14,2.14,0,0,0,2-2l.73-6.17a2.22,2.22,0,0,0-2-2.61H49.31a2.22,2.22,0,0,0-2,2.61l.73,6.17A2.14,2.14,0,0,0,50,170.71Z"/><rect class="cls-4" x="88.61" y="168.61" width="5.93" height="3.41" rx="1.53" ry="1.53"/><path class="cls-6" d="M89.1,170.71h5a2.14,2.14,0,0,0,2-2l.73-6.17a2.22,2.22,0,0,0-2-2.61H88.36a2.22,2.22,0,0,0-2,2.61l.73,6.17A2.14,2.14,0,0,0,89.1,170.71Z"/><rect class="cls-7" x="34.73" y="172.02" width="74.6" height="4.28" rx="1.59" ry="1.59"/><rect class="cls-7" x="64.94" y="166.63" width="14.17" height="7.52"/><rect class="cls-2" x="221.03" y="190.17" width="5.38" height="115.39" transform="translate(-0.29 0.26) rotate(-0.07)"/><polygon class="cls-8" points="321 175.37 321 190.06 223.49 190.17 0 190.43 0 175.74 321 175.37"/><polygon class="cls-9" points="321 179.5 321 194.2 223.49 194.31 107.9 194.44 0 194.57 0 179.88 321 179.5"/><rect class="cls-10" x="93.31" y="241.89" width="3.68" height="12.26" rx="1.84" ry="1.84" transform="translate(-0.29 0.11) rotate(-0.07)"/><rect class="cls-10" x="119.67" y="241.86" width="3.68" height="12.26" rx="1.84" ry="1.84" transform="translate(-0.29 0.14) rotate(-0.07)"/><rect class="cls-10" x="208.7" y="241.75" width="3.68" height="12.26" rx="1.84" ry="1.84" transform="translate(-0.29 0.25) rotate(-0.07)"/><rect class="cls-10" x="235.06" y="241.72" width="3.68" height="12.26" rx="1.84" ry="1.84" transform="translate(-0.29 0.28) rotate(-0.07)"/><rect class="cls-11" x="220.36" y="301.63" width="28" height="156.37"/><path class="cls-8" d="M264.58,275.54v14a16.36,16.36,0,0,1-4.22,11l-12,14.51-28,33.87L130.18,458H0V289.62l.55,0,107.82-5.74,156.2-8.31Z"/><path class="cls-12" d="M264.57,275.54a5.86,5.86,0,0,1-1.61,3.84l-19,22.25-23.59,27.62L110.37,458H0V269.29H258.57A6,6,0,0,1,264.57,275.54Z"/><polygon class="cls-8" points="92.48 73.07 88.38 73.07 -0.45 73.18 -0.45 0 92.39 0 92.48 73.07"/><polygon class="cls-8" points="207.07 73.07 204.38 73.07 94.58 73.21 91.67 73.21 91.67 73.07 91.59 0 206.98 0 207.07 73.07"/><rect class="cls-2" x="88.38" width="6.2" height="73.27"/><rect class="cls-1" x="204.38" width="10" height="73.27"/><rect class="cls-1" x="-0.45" y="73.27" width="218.6" height="12.67"/><circle class="cls-10" cx="74.03" cy="57.39" r="3.75"/><circle class="cls-10" cx="108.94" cy="57.39" r="3.75"/><path class="cls-13" d="M296.69,175.82H165.28c-2,0-3.42-2.13-2.94-4.33l3.51-16.11a3.15,3.15,0,0,1,2.94-2.64H293.18a3.15,3.15,0,0,1,2.94,2.64l3.51,16.11C300.11,173.69,298.66,175.82,296.69,175.82Z"/><rect class="cls-14" x="168.35" y="157.74" width="125.28" height="13.08" rx="6.1" ry="6.1"/><circle class="cls-10" cx="185.07" cy="163.69" r="5.94"/><circle class="cls-7" cx="185.07" cy="163.69" r="4.64"/><rect class="cls-15" x="184.01" y="156.63" width="2.12" height="7.31" rx="0.83" ry="0.83"/><circle class="cls-10" cx="215.85" cy="163.69" r="5.94"/><circle class="cls-7" cx="215.85" cy="163.69" r="4.64"/><rect class="cls-15" x="214.78" y="156.63" width="2.12" height="7.31" rx="0.83" ry="0.83"/><circle class="cls-10" cx="246.62" cy="163.69" r="5.94"/><circle class="cls-7" cx="246.62" cy="163.69" r="4.64"/><rect class="cls-15" x="245.56" y="156.63" width="2.12" height="7.31" rx="0.83" ry="0.83"/><circle class="cls-10" cx="277.4" cy="163.69" r="5.94"/><circle class="cls-7" cx="277.4" cy="163.69" r="4.64"/><rect class="cls-15" x="276.34" y="156.63" width="2.12" height="7.31" rx="0.83" ry="0.83"/><path class="cls-10" d="M189.27,152a4.37,4.37,0,0,0,2.35.78c1.9,0,2.58-1.79,2.6-3.42a1.17,1.17,0,0,0-2.35,0,3.46,3.46,0,0,1-.1.86c-.06.24,0,.06-.08.19s.13-.06-.05.05c.3-.19,0,0,0,0,.39.15,0-.2,0,0,0-.18.24.11,0,0h-.05l-.5-.15c-.22-.07.22.11,0,0l-.18-.09a3.83,3.83,0,0,1-.4-.23c-1.25-.85-2.43,1.18-1.18,2Z"/><path class="cls-10" d="M183.8,149.36v3a1.26,1.26,0,0,0,2.51,0v-3a1.26,1.26,0,0,0-2.51,0Z"/><rect class="cls-10" x="178.32" y="149.59" width="13.47" height="3.57" rx="1.66" ry="1.66"/><path class="cls-10" d="M179.32,150a3.83,3.83,0,0,1-.4.23l-.18.09c-.22.11.26-.08,0,0l-.5.15c-.1,0,.26,0,0,0s-.06,0,0,0l-.08,0q-.18-.06.06,0s-.34-.2,0,0c-.18-.11.08.15-.05-.05s0,.1-.06-.13a3,3,0,0,1-.12-.93,1.17,1.17,0,0,0-2.35,0c0,1.62.71,3.42,2.6,3.42a4.37,4.37,0,0,0,2.35-.78c1.24-.84.07-2.88-1.18-2Z"/><path class="cls-10" d="M251,152a4.37,4.37,0,0,0,2.35.78c1.9,0,2.58-1.79,2.6-3.42a1.17,1.17,0,0,0-2.35,0,3.46,3.46,0,0,1-.1.86c-.06.24,0,.06-.08.19s.13-.06-.05.05c.3-.19,0,0,0,0,.39.15,0-.2,0,0,0-.18.24.11,0,0h-.05l-.5-.15c-.22-.07.22.11,0,0l-.18-.09a3.83,3.83,0,0,1-.4-.23c-1.25-.85-2.43,1.18-1.18,2Z"/><path class="cls-10" d="M245.54,149.36v3a1.26,1.26,0,0,0,2.51,0v-3a1.26,1.26,0,0,0-2.51,0Z"/><rect class="cls-10" x="240.06" y="149.59" width="13.47" height="3.57" rx="1.66" ry="1.66"/><path class="cls-10" d="M241.06,150a3.83,3.83,0,0,1-.4.23l-.18.09c-.22.11.26-.08,0,0l-.5.15c-.1,0,.26,0,0,0s-.06,0,0,0l-.08,0q-.18-.06.06,0s-.34-.2,0,0c-.18-.11.08.15-.05-.05s0,.1-.06-.13a3,3,0,0,1-.12-.93,1.17,1.17,0,0,0-2.35,0c0,1.62.71,3.42,2.6,3.42a4.37,4.37,0,0,0,2.35-.78c1.24-.84.07-2.88-1.18-2Z"/><path class="cls-10" d="M220.14,152a4.37,4.37,0,0,0,2.35.78c1.9,0,2.58-1.79,2.6-3.42a1.17,1.17,0,0,0-2.35,0,3.46,3.46,0,0,1-.1.86c-.06.24,0,.06-.08.19s.13-.06-.05.05c.3-.19,0,0,0,0,.39.15,0-.2,0,0,0-.18.24.11,0,0h-.05l-.5-.15c-.22-.07.22.11,0,0l-.18-.09a3.83,3.83,0,0,1-.4-.23c-1.25-.85-2.43,1.18-1.18,2Z"/><path class="cls-10" d="M214.67,149.36v3a1.26,1.26,0,0,0,2.51,0v-3a1.26,1.26,0,0,0-2.51,0Z"/><rect class="cls-10" x="209.19" y="149.59" width="13.47" height="3.57" rx="1.66" ry="1.66"/><path class="cls-10" d="M210.19,150a3.83,3.83,0,0,1-.4.23l-.18.09c-.22.11.26-.08,0,0l-.5.15c-.1,0,.26,0,0,0s-.06,0,0,0l-.08,0q-.18-.06.06,0s-.34-.2,0,0c-.18-.11.08.15-.05-.05s0,.1-.06-.13a3,3,0,0,1-.12-.93,1.17,1.17,0,0,0-2.35,0c0,1.62.71,3.42,2.6,3.42a4.37,4.37,0,0,0,2.35-.78c1.24-.84.07-2.88-1.18-2Z"/><path class="cls-10" d="M281.88,152a4.37,4.37,0,0,0,2.35.78c1.9,0,2.58-1.79,2.6-3.42a1.17,1.17,0,0,0-2.35,0,3.46,3.46,0,0,1-.1.86c-.06.24,0,.06-.08.19s.13-.06-.05.05c.3-.19,0,0,0,0,.39.15,0-.2,0,0,0-.18.24.11,0,0h-.05l-.5-.15c-.22-.07.22.11,0,0l-.18-.09a3.83,3.83,0,0,1-.4-.23c-1.25-.85-2.43,1.18-1.18,2Z"/><path class="cls-10" d="M276.4,149.36v3a1.26,1.26,0,0,0,2.51,0v-3a1.26,1.26,0,0,0-2.51,0Z"/><rect class="cls-10" x="270.93" y="149.59" width="13.47" height="3.57" rx="1.66" ry="1.66"/><path class="cls-10" d="M271.93,150a3.83,3.83,0,0,1-.4.23l-.18.09c-.22.11.26-.08,0,0l-.5.15c-.1,0,.26,0,0,0s-.06,0,0,0l-.08,0q-.18-.06.06,0s-.34-.2,0,0c-.18-.11.08.15-.05-.05s0,.1-.06-.13a3,3,0,0,1-.12-.93,1.17,1.17,0,0,0-2.35,0c0,1.62.71,3.42,2.6,3.42a4.37,4.37,0,0,0,2.35-.78c1.24-.84.07-2.88-1.18-2Z"/><path class="cls-16" d="M215.45,137h61.4a0,0,0,0,1,0,0v4.29a8.19,8.19,0,0,1-8.19,8.19h-45a8.19,8.19,0,0,1-8.19-8.19V137A0,0,0,0,1,215.45,137Z"/><path class="cls-10" d="M273.86,139H309.4a2,2,0,0,1,2,2v.33a2,2,0,0,1-2,2H273.86a0,0,0,0,1,0,0V139A0,0,0,0,1,273.86,139Z"/><path class="cls-17" d="M83.33,403.53c0,.33,0,.66,0,1C82.68,425.48,61.86,446,7,446q-3.33,0-6.49-.11l-.55,0V371.88H.55q3.21-.09,6.49-.09c39.53,0,72,9.22,75.91,27.93.06.3.12.6.16.9s.09.63.12,1,0,.55.07.83v0C83.32,402.8,83.33,403.16,83.33,403.53Z"/><path class="cls-18" d="M83.33,403.53c0,.33,0,.66,0,1-1,20.82-34.8,37.54-76.27,37.54q-3.29,0-6.49-.14l-.55,0V365.15l.55,0Q3.76,365,7,365c39.57,0,72.11,15.23,75.91,34.72.06.3.12.6.16.9s.09.63.12,1,0,.55.07.83v0C83.32,402.8,83.33,403.16,83.33,403.53Z"/><path class="cls-17" d="M32.44,428.85l-1,.22Z"/><path class="cls-17" d="M24.38,430.31l-.38.05Z"/><path class="cls-17" d="M27.06,429.9l-.43.07Z"/><path class="cls-17" d="M4.16,431.48l-.74,0Z"/><path class="cls-17" d="M1.28,431.39l-.73,0Z"/><path class="cls-17" d="M29.74,429.41l-.62.12Z"/><path class="cls-17" d="M64.59,405.47c0,9.49-11.22,17.8-28,22.34,14.79-4.08,24.57-11.13,24.57-19.15C61.16,396,36.93,385.81,7,385.81c-2.2,0-4.36.06-6.49.16L0,386v-6.39l.55,0c2.13-.1,4.29-.16,6.49-.16C38.83,379.42,64.59,391.09,64.59,405.47Z"/><path class="cls-17" d="M16.29,431.18l-.63,0Z"/><path class="cls-17" d="M13.53,431.35l-.73,0Z"/><path class="cls-17" d="M9.93,431.48l.74,0Z"/><path class="cls-17" d="M19,431l-.51.05Z"/><path class="cls-17" d="M21.69,430.66l-.42,0Z"/><path class="cls-17" d="M12.81,431.39l-2.14.07Z"/><path class="cls-17" d="M7,431.52q-1.45,0-2.89,0Q5.59,431.52,7,431.52Z"/><path class="cls-17" d="M9.93,431.48q-1.44,0-2.89,0Q8.5,431.52,9.93,431.48Z"/><path class="cls-17" d="M3.42,431.46l-2.14-.07Z"/><path class="cls-17" d="M26.63,430l-2.25.34Z"/><path class="cls-17" d="M15.66,431.23l-2.13.12Z"/><path class="cls-17" d="M21.28,430.71,19,431Z"/><path class="cls-17" d="M33.41,428.62l-1,.23Z"/><path class="cls-17" d="M24,430.37l-2.31.3Z"/><path class="cls-17" d="M29.12,429.53l-2.06.37Z"/><path class="cls-17" d="M31.41,429.07l-1.66.34Z"/><path class="cls-17" d="M18.49,431l-2.2.18Z"/><rect class="cls-19" x="129.85" y="369.15" width="9.1" height="52.06" rx="4.17" ry="4.17" transform="translate(286.96 6.65) rotate(40.22)"/><rect class="cls-19" x="146.7" y="355.97" width="16.94" height="29.3" rx="8.47" ry="8.47" transform="translate(276.01 -12.57) rotate(40.22)"/><rect class="cls-19" x="97.68" y="382.17" width="9.1" height="50.99" rx="4.17" ry="4.17" transform="translate(204.98 0.13) rotate(28.23)"/><path class="cls-19" d="M131.31,371.33a1.34,1.34,0,0,0-2.43-1.11l-8,15a1,1,0,1,1-1.76-.95l8-14.92a1.35,1.35,0,0,0-.18-1.54l-.07-.08a1.34,1.34,0,0,0-2.17.27l-8.1,15.09a1,1,0,0,1-1.76-.95l8.1-15.09a1.34,1.34,0,0,0-1-2l-.11,0a1.35,1.35,0,0,0-1.38.7l-8,14.92a1,1,0,0,1-1.76-.95l8-15a1.34,1.34,0,0,0-2.27-1.41q-.2.3-.37.62l-8.64,16.1a8.64,8.64,0,0,0,2.2,11,8.49,8.49,0,0,0,12.6-2.73L131,372Q131.17,371.66,131.31,371.33Z"/><rect class="cls-10" x="142.75" y="233.52" width="8.51" height="8.51" rx="2.15" ry="2.15"/><rect class="cls-10" x="75.95" y="266.59" width="23.2" height="8.83" rx="3.35" ry="3.35"/><rect class="cls-10" x="194.98" y="266.59" width="23.2" height="8.83" rx="3.35" ry="3.35"/><path class="cls-20" d="M87.43,253.44s0,35,0,46.73c0,12.64,9.51,12.64,15,12.64h89.74c5.47,0,14.43,0,14.43-12.64V253.44H87.43"/><rect class="cls-19" x="83.53" y="253.44" width="126.95" height="6.48"/><path class="cls-19" d="M204.89,256.44H87.43c.9-8.86,26.85-16,58.73-16S204,247.59,204.89,256.44Z"/><path class="cls-21" d="M35.48,314.27V345a7.38,7.38,0,0,0,7.21,7.54H58.77A7.38,7.38,0,0,0,66,345v-30.7Z"/><ellipse class="cls-22" cx="50.73" cy="314.27" rx="15.25" ry="2.55"/><path class="cls-23" d="M68.4,297.38c-.11-1.61-8-2.92-17.67-2.92s-17.56,1.3-17.67,2.92h0V346a8.35,8.35,0,0,0,8.35,8.35H60.05A8.35,8.35,0,0,0,68.41,346V297.38Z"/></g><g id="section_titles" data-name="section titles"><text class="cls-24" transform="translate(17.7 -54.5)">Pi<tspan class="cls-25" x="122.82" y="0">t</tspan><tspan x="169.58" y="0">ch Black</tspan></text></g></svg>