<svg xmlns="http://www.w3.org/2000/svg" xmlns:xlink="http://www.w3.org/1999/xlink" viewBox="0 0 321 458"><defs><style>.cls-1{fill:#fffbef;}.cls-2{fill:#153460;}.cls-3,.cls-4{fill:#021c33;}.cls-3{opacity:0.7;}.cls-5{fill:#303030;}.cls-6{fill:url(#New_Gradient_Swatch_3);}.cls-7{fill:url(#New_Gradient_Swatch_3-2);}.cls-8{fill:#32558b;}.cls-9{fill:#ccc;}.cls-10{fill:url(#linear-gradient);}.cls-11{fill:#b3b3b3;}.cls-12{fill:#404040;}.cls-13{fill:gray;}.cls-14{fill:url(#radial-gradient);}.cls-15{fill:url(#linear-gradient-2);}.cls-16{fill:#457373;}.cls-17{fill:#fbde44;}.cls-18{fill:none;stroke:#fffbef;stroke-miterlimit:10;stroke-width:0.27px;}.cls-19,.cls-24{fill:#e5e5e5;}.cls-20{fill:#f2f2f2;}.cls-21{fill:url(#linear-gradient-3);}.cls-22{fill:#868070;}.cls-23{fill:#999;}.cls-24{opacity:0.8;}.cls-25{fill:#fff;}.cls-26{font-size:151.53px;font-family:SFProDisplay-Medium, SF Pro Display;}.cls-27{letter-spacing:-0.01em;}</style><linearGradient id="New_Gradient_Swatch_3" x1="72.5" y1="379.82" x2="100.5" y2="379.82" gradientUnits="userSpaceOnUse"><stop offset="0" stop-color="#021c33"/><stop offset="0.11" stop-color="#0d213e"/><stop offset="0.48" stop-color="#2e315f"/><stop offset="0.79" stop-color="#423b73"/><stop offset="1" stop-color="#493e7a"/></linearGradient><linearGradient id="New_Gradient_Swatch_3-2" x1="189.58" y1="459" x2="189.58" y2="269.29" xlink:href="#New_Gradient_Swatch_3"/><linearGradient id="linear-gradient" x1="59.52" y1="175.81" x2="59.52" y2="152.72" gradientUnits="userSpaceOnUse"><stop offset="0" stop-color="#303030"/><stop offset="0.12" stop-color="#3b3b3b"/><stop offset="0.44" stop-color="#525252"/><stop offset="0.75" stop-color="#616161"/><stop offset="1" stop-color="#666"/></linearGradient><radialGradient id="radial-gradient" cx="270.24" cy="120.18" r="27.57" gradientUnits="userSpaceOnUse"><stop offset="0" stop-color="#a4bdbe" stop-opacity="0.1"/><stop offset="0.16" stop-color="#a7bfc0" stop-opacity="0.12"/><stop offset="0.34" stop-color="#afc5c4" stop-opacity="0.16"/><stop offset="0.51" stop-color="#bdcecc" stop-opacity="0.24"/><stop offset="0.69" stop-color="#d1dcd6" stop-opacity="0.35"/><stop offset="0.87" stop-color="#eaede4" stop-opacity="0.48"/><stop offset="1" stop-color="#fffbef" stop-opacity="0.6"/></radialGradient><linearGradient id="linear-gradient-2" x1="270.24" y1="122.92" x2="270.24" y2="173.3" gradientUnits="userSpaceOnUse"><stop offset="0.02" stop-color="#303030"/><stop offset="0.2" stop-color="#434343"/><stop offset="0.46" stop-color="#565656"/><stop offset="0.73" stop-color="#626262"/><stop offset="1" stop-color="#666"/></linearGradient><linearGradient id="linear-gradient-3" x1="181.26" y1="324.95" x2="181.26" y2="266.32" gradientUnits="userSpaceOnUse"><stop offset="0" stop-color="gray"/><stop offset="0.11" stop-color="#9f9f9f"/><stop offset="0.22" stop-color="#b8b8b8"/><stop offset="0.36" stop-color="#ccc"/><stop offset="0.5" stop-color="#dadada"/><stop offset="0.69" stop-color="#e3e3e3"/><stop offset="1" stop-color="#e5e5e5"/></linearGradient></defs><title>Interactive-Underpowered Assets</title><g id="pitch_black" data-name="pitch black"><polygon class="cls-1" points="321 190.43 321 305.82 215.16 305.7 212.47 305.7 212.6 194.45 212.6 190.31 215.3 190.31 321 190.43"/><rect class="cls-1" x="97.15" y="190.24" width="115.39" height="115.39" transform="translate(309.4 496.05) rotate(-179.93)"/><polygon class="cls-1" points="97.21 190.17 97.21 194.31 97.08 305.57 0 305.45 0 190.06 94.52 190.17 97.21 190.17"/><rect class="cls-2" x="209.85" y="190.31" width="5.38" height="115.39" transform="translate(424.79 496.26) rotate(-179.93)"/><rect class="cls-2" x="94.46" y="190.17" width="5.38" height="115.39" transform="translate(194.01 495.85) rotate(-179.93)"/><polygon class="cls-3" points="321 179.88 321 194.57 215.29 194.45 212.6 194.45 209.91 194.44 99.9 194.32 97.21 194.31 94.52 194.31 0 194.2 0 179.5 321 179.88"/><polygon class="cls-4" points="321 175.74 321 190.43 215.3 190.31 212.6 190.31 209.91 190.3 173.93 190.26 161.18 190.25 99.9 190.18 97.21 190.17 94.52 190.17 0 190.06 0 175.37 117.36 175.51 321 175.74"/><rect class="cls-5" x="223.89" y="241.89" width="3.68" height="12.26" rx="1.84" ry="1.84" transform="translate(451.16 496.3) rotate(-179.93)"/><rect class="cls-5" x="197.52" y="241.86" width="3.68" height="12.26" rx="1.84" ry="1.84" transform="translate(398.43 496.21) rotate(-179.93)"/><rect class="cls-5" x="108.49" y="241.75" width="3.68" height="12.26" rx="1.84" ry="1.84" transform="translate(220.38 495.9) rotate(-179.93)"/><rect class="cls-5" x="82.13" y="241.72" width="3.68" height="12.26" rx="1.84" ry="1.84" transform="translate(167.64 495.81) rotate(-179.93)"/><rect class="cls-6" x="72.5" y="301.63" width="28" height="156.37"/><path class="cls-4" d="M320.87,289.62V458H190.68L100.5,348.92l-28-33.87-12-14.51a16.36,16.36,0,0,1-4.22-11v-14h0Z"/><path class="cls-7" d="M322.88,269.29V459H210.49l-110-129.75L76.91,301.63l-19-22.25a5.86,5.86,0,0,1-1.61-3.84,6,6,0,0,1,6-6.25Z"/><polygon class="cls-4" points="321 0 321 73.18 231.48 73.07 227.39 73.07 227.47 0 321 0"/><polygon class="cls-4" points="228.27 0 228.19 73.07 228.19 73.21 225.28 73.21 115.48 73.07 112.79 73.07 112.88 0 228.27 0"/><rect class="cls-8" x="225.28" width="6.2" height="73.27"/><rect class="cls-1" x="105.48" width="10" height="73.27"/><rect class="cls-1" x="101.71" y="73.27" width="219.29" height="12.67"/><circle class="cls-5" cx="245.84" cy="57.39" r="3.75"/><circle class="cls-5" cx="210.93" cy="57.39" r="3.75"/><rect class="cls-5" x="142.22" y="127.03" width="0.64" height="6.15"/><path class="cls-1" d="M146.33,172.27h-8.8V130.51a1.4,1.4,0,0,1,1.9-1.31l6,2.3a1.4,1.4,0,0,1,.9,1.31Z"/><path class="cls-9" d="M146.65,176.15h-9.42a2.84,2.84,0,0,1-2.86-2.47L132.57,158h18.74l-1.8,15.71A2.84,2.84,0,0,1,146.65,176.15Z"/><path class="cls-10" d="M117.36,175.51a2.74,2.74,0,0,1-1.24.3H0V164.75a4.55,4.55,0,0,1,0-2.16v-9.87H112.61a3.15,3.15,0,0,1,3,2.64l3.51,16.12A3.64,3.64,0,0,1,117.36,175.51Z"/><path class="cls-11" d="M113.06,163.83v.87a6.11,6.11,0,0,1-6.1,6.11H0v-6.06a4.55,4.55,0,0,1,0-2.16v-4.86H107A6.1,6.1,0,0,1,113.06,163.83Z"/><path class="cls-5" d="M10.44,163.67A5.93,5.93,0,0,1,0,167.53v-2.78a4.55,4.55,0,0,1,0-2.16v-2.77a5.85,5.85,0,0,1,3.44-2,5.46,5.46,0,0,1,1.07-.1,5.36,5.36,0,0,1,1.06.1A5.91,5.91,0,0,1,10.44,163.67Z"/><path class="cls-12" d="M9.14,163.67A4.63,4.63,0,0,1,0,164.75a4.55,4.55,0,0,1,0-2.16,4.61,4.61,0,0,1,3.44-3.42A4.18,4.18,0,0,1,4.51,159a4.62,4.62,0,0,1,4.63,4.63Z"/><rect class="cls-13" x="3.45" y="156.61" width="2.12" height="7.31" rx="0.83" ry="0.83"/><circle class="cls-5" cx="35.29" cy="163.67" r="5.94"/><circle class="cls-12" cx="35.29" cy="163.67" r="4.64"/><rect class="cls-13" x="34.23" y="156.61" width="2.12" height="7.31" rx="0.83" ry="0.83"/><circle class="cls-5" cx="66.07" cy="163.67" r="5.94"/><circle class="cls-12" cx="66.07" cy="163.67" r="4.64"/><rect class="cls-13" x="65.01" y="156.61" width="2.12" height="7.31" rx="0.83" ry="0.83"/><circle class="cls-5" cx="96.85" cy="163.67" r="5.94"/><circle class="cls-12" cx="96.85" cy="163.67" r="4.64"/><rect class="cls-13" x="95.78" y="156.61" width="2.12" height="7.31" rx="0.83" ry="0.83"/><path class="cls-5" d="M8.71,152a4.37,4.37,0,0,0,2.35.78c1.9,0,2.58-1.79,2.6-3.42a1.17,1.17,0,0,0-2.35,0,3.46,3.46,0,0,1-.1.86c-.06.24,0,.06-.08.19s.13-.06-.05.05c.3-.19,0,0,0,0,.39.15,0-.2,0,0,0-.18.24.11,0,0H11l-.5-.15c-.22-.07.22.11,0,0l-.18-.09a3.83,3.83,0,0,1-.4-.23c-1.25-.85-2.43,1.18-1.18,2Z"/><path class="cls-5" d="M3.24,149.35v3a1.26,1.26,0,0,0,2.51,0v-3a1.26,1.26,0,0,0-2.51,0Z"/><path class="cls-5" d="M11.23,151.24v.24a.34.34,0,0,1,0,.1,1.67,1.67,0,0,1-1.66,1.57H0v-3.57H9.56A1.66,1.66,0,0,1,11.23,151.24Z"/><path class="cls-5" d="M70.45,152a4.37,4.37,0,0,0,2.35.78c1.9,0,2.58-1.79,2.6-3.42a1.17,1.17,0,0,0-2.35,0,3.46,3.46,0,0,1-.1.86c-.06.24,0,.06-.08.19s.13-.06-.05.05c.3-.19,0,0,0,0,.39.15,0-.2,0,0,0-.18.24.11,0,0H72.7l-.5-.15c-.22-.07.22.11,0,0l-.18-.09a3.83,3.83,0,0,1-.4-.23c-1.25-.85-2.43,1.18-1.18,2Z"/><path class="cls-5" d="M65,149.35v3a1.26,1.26,0,0,0,2.51,0v-3a1.26,1.26,0,0,0-2.51,0Z"/><rect class="cls-5" x="59.5" y="149.58" width="13.47" height="3.57" rx="1.66" ry="1.66"/><path class="cls-5" d="M60.5,150a3.83,3.83,0,0,1-.4.23l-.18.09c-.22.11.26-.08,0,0l-.5.15c-.1,0,.26,0,0,0s-.06,0,0,0l-.08,0q-.18-.06.06,0s-.34-.2,0,0c-.18-.11.08.15-.05-.05s0,.1-.06-.13a3,3,0,0,1-.12-.93,1.17,1.17,0,0,0-2.35,0c0,1.62.71,3.42,2.6,3.42a4.37,4.37,0,0,0,2.35-.78c1.24-.84.07-2.88-1.18-2Z"/><path class="cls-5" d="M39.58,152a4.37,4.37,0,0,0,2.35.78c1.9,0,2.58-1.79,2.6-3.42a1.17,1.17,0,0,0-2.35,0,3.46,3.46,0,0,1-.1.86c-.06.24,0,.06-.08.19s.13-.06-.05.05c.3-.19,0,0,0,0,.39.15,0-.2,0,0,0-.18.24.11,0,0h-.05l-.5-.15c-.22-.07.22.11,0,0l-.18-.09a3.83,3.83,0,0,1-.4-.23c-1.25-.85-2.43,1.18-1.18,2Z"/><path class="cls-5" d="M34.11,149.35v3a1.26,1.26,0,0,0,2.51,0v-3a1.26,1.26,0,0,0-2.51,0Z"/><rect class="cls-5" x="28.63" y="149.58" width="13.47" height="3.57" rx="1.66" ry="1.66"/><path class="cls-5" d="M29.63,150a3.83,3.83,0,0,1-.4.23l-.18.09c-.22.11.26-.08,0,0l-.5.15c-.1,0,.26,0,0,0s-.06,0,0,0l-.08,0q-.18-.06.06,0s-.34-.2,0,0c-.18-.11.08.15-.05-.05s0,.1-.06-.13a3,3,0,0,1-.12-.93,1.17,1.17,0,0,0-2.35,0c0,1.62.71,3.42,2.6,3.42a4.37,4.37,0,0,0,2.35-.78c1.24-.84.07-2.88-1.18-2Z"/><path class="cls-5" d="M101.32,152a4.37,4.37,0,0,0,2.35.78c1.9,0,2.58-1.79,2.6-3.42a1.17,1.17,0,0,0-2.35,0,3.46,3.46,0,0,1-.1.86c-.06.24,0,.06-.08.19s.13-.06-.05.05c.3-.19,0,0,0,0,.39.15,0-.2,0,0,0-.18.24.11,0,0h-.05l-.5-.15c-.22-.07.22.11,0,0l-.18-.09a3.83,3.83,0,0,1-.4-.23c-1.25-.85-2.43,1.18-1.18,2Z"/><path class="cls-5" d="M95.85,149.35v3a1.26,1.26,0,0,0,2.51,0v-3a1.26,1.26,0,0,0-2.51,0Z"/><rect class="cls-5" x="90.37" y="149.58" width="13.47" height="3.57" rx="1.66" ry="1.66"/><path class="cls-5" d="M91.37,150a3.83,3.83,0,0,1-.4.23l-.18.09c-.22.11.26-.08,0,0l-.5.15c-.1,0,.26,0,0,0s-.06,0,0,0l-.08,0q-.18-.06.06,0s-.34-.2,0,0c-.18-.11.08.15-.05-.05s0,.1-.06-.13a3,3,0,0,1-.12-.93,1.17,1.17,0,0,0-2.35,0c0,1.62.71,3.42,2.6,3.42a4.37,4.37,0,0,0,2.35-.78c1.24-.84.07-2.88-1.18-2Z"/><rect class="cls-5" x="267.9" y="111.96" width="4.68" height="4.68" rx="1.18" ry="1.18"/><rect class="cls-5" x="241.12" y="171.48" width="6.04" height="4.39" rx="1.39" ry="1.39"/><rect class="cls-5" x="295.19" y="171.76" width="6.04" height="4.39" rx="1.39" ry="1.39"/><rect class="cls-5" x="225.12" y="131.93" width="12.76" height="4.86" rx="1.84" ry="1.84"/><rect class="cls-5" x="302.59" y="131.93" width="12.76" height="4.86" rx="1.84" ry="1.84"/><path class="cls-14" d="M309,124.57H231.5c.59-4.87,17.71-8.78,38.73-8.78S308.38,119.7,309,124.57Z"/><path class="cls-15" d="M309,122.92v43.8c0,.08,0,.16,0,.25a6.58,6.58,0,0,1-6.58,6.33H238.08a6.58,6.58,0,0,1-6.58-6.33c0-.08,0-.16,0-.25v-43.8Z"/><path class="cls-2" d="M309,167a6.58,6.58,0,0,1-6.58,6.33H238.08a6.58,6.58,0,0,1-6.58-6.33Z"/><polygon class="cls-9" points="311.72 126.51 229.05 126.51 229.88 122.92 310.9 122.92 311.72 126.51"/><path class="cls-2" d="M281.74,152.83V167.5c0,.13,0,.27,0,.4H259.6c0-.13,0-.26,0-.4V152.83a7.15,7.15,0,0,1,7.15-7.15h7.85A7.15,7.15,0,0,1,281.74,152.83Z"/><rect class="cls-1" x="264.89" y="154.65" width="12.08" height="5.14"/><rect class="cls-16" x="265.43" y="162.24" width="4.33" height="1.17" rx="0.58" ry="0.58"/><rect class="cls-17" x="272.12" y="162.24" width="4.33" height="1.17" rx="0.58" ry="0.58"/><line class="cls-18" x1="264.89" y1="153.08" x2="276.98" y2="153.08"/><line class="cls-18" x1="264.89" y1="151.51" x2="276.98" y2="151.51"/><path class="cls-19" d="M321,376.28v61.29A150,150,0,0,1,299.56,439c-45.88,0-65.69-18.2-65.69-36.53a16.65,16.65,0,0,1,.19-2.55c0-.26.08-.51.14-.77,3.37-16.09,31.34-24,65.36-24A189.38,189.38,0,0,1,321,376.28Z"/><path class="cls-20" d="M321,371.1v62.74a125.39,125.39,0,0,1-21.44,1.81c-36.28,0-65.69-14.86-65.69-33.19a16.65,16.65,0,0,1,.19-2.55c0-.26.08-.51.14-.77,3.29-16.76,31.3-29.86,65.36-29.86A124.37,124.37,0,0,1,321,371.1Z"/><path class="cls-19" d="M280.55,424.85l-.53-.1Z"/><path class="cls-19" d="M282.7,425.23l-.37-.06Z"/><path class="cls-19" d="M278.59,424.45l-.89-.19Z"/><path class="cls-19" d="M314.49,425.52l-.33,0Z"/><path class="cls-19" d="M316.8,425.17l-.37.06Z"/><path class="cls-19" d="M285,425.57l-.32,0Z"/><path class="cls-19" d="M292.14,426.31l-.54,0Z"/><path class="cls-19" d="M297.08,426.53l-.63,0Z"/><path class="cls-19" d="M294.6,426.45l-.62,0Z"/><path class="cls-19" d="M287.31,425.87l-.36,0Z"/><path class="cls-19" d="M289.71,426.12l-.44,0Z"/><path class="cls-19" d="M319.11,424.75l-.54.1Z"/><path class="cls-19" d="M321,383.91v5.5a100.24,100.24,0,0,0-21.44-2.21c-25.74,0-46.6,8.81-46.6,19.68,0,7.39,9.64,13.82,23.9,17.19-16-3.73-26.86-11.25-26.86-19.94,0-12.38,22.19-22.42,49.56-22.42A101.75,101.75,0,0,1,321,383.91Z"/><path class="cls-19" d="M307.53,426.27l-.54,0Z"/><path class="cls-19" d="M305.15,426.42l-.62,0Z"/><path class="cls-19" d="M302.05,426.53l.63,0Z"/><path class="cls-19" d="M309.86,426.07l-.44,0Z"/><path class="cls-19" d="M312.18,425.83l-.36,0Z"/><path class="cls-19" d="M304.53,426.45l-1.84.06Z"/><path class="cls-19" d="M299.56,426.56l-2.49,0Z"/><path class="cls-19" d="M289.27,426.07l-2-.2Z"/><path class="cls-19" d="M302.05,426.53l-2.49,0Z"/><path class="cls-19" d="M294,426.42l-1.83-.11Z"/><path class="cls-19" d="M296.44,426.51l-1.84-.06Z"/><path class="cls-19" d="M286.95,425.83l-2-.26Z"/><path class="cls-19" d="M316.43,425.23l-1.94.3Z"/><path class="cls-19" d="M291.6,426.27l-1.89-.15Z"/><path class="cls-19" d="M307,426.31l-1.83.11Z"/><path class="cls-19" d="M311.82,425.87l-2,.2Z"/><path class="cls-19" d="M314.17,425.57l-2,.26Z"/><path class="cls-19" d="M318.57,424.85l-1.77.32Z"/><path class="cls-19" d="M320.54,424.45l-1.43.29Z"/><path class="cls-19" d="M282.33,425.17l-1.77-.32Z"/><path class="cls-19" d="M309.42,426.12l-1.89.15Z"/><path class="cls-19" d="M277.7,424.26l-.84-.19Z"/><path class="cls-19" d="M284.64,425.52l-1.94-.3Z"/><path class="cls-19" d="M280,424.75l-1.43-.29Z"/><path class="cls-19" d="M245.78,306.57c0,18.33-17.74,36.53-65.69,36.53-45.88,0-65.69-18.2-65.69-36.53s29.41-27.34,65.69-27.34S245.78,288.24,245.78,306.57Z"/><ellipse class="cls-20" cx="180.09" cy="306.57" rx="65.69" ry="33.19"/><path class="cls-19" d="M161.08,329l-.53-.1Z"/><path class="cls-19" d="M163.22,329.33l-.37-.06Z"/><path class="cls-19" d="M159.11,328.56l-.89-.19Z"/><path class="cls-19" d="M202,328.37l-.89.19Z"/><path class="cls-19" d="M195,329.63l-.33,0Z"/><path class="cls-19" d="M197.32,329.27l-.37.06Z"/><path class="cls-19" d="M165.49,329.68l-.32,0Z"/><path class="cls-19" d="M172.67,330.42l-.54,0Z"/><path class="cls-19" d="M177.6,330.64l-.63,0Z"/><path class="cls-19" d="M175.12,330.56l-.62,0Z"/><path class="cls-19" d="M167.83,330l-.36,0Z"/><path class="cls-19" d="M170.23,330.22l-.44,0Z"/><path class="cls-19" d="M199.63,328.85l-.54.1Z"/><path class="cls-19" d="M133.48,311c0-10.87,20.86-19.68,46.6-19.68s46.6,8.81,46.6,19.68c0,7.39-9.64,13.82-23.9,17.18,15.94-3.73,26.85-11.25,26.85-19.93,0-12.39-22.19-22.43-49.56-22.43s-49.56,10-49.56,22.43c0,8.68,10.91,16.21,26.85,19.93C143.13,324.81,133.48,318.38,133.48,311Z"/><path class="cls-19" d="M188.05,330.38l-.54,0Z"/><path class="cls-19" d="M185.68,330.52l-.62,0Z"/><path class="cls-19" d="M182.57,330.64l.63,0Z"/><path class="cls-19" d="M190.39,330.18l-.44,0Z"/><path class="cls-19" d="M192.7,329.93l-.36,0Z"/><path class="cls-19" d="M185.05,330.56l-1.84.06Z"/><path class="cls-19" d="M180.09,330.67l-2.49,0Z"/><path class="cls-19" d="M169.79,330.18l-2-.2Z"/><path class="cls-19" d="M182.57,330.64l-2.49,0Z"/><path class="cls-19" d="M174.5,330.52l-1.83-.11Z"/><path class="cls-19" d="M177,330.62l-1.84-.06Z"/><path class="cls-19" d="M167.47,329.93l-2-.26Z"/><path class="cls-19" d="M197,329.33l-1.94.3Z"/><path class="cls-19" d="M172.13,330.38l-1.89-.15Z"/><path class="cls-19" d="M187.51,330.42l-1.83.11Z"/><path class="cls-19" d="M192.34,330l-2,.2Z"/><path class="cls-19" d="M202.79,328.17l-.84.19Z"/><path class="cls-19" d="M194.69,329.68l-2,.26Z"/><path class="cls-19" d="M199.1,329l-1.77.32Z"/><path class="cls-19" d="M201.07,328.56l-1.43.29Z"/><path class="cls-19" d="M162.85,329.27l-1.77-.32Z"/><path class="cls-19" d="M189.94,330.22l-1.89.15Z"/><path class="cls-19" d="M158.22,328.37l-.84-.19Z"/><path class="cls-19" d="M165.16,329.63l-1.94-.3Z"/><path class="cls-19" d="M160.54,328.85l-1.43-.29Z"/><path class="cls-21" d="M181.26,266.32c-30.51,0-55.24,4.74-55.24,10.59v9.37a38.66,38.66,0,0,0,38.66,38.66h33.16a38.66,38.66,0,0,0,38.66-38.66v-9.37C236.51,271.06,211.77,266.32,181.26,266.32Z"/><ellipse class="cls-22" cx="181.26" cy="278.14" rx="50.54" ry="8.57"/><path class="cls-23" d="M200.42,283.3l17.87-.39,28.55-16.49a4.33,4.33,0,0,0,1.58-5.89h0a4.33,4.33,0,0,0-5.89-1.58L200.42,283.3"/><path class="cls-24" d="M185.18,359.14l2.17,21.76a7.3,7.3,0,0,0,7.3,7.3h16.28a7.3,7.3,0,0,0,7.3-7.3l2.17-21.76C220.4,357.06,185.18,357.06,185.18,359.14Z"/><ellipse class="cls-25" cx="202.79" cy="359.14" rx="17.61" ry="3.75"/><path class="cls-24" d="M202.79,329.33c-12.63,0-22.87,1.92-22.87,4.28l5.26,48.44a8.32,8.32,0,0,0,8.32,8.32h18.57a8.32,8.32,0,0,0,8.32-8.32l5.26-48.44C225.66,331.25,215.42,329.33,202.79,329.33Z"/><rect class="cls-23" x="247.28" y="397.41" width="8.76" height="49.07" rx="4.01" ry="4.01" transform="translate(-19.76 831.46) rotate(-115.65)"/><path class="cls-23" d="M287.85,395.56a1.29,1.29,0,0,1,1,2.38L274.09,405a1,1,0,1,0,.83,1.73l14.68-7.05a1.3,1.3,0,0,1,1.47.24l.07.07a1.29,1.29,0,0,1-.36,2.08l-14.86,7.14a1,1,0,0,0,.83,1.73l14.86-7.14a1.29,1.29,0,0,1,1.84,1v.1a1.3,1.3,0,0,1-.73,1.3l-14.68,7.05a1,1,0,0,0,.83,1.73L293.62,408a1.29,1.29,0,0,1,1.26,2.24q-.3.18-.61.33l-15.85,7.61A8.32,8.32,0,0,1,268,415.55a8.17,8.17,0,0,1,3.17-12l16.07-7.72Q287.53,395.68,287.85,395.56Z"/></g><g id="section_titles" data-name="section titles"><text class="cls-26" transform="translate(-445.51 -54.5)">Pi<tspan class="cls-27" x="122.82" y="0">t</tspan><tspan x="169.58" y="0">ch Black</tspan></text></g></svg>