<svg xmlns="http://www.w3.org/2000/svg" xmlns:xlink="http://www.w3.org/1999/xlink" viewBox="0 0 364 403"><defs><style>.cls-1{fill:url(#linear-gradient);}.cls-2{fill:#021c33;}.cls-3{opacity:0.8;font-size:26px;fill:#a4bdbe;font-family:SFProDisplay-Heavy, SF Pro Display;letter-spacing:0.03em;}</style><linearGradient id="linear-gradient" x1="182.28" y1="574.02" x2="182.28" y2="-82.92" gradientUnits="userSpaceOnUse"><stop offset="0" stop-color="#021c33"/><stop offset="0.22" stop-color="#0c213d"/><stop offset="0.6" stop-color="#272e58"/><stop offset="1" stop-color="#493e7a"/></linearGradient></defs><title>Interactive-Underpowered Assets</title><g id="pitch_black" data-name="pitch black"><path class="cls-1" d="M132.1,466.87a5.89,5.89,0,0,0-.44-1.82c-.68-1.55-2.76-2.65-4.11-1.62,1.07-1.5.62-3.62-.29-5.22s-2.23-3-2.92-4.68c-.85-2.09-.67-4.46-1.28-6.63-1.94-6.84-10.42-9.1-15.34-14.23-7.57-7.87-5.49-20.74-9.53-30.88-.88-2.21-2.08-4.41-1.94-6.78s2.43-4.79,4.66-4a11.58,11.58,0,0,1-.48-6.2,14.46,14.46,0,0,0,4.52-1.27,24.52,24.52,0,0,0-3.46-6.09c8.62-6.39,18-13.95,19.28-24.59,2.84.79,5.92-.91,7.56-3.36s2.11-5.48,2.33-8.42a3.53,3.53,0,0,0-2.42-4.26,75.56,75.56,0,0,0-20.77-7.07,24.4,24.4,0,0,1,7.33-9.61,7.39,7.39,0,0,0,2.51-2.62,6.42,6.42,0,0,0,.14-3.4l-3.22-23a25,25,0,0,1-.23-8.26c.53-2.71,2.16-5.38,4.73-6.4L115.13,262c-.38-1.54-.75-3.22-.08-4.66,1.32-2.83,5.55-2.8,7.61-5.14s1.11-6.13,0-9.13l-5.09-13.65c-.49-1.31-1.28-2.86-2.68-2.9-.66,0-1.28.33-1.94.34-2.94.09-2.61-5-5.1-6.6a40.24,40.24,0,0,0-7.26,6.33c-1.95-2.74-4.71-4.83-6.64-7.58s-2.87-6.7-.85-9.39c1.1-1.46,3-3.46,1.57-4.63a4.58,4.58,0,0,0-1.64-.59,3.43,3.43,0,0,1-2.29-3.62q-12.25.12-24.47,1.25l-1.4-7.28a45.85,45.85,0,0,1,21.85-5.39,131.74,131.74,0,0,1,.9-16.37l-.95-20a5,5,0,0,0-1.08-3.5,4.7,4.7,0,0,0-2.82-1c-4.4-.47-8.89-.22-13.22-1.16s-8.68-3.38-10.33-7.49a194.36,194.36,0,0,0,21.83-2.14,24.73,24.73,0,0,0-7.31-11.92,2.91,2.91,0,0,1-1.25-1.89c0-1,1.09-1.73,1.46-2.71.46-1.19-.25-2.48-.94-3.56L59.87,97c-2.85-4.46-5.74-9-9.65-12.53-2.22-2-4.77-3.74-6.52-6.18C41,74.57,40.62,69.76,39,65.47c-4-11-15-17.51-25.17-23.2a16.34,16.34,0,0,0,9.18-18c-.84-3.79-3.07-7.24-3.43-11.11,9.37,4,17.11,11,24.65,17.9L72.55,56.85a4.58,4.58,0,0,0,2.69,1.5c2.38.1,3.26-3.1,3.08-5.47-.66-8.64-4.85-16.65-10-23.64S57.1,16,51.8,9.19a13.19,13.19,0,0,1-2.64-4.7,11.42,11.42,0,0,1,.61-6.29,30.57,30.57,0,0,1,17.7-18.48L87.6,9.45c1.1,1.62,2.61,3.44,4.55,3.19,1.36-.17,2.34-1.32,3.42-2.15,3.38-2.6,8.06-2.3,12.32-2.57S117.13,6,118.2,1.85c.3-1.14.25-2.36.66-3.47.66-1.78,2.34-2.94,3.7-4.26,7.37-7.18,5.71-20,12.23-27.95,5.46-6.66,14.9-8,23.3-9.91a108.5,108.5,0,0,0,24.44-8.71c4.1-2,8.42-4.77,9.7-9.17,1-3.32,0-6.85-.46-10.28s0-7.45,2.77-9.48a9.87,9.87,0,0,1,5.28-1.48c7.17-.41,14.25,1.48,21.18,3.35,7.56,2,15.25,4.14,21.85,8.35,4.17,2.66,7.88,6.15,12.49,7.91,13.6,5.2,30.53-5.92,42.83,1.62A23.38,23.38,0,0,0,305.53-66L313-71.79a10.59,10.59,0,0,1,4.51-2.46c2.43-.42,4.78.88,7.17,1.47,7,1.72,14-2.56,21.17-2.72,1.62,0,3.47.28,4.33,1.65a4.36,4.36,0,0,1,.5,2.52,11.69,11.69,0,0,1-7.62,10l-2.57,1.41a8,8,0,0,0-4,5.95c-.24,2.09.36,4.24,0,6.31A6.78,6.78,0,0,1,333.13-43c-1,.58-2.2.87-3.23,1.46-2,1.16-3.25,3.31-4.38,5.35a3.76,3.76,0,0,0-.68,2.76A6.39,6.39,0,0,0,326-31.7c2.19,3.06-.14,7.22-.17,11a4.73,4.73,0,0,0,.48,2.3,5.18,5.18,0,0,0,1.86,1.8c2,1.27,4.32,2,6.42,3.09s4.09,2.83,4.6,5.15c.55,2.52-.75,5-2,7.26q-3.42,5.87-7.2,11.52a68.68,68.68,0,0,0-5.7,9.38,70.3,70.3,0,0,0-3,8.56q-2.6,8.38-6,16.49a33.42,33.42,0,0,1-.07,11.47,11.79,11.79,0,0,0-.33,4.49c.37,1.77,1.69,3.27,1.9,5.06.26,2.19-1.15,4.19-2.42,6a93.8,93.8,0,0,0-5.59,8.91,1.45,1.45,0,0,0-.24.73,1.47,1.47,0,0,0,.5.88l2.64,2.81a2.71,2.71,0,0,0,1.38,1,2.25,2.25,0,0,0,1.25-.22c2.41-1,4.35-3.44,7-3.37S325.63,85,327,87.17l3.57,5.61A11.75,11.75,0,0,1,336,88.23a6.07,6.07,0,0,1,6.58,1.4c2.33,2.74,1,7.24,3.08,10.18,1.21,1.73,3.39,2.63,4.41,4.48,1.28,2.3.21,5.33-1.73,7.11s-4.48,2.57-6.95,3.32c1.28,4.79-1.25,9.54-1.83,14.39a18.15,18.15,0,0,0,.94,8.27,13.77,13.77,0,0,1,1.12,3.82,3.13,3.13,0,0,1-1.83,3.23,3.32,3.32,0,0,1-2.38-.31,24.46,24.46,0,0,1-4-3c-1.34-1-3.06-1.82-4.68-1.36-1.06.3-2,1.1-3.06,1.2-2.57.22-4.16-3.41-6.73-3.37-1.94,0-3.12,2.08-4,3.82s-2.24,3.73-4.17,3.49c-1.22-.15-2.46-1.2-3.52-.59a2.55,2.55,0,0,0-1,1.69,29.16,29.16,0,0,0-.87,8.83,20.73,20.73,0,0,1,0,4.48,4.76,4.76,0,0,1-2.36,3.61c-1,.46-2.17.5-2.88,1.29s-.58,2.22-.31,3.36c.59,2.56,1.55,5.48,4,6.38.68.25,1.41.31,2.08.6,2,.85,2.62,3.26,3,5.37s.63,4.33.83,6.51q2.22,9,3.86,18.13a6.57,6.57,0,0,1-.16,4.09,20.82,20.82,0,0,1-2,2.47c-2.43,3.42.3,8.41-1.28,12.3-1.13,2.79-4.11,4.24-6.66,5.84a31.66,31.66,0,0,0-10,10c2.67-1.14,5.78-.43,8.45.73s5.17,2.76,8,3.46a12.07,12.07,0,0,1,3.07.92,2.57,2.57,0,0,1,1.45,2.63c-.62,2.67-5.69,1.29-6.78,3.81-.31.72-.26,1.71-1,2.06s-1.28-.1-1.85-.45a15,15,0,0,0-8.37-2.25,3,3,0,0,0-1.83.51,3.33,3.33,0,0,0-.87,2.35c-.2,2.17-.37,4.52.77,6.37s3.65,2.88,5.89,3.59c1.62.51,3.4,1.14,4.2,2.63.59,1.09,0,4.14-1,5.51a4.62,4.62,0,0,0,1,1.89c1.14,1.31,2.76,2.3,3.35,3.94,1,2.89-1.88,5.84-4.88,6.48s-6.12-.11-9.18.15l10.48,9.71a6.49,6.49,0,0,1,2,2.63c.6,1.9-.55,4.28.71,5.82a8.35,8.35,0,0,0,2.57,1.54c.87.5,1.65,1.57,1.17,2.45a2.27,2.27,0,0,1-1.65.92,15.39,15.39,0,0,1-9.25-1.05c-1.55-.7-3.36-1.67-4.84-.82-1.1.63-1.59,2.11-2.78,2.54-1,.36-2-.12-3.08-.16-2-.07-3.7,1.49-4.54,3.28a24.83,24.83,0,0,0-1.42,5.74c-1.23,6.05-5.59,12.21-11.75,12.56-5.26.3-10.33-3.7-15.44-2.42-4.74,1.18-7.23,6.3-8.69,11-6.28,20.16-5.19,43.26-17.63,60.33-1.45,2-3.09,3.9-4,6.2-1.35,3.58-.66,7.58.19,11.31q1.48,6.51,3.51,12.87l-2.94,2.53c7.9,25-8,52.74-.67,77.93a19.63,19.63,0,0,1,1.23,6.09c-.07,1.78-.6,3.91.74,5.08a14.61,14.61,0,0,0,1.7,1c2.28,1.5,1.61,5.16-.2,7.19s-4.41,3.31-6,5.52c-1.45,2-1.9,4.55-3,6.74s-3.55,4.15-5.9,3.39c-1.27-.41-2.25-1.54-3.57-1.76a5.46,5.46,0,0,0-3.06.74c-4.1,1.89-8.37,3.92-11.06,7.55-1.87,2.51-3,5.76-5.6,7.44a15.36,15.36,0,0,1-5.25,1.65,48.18,48.18,0,0,0-19.25,8.73c-4,3-8.3,6.92-13.25,6.09a104.78,104.78,0,0,0,5.34-33.45,10.45,10.45,0,0,1,.83-5.2c.8-1.44,2.27-2.39,3.25-3.72a6.82,6.82,0,0,0-.44-8.39c-1-1.13-2.43-1.87-3.56-2.91-4-3.68-3.78-9.84-2.88-15.36l-1.54-.24a8.92,8.92,0,0,1-4.58-1.6c-3.38-2.89-1-9-3.8-12.47-1-1.31-2.69-2-3.68-3.39-2.47-3.34-.37-9.43-4.07-11.31-1.34-.68-3-.46-4.29-1.27-1.43-.92-1.81-2.83-1.81-4.53C132.11,469,132.2,467.92,132.1,466.87Z"/><path class="cls-2" d="M309.11,77.28a27.59,27.59,0,0,0-11.25,15.84L300,91.9a5.7,5.7,0,0,1-3.66-3,1.77,1.77,0,0,0-3,0l-12,16.77c-2.35,3.29-4.79,6.49-9.26,5.16a10.31,10.31,0,0,0-5.38-.41,1.75,1.75,0,0,0-1.22,2.15c1.92,5.42,4.15,11.46,2.5,17.23-1.2,4.19-4.41,7.42-6,11.43a15.52,15.52,0,0,0-1.09,5.37c-.11,2.69-.85,3.1-2.87,4.46-1.87,1.26-3.07,2.59-2.11,5a6.32,6.32,0,0,0,2.05,2.5c1.85,1.51,2.82,2.09,3.82,4.47A21.19,21.19,0,0,0,267,171c3.24,3.06,6.74,5.7,8.78,9.79a21.44,21.44,0,0,1,1,16.17l2.92-.77-6.4-5.48a1.77,1.77,0,0,0-3,1.23c0,2.64,1.4,14-1.84,15-1.77.52-5.82-2.16-7.36-2.85a40.79,40.79,0,0,0-5.86-2.29,20.83,20.83,0,0,0-19,4.5l3,1.23-1.11-15.62c-.2-2.83.13-6.84-2-9.1-1.83-1.91-3.53-1-5.77-.9-3.22.13-4.74-3.12-8.06-2.82-2.63.24-4.36.95-7,0-1-.36-1.87-1-3-1.05-2.92-.11-4.79,4.52-7.18,4.14-1.32-.21-3.08-3.07-4.15-3.93a12.6,12.6,0,0,0-3.31-1.89c-3.45-1.37-8.57-1.14-10.7-4.65a1.77,1.77,0,0,0-3.19.42c-1.17,3.24-2.21,10.11-5.18,11.85-2.78,1.62-5.67-2.62-8.83-3-2.11-.25-3.48-.18-5.37-1.4a57.13,57.13,0,0,1-5.24-4.38l-10.48-8.77c-3.2-2.68-7.43-5.23-9.09-9.11-1.82-4.26.19-9.44,1.06-13.88,1.54-7.84,2.5-16.11,4.93-23.74,1.19-3.75,3.35-6.42,5.26-9.74,1.51-2.63,1.47-4.64,1.64-7.53.5-8.69,6.73-15.66,13.13-20.89,9.24-7.56,24.68-15.38,23-29.67a13.53,13.53,0,0,0-7.74-10.82,28.77,28.77,0,0,0-3.18-.81c-1.45-.44-1.07.27-2.57-1.09-1.88-1.71-.94-.47-.85-2.09.14-2.35,1.68-4.11,1.35-6.67s-1.26-1.21-.27-5.3c.25-1,.71-2,.89-3,.65-4-1.16-8.73,2.7-11.23,3.12-2,11.49-4.08,9-9.79a3.88,3.88,0,0,0-1.05-1.41c-1.28-1.1-1.28-.08-.8-.48a27.26,27.26,0,0,1,9.36-4.54c2.24-.65,4.88-.82,6.67-2.52s.78-4.35,2.21-6.09,4.53.32,6.93.11c2-.18,2.94-1.14,4.12-2.62,1.57-2,2.37-2.86,5-3.29,2.35-.38,4.72-.67,7.08-.93q6.62-.72,13.29-.93c4.41-.13,9,.44,13.39-.24,3.36-.52,6.19-2.39,9.56-3.08a18.89,18.89,0,0,0,13.84-10.52c.53-1.16.7-2.53,1.25-3.65,1.71-3.46,4-3.07,6.84-4.07a19.19,19.19,0,0,0,7-4.38c4.13-4,6.11-9.62,4.28-15.21-.7-2.12-4.07-1.22-3.37.93a10.71,10.71,0,0,1-2.19,10.47c-2.93,3.62-6.32,4.44-10.48,5.84-6.26,2.11-5.37,8.81-9.67,13.07-3.08,3.05-6.47,3.59-10.54,4.35-3.75.7-6.51,3-10.57,3a202,202,0,0,0-26.44,1.42c-2.67.35-5.9.31-8.29,1.66-1,.57-1.31,1.31-2.09,2-2.14,1.92-3.26,2.59-5.91,2-4.89-1-6.15.67-7.21,5-.77,3.17-2.13,3.35-4.95,4.08A30.54,30.54,0,0,0,191-7.53c-2.47,1-6,2.57-8,4.38A2.65,2.65,0,0,0,181.92-.4c.15.65.87,1,1.05,1.53.69,1.9,2.55-2-.52,2.7-1.66,2.54-1.67,2-4.1,3-5.06,2.2-5.48,6.5-5.47,11.48a17.18,17.18,0,0,1-1.44,6.61,7.22,7.22,0,0,0-.66,2.35c0,1.19.71,2.62.94,3.75.49,2.38-.43,3.4-1,5.65-1.48,5.4,2.41,6.25,6.7,7.09,12,2.34,7.52,16.62,1.62,22.73-10,10.32-24.91,15.7-29.18,30.74-.92,3.23-.33,6.87-1.53,9.9-1.3,3.27-3.93,5.85-5.26,9.17-2.93,7.32-3.73,15.73-5.25,23.42-1.21,6.14-4.93,15.34-.75,21,2.69,3.67,7.15,6.47,10.62,9.38l11.23,9.39c2.15,1.8,4.2,4.08,6.94,4.88,1.7.49,3.82,0,5.49.81.89.41,1.62,1.23,2.47,1.72a8.81,8.81,0,0,0,3.81,1.36,4.92,4.92,0,0,0,4.83-2.57c2.24-3.65,3.21-8.66,4.67-12.68l-3.19.42c3.46,5.68,10.8,4.07,15.45,8.07,1.82,1.56,3.24,3.94,5.8,4.34,2.74.43,3.3-1.24,5.15-2.64,3.21-2.42,5.71,1,9.19.31q1.28-.38,2.52-.86a4.67,4.67,0,0,1,3.52,1.81,7.46,7.46,0,0,0,2.26,1.12c1.53.34,2.77-.72,4.15-.56,3.38.39,2.59,4.4,2.77,6.81l1.11,15.62a1.77,1.77,0,0,0,3,1.23,17.31,17.31,0,0,1,16.39-3.38c4.44,1.34,9,5.07,13.84,5.12,2.44,0,3.94-1.41,4.51-3.71,1.12-4.53.3-10.21.33-14.85l-3,1.23,6.4,5.48a1.77,1.77,0,0,0,2.92-.77,24.64,24.64,0,0,0-3.81-22.65c-2.42-3.1-5.73-5.28-8.38-8.16-2.8-3-2.83-7-5.67-9.84-1-1-1.51-.4-1.71-2.06-.27-2.23.28-.64,1.41-1.8a6.83,6.83,0,0,0,1.85-2.44c.64-1.58.3-3.31.46-5,.3-3,1.82-5.45,3.36-7.95,5.57-9,4.59-16.63,1.14-26.36l-1.22,2.15c3.1-.57,5.81,1.86,8.92,1.37,2.07-.33,3.32-1.64,4.57-3.22,5.4-6.8,10.17-14.21,15.22-21.27h-3a10.34,10.34,0,0,0,5.75,4.61A1.76,1.76,0,0,0,301.22,94a24,24,0,0,1,9.65-13.76c1.83-1.27.09-4.3-1.76-3Z"/><path class="cls-2" d="M149.71-40.75c1.88,4.19,3.56,8.53,6.07,12.4s7,7.06,8.3,11.39c1.35,4.62-4.11,6-4.7,10-.52,3.48,2.32,6.49,2,10l1.28-1.68c-2.88.86-6.16-5.57-9.14-1.22-1,1.4-.42,2.6,0,4,1.05,3.18,2,5,.62,8.2-.52,1.22-1.2,2.35-1.63,3.61-1.16,3.39-1.25,7.42,2.18,9.47,2,1.17,4.09.93,6.29,1a13.56,13.56,0,0,1,11.2,5.88c1.29,1.81,4.32.07,3-1.76a17.46,17.46,0,0,0-8.83-6.81,18.42,18.42,0,0,0-5.38-.8c-2.21,0-5.09-1.72-5.64-4.24-.25-1.14,1-2.88,1.45-3.85,1.59-3.57,2.64-6.31,1.24-10.1-.47-1.26-1.94-2.08-.09-1.64.29.07,1.94,1.38,2.18,1.48a4.4,4.4,0,0,0,3.42.14A1.81,1.81,0,0,0,164.83,3,11.89,11.89,0,0,0,164-2.35c-.22-.64-.92-1.73-.88-2.41.12-1.71,1.84-3.43,2.73-4.76,1.78-2.66,2.53-5.13,1.62-8.38-1-3.7-4.08-6.34-6.44-9.19-3.77-4.57-5.89-10.07-8.28-15.42-.92-2-3.92-.27-3,1.76Z"/><path class="cls-2" d="M78,52.38A9.32,9.32,0,0,0,89.58,46.5l-3.19.42L93,61.75c2.37,5.34,5.46,10.72,5.62,16.68a1.79,1.79,0,0,0,1.75,1.75,17,17,0,0,0,5.73-.78c2.85-.76,3.36-1.34,6.64,1.16.45.35.7,1,1.25,1.27,1.22.6,1.85.4,3,.6,3.4.59,4.62,3.18,7.25,5.16s6.89,4.49,10.18,3.27a5.8,5.8,0,0,0,2.58-2.2c1.87-2.47,3.69-3.56,6.25-5.22,3.49-2.26,5.34-6,7.23-9.6,1.48-2.8,3.24-6,6.22-7.52,3.84-1.9,6.59,1,10.2,1.41a5.71,5.71,0,0,0,6-3.88,8.49,8.49,0,0,0,.53-2c.29-1.93-.31-1.85,1.53-3.21,3-2.26,8.05-.44,11.24.76,2.1.79,3-2.58.93-3.37-4.1-1.55-10.56-3.21-14.75-1.07-4.49,2.3.05,9.8-6.65,8.72-4.79-.77-7.41-2.81-11.94.33-4,2.74-5.68,7.18-8,11.2-2.6,4.54-6.86,5.86-10.34,9.28-1.09,1.08-2.17,2.9-4.11,2.85-1.56,0-4.7-2.27-5.8-3.19-1.54-1.3-2.61-3.24-4.27-4.38s-2.6-.55-4.13-.92c-2.06-.5-2.65-2.27-4.54-3.2-3.9-1.91-8.27,1.28-12.25,1l1.75,1.75c-.14-5.41-2.38-10.09-4.54-15L89.4,45.15c-.68-1.53-2.71-.81-3.19.42A5.74,5.74,0,0,1,79,49c-2.16-.61-3.09,2.75-.93,3.37Z"/><path class="cls-2" d="M266,168.54c4.89-1,6.07-7.81,4.49-11.81l-1.68,2.21c1.19.11,2.44,2.25,3.59,2.8,2.08,1,5,.88,7.2,1.12,6.73.73,13.75,1,20.3,2.8a1.75,1.75,0,0,0,.93-3.37c-6.28-1.73-13-2-19.42-2.73-3.24-.35-6.32-.19-8.89-2.23-1.37-1.08-1.92-1.73-3.71-1.89a1.75,1.75,0,0,0-1.68,2.21c.74,1.87.78,6.94-2,7.51-2.2.44-1.27,3.81.93,3.37Z"/><path class="cls-2" d="M237.93,205.55c-6.94,1.53-4,8.25-3.13,12.82q1.3,3-1.48,5.64a6.07,6.07,0,0,0-1.18.6,6.3,6.3,0,0,0-1.27,1.9c-.39,1.25.14,2.64.08,3.9a8.42,8.42,0,0,1-3.57,6.51c-1.49,1.14-3.76,2-3.48,4.28.31,2.56,4.55,4.19,6.37,5.37l12.49,8.09c2.4,1.55,4.13,2.1,2.93,5.07-.5,1.25-1.36,2.12-1.75,3.47a1.79,1.79,0,0,0,.8,2c1.5,1,2.57.95,4.32,1A12.64,12.64,0,0,1,258,270c3.45,3.27,6.1,6.89,10.68,8.68,4.28,1.67,9,1.59,13.51,1.64,3.24,0,7-.43,9.1,2.52,1,1.34.94,2.12,2.43,3.11,1.87,1.26,3.62-1.77,1.76-3-1.3-.87-1.42-3.26-2.6-4.37a6.66,6.66,0,0,0-3.69-1.4c-5.69-.9-11.62.38-17.24-1.12-5.93-1.58-8.67-6.33-13.14-10a15.92,15.92,0,0,0-4.52-2.72c-2.24-.83-6,0-7.8-1.21l.8,2c.71-2.43,3.29-4.12,3-6.84-.25-2.36-2.43-3.44-4.23-4.63-3.62-2.4-7.29-4.72-10.93-7.08-1.18-.77-5.76-2.79-6.25-4-.65-1.7,0-1.25,1.33-2.35a11.91,11.91,0,0,0,4-7c.18-1-.07-2.15.11-3.12.38-2,.72-1.49,2.11-2.78a6.93,6.93,0,0,0,2.27-4.62c.27-2.65-4.41-11.78.11-12.77,2.19-.48,1.26-3.85-.93-3.37Z"/><path class="cls-2" d="M142.11,80.48a5.09,5.09,0,0,0,1.63,2.87c.8.75,3.12,1.34,3.56,2.24,1.9,3.87-13,11.49-15.79,12.68-6.2,2.64-12-.92-18.24,0-6.55.91-10.9,5.72-17.66,1.9A1.76,1.76,0,0,0,93,101.62a64.48,64.48,0,0,0,.83,9.57c.43,2.32,1,2.59,2.36,4.16,4.76,5.61-6.78,7.5-5.28,13.12.5,1.86,1.49,1.51,2.86,2.15,2,.91,1.74.78,2.77,2.48a7.93,7.93,0,0,0,1.41,2c1.48,1.28,2.73.81,4.4,1.17,2,.42,1.92.61,2.91,2.18.53.84.47,1.44,1.21,2.13,1.25,1.16,2.43,1,4.05.91,2.81-.16,7.45-.42,10.06-1.58,1.32-.59,1.41-1.91,2.34-2.51,1.09-.7,3.21,0,4.78-.75,2.71-1.24,2.68-4,4.73-5.56,1.75-1.31.73.09.6,1a19.79,19.79,0,0,0-.57,2.73c-.12,3.77,2.25,6.52,6,6.72,2.24.12,2.24-3.37,0-3.49-5.63-.31,1.32-8.58-1.34-11.54-2.06-2.3-4.95-.67-6.6,1.22-2.68,3.05-2,4.95-6.73,5.65-1.16.17-2-.17-3.07.63-.4.29-.48,1-.81,1.3a5.26,5.26,0,0,1-3.85,1.79,33.35,33.35,0,0,1-4.58.69c-4,0-2.32-.27-3.4-2.55a4.13,4.13,0,0,0-2.42-2.4,9.23,9.23,0,0,0-2-.27c-2.06-.33-3.09-.49-4.49-2.18a15.4,15.4,0,0,0-2.32-2.82c-.23-.18-1.67-.35-1.73-.49-.42-1,1.91-2.42,2.37-2.89,2.28-2.3,4.66-5.28,3.44-8.78-.61-1.75-2-1.87-2.9-3.12-1.81-2.49-1.36-7.74-1.46-10.72l-2.63,1.51a14.34,14.34,0,0,0,8.81,2c3.54-.38,6.42-2.45,9.83-3.25,4.48-1,8.69.93,13.14,1.07a18.27,18.27,0,0,0,9-2.31A124.53,124.53,0,0,0,145.16,94c2.09-1.36,5.24-2.8,6.35-5.28,2.54-5.67-5.2-5.27-6-9.19-.47-2.2-3.83-1.27-3.37.93Z"/><path class="cls-2" d="M176,187.41a24.43,24.43,0,0,1,9.6,9.78c1.36,2.59,1.59,4.87,4.48,6,1.87.74,3.54.74,5.24,2.17,1.11.93,1.91,2.18,3.06,3.08,1.51,1.17,3.29,2,5.19,1.29,2.33-.86,3-3.29,4.14-5.2,2.24-3.64,5.91-3,9.47-4.45,2.36-.93,2.86-2.26,4.27-4.1,2.78-3.62,9.85-2.32,14.13-2.37,2.24,0,2.25-3.52,0-3.49-5.38.06-13.35-1.79-16.78,3.12-1.56,2.24-2.57,3.61-5.28,4.24a25.11,25.11,0,0,0-4.52,1.19,8.54,8.54,0,0,0-4.32,4.1c-.76,1.34-1.21,3.75-3.42,3.48-1.09-.13-2.72-2.62-3.49-3.36-2-1.9-3.91-2.25-6.18-3.56-2.71-1.57-3.64-5.43-5.66-8a28.3,28.3,0,0,0-8.18-6.94,1.75,1.75,0,0,0-1.76,3Z"/><path class="cls-2" d="M47.94,32.37c-2.78-.93-4.58,0-6.76,1.88-1.46,1.23-2.7,2.73-4.63,3.32-1.4.43-2.84.13-4.17.86-4.52,2.46-1,6.68,1.48,8.88,2.31,2.06,3.36,3.29,4,6.23a12.47,12.47,0,0,0,1.36,4.29,9.9,9.9,0,0,0,5.15,3.78c4.65,1.75,8.67,1,10.17,6.73.63,2.4.83,3.28,2.59,5,1.52,1.46,3.2,2.52,3.92,4.75.53,1.63.54,3.37,1.22,5,1,2.45,3,3.78,4.82,5.62,5.25,5.29,5.57,13.15,8,19.83,1.81,5,3.65,9,9.34,8.09,4.5-.71,2.94,1.74,4.18,4.7,1,2.28,3,3.58,5,4.87s3.65-1.8,1.76-3c-1.15-.74-2.68-1.52-3.35-2.8-.92-1.77-.08-3.48-.61-5.27a3.63,3.63,0,0,0-2.44-2.51c-2.54-1-5.35,1.68-7.59.56s-3.3-6.63-3.94-8.86C76,99.33,75.1,94,72.32,89.64c-1.33-2.1-3.16-3.45-4.83-5.23-2.68-2.88-2.36-5.62-3.59-9.07a8.87,8.87,0,0,0-2.7-3.84c-1.24-1.17-2.68-2-3.26-3.78-.27-.85-.18-1.79-.51-2.66-1.73-4.67-6.8-5.08-10.88-6.42-4.72-1.55-4.62-4.65-5.86-8.72a8.16,8.16,0,0,0-2.89-4.26,24,24,0,0,0-2.18-1.36l.11-3.1c.38-.39,2.27-.4,3-.7,2.4-1,5.52-5.67,8.3-4.74,2.14.71,3.05-2.66.93-3.37Z"/><path class="cls-2" d="M79.81,139c6.58,1.2,13.39,1.94,19.63,4.32,1.37.52,2.23,1,3.74.42,2.1-.84,2.47-3.76,4.44-4.55s1.16-4.2-.93-3.37c-1.64.66-1.77,1-3.07,2.22-2.46,2.35-3.08,1.61-5.94.77-5.44-1.6-11.37-2.16-16.94-3.17-2.2-.4-3.14,3-.93,3.37Z"/><path class="cls-2" d="M123.21,252.18c3.81.1,6.64,3.08,10.33,3.64,3.27.49,6.38-1,9.21-2.46a44.06,44.06,0,0,0,16.71-15.43c1.64-2.56,2.46-3.7,5.65-3.95,1.09-.08,1.82.25,3-.2,2.77-1.08,4.62-4.61,6.23-6.89a56.54,56.54,0,0,0,6.47-11.28c2-4.87,2.34-12,8.12-14,2.11-.73,1.2-4.1-.93-3.37-7.77,2.67-8,10.82-11,17.34a65.23,65.23,0,0,1-7.2,11.6,5.43,5.43,0,0,1-4.37,3.28,10.06,10.06,0,0,0-1.66-.33,7.07,7.07,0,0,0-2.58.59c-2.49,1.17-3.71,3.88-5.16,6.05a40.54,40.54,0,0,1-9.86,10.33c-4,2.93-9.3,6.48-14.36,4.49-3-1.19-5.23-2.86-8.61-3-2.25-.06-2.25,3.43,0,3.49Z"/><path class="cls-2" d="M175.6,222.13l-.45-.15a1.77,1.77,0,0,0-2,.8l-.31.5a1.8,1.8,0,0,0,.27,2.12c.84,1.07,2,1.25,3.28,1.7a57.26,57.26,0,0,1,8.17,3.65,58.5,58.5,0,0,1,13.73,10.87c3.07,3.18,5.49,2.37,9.81,1.9l19.73-2.16c2.21-.24,2.23-3.73,0-3.49l-16,1.75c-2.46.27-6,1.28-8.45.92s-4.23-3.13-6-4.73a57.17,57.17,0,0,0-9.77-7.29,56.23,56.23,0,0,0-5.57-2.88c-1.57-.71-5.56-1.47-6.54-2.71l.27,2.12.31-.5-2,.8.45.15c2.13.72,3-2.65.93-3.37Z"/><path class="cls-2" d="M145.85,248.45c-.93,5.83-1.18,11.1,2.91,15.84,3.89,4.5,16,10.3,10.73,17.74a1.72,1.72,0,0,0,0,1.76c1.32,2.26,2.61.62,4.42,1.43,3.09,1.39.62,7.85,1.3,10.24a5.55,5.55,0,0,0,3.7,3.93c1.51.5,3.11.17,4.65.21a17.72,17.72,0,0,1,8.76,2.39c1.24.71,3.1-.48,2.56-2-1.33-3.69,6.1-6.13,8.21-6.64s3.64.17,5.47-.2c2.29-.46,2.07-2,3.74-3.36s3.6-1.19,4.79-3.34c.43-.77.23-2.34,1-2.93s3.47-.1,4.54-.2c3.56-.34,6.16-2.69,4.94-6.46-1.16-3.58-4.24-6.16-5.35-9.89-.56-1.86-1.37-5.15.05-6.87,1.92-2.31,4.91-.75,7.2-.82,5.75-.18,7.38-9.57,13.25-4.47.83.72,1.45,1.67,2.36,2.31s1.82.64,2.69,1.19q.68-.08,1.35-.22l-1.93,1.71c-1.42,1.8-2.24,4.76-3.21,6.84-2.24,4.77-7.75,11.82-4.7,17.05,2,3.36,2.06,5.85,2.37,9.65a9.87,9.87,0,0,0,2.61,6.54,1.78,1.78,0,0,0,2.12.27c2.3-1.22,2.19-3.7,3.94-5.13,1.93-1.58,4.32-.41,6.15-2.56,4.25-5-2.24-12.85-4.6-17.14l-.63,2.39c5.45-2.65,6.75-8.28,5.8-13.89-.37-2.21-3.74-1.27-3.37.93.69,4.07-.19,8-4.2,9.95a1.77,1.77,0,0,0-.63,2.39c1.31,2.38,2.8,4.74,4,7.19,1,2.12,2.35,3.48.36,5.36-1.73,1.64-1.28.46-2.81,1.18-3,1.4-3.13,4.93-5.74,6.31l2.12.27c-2.45-2.6-1.38-6.45-1.86-9.65a11.39,11.39,0,0,0-1-3.38c-1.58-3.29-2.65-2-.93-7.42,1.28-4.06,3.81-8.13,5.62-12,1.26-2.69,3.16-5.43,3.08-8.46a1.73,1.73,0,0,0-.86-1.51c-2-1-3.08-.28-5.13-2.14-1.44-1.31-3-3.38-5.07-3.62-3.38-.38-5.93,1.72-7.94,3.89-3.78,4.09-10.24,0-13.41,5.21-2.22,3.65-1,8.54.58,12.14.9,2.06,6.13,7.69,2.79,9.35-1.43.72-3.83-.22-5.47.32a5,5,0,0,0-2.8,2.38c-.89,1.34-.91,2.48-2.48,3.62-.74.54-1.68.67-2.4,1.32-2,1.79-.59,2-3.63,1.95a18.84,18.84,0,0,0-7.35,1.89c-4.06,1.73-8.89,4.44-7,9.6l2.56-2a20.29,20.29,0,0,0-8.84-2.84c-2.91-.18-6.52.18-6.71-3.81-.06-1.29.51-2.62.48-3.93,0-1.88-.53-4.16-2-5.49-.95-.86-4.2-2.24-3.8-.14-.11-.59.77-2,.88-2.73a9.78,9.78,0,0,0-.17-3.43,15.06,15.06,0,0,0-3.59-6.68c-2.26-2.51-5.24-4.21-7.65-6.55-4.24-4.12-4.38-8.46-3.49-14,.35-2.2-3-3.14-3.37-.93Z"/><path class="cls-2" d="M246.8,288.52c2.51-.3,5-.62,7.54-1,1.52-.24,2.87-.48,3.76-1.86,1.07-1.66.2-3.39.64-5.15.64-2.63,3.59-3.37,5.68-4.57s.19-4.13-1.76-3c-2.78,1.59-6.22,2.84-7.31,6.23-.45,1.38.53,4-.73,4.83a13.55,13.55,0,0,1-3,.39c-1.6.22-3.2.47-4.8.66-2.2.27-2.23,3.76,0,3.49Z"/><path class="cls-2" d="M180.7,299.16l9.58,19c1.45,2.88,2.93,5.74,4.36,8.63,1.54,3.12.53,2.63-2.24,3.58-1.31.45-2.66.84-4,1.25-3.23,1-4.18-.1-5.76-2.68a6.6,6.6,0,0,0-2.84-2.64c-2.85-1.34-6-.26-8.44,1.46l2.39.63-5-7.84a1.77,1.77,0,0,0-3,0c-2,3.15-7.29,9.57-11.09,4.49a1.77,1.77,0,0,0-2.39-.63c-.4.31-3.47,3-3.94,3-2.24-.26-1.58-4.53-1.59-5.79l-.06-11-.12-23a1.76,1.76,0,0,0-2.63-1.51,80.81,80.81,0,0,1-30,11.22c-2.21.36-1.27,3.72.93,3.37a83.25,83.25,0,0,0,30.82-11.57l-2.63-1.51c.07,12.32-.14,24.67.2,37,.06,2.27.19,5.38,2.58,6.52,3,1.44,6.09-2.13,8.18-3.72l-2.39-.63c5.54,7.42,13.43,1.32,17.12-4.49h-3l5,7.84a1.76,1.76,0,0,0,2.39.63,7.2,7.2,0,0,1,3-1.51c2.95-.35,3.19,2,4.49,4,1,1.46,1.33,2.26,3.07,2.72,2.51.67,5.64-1,8-1.72,1.93-.61,5.26-1,6.72-2.57,2.78-3.08-2.13-9.26-3.42-11.82L183.71,297.4c-1-2-4-.24-3,1.76Z"/><path class="cls-2" d="M195,328.27l7.08,10.81a1.78,1.78,0,0,0,2,.8c13.54-5.06,11.69,21.37,11.62,28.52a17.78,17.78,0,0,1-2,9c-1,1.85-2,2.82-2.16,5.06-.37,5.28.84,11.09,1.3,16.36a1.76,1.76,0,0,0,3.25.88c3.63-5.1,9.13-6.74,14.71-3.68,2,1.08,3.73-1.93,1.76-3-7.35-4-14.73-1.74-19.48,4.93l3.25.88-1-11.63a13.53,13.53,0,0,1,1.39-8,21.15,21.15,0,0,0,1.53-3.24c2-6.1.89-13.32.74-19.6-.12-5.42-.16-11.58-3.72-16-2.93-3.67-7.61-5.47-12.08-3.8l2,.8-7.08-10.81c-1.23-1.87-4.25-.12-3,1.76Z"/><path class="cls-2" d="M116.74,360.12c4.14,3.89,8.64,8,14.41,9.08,1.8.34,2.75.2,4.33,1.52,2.4,2,1,1.21.12,3.36a3.37,3.37,0,0,0,.23,3.42c1.31,1.92,4.2,2.8,5.86,4.48a24,24,0,0,1,5.62,10.13,54.18,54.18,0,0,1,1.8,11.56c.16,2.23.15,4.79,1.33,6.79a8.1,8.1,0,0,0,4.08,3.22c2.31,1,4,1.35,5.64,3.5a21.92,21.92,0,0,0,2.25,3.08,11.32,11.32,0,0,0,2.33,1.5c2.43,1.37,3.51,2.56,4.15,5.34.56,2.45.06,5.37,1.6,7.54,2.48,3.48,8.81,6.19,13,5.9,6.06-.4,12.58-5.1,17.9-7.67,5.76-2.78,12-4.67,13.18-11.7.52-3.09.15-6.21.07-9.32a51.48,51.48,0,0,1,1.88-14.78,1.75,1.75,0,0,0-3.37-.93,55.8,55.8,0,0,0-2,12.08c-.17,3.83.5,7.72,0,11.53-.71,5.93-6,7.4-10.71,9.68-4.13,2-8.23,4-12.38,6-4.41,2-9.94,2-13.59-1.78-2.67-2.75-1.67-7.25-3.2-10.47-1.07-2.24-2.53-3-4.54-4.29-3.05-1.91-4-5.16-7.06-7-1.54-.91-3.17-1-4.65-2.18-2.51-1.94-2.33-3.93-2.56-6.93A58.82,58.82,0,0,0,150.91,392c-1.52-5.65-4.45-11.12-9.23-14.66a17.32,17.32,0,0,0-2.39-1.53q-1.11-.5.12-1.28c.19-.74,1.09-1.41,1.29-2.24a4.7,4.7,0,0,0-1.65-4.63c-2.16-1.89-5.15-1.39-7.75-2-4.84-1.12-8.6-4.75-12.1-8-1.64-1.54-4.11.92-2.47,2.47Z"/><path class="cls-2" d="M134.51,466.2c-.6-3.77-3.78-6.58-7.63-5.19l2.82,3.67a7.82,7.82,0,0,0,0-7.1c-.69-1.48-1.85-2.65-2.59-4.09-1.18-2.33-1-4.83-1.65-7.26-1.49-5.22-6.13-8.21-10.39-11-6.52-4.33-9.51-9.39-10.91-17.07-.61-3.35-1-6.74-1.64-10.08a43.08,43.08,0,0,0-1.44-5.58c-.28-.81-4.11-9.47-.85-9,1.79.25,3.66-1.05,3.08-3.08a12.88,12.88,0,0,1-.39-5.53l-1.84,2.41a20.41,20.41,0,0,0,4.52-1.27,2.56,2.56,0,0,0,1.49-3.67,31.89,31.89,0,0,0-3.46-6.09l-.9,3.42c9-6.7,18.54-14.36,20.43-26.08l-3.08,1.75c8.71,1.19,13.84-7.52,13.07-15.53-.4-4.2-4.43-5.56-7.82-7.05a81.87,81.87,0,0,0-17.22-5.36l1.49,3.67c2-4.43,5.11-6.87,8.36-10.29,2.58-2.71,2.09-5.73,1.61-9.19q-1.07-7.68-2.14-15.35c-.74-5.32-3.51-14.37,2.54-17.59a2.54,2.54,0,0,0,1.15-2.82c-1-4.06-2.68-8.51-3.14-12.67-.28-2.57-.33-4.8,1.85-6.4.94-.69,2.25-.91,3.22-1.61,4.67-3.37,3.39-8.93,1.69-13.59-1.35-3.71-2.74-7.4-4.13-11.09-.74-2-1.39-4.4-3.27-5.62-1.35-.88-3.39,0-4.31-.57-1.31-.81-2-4.54-3.41-5.78a2.55,2.55,0,0,0-3-.39,50.77,50.77,0,0,0-7.77,6.72h3.54c-2-2.51-4.62-4.58-6.31-7.28-2.76-4.42-.32-5.82,1.16-9.56a4.43,4.43,0,0,0,.11-3.45c-.62-1.46-4-2.46-4.06-3.74a2.54,2.54,0,0,0-2.5-2.5q-12.26.16-24.47,1.25l2.41,1.84L67.29,194l-1.15,2.82a45.74,45.74,0,0,1,20.59-5.05,2.54,2.54,0,0,0,2.5-2.5c0-12.5,2.08-25.55-.2-38-.81-4.41-4.11-5.24-8.14-5.55-7-.54-15.85.16-19.5-7.24l-2.16,3.76a218.18,218.18,0,0,0,22.49-2.23A2.52,2.52,0,0,0,83.47,137a30.92,30.92,0,0,0-2.65-6.41c-1.18-2.07-3.82-4-4.74-6.07-.69-1.53.33-2.19.43-4,.13-2.21-1.22-4-2.35-5.8-6.31-10-12.18-21.51-20.32-30.18-4.17-4.44-8.63-6.92-10.47-13.13-1.42-4.8-2.6-9.36-5.52-13.52-5.61-8-14.36-13.1-22.72-17.79v4.32A19.09,19.09,0,0,0,25.39,31.71C27,24.65,23.1,19.28,22,12.53l-3.67,2.82C32.66,21.81,43.81,34,55.24,44.45l9.9,9c2.32,2.11,4.67,5,7.4,6.54,4.45,2.49,7.81-1.29,8.24-5.56,1.3-12.88-9.34-25.86-17.06-34.93-2.61-3.06-5.29-6.06-7.83-9.19-3.25-4-5.43-6.73-3.45-12.15a28.29,28.29,0,0,1,15.7-16L65.31-19C72.12-9,78.47,1.71,85.89,11.32c1.73,2.24,3.84,4.26,6.93,3.73,2.13-.36,3.39-2.2,5.19-3.17,2.55-1.37,5.66-1.22,8.45-1.39,3.32-.2,6.66-.59,9.59-2.32a10.45,10.45,0,0,0,3.23-2.87C120.9,3,120.5.07,122.21-2.15c2.46-3.19,5.09-5.18,6.73-9a86.74,86.74,0,0,0,3.33-11c1.21-4.39,2.71-8.78,6.25-11.87,3.83-3.34,9-4.69,13.82-5.82,10.28-2.4,20.21-5,29.78-9.57C189.49-53,195.81-57.74,195-66.72c-.46-5.29-3-13,4.8-13.64,6-.49,12.13,1,17.91,2.56C228.52-75,237.83-71.63,247-65.19c7.48,5.26,14.75,6.52,23.73,5.38,4.33-.55,8.61-1.48,13-1.85a35.44,35.44,0,0,1,5.54-.12c2.87.21,5,1.81,7.69,2.32,9.75,1.84,14.88-14.63,25-11.56a23,23,0,0,0,11.54.56c2.75-.53,5.41-1.44,8.15-2,4-.78,8.44-.15,5.37,4.87-2.15,3.51-6.22,4.09-9.2,6.57-3.47,2.88-3.45,6.16-3.72,10.23a8.88,8.88,0,0,1-2.14,5.6c-.85.85-2.75,1.16-3.79,1.86a12.46,12.46,0,0,0-3.27,3.41c-2.07,3-3,5.28-1.62,8.63,1.46,3.53.82,4.91.35,8.47a10.38,10.38,0,0,0,0,3.94c1.12,4.27,5.54,5.31,9,7.11,5.61,2.9,4,6.8,1.48,11.05-1.64,2.79-3.37,5.53-5.15,8.23-3.18,4.85-6.4,9.46-8.36,15s-3.55,11.27-5.68,16.8c-1.14,3-2.09,4.68-1.79,7.79.34,3.61-.24,6.84-.56,10.4a13,13,0,0,0,.67,5.87c1.39,4.48-.67,6.7-2.92,10.14-1.89,2.89-5.47,6.65-3.36,10.14,1.69,2.8,4.65,5.7,8.1,4.69,3-.87,5.18-4.6,8.49-1.74,2.06,1.79,3.51,5.19,4.94,7.44a2.54,2.54,0,0,0,4.32,0c2.1-2.76,8.26-6.38,9.72-.76.53,2-.46,4.21.32,6.33.71,1.93,2.11,2.67,3.36,4.17,4.16,5-1.16,7.19-5.43,8.53a2.57,2.57,0,0,0-1.75,3.08c1.25,6.8-3,13.2-1.56,20.23.24,1.16,1.47,3.18,1.35,4.31-.19,1.8-2.81,0-3.9-.79a8.46,8.46,0,0,0-7.37-1.6c-1.41.3-1.86.8-3.28.15-.92-.42-1.62-1.38-2.55-1.85a5.61,5.61,0,0,0-5.13-.2c-2,1-2.53,2.86-3.8,4.48-2.22,2.84-3.81.6-6.5,1.88-4.52,2.16-3.08,10.45-3.29,14.31-.11,1.92.72,2.6-1.61,4.55-.34.28-1,.18-1.32.47a10.87,10.87,0,0,0-1.85,1.35c-1.31,1.59-1.15,3.66-.76,5.54a13.25,13.25,0,0,0,2.66,6c2.19,2.46,5,2.18,6.28,5.71,1.06,3,.86,6.7,1.61,9.86q1.39,5.86,2.53,11.78a10.9,10.9,0,0,1-1,8,12.56,12.56,0,0,0-1.45,3.66c-.65,3.93,1.36,7.84-1.72,11.11-2.09,2.22-5.41,3.48-7.79,5.43a36.4,36.4,0,0,0-7.2,8.22c-1.22,1.84.8,4.26,2.82,3.67,4.21-1.21,7.55,1.09,11.25,2.75.34.15,5.65,1.81,5.65,2a27.81,27.81,0,0,0-3.79,1.25c-1.59,1.07-1.66,2.38-2.72,3.9l2.16-1.24c-1.81,0-5-2.13-7-2.46s-4.57-.61-6.34.61c-3.39,2.34-2.81,9.41-.8,12.39,1.41,2.1,3.55,3.15,5.83,4,1.85.71,3.93.53,3.77,3.3-.06,1-1,1.82-1,2.88,0,2,1.75,3.08,2.62,4.6,3.91,6.81-5.62,5.23-9.86,5.36-2.08.06-3.41,2.74-1.77,4.27q4.59,4.25,9.17,8.5c1.57,1.47,2.42,2.22,2.72,4.5.16,1.24-.11,2.45.41,3.64a4.21,4.21,0,0,0,2,2.35c.71.3,1.29.56,2.08-.09-.6.49-3,.14-3.7.07-3.07-.3-6.07-2.78-9.23-2.26a7.3,7.3,0,0,0-2.26,1,15.9,15.9,0,0,1-4.42,1.69c-2.89.58-5,1.75-6.36,4.47-3,5.83-1.71,15.05-10.08,16.87-6.69,1.45-12.64-4.83-19.44-1.17-5.12,2.76-7.22,8.76-8.71,14-4.05,14.31-4.71,29.42-9.58,43.52a54.77,54.77,0,0,1-5.35,11.33c-2,3.11-4.75,5.88-6,9.4-2.75,7.91,1.35,18,3.71,25.52l.64-2.43-2.94,2.53a2.46,2.46,0,0,0-.64,2.43c5,17-.19,34.37-2.07,51.42-.86,7.77-1,15.67.6,23.35.45,2.08,1.26,4.09,1.65,6.18s-.08,3.87.21,5.85c.47,3.23,4.86,5,2.72,8.3-1.79,2.76-5.17,4-6.83,7-.9,1.66-1.17,4-2.28,5.48-3.1,4.14-3.88,1-6.65.49-5.48-1-13.42,5-16.56,8.93-2.84,3.59-3.51,6.77-8.38,8.18-3.64,1.05-7.19,1.74-10.72,3.24a51.51,51.51,0,0,0-10.49,6c-3.67,2.7-7.1,6.12-12,5.75l2.41,3.16a112.13,112.13,0,0,0,4.65-20.91,108,108,0,0,0,.77-11.31c0-1.4-.25-3.87.25-5.21.6-1.58,2.13-2.53,3.1-3.83a9.35,9.35,0,0,0-.05-11.42c-1.75-2.21-4.37-3.18-5.64-5.82-1.54-3.19-1.06-7.14-.55-10.52.18-1.21-.29-2.85-1.75-3.08-2.87-.44-5.24-.79-6.22-3.94-.52-1.67-.24-3.6-.61-5.32a10.05,10.05,0,0,0-1.79-4.16c-1.32-1.7-3.38-2.45-4.19-4.59-1.07-2.83-.23-6.08-2.06-8.71a6.55,6.55,0,0,0-2.81-2.3c-1.74-.79-2.5-.24-3.59-2.06-.91-1.52-.64-2.81-.69-4.53-.09-3.21-5.09-3.22-5,0,.1,3.86-.27,8.1,3.66,10.14,1.77.92,3.82.74,4.78,2.92a16.69,16.69,0,0,1,.46,3.52,11.31,11.31,0,0,0,1.83,5.25c1.62,2.19,3.8,3,4.58,5.85.6,2.18.21,4.56.93,6.75,1.44,4.39,5.24,5.36,9.39,6l-1.75-3.08c-.7,4.64-1.26,9.73.86,14.11a15.38,15.38,0,0,0,4.37,5c4.41,3.76,2,5.84-.63,9.62-3.24,4.59-1.81,11.6-2.27,16.9a105.69,105.69,0,0,1-4.87,23.34,2.53,2.53,0,0,0,2.41,3.16c6.79.52,11.3-4.32,16.51-7.86,6.34-4.3,13-5.46,20-7.86,6.22-2.13,7.31-9,12.45-12.55a22.73,22.73,0,0,1,4-2.23c2.69-1.11,4.57-.6,7.14-.15s4.4.31,6.49-1.36,3-4,3.94-6.4c1.54-3.81,4.08-5.15,6.78-7.93,3.3-3.41,3.69-7.63.68-11.21-1-1.19-1.6-.93-1.81-2.91-.15-1.44.06-2.89-.21-4.36-.74-4-2.14-7.75-2.57-11.87-.78-7.39,0-14.87,1-22.2,2.23-15.83,5.9-31.88,1.23-47.64l-.64,2.43,2.94-2.53a2.45,2.45,0,0,0,.64-2.43c-2.5-8-7.05-18.5-1.77-26.08a70.7,70.7,0,0,0,9.88-19c4.67-14.44,5-29.92,9.76-44.32,1.09-3.3,2.61-7.38,6.05-8.83,4.15-1.76,9.24,1.54,13.43,2,5.3.6,9.92-2,12.95-6.3a22.32,22.32,0,0,0,3.45-8c.63-2.72.33-3.93,2.67-5.71,2.16-1.64,2.67-.67,4.92-1.54,1-.4,1.78-1.93,2.64-2.22,1.52-.5,4.17,1,5.58,1.4,2.71.74,6.13,1.09,8.83.13,1.94-.69,3.43-2.22,3.07-4.44-.46-2.88-3.76-3.12-4.39-5.52-.8-3,0-4.48-2.45-7-3.4-3.55-7.28-6.76-10.88-10.1l-1.77,4.27c5.21-.15,11,1.14,14.87-3.3,2.71-3.13,2.18-6.79-.51-9.69-1.09-1.17-1.53-1.07-1.66-2.3-.1-.9.68-2.2.73-3.16a5.61,5.61,0,0,0-1.31-4.27c-1.29-1.56-3.13-2-4.92-2.79-3-1.27-5.07-1.55-5-5.9.08-2.82,1.67-2.22,4-1.59,4.1,1.1,6.1,4,9.31.15.77-.94.86-1.25,1.91-1.76.75-.36,1.73-.34,2.51-.7a4.74,4.74,0,0,0,2.94-3.11c1.05-4.29-3.22-5.6-6.26-6.63-6.07-2-11.09-6.1-17.77-4.19l2.82,3.67a30.93,30.93,0,0,1,8.47-8.7c2.35-1.6,5-2.82,6.85-5.06a9.84,9.84,0,0,0,2.23-6.1c.05-1.44-.29-2.88-.25-4.32.06-2.33,1.15-3.86,2.19-5.83,2.93-5.56-.39-13.61-1.7-19.37-1.12-5-.67-14.27-4.94-17.91-2.07-1.76-7-2.55-6.23-6.36.34-1.73,3.24-2.37,4.35-4,1.37-2,1.42-4.3,1.37-6.62,0-1.69-.2-3.36-.08-5.06-.07,1,.39-4.49.76-4.61a6.9,6.9,0,0,0,1.43.64c2-.09,3.3-.18,4.9-1.68a15.24,15.24,0,0,0,1.8-2.44c.33-.46.46-1.19.84-1.59,1.65-1.7,2-.68,3.57.07s2.69,2,4.76,1.74c2.43-.25,4.43-.74,6.95.55,1.28.66,2.17,1.87,3.54,2.46,5.51,2.36,8.56-3,7.15-7.8s-1.84-8.61-.61-13.64c.91-3.74,1.52-7.08.82-10.9L342,117.13c4.88-1.53,10.32-3.94,11-9.7a7.28,7.28,0,0,0-1.54-5.4c-.66-.86-1.6-1.39-2.29-2.18-1.61-1.86-1.81-3.49-1.75-5.88.11-4.83-2.32-7.91-7.2-8.5-5.2-.63-8.79,2.09-11.8,6.06h4.32c-3.8-6-8-14.73-16.27-9.85-1.62,1-4,3.25-4.49-.41-.27-2,2.4-5,3.57-6.7,2.56-3.78,4.52-6.65,3.09-11.25a17,17,0,0,1-.7-8.23c.35-2.84,0-5.51.14-8.33.21-5,3.26-10.4,4.83-15.22,1.84-5.64,3.46-11,6.69-16s6.82-10,9.74-15.34c1.8-3.27,3.38-6.81,1.82-10.51-1.91-4.53-6.4-5.21-10.15-7.55-4.7-2.94-.93-7.48-1.68-12-.25-1.52-1.59-2.9-1.59-4.32,0-3.72,4.1-5.11,6.66-6.65a9.74,9.74,0,0,0,4.68-8.34c.11-3.36-.45-6.27,2.65-8.53,1.68-1.23,3.77-1.81,5.48-3,4.25-3,9.36-12.19,3.41-16.11-3-2-7.19-1.06-10.39-.41-6.39,1.29-11.25,3-17.75,1.18-3.69-1-6.49-.79-9.71,1.34-1.84,1.22-3.54,2.74-5.28,4.1s-6.53,6.38-9.27,6.18c-1.55-.11-3.44-1.44-5-1.78a28.07,28.07,0,0,0-5.35-.6c-4.51-.09-9,.76-13.45,1.46-4.69.74-9.61,1.56-14.37.8-5.44-.87-9.51-4.3-13.88-7.35-8.33-5.82-18.25-8.42-28-10.92-7.09-1.82-20.4-5.84-26.36.55-2.25,2.41-2.81,5.91-2.68,9.09.29,6.78,2.47,12.14-4.22,16.55-9.12,6-20.51,9-31.05,11.29-8.91,1.95-18.31,4.54-23.09,13-4.91,8.73-4.17,18.74-11.58,26.15a11,11,0,0,0-3.12,5.62c-1,3.48-2.65,5-6.24,5.73-4.59.95-9.36,0-13.72,2.11-.74.37-1.56,1.27-2.31,1.44-3.33.8-4.74-1.55-6.29-3.84L81.93-3.37,69.63-21.54a2.54,2.54,0,0,0-2.82-1.15c-9.62,4-20,13.54-20.33,24.81C46.33,8,51.21,12.56,54.73,16.71,60,22.92,65.61,28.91,69.81,35.92a46.23,46.23,0,0,1,4.52,9.71c.74,2.32,3.47,10.68-.72,8.8-3.11-1.39-6.61-6-9.19-8.37l-8.48-7.73C45.09,28.45,34.47,17.17,20.89,11a2.54,2.54,0,0,0-3.67,2.82c.78,4.93,4,9.41,3.65,14.5a14.26,14.26,0,0,1-8.26,11.75,2.52,2.52,0,0,0,0,4.32c8.33,4.66,17.62,9.79,22.46,18.39,2.44,4.34,2.83,9.31,4.86,13.8,1.89,4.18,5.23,6.57,8.51,9.6,8.33,7.69,13.83,19.17,19.89,28.65.71,1.1,2.23,2.66,2.53,4,.38,1.67,0,1.64-.36,3.09s-.63,2.17,0,3.62c.74,1.69,2.5,2.82,3.68,4.2a23.61,23.61,0,0,1,4.47,8.56l1.75-3.08a205.23,205.23,0,0,1-21.16,2.05,2.53,2.53,0,0,0-2.16,3.76,15.69,15.69,0,0,0,9,7.79,28.81,28.81,0,0,0,7.27,1.49c2.77.27,9.35-.6,10.88,2.59,1,2.16.32,6.69.43,9.1l.39,8.19c.3,6.32-.77,12.74-.77,19.1l2.5-2.5a51.42,51.42,0,0,0-23.12,5.74,2.55,2.55,0,0,0-1.15,2.82l1.4,7.28a2.5,2.5,0,0,0,2.41,1.84q12.21-1.09,24.47-1.25l-2.5-2.5a6.91,6.91,0,0,0,.85,3.47c.57.95,2.27,1.55,2.67,2.31.51.94,2-2-.44,1.3a8.67,8.67,0,0,0-1.7,3.66c-1.41,7.19,5.33,11.92,9.19,16.84a2.51,2.51,0,0,0,3.54,0,44.55,44.55,0,0,1,6.75-5.94l-3-.39c3,2.6,2.11,6.76,6.86,7.34,1.12.14,1.21-.43,2,.32,1,.93,1.55,4.09,2.08,5.52,1.29,3.47,2.9,7,3.84,10.55,1.88,7.11-6.91,5.94-8.45,11.68-.71,2.63.31,5.41.94,8l2.91,11.76,1.15-2.82c-8.66,4.61-5.94,15.35-4.84,23.24l1.21,8.64c.47,3.34,1.92,8.32.17,11.46-1,1.74-3.93,3.44-5.24,5.11a28.58,28.58,0,0,0-3.45,5.77c-.62,1.35-.22,3.33,1.49,3.67a77.78,77.78,0,0,1,15.48,4.63c2.89,1.23,5.64,1.94,5.75,5.43s-2.39,8.8-6.59,8.23c-1.22-.17-2.84.28-3.08,1.75-1.67,10.41-10.15,17.15-18.13,23.09-1,.75-1.76,2.23-.9,3.42a31.89,31.89,0,0,1,3.46,6.09l1.49-3.67a20.41,20.41,0,0,1-4.52,1.27,2.55,2.55,0,0,0-1.84,2.41,16.09,16.09,0,0,0,.57,6.86l3.08-3.08c-7.61-1-8.59,6.66-6.49,12.18,3,7.88,3.06,16.21,5.55,24.18,2.17,6.92,6.6,11,12.47,14.89,4.27,2.85,7.17,5.08,8,10.37a17.14,17.14,0,0,0,1.38,5.16c.9,1.8,3.88,4.52,2.9,6.76-.78,1.77.55,4.5,2.82,3.67q1.61.24,1.47,1.69C130.19,470.7,135,469.36,134.51,466.2Z"/><text class="cls-3" transform="translate(97.03 198.07)">METRO MANILA</text></g></svg>