<svg xmlns="http://www.w3.org/2000/svg" xmlns:xlink="http://www.w3.org/1999/xlink" viewBox="0 0 128 128"><defs><style>.cls-1{fill:url(#New_Gradient_Swatch_1);}.cls-2{fill:#303030;}.cls-3{fill:#1a1a1a;}.cls-4{fill:#404040;}</style><radialGradient id="New_Gradient_Swatch_1" cx="64" cy="64" r="61.59" gradientUnits="userSpaceOnUse"><stop offset="0" stop-color="#fbde44"/><stop offset="0.22" stop-color="#fbde44" stop-opacity="0.78"/><stop offset="0.49" stop-color="#fbde44" stop-opacity="0.53"/><stop offset="0.72" stop-color="#fbde44" stop-opacity="0.35"/><stop offset="0.9" stop-color="#fbde44" stop-opacity="0.24"/><stop offset="1" stop-color="#fbde44" stop-opacity="0.2"/></radialGradient></defs><title>Interactive-Underpowered Assets</title><g id="pitch_black" data-name="pitch black"><circle class="cls-1" cx="64" cy="64" r="61.59"/><polygon class="cls-2" points="7.91 75.93 3.55 64.91 17.42 36.37 28.38 44.73 25.97 83.99 7.91 75.93"/><polygon class="cls-3" points="25.97 83.99 42.17 73.78 39.06 64.99 39.33 43.99 28.38 44.73 25.97 83.99"/><polygon class="cls-4" points="17.42 36.37 28.75 34.89 39.33 43.99 28.38 44.73 17.42 36.37"/><polygon class="cls-4" points="27.09 65.8 9.66 62.96 26.81 70.28 27.09 65.8"/><polygon class="cls-2" points="53.95 30.24 82.42 39.85 84.17 67.55 42.2 56.34 53.95 30.24"/><polygon class="cls-4" points="42.2 56.34 38.15 58.17 80.89 71.91 84.17 67.55 42.2 56.34"/><path class="cls-2" d="M38.15,58.17,31.67,68.73a2.5,2.5,0,0,0,.41,3.12l13.4,12.79a2.5,2.5,0,0,0,1.6.69L79.55,87l1.34-15.09Z"/><polygon class="cls-3" points="79.55 87 106.35 76.39 104.28 63.83 93.87 37.27 82.42 39.85 84.17 67.55 80.89 71.91 79.55 87"/><path class="cls-4" d="M54,30.24l17.7-3.56a4.5,4.5,0,0,1,3,.43L93.87,37.27,82.42,39.85Z"/><path class="cls-2" d="M95.27,88.93l14.63,2.38,5.26-8.73-5.64-19.47L93,59.81,88,79.92a3.21,3.21,0,0,0,.76,3l4.7,5.06A3.21,3.21,0,0,0,95.27,88.93Z"/><polygon class="cls-4" points="88.59 77.45 112.67 74 114.01 78.64 88.59 77.45"/><polygon class="cls-4" points="109.52 63.11 116.17 60.89 109.68 59.59 93 59.81 109.52 63.11"/><polygon class="cls-3" points="121.32 68.1 116.17 60.89 109.52 63.11 115.15 82.59 109.89 91.32 121.88 87.75 124.45 77.9 121.32 68.1"/><polygon points="115.15 82.59 124.45 77.9 121.88 87.75 109.89 91.32 115.15 82.59"/><polygon class="cls-2" points="34.38 74.33 46.11 79.22 46.04 90.95 28.66 85 34.38 74.33"/><polygon class="cls-4" points="28.66 85 26.89 85.65 44.52 92.7 46.04 90.95 28.66 85"/><path class="cls-2" d="M26.89,85.65l-3,4.27a1.06,1.06,0,0,0,.08,1.33L29.21,97a1.06,1.06,0,0,0,.65.34L43.52,99l1-6.33Z"/><polygon class="cls-3" points="43.52 99.03 55.14 95.33 54.63 89.97 51.02 78.46 46.11 79.22 46.04 90.95 44.52 92.7 43.52 99.03"/><path class="cls-4" d="M34.38,74.33l7.57-1a1.9,1.9,0,0,1,1.25.27L51,78.46l-4.91.75Z"/><polygon class="cls-4" points="69.87 80.97 81.16 78.25 90.98 79.61 92.88 83.51 83.39 87.61 69.87 85.53 69.87 80.97"/><polygon class="cls-2" points="69.87 85.28 63.85 87.74 68.21 94.84 89.54 95.12 95.77 90.47 92.88 83.51 83.39 87.61 69.87 85.28"/><polygon class="cls-3" points="69.87 80.97 63.85 83.51 63.85 87.74 69.87 85.28 69.87 80.97"/><polygon class="cls-4" points="94.27 86.87 87.32 91.01 95.29 89.31 94.27 86.87"/><path class="cls-2" d="M15.52,106.49l5.63.92,2-3.36L21,96.55l-6.37-1.27L12.71,103a1.24,1.24,0,0,0,.29,1.14l1.81,1.95A1.24,1.24,0,0,0,15.52,106.49Z"/><polygon class="cls-4" points="12.95 102.07 22.23 100.74 22.74 102.53 12.95 102.07"/><polygon class="cls-4" points="21.01 96.55 23.57 95.69 21.08 95.19 14.65 95.27 21.01 96.55"/><polygon class="cls-3" points="25.56 98.47 23.57 95.69 21.01 96.55 23.18 104.05 21.16 107.41 25.77 106.04 26.77 102.24 25.56 98.47"/><polygon points="23.18 104.05 26.77 102.24 25.77 106.04 21.16 107.41 23.18 104.05"/><polygon class="cls-2" points="102.94 99.01 101.07 95.14 105.32 84.44 109.51 87.17 109.69 101.44 102.94 99.01"/><polygon class="cls-3" points="109.69 101.44 115.28 97.31 114.74 94.03 113.45 86.61 109.51 87.17 109.69 101.44"/><polygon class="cls-4" points="105.32 84.44 109.38 83.6 113.45 86.61 109.51 87.17 105.32 84.44"/><polygon class="cls-4" points="109.61 94.83 103.23 94.27 109.63 96.46 109.61 94.83"/></g></svg>