<svg xmlns="http://www.w3.org/2000/svg" xmlns:xlink="http://www.w3.org/1999/xlink" viewBox="0 0 128 128"><defs><style>.cls-1{fill:url(#New_Gradient_Swatch_1);}.cls-2,.cls-5{fill:#303030;}.cls-2,.cls-7{stroke:#404040;stroke-miterlimit:10;stroke-width:1.55px;}.cls-3{fill:#1a1a1a;}.cls-4{fill:url(#linear-gradient);}.cls-6{fill:gray;}.cls-7{fill:none;}.cls-8{fill:#404040;}.cls-9{fill:#4d4d4d;}.cls-10{fill:#666;}.cls-11{fill:#fbde44;}.cls-12{fill:#b3b3b3;}.cls-13{fill:url(#linear-gradient-2);}.cls-14{fill:url(#linear-gradient-3);}</style><radialGradient id="New_Gradient_Swatch_1" cx="64" cy="64" r="61.59" gradientUnits="userSpaceOnUse"><stop offset="0" stop-color="#fbde44"/><stop offset="0.22" stop-color="#fbde44" stop-opacity="0.78"/><stop offset="0.49" stop-color="#fbde44" stop-opacity="0.53"/><stop offset="0.72" stop-color="#fbde44" stop-opacity="0.35"/><stop offset="0.9" stop-color="#fbde44" stop-opacity="0.24"/><stop offset="1" stop-color="#fbde44" stop-opacity="0.2"/></radialGradient><linearGradient id="linear-gradient" x1="74.65" y1="59.09" x2="120.1" y2="59.09" gradientUnits="userSpaceOnUse"><stop offset="0" stop-color="#666"/><stop offset="0.15" stop-color="#585858"/><stop offset="0.45" stop-color="#424242"/><stop offset="0.74" stop-color="#353535"/><stop offset="1" stop-color="#303030"/></linearGradient><linearGradient id="linear-gradient-2" x1="7.82" y1="52.46" x2="53.27" y2="52.46" xlink:href="#linear-gradient"/><linearGradient id="linear-gradient-3" x1="37.47" y1="76.01" x2="82.92" y2="76.01" xlink:href="#linear-gradient"/></defs><title>Interactive-Underpowered Assets</title><g id="pitch_black" data-name="pitch black"><circle class="cls-1" cx="64" cy="64" r="61.59"/><ellipse class="cls-2" cx="97.38" cy="81.49" rx="22.73" ry="7.88"/><path class="cls-3" d="M120,29.59c-1.12-4-10.82-7.1-22.61-7.1-12.55,0-22.73,3.53-22.73,7.88s10.18,7.87,22.73,7.87a56.47,56.47,0,0,0,12.56-1.32s9.29-3.14,10.16-7.33"/><path class="cls-4" d="M120.1,29.59V80.71c0,2.74-4,5.16-10.16,6.56a56.47,56.47,0,0,1-12.56,1.32c-12.55,0-22.73-3.53-22.73-7.88V29.59Z"/><path class="cls-5" d="M120.1,31.92c-1.5,2.11-4,2.83-10.16,4.24a56.47,56.47,0,0,1-12.56,1.32c-12.55,0-20-4-22-5.55-.65-.5-1.19-1.6-.54-2.32C77.75,26.37,87.17,24,97.38,24a56.47,56.47,0,0,1,12.56,1.32c4.32,1,7.59,2.48,9.16,4.24C119.76,30.32,120.57,31.25,120.1,31.92Z"/><path class="cls-6" d="M120.1,29.59v.77a2.92,2.92,0,0,0-.11-.77Z"/><ellipse class="cls-7" cx="97.38" cy="29.59" rx="22.73" ry="7.88"/><ellipse class="cls-3" cx="82.53" cy="30.87" rx="1.99" ry="0.51"/><path class="cls-8" d="M119.62,46.44c-.83,7.15-17.41,7.39-22.24,7.39S76,53.58,75.14,46.44c-.07-.61-1-.62-1,0,.95,8.12,17.62,8.37,23.21,8.36s22.26-.24,23.21-8.36c.07-.62-.9-.61-1,0Z"/><path class="cls-8" d="M119.62,64.58C118.79,71.73,102.21,72,97.38,72S76,71.72,75.14,64.58c-.07-.61-1-.62-1,0,.95,8.12,17.62,8.37,23.21,8.36s22.26-.24,23.21-8.36c.07-.62-.9-.61-1,0Z"/><ellipse class="cls-9" cx="82.53" cy="30.71" rx="1.78" ry="0.51"/><rect class="cls-9" x="80.75" y="29.69" width="3.56" height="1.02"/><ellipse class="cls-10" cx="82.53" cy="29.69" rx="1.78" ry="0.51"/><rect class="cls-11" x="91.73" y="57.71" width="11.3" height="11.3" rx="2.05" ry="2.05" transform="translate(73.32 -50.3) rotate(45)"/><path class="cls-12" d="M99.81,63.6c-.78-1.57-2.1-4-2.1-4a.34.34,0,0,0-.09-.11.38.38,0,0,0-.49,0,.34.34,0,0,0-.09.11s-1.33,2.46-2.1,4a2.69,2.69,0,0,0,1,3.32l.05,0,.15.08.11.05.16.07.12,0,.17,0,.12,0,.19,0,.11,0,.29,0h0l.29,0,.11,0,.19,0,.12,0,.17,0,.12,0,.16-.07.11-.05.15-.08.05,0A2.69,2.69,0,0,0,99.81,63.6Z"/><path class="cls-10" d="M99,64.9a1.93,1.93,0,0,1-1.11,1.26c-.4.14-.23.78.18.64a2.62,2.62,0,0,0,1.57-1.72c.13-.41-.51-.58-.64-.18Z"/><ellipse class="cls-2" cx="30.54" cy="74.85" rx="22.73" ry="7.88"/><path class="cls-3" d="M53.16,23c-1.12-4-10.82-7.1-22.61-7.1C18,15.86,7.82,19.38,7.82,23.73S18,31.61,30.55,31.61a56.47,56.47,0,0,0,12.56-1.32S52.4,27.15,53.27,23"/><path class="cls-13" d="M53.27,23V74.08c0,2.74-4,5.16-10.16,6.56A56.47,56.47,0,0,1,30.55,82C18,82,7.82,78.43,7.82,74.08V23Z"/><path class="cls-5" d="M53.27,25.28c-1.5,2.11-4,2.83-10.16,4.24a56.47,56.47,0,0,1-12.56,1.32c-12.55,0-20-4-22-5.55C7.95,24.79,7.4,23.69,8,23c2.87-3.22,12.29-5.55,22.5-5.55a56.47,56.47,0,0,1,12.56,1.32c4.32,1,7.59,2.48,9.16,4.24C52.92,23.69,53.74,24.62,53.27,25.28Z"/><path class="cls-6" d="M53.27,23v.77a2.92,2.92,0,0,0-.11-.77Z"/><ellipse class="cls-7" cx="30.54" cy="22.96" rx="22.73" ry="7.88"/><ellipse class="cls-3" cx="15.7" cy="24.24" rx="1.99" ry="0.51"/><path class="cls-8" d="M52.79,39.81C52,47,35.38,47.2,30.54,47.2S9.14,46.94,8.3,39.81c-.07-.61-1-.62-1,0,.95,8.12,17.62,8.37,23.21,8.36s22.26-.24,23.21-8.36c.07-.62-.9-.61-1,0Z"/><path class="cls-8" d="M52.79,57.95C52,65.1,35.38,65.34,30.54,65.34S9.14,65.09,8.3,57.95c-.07-.61-1-.62-1,0,.95,8.12,17.62,8.37,23.21,8.36s22.26-.24,23.21-8.36c.07-.62-.9-.61-1,0Z"/><ellipse class="cls-9" cx="15.7" cy="24.07" rx="1.78" ry="0.51"/><rect class="cls-9" x="13.92" y="23.06" width="3.56" height="1.02"/><ellipse class="cls-10" cx="15.7" cy="23.06" rx="1.78" ry="0.51"/><rect class="cls-11" x="24.93" y="51.03" width="11.3" height="11.3" rx="2.05" ry="2.05" transform="translate(49.04 -5.02) rotate(45)"/><path class="cls-12" d="M33,56.93c-.78-1.57-2.1-4-2.1-4a.34.34,0,0,0-.09-.11.38.38,0,0,0-.49,0,.34.34,0,0,0-.09.11s-1.33,2.46-2.1,4a2.69,2.69,0,0,0,1,3.32l.05,0,.15.08.11.05.16.07.12,0,.17,0,.12,0,.19,0,.11,0,.29,0h0l.29,0,.11,0,.19,0,.12,0,.17,0,.12,0,.16-.07.11-.05.15-.08.05,0A2.69,2.69,0,0,0,33,56.93Z"/><path class="cls-10" d="M32.17,58.23a1.93,1.93,0,0,1-1.11,1.26c-.4.14-.23.78.18.64a2.62,2.62,0,0,0,1.57-1.72c.13-.41-.51-.58-.64-.18Z"/><ellipse class="cls-2" cx="60.2" cy="98.41" rx="22.73" ry="7.88"/><path class="cls-3" d="M82.82,46.51c-1.12-4-10.82-7.1-22.61-7.1-12.55,0-22.73,3.53-22.73,7.88s10.18,7.87,22.73,7.87a56.47,56.47,0,0,0,12.56-1.32s9.29-3.14,10.16-7.33"/><path class="cls-14" d="M82.92,46.51V97.63c0,2.74-4,5.16-10.16,6.56a56.47,56.47,0,0,1-12.56,1.32c-12.55,0-22.73-3.53-22.73-7.88V46.51Z"/><path class="cls-5" d="M82.92,48.84c-1.5,2.11-4,2.83-10.16,4.24A56.47,56.47,0,0,1,60.2,54.39c-12.55,0-20-4-22-5.55-.65-.5-1.19-1.6-.54-2.32C40.57,43.29,50,41,60.2,41a56.47,56.47,0,0,1,12.56,1.32c4.32,1,7.59,2.48,9.16,4.24C82.58,47.24,83.39,48.17,82.92,48.84Z"/><path class="cls-6" d="M82.92,46.51v.77a2.92,2.92,0,0,0-.11-.77Z"/><ellipse class="cls-7" cx="60.2" cy="46.51" rx="22.73" ry="7.88"/><ellipse class="cls-3" cx="45.35" cy="47.79" rx="1.99" ry="0.51"/><path class="cls-8" d="M82.44,63.36C81.61,70.5,65,70.75,60.2,70.75S38.79,70.5,38,63.36c-.07-.61-1-.62-1,0,.95,8.12,17.62,8.37,23.21,8.36s22.26-.24,23.21-8.36c.07-.62-.9-.61-1,0Z"/><path class="cls-8" d="M82.44,81.5C81.61,88.65,65,88.89,60.2,88.89S38.79,88.64,38,81.5c-.07-.61-1-.62-1,0,.95,8.12,17.62,8.37,23.21,8.36s22.26-.24,23.21-8.36c.07-.62-.9-.61-1,0Z"/><ellipse class="cls-9" cx="45.35" cy="47.63" rx="1.78" ry="0.51"/><rect class="cls-9" x="43.57" y="46.61" width="3.56" height="1.02"/><ellipse class="cls-10" cx="45.35" cy="46.61" rx="1.78" ry="0.51"/><rect class="cls-11" x="54.58" y="74.34" width="11.3" height="11.3" rx="2.05" ry="2.05" transform="translate(74.21 -19.16) rotate(45)"/><path class="cls-12" d="M62.67,80.23c-.78-1.57-2.1-4-2.1-4a.34.34,0,0,0-.09-.11.38.38,0,0,0-.49,0,.34.34,0,0,0-.09.11s-1.33,2.46-2.1,4a2.69,2.69,0,0,0,1,3.32l.05,0,.15.08.11.05.16.07.12,0,.17,0,.12,0,.19,0,.11,0,.29,0h0l.29,0,.11,0,.19,0,.12,0,.17,0,.12,0,.16-.07.11-.05.15-.08.05,0A2.69,2.69,0,0,0,62.67,80.23Z"/><path class="cls-10" d="M61.83,81.54a1.93,1.93,0,0,1-1.11,1.26c-.4.14-.23.78.18.64a2.62,2.62,0,0,0,1.57-1.72c.13-.41-.51-.58-.64-.18Z"/></g></svg>