<svg xmlns="http://www.w3.org/2000/svg" xmlns:xlink="http://www.w3.org/1999/xlink" viewBox="0 0 128 128"><defs><style>.cls-1{fill:url(#New_Gradient_Swatch_1);}.cls-2{fill:url(#linear-gradient);}.cls-3{fill:#153460;}.cls-4{fill:#32558b;}.cls-13,.cls-5,.cls-6,.cls-7,.cls-8,.cls-9{fill:none;stroke-miterlimit:10;}.cls-5{stroke:#153460;}.cls-5,.cls-8,.cls-9{stroke-width:1.32px;}.cls-6,.cls-7,.cls-8{stroke:#b3b3b3;}.cls-6{stroke-width:1.34px;}.cls-7{stroke-width:1.36px;}.cls-9{stroke:#404040;}.cls-10{fill:#303030;}.cls-11{fill:url(#linear-gradient-2);}.cls-12{fill:url(#linear-gradient-3);}.cls-13{stroke:#303030;stroke-width:0.11px;}</style><radialGradient id="New_Gradient_Swatch_1" cx="64" cy="64" r="61.59" gradientUnits="userSpaceOnUse"><stop offset="0" stop-color="#fbde44"/><stop offset="0.22" stop-color="#fbde44" stop-opacity="0.78"/><stop offset="0.49" stop-color="#fbde44" stop-opacity="0.53"/><stop offset="0.72" stop-color="#fbde44" stop-opacity="0.35"/><stop offset="0.9" stop-color="#fbde44" stop-opacity="0.24"/><stop offset="1" stop-color="#fbde44" stop-opacity="0.2"/></radialGradient><linearGradient id="linear-gradient" x1="71.58" y1="125.57" x2="71.58" y2="34.68" gradientUnits="userSpaceOnUse"><stop offset="0" stop-color="#666"/><stop offset="0.2" stop-color="#525252"/><stop offset="0.45" stop-color="#3f3f3f"/><stop offset="0.72" stop-color="#343434"/><stop offset="1" stop-color="#303030"/></linearGradient><linearGradient id="linear-gradient-2" x1="37.07" y1="121.98" x2="37.07" y2="77.27" xlink:href="#linear-gradient"/><linearGradient id="linear-gradient-3" x1="87.28" y1="123.16" x2="87.28" y2="97.18" xlink:href="#linear-gradient"/></defs><title>Interactive-Underpowered Assets</title><g id="pitch_black" data-name="pitch black"><path class="cls-1" d="M125.59,64a61.55,61.55,0,0,1-44.43,59.16c-1.14.34-2.3.64-3.46.9a61.11,61.11,0,0,1-12.25,1.51l-1.45,0A61.33,61.33,0,0,1,43.19,122a60.56,60.56,0,0,1-12.25-6,61.59,61.59,0,1,1,94.65-52Z"/><path class="cls-2" d="M77.7,34.68v89.38a61.11,61.11,0,0,1-12.25,1.51V34.68Z"/><polygon class="cls-3" points="109.68 14.63 87.71 43.18 37.12 43.18 59.09 14.63 109.68 14.63"/><polygon class="cls-4" points="108.72 15.95 87.92 42.53 39.3 42.53 60.12 15.95 108.72 15.95"/><line class="cls-5" x1="44.53" y1="43.85" x2="66.11" y2="15.32"/><line class="cls-5" x1="53.64" y1="43.85" x2="75.22" y2="15.32"/><line class="cls-5" x1="62.74" y1="43.85" x2="84.32" y2="15.32"/><line class="cls-5" x1="71.85" y1="43.85" x2="93.43" y2="15.32"/><line class="cls-5" x1="80.95" y1="43.85" x2="102.53" y2="15.32"/><line class="cls-6" x1="53.11" y1="23.52" x2="103.62" y2="23.52"/><line class="cls-7" x1="45.18" y1="34.02" x2="95.77" y2="34.02"/><line class="cls-8" x1="43.87" y1="43.85" x2="65.45" y2="15.32"/><line class="cls-8" x1="52.98" y1="43.85" x2="74.56" y2="15.32"/><line class="cls-8" x1="62.08" y1="43.85" x2="83.66" y2="15.32"/><line class="cls-8" x1="71.19" y1="43.85" x2="92.77" y2="15.32"/><line class="cls-8" x1="80.29" y1="43.85" x2="101.87" y2="15.32"/><polygon class="cls-9" points="109.68 14.63 108.15 16.61 87.71 43.19 37.12 43.19 59.09 14.63 109.68 14.63"/><polygon class="cls-10" points="87.71 43.86 35.75 43.86 35.75 46.37 87.71 46.37 87.71 46.34 110.99 16.34 110.99 14 87.71 43.86"/><path class="cls-11" d="M43.19,77.27V122a60.56,60.56,0,0,1-12.25-6V77.27Z"/><polygon class="cls-3" points="75.16 57.22 53.2 85.78 2.61 85.78 24.57 57.22 75.16 57.22"/><polygon class="cls-4" points="74.21 58.54 53.4 85.12 4.79 85.12 25.6 58.54 74.21 58.54"/><line class="cls-5" x1="10.02" y1="86.44" x2="31.6" y2="57.91"/><line class="cls-5" x1="19.12" y1="86.44" x2="40.7" y2="57.91"/><line class="cls-5" x1="28.23" y1="86.44" x2="49.81" y2="57.91"/><line class="cls-5" x1="37.33" y1="86.44" x2="58.91" y2="57.91"/><line class="cls-5" x1="46.44" y1="86.44" x2="68.02" y2="57.91"/><line class="cls-6" x1="18.59" y1="66.11" x2="69.11" y2="66.11"/><line class="cls-7" x1="10.67" y1="76.61" x2="61.25" y2="76.61"/><line class="cls-8" x1="9.36" y1="86.44" x2="30.94" y2="57.91"/><line class="cls-8" x1="18.46" y1="86.44" x2="40.04" y2="57.91"/><line class="cls-8" x1="27.57" y1="86.44" x2="49.15" y2="57.91"/><line class="cls-8" x1="36.67" y1="86.44" x2="58.25" y2="57.91"/><line class="cls-8" x1="45.78" y1="86.44" x2="67.36" y2="57.91"/><path class="cls-12" d="M93.41,97.18v21a61.49,61.49,0,0,1-12.25,5v-26Z"/><polygon class="cls-3" points="125.38 77.14 103.42 105.69 52.82 105.69 74.79 77.14 125.38 77.14"/><polygon class="cls-4" points="124.43 78.46 103.62 105.03 55 105.03 75.82 78.46 124.43 78.46"/><line class="cls-5" x1="60.24" y1="106.36" x2="81.82" y2="77.82"/><line class="cls-5" x1="69.34" y1="106.36" x2="90.92" y2="77.82"/><line class="cls-5" x1="78.45" y1="106.36" x2="100.03" y2="77.82"/><line class="cls-5" x1="87.55" y1="106.36" x2="109.13" y2="77.82"/><line class="cls-5" x1="96.66" y1="106.36" x2="118.24" y2="77.82"/><line class="cls-6" x1="68.81" y1="86.03" x2="119.32" y2="86.03"/><line class="cls-7" x1="60.89" y1="96.53" x2="111.47" y2="96.53"/><line class="cls-8" x1="59.58" y1="106.36" x2="81.16" y2="77.82"/><line class="cls-8" x1="68.68" y1="106.36" x2="90.26" y2="77.82"/><line class="cls-8" x1="77.79" y1="106.36" x2="99.37" y2="77.82"/><line class="cls-8" x1="86.89" y1="106.36" x2="108.47" y2="77.82"/><line class="cls-8" x1="96" y1="106.36" x2="117.58" y2="77.82"/><polygon class="cls-9" points="125.38 77.13 123.86 79.12 103.42 105.69 52.82 105.69 74.79 77.13 125.38 77.13"/><polygon class="cls-10" points="103.42 106.36 51.45 106.36 51.45 108.87 103.42 108.87 103.42 108.84 126.69 78.85 126.69 76.5 103.42 106.36"/><polygon class="cls-9" points="75.17 57.22 73.64 59.2 53.2 85.78 2.6 85.78 24.57 57.22 75.17 57.22"/><polygon class="cls-10" points="53.2 86.45 1.23 86.45 1.23 88.96 53.2 88.96 53.2 88.93 76.48 58.94 76.48 56.59 53.2 86.45"/><line class="cls-13" x1="1.23" y1="86.45" x2="53.2" y2="86.45"/><line class="cls-13" x1="51.47" y1="106.35" x2="103.44" y2="106.35"/><line class="cls-13" x1="35.75" y1="43.85" x2="87.71" y2="43.85"/></g></svg>