<svg xmlns="http://www.w3.org/2000/svg" xmlns:xlink="http://www.w3.org/1999/xlink" viewBox="0 0 364 403"><defs><style>.cls-1{fill:url(#linear-gradient);}.cls-2{fill:#021c33;}.cls-3{opacity:0.8;font-size:29.48px;fill:#a4bdbe;font-family:SFProDisplay-Heavy, SF Pro Display;letter-spacing:0.03em;}.cls-4{letter-spacing:-0.02em;}.cls-5{letter-spacing:0.02em;}</style><linearGradient id="linear-gradient" x1="184.44" y1="425.38" x2="184.44" y2="-19.09" gradientUnits="userSpaceOnUse"><stop offset="0" stop-color="#021c33"/><stop offset="0.22" stop-color="#0c213d"/><stop offset="0.6" stop-color="#272e58"/><stop offset="1" stop-color="#493e7a"/></linearGradient></defs><title>Interactive-Underpowered Assets</title><g id="pitch_black" data-name="pitch black"><path class="cls-1" d="M321.14,283.59a117.46,117.46,0,0,1-11.7,26.58c-5.65,9.13-13.06,17.27-17.12,27.22-8.06,19.77.62,41.52,5.54,62.35.86,3.64,1,7.41,1.51,11.12-2.14-3.81-8.61-2.22-10.53,1.71s-.77,8.6.41,12.81l-59.89-19.87c-9.3-3.08-18.62-6.18-28.23-8.1a218.72,218.72,0,0,0-23.91-3.05Q116.3,389,55.06,389.54c-4.56-9.8-7.52-20.39-10.78-30.75a469.74,469.74,0,0,0-37-86.23,54.63,54.63,0,0,1-5-10.76A48.16,48.16,0,0,1,.7,250.71c-3.14-58.06,7.87-116.9-2.45-174.13,9.13,4,20.22,2.13,28.71-3.2,8.71-5.47,15-14.09,19.81-23.2,1.91-3.63,3.69-7.48,6.81-10.14a28.15,28.15,0,0,1,8.11-4.29l41.47-16.42c4.83-1.91,9.77-3.85,15-4.06,6-.24,11.78,1.81,17.41,3.84l28.55,10.3c3.7,1.34,7.8,2.67,11.47,1.25,6.09-2.37,7.11-10.31,9.78-16.27,6.5-14.52,24.77-18.77,40.55-20.74Q238.8-8,251.74-9.18a170.23,170.23,0,0,0,20.08-2.61c6.31-1.36,12.43-3.51,18.73-4.94,19.46-4.41,39.75-1.76,59.53.9-5,26.53,22.74,51.51,16.67,77.81-1,4.34-2.92,8.53-3,13s2.47,9.48,6.89,10.08c-4.2,3.26-8.87,7.8-7.58,13,.42,1.66,1.44,3.15,1.57,4.85.34,4.45-7.43,6.26-9.09,2.12-5.57,2.44-5.61,10.21-4.75,16.23L357.88,171a36.8,36.8,0,0,1,.53,9.51c-.61,5.17-3.36,9.79-5.9,14.33A236.4,236.4,0,0,0,332.17,243C328.2,256.41,325.36,270.31,321.14,283.59Z"/><path class="cls-2" d="M193.89,5.65c17.38,30.79,35.5,61.17,54.88,90.74q7.17,10.95,14.57,21.74c3.9,5.69,7.66,13.16,13.21,17.42s14.26,4.2,21,4.49a147.08,147.08,0,0,0,27.36-1.5l-2.49-1.42c7,19.69-12.42,34.84-22.35,49.18-5.15,7.44-7.85,16-11.73,24.06-4.09,8.53-10.36,15.1-16.54,22.11-5.51,6.25-10.22,12.87-12.62,20.94-2.61,8.78-2.87,18.18-3.49,27.25q-2.21,32.29-3.81,64.61c-1.13,22.77-3.5,46.28,1.77,68.71.6,2.54,4.5,1.46,3.91-1.08-4.89-20.82-2.84-42.57-1.82-63.72s2.25-42.44,3.67-63.64c.69-10.31.74-21.09,3.68-31.07,2.74-9.3,9-16.28,15.33-23.32,5.85-6.49,10.89-13,14.48-21.06,3.8-8.5,7-17,12.63-24.46,10.73-14.23,27.83-29.82,20.81-49.61a2.1,2.1,0,0,0-2.49-1.42A142,142,0,0,1,297.59,136c-4.45-.19-9.51-.24-13.81-1.46s-6.83-4-9.39-7.57c-9.49-13.14-18.38-26.78-27.17-40.41-17.5-27.11-34-54.86-49.83-83-1.28-2.27-4.78-.23-3.5,2Z"/><path class="cls-2" d="M6.33,270c8.6-.5,15.41-4,23.07-7.58,10-4.63,20.31-8.65,30.45-12.94S81,238.9,92.17,239c4.7,0,8.78,1.69,13.35-.11s8.52-5.12,12.64-7.59c18.71-11.21,38.79-19.91,59.2-27.52,20.23-7.55,40.78-14.72,61.53-20.72a236.74,236.74,0,0,1,37.36-7.94c10.79-1.29,21.47-1.22,29,7.73,1.68,2,4.54-.88,2.87-2.87-12.41-14.7-34.42-9.23-50.75-5.78-21.83,4.62-43,12.21-64,19.53-20.36,7.09-40.59,14.77-59.86,24.51q-7.24,3.66-14.26,7.72c-4.61,2.67-9,6-13.72,8.45-5.15,2.65-11.19.15-16.78.73a55.81,55.81,0,0,0-14.87,4.14c-11.61,4.64-23.07,9.72-34.59,14.59C28.73,258.31,17.93,265.33,6.33,266c-2.59.15-2.61,4.2,0,4.05Z"/><path class="cls-2" d="M2.13,97.69c19.93-.08,40-.9,59.93.6,20.45,1.55,40,7.4,59.82,12.44a266.11,266.11,0,0,0,56.4,7.93c10.06.39,20.2,1,29.94,3.74,6,1.71,13.71,5,19.41.68,2.18-1.63,2.58-4.76,6.12-2.89,1.6.84,2.71,3.41,3.84,4.83a18.86,18.86,0,0,0,8.25,6c9,3.41,17.13.2,25.55-3.05,2.41-.93,1.36-4.85-1.08-3.91-8.38,3.24-17.54,7.14-26,1.71-4.14-2.65-7.3-11.88-13.45-10.57-3.56.76-4.58,4.87-8.22,5.72-4.35,1-9.19-1.24-13.31-2.42-8.6-2.45-17.56-3.26-26.46-3.69-9.93-.48-19.87-.54-29.75-1.82a246.08,246.08,0,0,1-28.35-5.72C106.2,102.61,87.84,97,68.78,94.86c-22-2.49-44.52-1.32-66.65-1.23-2.61,0-2.61,4.06,0,4.05Z"/><path class="cls-2" d="M33.95,94.56C32,84.13,46.54,78.33,53.76,74.4c8.48-4.62,16.93-9.34,24.93-14.77A116.08,116.08,0,0,0,99.62,42q2.21-2.44,4.23-5c1.22-1.56,2.84-4.88,4.44-6,4.4-3.2,13.59-.55,18.65,0,5.75.57,11.5,1.09,17.24,1.72a37.1,37.1,0,0,1,7.3,1.24c3.16,1,5.07,3,7.61,5,7.05,5.45,16.58,2.12,24.54.8l70.59-11.65,80.4-13.27-2.56-2q1.86,47.34,2.6,94.72.36,23.44.44,46.88c0,4,.14,8,0,12-.16,5.45-2,7.66-7,9.7a57.7,57.7,0,0,1-22.29,4.12c-2.61,0-2.61,4,0,4.05a61.83,61.83,0,0,0,23.37-4.27c5-2,9-4.5,9.81-10.23,1-7.54.15-15.73.11-23.33q-.07-13.46-.24-26.93Q338.23,66,336.12,12.7a2.06,2.06,0,0,0-2.56-2l-151,24.92c-5.33.88-12.47,3.41-17.79,1.74-4.57-1.43-7.42-6-12.21-7.53-4.49-1.39-9.49-1.49-14.13-2L119.27,26c-4-.4-9-1.79-12.58.84-3.8,2.79-6.29,8.15-9.41,11.65C90.34,46.3,82,52.7,73.3,58.34c-9.66,6.24-19.93,11.32-29.87,17.07C36,79.7,28.24,86.21,30,95.64c.49,2.56,4.39,1.48,3.91-1.08Z"/><path class="cls-2" d="M259.54-7.83c7.54,11,15.91,22,21.75,34,6,12.24,7,25.84,10.12,38.92a71.14,71.14,0,0,0,5.76,16.47c2.94,5.68,7.23,10.18,11.35,15,9.55,11.13,17.09,23.85,14.46,39-.44,2.55,3.46,3.65,3.91,1.08,2.23-12.85-1.57-24-9-34.52-4.29-6.1-9.75-11.25-14.06-17.3-4.1-5.76-6.5-12.45-8.19-19.27-3.24-13-4.24-26.61-9.77-39C280.14,13.6,271.05,1.8,263-9.87c-1.47-2.14-5-.11-3.5,2Z"/><path class="cls-2" d="M300.82,82.8c12.37-8.57,26.09-7.58,38.53.4,9.22,5.91,13.89,16.38,23.16,22.26,2.21,1.4,4.24-2.1,2-3.5C358.87,98.35,355.2,93,350.88,88a45.8,45.8,0,0,0-15.74-11.77c-12.35-5.71-25.18-4.71-36.37,3-2.13,1.48-.11,5,2,3.5Z"/><path class="cls-2" d="M155.78,116.47c-3.71,37.62-6,75.36-7.87,113.11q-.72,14.41-1.39,28.82c-.42,8.82-1.23,17.76.24,26.53,1.55,9.22,4.34,18,5,27.4.6,9,.47,18.84-2,27.51-1.29,4.48-4.63,7.17-6.6,11.21-1.61,3.3-1.8,7-1.87,10.58-.18,9.79-.16,19.59-.24,29.38,0,2.61,4,2.61,4.05,0q.1-12.87.21-25.74c0-4.25-.38-9,1.69-12.91,1.73-3.24,4.49-5.51,5.87-9,2.82-7.13,3.15-16,3.2-23.53a107.21,107.21,0,0,0-2.82-24.74,103.23,103.23,0,0,1-3-28.78q.65-14.39,1.37-28.78c.92-18.88,1.91-37.75,3.12-56.62,1.37-21.51,3-43,5.14-64.44.26-2.59-3.8-2.58-4.05,0Z"/><path class="cls-2" d="M29.85,93.09a54,54,0,0,0-4.36,28.48c.33,3.18.86,6.19,3.69,8.09,2.37,1.59,4.58,1.7,5.9,4.55,1,2.23.67,5.24,1,7.65a21,21,0,0,0,13.65,16.77c8.56,3,24.67-1.65,28.81,9.09a2.06,2.06,0,0,0,3,1.21c8.14-5,16.6-10.21,26.14-11.91,10.31-1.84,20.41,1.48,30.41,3.53,19.58,4,37.83-2.46,57.34-2.83,9.11-.17,17.39-.28,26.09-3.31,7.87-2.74,15.35-6.66,23.45-8.73,3.45-.88,10.14-2.53,13.6-.73,5.92,3.08-2,10.8-4,13.72-4,5.86-5.17,12-5.61,18.92-.17,2.6,3.89,2.59,4.05,0,.52-8.14,2.65-13.71,7.59-20.22,3-3.9,5.83-9.41,2.61-14.09-2.79-4-10.81-3-15-2.4-6.88,1.07-13.31,3.86-19.71,6.48-7.37,3-14.74,5.81-22.77,6.21-8.34.41-16.49.21-24.8,1.37-9,1.26-18,3.14-27.08,3.25-9,.11-17.42-2.27-26.12-4.07-8.16-1.69-16.38-2.44-24.53-.24-8.57,2.31-16.27,7-23.77,11.56l3,1.21c-2.44-6.32-8.4-9.24-14.85-10.09-10.3-1.35-21.95.28-26.53-11.55-1.52-3.93-.72-8.24-2.11-12.17-1.2-3.4-3.22-4-6-5.82-3-2-3.33-3.86-3.58-7.2a64.88,64.88,0,0,1-.16-7.71,45.29,45.29,0,0,1,4.11-17c1.08-2.35-2.41-4.42-3.5-2Z"/><path class="cls-2" d="M261.6,129.49c-.27,5.53-.46,11.07-.73,16.61-.13,2.61,3.92,2.6,4.05,0,.27-5.53.46-11.07.73-16.61.13-2.61-3.92-2.6-4.05,0Z"/><path class="cls-2" d="M80.11,238.34c-.7,14.33-1.34,28.78,1.08,43,2.46,14.44,9,28.13,9.77,42.87.34,6.32-1.76,12.83-.61,19.07,1.3,7,7.44,11.34,5.64,19.19-2.27,10-18.08,16.1-13,27.4,1.06,2.38,4.56.32,3.5-2-2.67-6,6.45-12.33,9.65-16.64a19.49,19.49,0,0,0,4.15-13.93c-.69-6.33-6-10.74-6.17-17.09-.21-6.57,1.35-12.88.61-19.52-1.43-12.89-6.57-24.94-9.1-37.59-2.94-14.71-2.17-29.82-1.45-44.7.13-2.61-3.93-2.6-4.05,0Z"/><path class="cls-2" d="M85.71,294.83c56.81-4.24,113.93,4.61,170.36,10.19,2.59.26,2.58-3.8,0-4.05-56.43-5.57-113.55-14.43-170.36-10.19-2.58.19-2.61,4.25,0,4.05Z"/><path class="cls-2" d="M318.73,282.93A119,119,0,0,1,303,315.27c-6.16,8.78-12.79,17.45-15.22,28.11-5.19,22.72,6.35,45.24,9.06,67.48l4.66-1.26c-3-4-8.05-4.34-12-1.45-5.76,4.16-4.23,12-2.64,17.9l3.08-3.08-58-19.25c-9.33-3.1-18.68-6.28-28.3-8.34a214.32,214.32,0,0,0-26.38-3.51Q116.3,386.52,55.06,387l2.16,1.24c-8.58-18.87-13.11-39.51-20.61-58.84a475.44,475.44,0,0,0-25.42-54.91c-2.36-4.35-5.1-8.63-6.55-13.39C3,255.66,3.1,249.61,2.9,243.93c-.38-10.67-.34-21.35-.08-32,.51-21.38,1.87-42.72,2.31-64.1.5-24.06-.28-48.15-4.47-71.9L-2.41,79c11.18,4.51,23.79,1.72,33.31-5.28A54.07,54.07,0,0,0,42,62.5c3.9-5.18,6.4-11.06,9.87-16.48,4-6.3,11.07-8.08,17.69-10.7l21.64-8.57c6.33-2.51,12.64-5.37,19.14-7.41,8.09-2.54,15-1.14,22.83,1.58,6.53,2.29,13,4.69,19.54,7,6.09,2.2,13,5.92,19.61,5.81,10.82-.19,11.93-11.78,15.74-19.31C193.17,4.35,204.78.19,215.15-2.06,228.32-4.91,242-5.75,255.41-7a135.86,135.86,0,0,0,22.21-3.62c8-2.12,15.72-4.51,24-5.37,16.18-1.68,32.48.53,48.5,2.68l-2.41-3.16C344.4,3.11,356,20,362,37.79a54.16,54.16,0,0,1,3.06,14c.33,5.63-1.07,10.57-2.56,15.93-2,7.36-1.62,17.58,7.47,19.69l-1.1-4.18c-3.49,2.79-7.15,6.12-8.23,10.65a10.39,10.39,0,0,0,.29,5.54c.37,1.25,1.65,3.58.35,4.83a2.46,2.46,0,0,1-3.58-.59,2.55,2.55,0,0,0-3.42-.9c-10.85,5.8-5.31,23.19-4,32.45L354.1,162c1.42,10,3.3,18.35-1.64,27.67C345,203.8,338,217.77,332.78,232.89c-5.62,16.41-8.89,33.49-14.05,50-1,3.08,3.86,4.4,4.82,1.33,4.89-15.68,8-31.86,13.18-47.47a255.36,255.36,0,0,1,19.2-43c3.35-6.09,5.57-12,4.93-19-.71-7.89-2.19-15.76-3.31-23.6L354,126.28c-.79-5.52-3.53-15.77,2.78-19.15l-3.42-.9c2.41,4.31,8.6,4.66,12,1.16,1.86-1.94,2.06-4.35,1.33-6.86-.83-2.89-1.9-5-.12-7.87,1.44-2.34,3.74-4.17,5.86-5.86,1.48-1.18.6-3.78-1.1-4.18-10.18-2.37-1.85-18.9-1.3-25.4.69-8-1.37-16-4.12-23.44-5.76-15.6-16.27-31.64-13.38-49a2.56,2.56,0,0,0-2.41-3.16c-14.22-1.91-28.56-3.82-42.94-3.1-13.77.69-26.17,5.59-39.6,7.93-14.16,2.46-28.72,2.94-43,4.82-9.73,1.28-19.8,3.21-28.41,8.16-8.84,5.08-12.35,12.27-15.89,21.39-1,2.62-2.24,5.73-4.88,7.12-3.38,1.78-7.36.14-10.63-1-7.17-2.48-14.28-5.15-21.41-7.72-6.27-2.26-12.59-5-19.21-6.08-6.44-1-12.35.23-18.39,2.46C91.93,20.77,78.33,26.5,64.64,31.92,59,34.16,53.19,36,49.31,41c-4.23,5.41-6.62,12.09-10.65,17.68-9,12.49-24.24,21.77-39.74,15.51C-3,73.39-4.45,75.6-4.16,77.25,3.52,120.82-.91,165.1-2.11,209c-.29,10.67-.4,21.35-.09,32,.28,9.8.36,19.38,4.87,28.3,9.56,19,19.53,37.39,27.43,57.15q6.33,15.83,11.48,32.1C45,369.45,48.17,380.4,52.9,390.81A2.45,2.45,0,0,0,55.06,392q60.17-.45,120.2,4.65c9.67.83,19.33,1.73,28.8,3.91,9,2.06,17.76,5,26.51,7.95l58,19.25a2.52,2.52,0,0,0,3.08-3.08c-.76-2.78-1.74-5.83-1.16-8.72.41-2.05,4-7.55,6.71-3.87,1.27,1.73,5,1.49,4.66-1.26-1.37-11.27-4.34-21.81-7-32.82-2.76-11.37-4.92-23.48-1.8-35,2.87-10.63,10.21-19.1,16.23-28,6.38-9.47,10.77-19.91,14.27-30.74C324.54,281.19,319.72,279.87,318.73,282.93Z"/><text class="cls-3" transform="translate(81.49 253.74)">DUM<tspan class="cls-4" x="70.05" y="0">A</tspan><tspan class="cls-5" x="90.84" y="0">GUETE</tspan></text></g></svg>