<svg xmlns="http://www.w3.org/2000/svg" xmlns:xlink="http://www.w3.org/1999/xlink" viewBox="0 0 128 128"><defs><style>.cls-1{fill:url(#New_Gradient_Swatch_1);}.cls-11,.cls-2{fill:#404040;}.cls-3{fill:#303030;}.cls-4{fill:url(#linear-gradient);}.cls-5{fill:url(#linear-gradient-2);}.cls-6{fill:url(#linear-gradient-3);}.cls-7{fill:gray;stroke-width:0.41px;}.cls-11,.cls-7{stroke:#404040;}.cls-11,.cls-18,.cls-7{stroke-miterlimit:10;}.cls-8{fill:url(#linear-gradient-4);}.cls-9{fill:url(#linear-gradient-5);}.cls-10{fill:url(#linear-gradient-6);}.cls-11{stroke-width:0.5px;}.cls-12{fill:url(#linear-gradient-7);}.cls-13{fill:#fbde44;}.cls-14{fill:url(#linear-gradient-8);}.cls-15{fill:url(#linear-gradient-9);}.cls-16{fill:#fffbef;opacity:0.85;}.cls-17{fill:url(#linear-gradient-10);}.cls-18{fill:none;stroke:#493e7a;stroke-width:0.58px;}</style><radialGradient id="New_Gradient_Swatch_1" cx="64" cy="64" r="61.59" gradientUnits="userSpaceOnUse"><stop offset="0" stop-color="#fbde44"/><stop offset="0.22" stop-color="#fbde44" stop-opacity="0.78"/><stop offset="0.49" stop-color="#fbde44" stop-opacity="0.53"/><stop offset="0.72" stop-color="#fbde44" stop-opacity="0.35"/><stop offset="0.9" stop-color="#fbde44" stop-opacity="0.24"/><stop offset="1" stop-color="#fbde44" stop-opacity="0.2"/></radialGradient><linearGradient id="linear-gradient" x1="73.5" y1="33.24" x2="101.67" y2="33.24" gradientUnits="userSpaceOnUse"><stop offset="0" stop-color="#666" stop-opacity="0.8"/><stop offset="0.06" stop-color="#6f6f6f" stop-opacity="0.73"/><stop offset="0.48" stop-color="#a1a1a1" stop-opacity="0.34"/><stop offset="0.8" stop-color="silver" stop-opacity="0.09"/><stop offset="1" stop-color="#ccc" stop-opacity="0"/></linearGradient><linearGradient id="linear-gradient-2" x1="48.47" y1="74.99" x2="48.47" y2="48.43" gradientUnits="userSpaceOnUse"><stop offset="0.12" stop-color="#303030"/><stop offset="0.69" stop-color="#525252"/><stop offset="1" stop-color="#666"/></linearGradient><linearGradient id="linear-gradient-3" x1="89.08" y1="74.99" x2="89.08" y2="32.61" gradientUnits="userSpaceOnUse"><stop offset="0.12" stop-color="#303030"/><stop offset="0.34" stop-color="#373737"/><stop offset="0.65" stop-color="#494949"/><stop offset="1" stop-color="#666"/></linearGradient><linearGradient id="linear-gradient-4" x1="84.59" y1="25.71" x2="123.92" y2="25.71" xlink:href="#linear-gradient"/><linearGradient id="linear-gradient-5" x1="40.47" y1="33.55" x2="57.52" y2="33.55" xlink:href="#linear-gradient"/><linearGradient id="linear-gradient-6" x1="30.83" y1="35.96" x2="48.16" y2="35.96" xlink:href="#linear-gradient"/><linearGradient id="linear-gradient-7" x1="64.42" y1="89.76" x2="64.42" y2="119.79" gradientUnits="userSpaceOnUse"><stop offset="0" stop-color="#fbde44"/><stop offset="0.15" stop-color="#fbde44" stop-opacity="0.89"/><stop offset="0.49" stop-color="#fbde44" stop-opacity="0.59"/><stop offset="0.97" stop-color="#fbde44" stop-opacity="0.13"/><stop offset="1" stop-color="#fbde44" stop-opacity="0.1"/></linearGradient><linearGradient id="linear-gradient-8" x1="44.56" y1="81.95" x2="44.56" y2="111.98" xlink:href="#linear-gradient-7"/><linearGradient id="linear-gradient-9" x1="82.53" y1="81.95" x2="82.53" y2="111.98" xlink:href="#linear-gradient-7"/><linearGradient id="linear-gradient-10" x1="18.79" y1="94.54" x2="18.79" y2="49.89" gradientUnits="userSpaceOnUse"><stop offset="0" stop-color="#021c33"/><stop offset="0.23" stop-color="#061e37"/><stop offset="0.47" stop-color="#122443"/><stop offset="0.72" stop-color="#272e58"/><stop offset="0.96" stop-color="#433b74"/><stop offset="1" stop-color="#493e7a"/></linearGradient></defs><title>Interactive-Underpowered Assets</title><g id="pitch_black" data-name="pitch black"><path class="cls-1" d="M125.58,64a61.48,61.48,0,0,1-2.1,16c-.36,1.34-.76,2.66-1.21,4-.11.33-.23.67-.35,1a61.6,61.6,0,0,1-115.85,0c-.12-.33-.24-.67-.35-1-.45-1.3-.85-2.62-1.21-4A61.59,61.59,0,1,1,125.58,64Z"/><polygon class="cls-2" points="38.3 67.59 29.31 67.59 30.67 39.26 36.94 39.26 38.3 67.59"/><ellipse class="cls-3" cx="33.81" cy="39.26" rx="3.14" ry="0.72"/><polygon class="cls-2" points="47.81 64.33 38.81 64.33 40.17 36 46.45 36 47.81 64.33"/><path class="cls-3" d="M46.46,36c0,.16-.22.33-.63.43a8.94,8.94,0,0,1-2.52.31,7.55,7.55,0,0,1-2.81-.41c-.2-.1-.33-.2-.33-.33s.14-.24.39-.33a8,8,0,0,1,2.75-.39c1.59,0,2.91.26,3.11.61C46.44,35.93,46.46,36,46.46,36Z"/><polygon class="cls-2" points="81.47 68.38 71.78 68.38 73.24 37.85 80 37.85 81.47 68.38"/><ellipse class="cls-3" cx="76.62" cy="37.85" rx="3.38" ry="0.77"/><rect class="cls-3" x="57.8" y="57.28" width="26.59" height="15.67"/><path class="cls-4" d="M99.57,32.28c-1.18.11-2.41-.23-3.51.14-1.72.59-2.65,2.72-4.49,2.85-1.28.08-2.57-.92-3.78-.48-.76.26-1.18,1-1.78,1.51a5.13,5.13,0,0,1-4.68.66,1.29,1.29,0,0,0-.87-.05c-.23.11-.5.33-.47.58a.78.78,0,0,1,0,.26.82.82,0,0,1-.13.41,7.88,7.88,0,0,1-3.15.47,9,9,0,0,1-3-.4,1,1,0,0,1-.19-.54,3.24,3.24,0,0,1,1.9-2.86c.32-.1.67-.1,1-.22,1.08-.44,1.24-2.12,2.39-2.35.5-.1,1,.12,1.52,0,.8-.17,1.14-1,1.69-1.6,1.36-1.33,3.7-.69,5.58-1.11s3.62-2,5.53-1.65c1.39.29,2.38,1.57,3.79,1.73a9.92,9.92,0,0,0,2.51-.34c.83-.11,1.87.08,2.19.83C102,31.17,100.74,32.17,99.57,32.28Z"/><rect class="cls-5" x="27.2" y="48.43" width="42.54" height="26.57"/><polygon class="cls-6" points="95.81 74.99 82.35 74.99 84.39 32.61 93.78 32.61 95.81 74.99"/><path class="cls-3" d="M93.78,32.62q0,.21-.31.37a10.44,10.44,0,0,1-4.4.69,11.87,11.87,0,0,1-4.21-.59c-.31-.14-.47-.31-.47-.47a.45.45,0,0,1,.2-.33,9.82,9.82,0,0,1,4.48-.75c2.24,0,4.11.37,4.58.83A.35.35,0,0,1,93.78,32.62Z"/><rect class="cls-7" x="29.97" y="53.21" width="9.77" height="3.55"/><rect class="cls-7" x="43.58" y="53.21" width="9.77" height="3.55"/><rect class="cls-7" x="57.2" y="53.21" width="9.77" height="3.55"/><path class="cls-8" d="M121,24.29c-1.65.16-3.36-.35-4.91.2-2.4.88-3.7,4-6.27,4.21-1.79.12-3.58-1.36-5.27-.71-1.06.39-1.65,1.49-2.48,2.24-1.69,1.57-4.32,1.63-6.53,1a1.71,1.71,0,0,0-1.22-.08c-.33.16-.69.49-.65.85a1.23,1.23,0,0,1,0,.39,1.26,1.26,0,0,1-.18.61,10.44,10.44,0,0,1-4.4.69,11.87,11.87,0,0,1-4.21-.59,1.48,1.48,0,0,1-.26-.79c-.14-1.51,1.28-3.83,2.65-4.23.45-.14.94-.14,1.36-.33,1.51-.65,1.73-3.13,3.34-3.48.69-.14,1.42.18,2.12,0,1.12-.24,1.59-1.55,2.36-2.36,1.89-2,5.17-1,7.8-1.65s5-3,7.71-2.44c1.93.43,3.32,2.32,5.29,2.56a13.12,13.12,0,0,0,3.5-.51c1.16-.16,2.61.12,3.05,1.22C124.43,22.64,122.62,24.13,121,24.29Z"/><path class="cls-9" d="M57.06,33.39c-.81.65-2,.2-3,.57-.69.24-1.2.9-1.93,1a2.32,2.32,0,0,1-1.18,0c-1.22-.41-1.55-.08-2.75,0a2.33,2.33,0,0,0-1.12.26,2.35,2.35,0,0,0-.65.69.36.36,0,0,0-.08.1,2.1,2.1,0,0,1-.51.43,8.94,8.94,0,0,1-2.52.31,7.55,7.55,0,0,1-2.81-.41,1.23,1.23,0,0,1,0-.61s0,0,0,0A5.79,5.79,0,0,1,41.9,34.1a5.37,5.37,0,0,1,1.77-1.24,11.74,11.74,0,0,1,1.91-.33c2.06-.45,3.79-2.54,5.86-2.1.73.16,1.36.63,2.12.73,1.16.14,2.46-.61,3.42.06A1.42,1.42,0,0,1,57.06,33.39Z"/><path class="cls-10" d="M47.69,35.75c-.83.83-2.07.26-3.06.73-.7.31-1.22,1.14-2,1.32a1.9,1.9,0,0,1-1.2-.05c-1.24-.52-1.57-.1-2.79,0a2,2,0,0,0-1.14.34,2.84,2.84,0,0,0-.66.88.46.46,0,0,0-.08.13,2.34,2.34,0,0,1-.52.55,7.36,7.36,0,0,1-2.57.39,6.27,6.27,0,0,1-2.85-.52,2,2,0,0,1,0-.78s0,0,0-.05a7.2,7.2,0,0,1,1.37-2,5.64,5.64,0,0,1,1.8-1.58A9.74,9.74,0,0,1,36,34.66c2.09-.57,3.85-3.25,6-2.68a23,23,0,0,0,2.15.93c1.18.18,2.5-.78,3.48.08A2.13,2.13,0,0,1,47.69,35.75Z"/><path class="cls-11" d="M122.27,83.94c-.11.33-.23.67-.35,1a61.6,61.6,0,0,1-115.85,0c-.12-.33-.24-.67-.35-1C21.44,74.46,41.79,68.75,64,68.75S106.55,74.46,122.27,83.94Z"/><path class="cls-12" d="M65.79,118.17c-4.14-3.72,2.81-9.69,2.47-14.13-.36-4.69-6.38-8.11-2.88-13.1,1.39-2-1.86-3.86-3.24-1.9A10.68,10.68,0,0,0,60.8,97c.79,3.53,4.52,5.21,3.4,9.19-.7,2.5-2.92,3.94-3.44,6.68a8.77,8.77,0,0,0,2.37,8c1.79,1.61,4.46-1,2.66-2.66Z"/><polygon class="cls-13" points="67.3 94.63 63.87 85.37 58.48 93.15 62.24 93.26 67.3 94.63"/><path class="cls-13" d="M68.18,94.38l-3.43-9.26a.93.93,0,0,0-1.67-.22l-5.39,7.78a.92.92,0,0,0,.79,1.37l2.23.06c.45,0,.92,0,1.37,0,.17,0-.21,0,.27.07,1.58.37,3.15.85,4.71,1.27a.91.91,0,0,0,.48-1.76c-1.61-.44-3.24-1-4.88-1.32a26,26,0,0,0-4.19-.19l.79,1.37,5.39-7.78L63,85.61l3.43,9.26C66.83,96,68.59,95.49,68.18,94.38Z"/><path class="cls-14" d="M45.93,110.36c-4.14-3.72,2.81-9.69,2.47-14.13C48,91.55,42,88.12,45.52,83.14c1.39-2-1.86-3.86-3.24-1.9a10.68,10.68,0,0,0-1.33,7.91c.79,3.53,4.52,5.21,3.4,9.19-.7,2.5-2.92,3.94-3.44,6.68a8.77,8.77,0,0,0,2.37,8c1.79,1.61,4.46-1,2.66-2.66Z"/><polygon class="cls-13" points="47.45 86.82 44.01 77.56 38.62 85.34 42.38 85.45 47.45 86.82"/><path class="cls-13" d="M48.33,86.57l-3.43-9.26a.93.93,0,0,0-1.67-.22l-5.39,7.78a.92.92,0,0,0,.79,1.37l2.23.06c.45,0,.92,0,1.37,0,.17,0-.21,0,.27.07,1.58.37,3.15.85,4.71,1.27a.91.91,0,0,0,.48-1.76c-1.61-.44-3.24-1-4.88-1.32a26,26,0,0,0-4.19-.19l.79,1.37L44.8,78l-1.67-.22,3.43,9.26C47,88.15,48.74,87.68,48.33,86.57Z"/><path class="cls-15" d="M83.9,110.36c-4.14-3.72,2.81-9.69,2.47-14.13C86,91.55,80,88.12,83.49,83.14c1.39-2-1.86-3.86-3.24-1.9a10.68,10.68,0,0,0-1.33,7.91c.79,3.53,4.52,5.21,3.4,9.19-.7,2.5-2.92,3.94-3.44,6.68a8.77,8.77,0,0,0,2.37,8c1.79,1.61,4.46-1,2.66-2.66Z"/><polygon class="cls-13" points="85.42 86.82 81.98 77.56 76.59 85.34 80.36 85.45 85.42 86.82"/><path class="cls-13" d="M86.3,86.57l-3.43-9.26a.93.93,0,0,0-1.67-.22l-5.39,7.78a.92.92,0,0,0,.79,1.37l2.23.06c.45,0,.92,0,1.37,0,.17,0-.21,0,.27.07,1.58.37,3.15.85,4.71,1.27a.91.91,0,0,0,.48-1.76c-1.61-.44-3.24-1-4.88-1.32a26,26,0,0,0-4.19-.19l.79,1.37L82.77,78l-1.67-.22,3.43,9.26C84.94,88.15,86.71,87.68,86.3,86.57Z"/><path class="cls-16" d="M24.77,79.66v-35a6,6,0,0,0-6-6h0a6,6,0,0,0-6,6v35a9.44,9.44,0,1,0,11.94,0Z"/><path class="cls-17" d="M22.94,80.84V54a4.15,4.15,0,0,0-4.14-4.14h0A4.15,4.15,0,0,0,14.65,54v26.8a7.48,7.48,0,1,0,8.28,0Z"/><line class="cls-18" x1="12.82" y1="74.97" x2="17.35" y2="74.97"/><line class="cls-18" x1="12.82" y1="71.31" x2="17.35" y2="71.31"/><line class="cls-18" x1="12.82" y1="67.65" x2="17.35" y2="67.65"/><line class="cls-18" x1="12.82" y1="63.99" x2="17.35" y2="63.99"/><line class="cls-18" x1="12.82" y1="60.33" x2="17.35" y2="60.33"/><line class="cls-18" x1="12.82" y1="56.67" x2="17.35" y2="56.67"/><line class="cls-18" x1="12.82" y1="53" x2="17.35" y2="53"/><line class="cls-18" x1="12.82" y1="49.34" x2="17.35" y2="49.34"/></g></svg>