<svg xmlns="http://www.w3.org/2000/svg" xmlns:xlink="http://www.w3.org/1999/xlink" viewBox="0 0 128 128"><defs><style>.cls-1{isolation:isolate;}.cls-2{fill:url(#radial-gradient);}.cls-3,.cls-4{fill:#404040;}.cls-3,.cls-8{stroke:#404040;}.cls-15,.cls-3,.cls-8{stroke-miterlimit:10;}.cls-3{stroke-width:0.5px;}.cls-5{fill:#303030;}.cls-6{fill:url(#linear-gradient);}.cls-7{fill:url(#linear-gradient-2);}.cls-8{fill:gray;stroke-width:0.41px;}.cls-9{fill:url(#linear-gradient-3);}.cls-10,.cls-16{fill:#021c33;}.cls-11{fill:url(#linear-gradient-4);}.cls-12{fill:url(#linear-gradient-5);}.cls-13{fill:#fffbef;opacity:0.85;}.cls-14{fill:url(#linear-gradient-6);}.cls-15{fill:none;stroke:#493e7a;stroke-width:0.58px;}.cls-16{opacity:0.5;mix-blend-mode:soft-light;}</style><radialGradient id="radial-gradient" cx="63.99" cy="64" r="61.59" gradientUnits="userSpaceOnUse"><stop offset="0" stop-color="#a4bdbe" stop-opacity="0.6"/><stop offset="0.07" stop-color="#8aa3a8" stop-opacity="0.63"/><stop offset="0.22" stop-color="#59727e" stop-opacity="0.69"/><stop offset="0.38" stop-color="#334c5d" stop-opacity="0.74"/><stop offset="0.55" stop-color="#173145" stop-opacity="0.77"/><stop offset="0.75" stop-color="#072137" stop-opacity="0.79"/><stop offset="1" stop-color="#021c33" stop-opacity="0.8"/></radialGradient><linearGradient id="linear-gradient" x1="48.47" y1="72.99" x2="48.47" y2="46.43" gradientUnits="userSpaceOnUse"><stop offset="0.12" stop-color="#303030"/><stop offset="0.69" stop-color="#525252"/><stop offset="1" stop-color="#666"/></linearGradient><linearGradient id="linear-gradient-2" x1="89.08" y1="72.99" x2="89.08" y2="30.61" gradientUnits="userSpaceOnUse"><stop offset="0.12" stop-color="#303030"/><stop offset="0.34" stop-color="#373737"/><stop offset="0.65" stop-color="#494949"/><stop offset="1" stop-color="#666"/></linearGradient><linearGradient id="linear-gradient-3" x1="64.42" y1="89.76" x2="64.42" y2="119.79" gradientUnits="userSpaceOnUse"><stop offset="0" stop-color="#021c33"/><stop offset="0.65" stop-color="#021c33" stop-opacity="0.44"/><stop offset="1" stop-color="#021c33" stop-opacity="0.1"/></linearGradient><linearGradient id="linear-gradient-4" x1="44.56" y1="81.95" x2="44.56" y2="111.98" xlink:href="#linear-gradient-3"/><linearGradient id="linear-gradient-5" x1="82.53" y1="81.95" x2="82.53" y2="111.98" xlink:href="#linear-gradient-3"/><linearGradient id="linear-gradient-6" x1="18.79" y1="94.54" x2="18.79" y2="61.46" gradientUnits="userSpaceOnUse"><stop offset="0" stop-color="#021c33"/><stop offset="0.23" stop-color="#061e37"/><stop offset="0.47" stop-color="#122443"/><stop offset="0.72" stop-color="#272e58"/><stop offset="0.96" stop-color="#433b74"/><stop offset="1" stop-color="#493e7a"/></linearGradient></defs><title>Interactive-Underpowered Assets</title><g class="cls-1"><g id="pitch_black" data-name="pitch black"><path class="cls-2" d="M125.58,64a61.48,61.48,0,0,1-2.1,16c-.4,1.48-.85,3-1.36,4.39-.06.19-.13.38-.2.57a61.6,61.6,0,0,1-115.85,0c-.07-.19-.14-.38-.2-.57-.51-1.44-1-2.91-1.36-4.39A61.59,61.59,0,1,1,125.58,64Z"/><path class="cls-3" d="M122.12,84.37c-.06.19-.13.38-.2.57a61.6,61.6,0,0,1-115.85,0c-.07-.19-.14-.38-.2-.57Z"/><polygon class="cls-4" points="38.3 65.59 29.31 65.59 30.67 37.26 36.94 37.26 38.3 65.59"/><ellipse class="cls-5" cx="33.81" cy="37.26" rx="3.14" ry="0.72"/><polygon class="cls-4" points="47.81 62.33 38.81 62.33 40.17 34 46.45 34 47.81 62.33"/><path class="cls-5" d="M46.46,34c0,.16-.22.33-.63.43a8.94,8.94,0,0,1-2.52.31,7.55,7.55,0,0,1-2.81-.41c-.2-.1-.33-.2-.33-.33s.14-.24.39-.33a8,8,0,0,1,2.75-.39c1.59,0,2.91.26,3.11.61C46.44,33.93,46.46,34,46.46,34Z"/><polygon class="cls-4" points="81.47 66.38 71.78 66.38 73.24 35.85 80 35.85 81.47 66.38"/><ellipse class="cls-5" cx="76.62" cy="35.85" rx="3.38" ry="0.77"/><rect class="cls-5" x="57.8" y="55.28" width="26.59" height="15.67"/><rect class="cls-6" x="27.2" y="46.43" width="42.54" height="26.57"/><polygon class="cls-7" points="95.81 72.99 82.35 72.99 84.39 30.61 93.78 30.61 95.81 72.99"/><path class="cls-5" d="M93.78,30.61q0,.21-.31.37a10.44,10.44,0,0,1-4.4.69,11.87,11.87,0,0,1-4.21-.59c-.31-.14-.47-.31-.47-.47a.45.45,0,0,1,.2-.33,9.82,9.82,0,0,1,4.48-.75c2.24,0,4.11.37,4.58.83A.35.35,0,0,1,93.78,30.61Z"/><rect class="cls-8" x="29.97" y="51.21" width="9.77" height="3.55"/><rect class="cls-8" x="43.58" y="51.21" width="9.77" height="3.55"/><rect class="cls-8" x="57.2" y="51.21" width="9.77" height="3.55"/><path class="cls-4" d="M6.07,84.94C21.48,74.87,41.77,68.75,64,68.75s42.51,6.12,57.92,16.19"/><path class="cls-4" d="M107.68,76.54l0-.05A.09.09,0,0,0,107.68,76.54Z"/><path class="cls-4" d="M98.73,72.8h.12C98.77,72.78,98.74,72.78,98.73,72.8Z"/><path class="cls-4" d="M112.88,79.1h0l.36.19Z"/><path class="cls-4" d="M78.56,68h0Z"/><path class="cls-4" d="M90.62,70.42a.41.41,0,0,1-.17,0C90.52,70.45,90.59,70.46,90.62,70.42Z"/><path class="cls-4" d="M114.93,81.76l-.1-.16S114.85,81.7,114.93,81.76Z"/><path class="cls-4" d="M120.14,84.33a.08.08,0,0,0,0,0S120.13,84.32,120.14,84.33Z"/><path class="cls-4" d="M118.4,82.82l-.16,0C118.3,82.81,118.37,82.85,118.4,82.82Z"/><path class="cls-4" d="M118.16,82.76l.08,0S118.16,82.74,118.16,82.76Z"/><path class="cls-4" d="M6.21,83.44a1.2,1.2,0,0,0-.33.36Z"/><path class="cls-4" d="M59.77,67.1l0,0S59.77,67.09,59.77,67.1Z"/><path class="cls-4" d="M6.47,84.25l-.11,0Z"/><path class="cls-4" d="M112.1,80.58c-.19,0-.45-.23-.49-.15C111.78,80.49,112,80.66,112.1,80.58Z"/><path class="cls-4" d="M56,70.82h0Z"/><path class="cls-4" d="M6.47,84.25l.13-.05-.06,0Z"/><path class="cls-4" d="M40.31,69.36h0l0,0Z"/><path class="cls-4" d="M39.26,69.41l.21-.08A.37.37,0,0,0,39.26,69.41Z"/><path class="cls-4" d="M5.88,83.8l-.19.2A1,1,0,0,0,5.88,83.8Z"/><path class="cls-4" d="M28.44,72.44l.09,0Z"/><path class="cls-4" d="M91.38,70.65l.08,0S91.47,70.66,91.38,70.65Z"/><polygon class="cls-4" points="83.4 71.55 83.39 71.55 83.39 71.56 83.4 71.55"/><path class="cls-4" d="M83.81,71.5a.64.64,0,0,0-.42.05A.71.71,0,0,0,83.81,71.5Z"/><path class="cls-4" d="M82.55,71.37l0,0Z"/><polygon class="cls-4" points="90.47 73.13 90.47 73.12 90.46 73.13 90.47 73.13"/><path class="cls-4" d="M88.9,72.79l-.1-.07A.28.28,0,0,0,88.9,72.79Z"/><polygon class="cls-4" points="78.55 71.07 78.55 71.06 78.55 71.06 78.55 71.07"/><path class="cls-4" d="M63.46,70.85c1.51-.06,3.47-.21,5-.11a3.22,3.22,0,0,1,1.29-.18l0,.26.4-.06c.16.09-.31,0,0,.14l.16-.15c0,.09,1,.11.34.26l1.54.08c.34,0,.21-.2.59-.1.07.08-.14,0-.12.13,1.11.29,1.35-.38,2.4-.17L75,71c.19-.05.53,0,.54,0-.11-.27-.2.12-.51-.06,0-.21.41-.08.41-.25.24.1.4,0,.62,0,.35.17.89.14,1.15.35a1.73,1.73,0,0,1,.8-.19c.26.2-.08.15.29.26l.08-.12c.31.06.25.09.24.14.33,0,.3-.14.7,0l-.25.09a4.06,4.06,0,0,1,.86.09c0,.07-.19,0-.31,0,.21.21.41,0,.53,0,0-.06-.32-.12-.16-.23s.47-.1.61.07l-.25.08c.45,0,.26-.12.76,0,0,0,0,0,0,.06.34-.11.74.1,1.21.19l-.09,0c.2,0,.32-.11.42-.08-.26-.11-.18-.14-.18-.26.32.26.58-.15,1.15.06,0,.07-.18.13-.32,0-.23.18-.29.35-.66.4.23,0,.49,0,.42.08l.1-.18.34.06c.08-.11-.24-.24.09-.28s.15.23.22.15c.49,0,.24-.18.69,0,0,0-.14,0-.18,0,.32.14.82.12.87.38-.06,0-.08.11-.2.07v0c-.39.1.31,0,.16.2,0-.13.46,0,.66.05l0-.16c.78-.29-.09.28.61.35.46,0-.16-.07.13-.12a2.36,2.36,0,0,0,.82.25c.11.08.34.2.32.37.28,0,.77.25,1,.12-.42-.23-.48.06-1-.25l.18-.13a8,8,0,0,1,1.07.23s-.06-.09,0-.11a4.58,4.58,0,0,1,1.2.1c0,.16-.25.07-.47,0,.3.19.33.09.82.25,0,.13-.33-.08-.42,0l.56.09v0c.13-.19.42.11.77.13a2.72,2.72,0,0,0,1.47-.09c.1.09.13.15.06.19-.17-.14-.16-.06-.24,0,.27.05.53.36.36.4.44.05-.12-.15.15-.14l.58.17c0-.12-.24-.2.08-.2a4.8,4.8,0,0,1,.71.19c-.06,0,.06.19-.19.11a.64.64,0,0,0,.53.08c-.34-.19.62.07.4-.17l.34.2c-.08,0-.11,0-.23,0,.06.19.31,0,.44.07s.44.18.45.25.4.11.42.21c.18,0,0-.1.11-.14l.57.19c0,.1,0,.36-.12.36.24,0,.16-.24.48-.13-.24.11.39.26.06.38a2.08,2.08,0,0,0,1,.39c.23-.08-.3-.17-.23-.31.85.21,1-.13,1.6.14l-.14-.09a1.4,1.4,0,0,0,.62,0c-.16.13.27.6.9.78.08-.07-.29-.28-.14-.38l.42.12s0,0-.09,0c.39.07.61.46.79.3l.28.39-.11-.16c.08-.06.5.07.6.07a1.08,1.08,0,0,1,.76.39c0-.1-.17-.32.17-.22-.11.27.65.37.59.5.13,0,.34.22.4.12l-.09.16c.12-.22.61,0,1,.08-.21.28.41.15.45.51.16-.19.68.19.82,0,.29.11.17.3.21.4l.16,0a5.7,5.7,0,0,0,.9.6l.37-.06.07.13c.07,0,.32.06.2-.08l.15.08c.11-.2.24,0,.59.11.06.07,0,.11-.06.1.15.08,0,.15.09.26-.09-.1.73-.1.35-.39,0-.1.28,0,.42.07v.23l.27-.11c.25.09.3.25.48.36-.2-.08-.61.14-.1.38a2.22,2.22,0,0,0-.62-.09c.1.06.15.1-.05.1.42.13.19,0,.59.11-.1.15,0,.26.3.47l-.2-.24.07,0c-.09-.06-.1-.1-.09-.17s.55,0,.57.14c-.27-.44.79.13.61-.14.07,0,.34.11.33.2-.39,0,.15.31,0,.4.14,0-.19-.25,0-.23a1,1,0,0,1,.37.37h-.1l.26.23c.09-.05-.22-.29.08-.19.05.07.35.17.31.23s-.17.24-.42.14c.2.09.82.39.65.11l.23.13c-.11-.14-.45-.48,0-.26l0,0,.39,0,.1.16s.09-.05.21,0,.11.14.06.2c.35.17.37.08.44.06s.25.17.11.21a4.45,4.45,0,0,1,.85.59c.39.13-.05-.07.21-.06.15.45,1.09.76,1.68,1.05,0-.32.17.06.4-.09-.16,0,.42.51-.11.28L119,84c.12.26-.55-.21-.35.16.34.2.71.08,1,.41-.23.08.34.13.12.25s-.22-.08-.33-.13l0,.08c.7.5.33-.06.78.06s.27.35.24.44a.94.94,0,0,0,.43.22c-.33-.07-.43-.42-.24-.44.08.31.65.43.82.43-.51-.59-.43-.28-.89-.87-.12,0-.21.19-.53-.11.28.06,0-.1,0-.17,0,.14-.27-.12-.41-.14s.35-.09,0-.36l-.21.19c-.12-.12.16-.13-.17-.27.24,0,.06-.22.5,0-.37-.5-.81-.37-1.25-.51,0,0,.07,0,.12,0a.94.94,0,0,1-.39-.13c-.23-.2.27,0,.24-.09l-.42-.23s0,0,0,0-.25-.07-.25-.15a3,3,0,0,0,.38-.07l-.53-.09c.09,0-.29-.34.06-.22l-.67-.34,0-.19c-.17-.06-.19,0,0,.09-.2-.16-1.14-.28-.85-.53a14.67,14.67,0,0,1-1.42-.55c.56.11-.46-.48.09-.28-.27-.23-.42-.09-.67-.18s0-.29.27-.23l-.32-.07,0,0-.29,0c-.22-.22,0-.19-.23-.35l-.13.11-.14-.18c0,.1-.14,0-.34,0l0,0-.25-.1c.28,0-.21-.14,0-.19a4.41,4.41,0,0,0-.6-.26l0,.13c-.53-.15.05-.16-.34-.35l0,.13c-.48-.46-1-.35-1.38-.67.25.09.26-.07.23,0a5.83,5.83,0,0,0-1.41-.47c-.06-.23-.07-.29-.44-.54s-.34-.11-.48-.06c-.25-.18-.81-.31-.77-.44-.11.07-.24-.13-.43-.11v-.06l0,.13c-.38-.47-.89-.21-1.3-.63h.1l-.23,0c0-.06.09-.06.12-.13l-1-.4.16.16c-.21-.07-.4,0-.6-.17.46,0-.32-.13-.34-.29l.23,0c-.29-.1-.29-.1-.31,0-.39-.1-.17-.33-.57-.33l.24.1c0,.1-.17.13-.33.06s-.13-.13,0-.1c-.31-.07-.73-.29-.88-.29s-.06-.16,0-.16c-.68-.12-.28-.12-1-.24l0-.06h-.25l-.26-.25.08.13a2.3,2.3,0,0,1-.59-.18l.13-.07c-.61-.15-.63-.41-1.24-.46,0,0,.07,0,.12,0-.58,0-.34-.31-.93-.28,0,0,0-.08,0-.11h-.26l.06-.13-.26.14-.1-.19-.11,0c-.18-.34-.6-.26-.9-.56v.19c-1,.08-2-.81-3.13-.92l.06-.13-.49,0c-.21-.17.18-.08.12-.17-.5-.05-.26.15-.83,0-.26-.17.13-.08.27-.09a8.57,8.57,0,0,1-1.69-.35s0,0,0,0a9.17,9.17,0,0,1-1.21-.27c0-.06.12-.05.22,0a.94.94,0,0,0-.45-.09l.17-.09c-.29-.09-.89-.11-.93-.27,0,.06,0,.17-.27.1-.1-.25-.72-.08-1.11-.27.06,0,.37,0,.28,0a1,1,0,0,0-.6,0l.07-.08-1-.07c-.1-.24-.92-.14-.83-.29-.35-.07.27.15-.17.09-.1-.11-.4,0-.36-.17h0l-.31,0,.22-.1c-.27,0-.49.08-.52.18-.24-.13-.6-.12-.7-.26l.1,0c-.72-.06-1.11-.57-1.71-.42,0,0,0-.06.06,0L82,68.49l.12-.09-.75,0,0-.07a14,14,0,0,0-1.85-.23l.1,0C79,68.16,79,68,78.5,68l.06,0-.44-.05.11-.06c-.35.11-.92-.32-.73-.16-.19,0-.52.09-.59.17-.49-.05-.11-.11-.4-.2s-.43.08-.9,0l0-.07c-.22,0-.37,0-.68,0l.1,0c-.52.11-.61-.27-1,0-.21-.08-.61-.07-.58-.21l-1.76.07c-.09-.24-.14,0-.51-.15l0,.13c-.89,0-1.89-.4-2.88-.4l0-.13-.2.13c-1.05-.08-2.42-.15-3.27-.17a3.63,3.63,0,0,1-1.13.17l0,0a13,13,0,0,1-2.4.09c.05-.05,0-.09.06-.13-.19.14-.49,0-.67,0l.21.09a.76.76,0,0,1-.7-.08l-.37.14s-.06,0-.07-.05l-.06.07-.2-.16c-.09,0-.58.11-.73.28,0-.05-.39-.08-.12-.12l-1.37,0,.22,0c0,.13-.37.23-.59.18.27-.12,0-.18-.11-.27-.18.08.17.1.07.18a1.83,1.83,0,0,1-.85.12l.14-.06c-.31.06-.47-.15-.79-.11s-.49,0-.41.26c-.4.08-.17-.13-.3-.14a1.06,1.06,0,0,1-.83,0c-.19.34-1.1,0-1.16.25l-.35-.12c0,.07-.05.24-.32.29s-.21-.19-.3-.25l-.14.28c-1.48-.1-3.39.28-5,.3a20.05,20.05,0,0,1-2.41.52l.09,0-.84.06.62,0a2.52,2.52,0,0,1-.48.16,13.86,13.86,0,0,0-3.22.51c-.65.44-.53-.19-1.17.19.05,0,.06-.09.11-.13a16.26,16.26,0,0,0-1.79.76c0-.32-.48.12-.45-.06l0,.14c-.18,0-.57,0-.54-.07l-.29.23-.06-.12c-.43.08-1.32.44-1.61.25a32.39,32.39,0,0,1-4,1.21,2.56,2.56,0,0,1-.83.38l-.36,0c-.29.14-.56.42-.87.41a0,0,0,0,1,0,0,2.51,2.51,0,0,0-.86.39c-.34.11-.69.14-.63,0,0,.25-.72.21-.72.21a75.49,75.49,0,0,0-9,3.46c-4.67,2.12-9.52,5.17-11,7-.06.18-.36.47-.15.51-.24.21-.49.1-.47.24.41-.16.06.34.5.25l-.21.17c0,.1.25-.28.29-.11l-.06-.24a.71.71,0,0,1,.44-.08c.12-.19.07-.52.56-.66L7,83.6c.33-.22.29,0,.38,0l-.08,0,.35-.08c-.26.07-.51.45-.33.32.44-.2-.13,0,.15-.2s.19,0,.22.08L8,83.54c0,.1-.23.13,0,.14l.36-.36c.22.19.39-.4.72-.3-.27.24.07.06.07.17l.75-.45c.09,0-.16.19,0,.11s.2-.19.28-.23.57-.33.63-.16c.57-.19.1-.32.63-.51.12.06-.37.24-.1.22l.48-.32a.33.33,0,0,1-.21.3c1.41-.65,2.44-.47,3.61-1.26.23,0-.09.14-.17.29.82-.64,1.41-.38,2.18-.77l0-.1c1.23-.22,2.45-1,3.76-1.4h-.18a2.85,2.85,0,0,1,.59-.43c.05,0-.06.28.29.08-.09,0-.26,0-.23,0a21.83,21.83,0,0,0,2.4-.72c.95-.32,2-.73,2.9-1,2.41-.94,5.16-1.59,7.59-2.31-.37.11-.28-.19,0-.21.89.23,1.32-.43,2.19-.34,1.41-.48,2.78-.39,4.06-1l.05.12c.21,0,.25-.08.46-.13v0c.51,0,1.09-.29,1.39-.29v-.15c.3-.07.18.08.47-.06v.07l.33-.2c0,.26.84-.15,1.1-.07A9.27,9.27,0,0,1,46,71.9a4.85,4.85,0,0,0,1.32,0,31.41,31.41,0,0,1,3.32-.45l0-.16.3,0s0,.05,0,.07c.25.16.68-.14.94-.05-.17-.13-.21,0-.38,0s0-.23.3-.19v0L52,71c0,.13.25.17.29.29a26.28,26.28,0,0,1,2.67-.42c-.09.15.73-.1.54.17.61-.15-.12-.19.15-.39.17,0,.35-.09.38,0s.15.14,0,.17l.41,0s0,.06-.09.07c.83-.19,1.49.09,2.23-.1.05-.09-.3,0-.25-.1.75-.22.67.13,1.37,0l-.14.13a.8.8,0,0,1,.7-.12c.07.15-.31.12-.49.2.26,0,.91-.05.7-.18.31-.05.42.08.59.11,0,0-.29-.09-.11-.16a11.13,11.13,0,0,0,1.58.06s0,.09,0,.11C62.94,70.58,62.9,70.9,63.46,70.85Z"/><path class="cls-4" d="M90.66,73.2l-.2-.07s0,.07-.13.08Z"/><path class="cls-4" d="M81,71.25l-.08,0C81,71.28,81,71.26,81,71.25Z"/><path class="cls-4" d="M78.6,71.18c.17,0,0-.07-.05-.11S78.54,71.13,78.6,71.18Z"/><path class="cls-4" d="M96.16,74.27s-.07,0-.07,0S96.16,74.29,96.16,74.27Z"/><path class="cls-4" d="M110.56,79.84l0,0Z"/><path class="cls-4" d="M109.88,79.27l-.17-.06A.36.36,0,0,0,109.88,79.27Z"/><path class="cls-4" d="M92.53,73.32a.35.35,0,0,0-.17,0A.27.27,0,0,0,92.53,73.32Z"/><path class="cls-4" d="M109.54,79.17l-.19-.11,0,0Z"/><path class="cls-4" d="M110.79,80l-.24-.13A.42.42,0,0,0,110.79,80Z"/><path class="cls-4" d="M101.62,75.85h0C101.42,75.85,101.53,75.86,101.62,75.85Z"/><polygon class="cls-4" points="108.58 79.01 108.55 78.99 108.48 79 108.58 79.01"/><path class="cls-4" d="M111.61,80.43l-.11,0,.1.07A.08.08,0,0,1,111.61,80.43Z"/><path class="cls-4" d="M104.58,77.19c.08,0,.11-.05.12-.08S104.58,77.1,104.58,77.19Z"/><path class="cls-9" d="M65.79,118.17c-4.14-3.72,2.81-9.69,2.47-14.13-.36-4.69-6.38-8.11-2.88-13.1,1.39-2-1.86-3.86-3.24-1.9A10.68,10.68,0,0,0,60.8,97c.79,3.53,4.52,5.21,3.4,9.19-.7,2.5-2.92,3.94-3.44,6.68a8.77,8.77,0,0,0,2.37,8c1.79,1.61,4.46-1,2.66-2.66Z"/><polygon class="cls-10" points="67.3 94.63 63.87 85.37 58.48 93.15 62.24 93.26 67.3 94.63"/><path class="cls-10" d="M68.18,94.38l-3.43-9.26a.93.93,0,0,0-1.67-.22l-5.39,7.78a.92.92,0,0,0,.79,1.37l2.23.06c.45,0,.92,0,1.37,0,.17,0-.21,0,.27.07,1.58.37,3.15.85,4.71,1.27a.91.91,0,0,0,.48-1.76c-1.61-.44-3.24-1-4.88-1.32a26,26,0,0,0-4.19-.19l.79,1.37,5.39-7.78L63,85.61l3.43,9.26C66.83,96,68.59,95.49,68.18,94.38Z"/><path class="cls-11" d="M45.93,110.36c-4.14-3.72,2.81-9.69,2.47-14.13C48,91.55,42,88.12,45.52,83.14c1.39-2-1.86-3.86-3.24-1.9a10.68,10.68,0,0,0-1.33,7.91c.79,3.53,4.52,5.21,3.4,9.19-.7,2.5-2.92,3.94-3.44,6.68a8.77,8.77,0,0,0,2.37,8c1.79,1.61,4.46-1,2.66-2.66Z"/><polygon class="cls-10" points="47.45 86.82 44.01 77.56 38.62 85.34 42.38 85.45 47.45 86.82"/><path class="cls-10" d="M48.33,86.57l-3.43-9.26a.93.93,0,0,0-1.67-.22l-5.39,7.78a.92.92,0,0,0,.79,1.37l2.23.06c.45,0,.92,0,1.37,0,.17,0-.21,0,.27.07,1.58.37,3.15.85,4.71,1.27a.91.91,0,0,0,.48-1.76c-1.61-.44-3.24-1-4.88-1.32a26,26,0,0,0-4.19-.19l.79,1.37L44.8,78l-1.67-.22,3.43,9.26C47,88.15,48.74,87.68,48.33,86.57Z"/><path class="cls-12" d="M83.9,110.36c-4.14-3.72,2.81-9.69,2.47-14.13C86,91.55,80,88.12,83.49,83.14c1.39-2-1.86-3.86-3.24-1.9a10.68,10.68,0,0,0-1.33,7.91c.79,3.53,4.52,5.21,3.4,9.19-.7,2.5-2.92,3.94-3.44,6.68a8.77,8.77,0,0,0,2.37,8c1.79,1.61,4.46-1,2.66-2.66Z"/><polygon class="cls-10" points="85.42 86.82 81.98 77.56 76.59 85.34 80.36 85.45 85.42 86.82"/><path class="cls-10" d="M86.3,86.57l-3.43-9.26a.93.93,0,0,0-1.67-.22l-5.39,7.78a.92.92,0,0,0,.79,1.37l2.23.06c.45,0,.92,0,1.37,0,.17,0-.21,0,.27.07,1.58.37,3.15.85,4.71,1.27a.91.91,0,0,0,.48-1.76c-1.61-.44-3.24-1-4.88-1.32a26,26,0,0,0-4.19-.19l.79,1.37L82.77,78l-1.67-.22,3.43,9.26C84.94,88.15,86.71,87.68,86.3,86.57Z"/><path class="cls-13" d="M24.77,79.66v-35a6,6,0,0,0-6-6h0a6,6,0,0,0-6,6v35a9.44,9.44,0,1,0,11.94,0Z"/><path class="cls-14" d="M22.94,80.84V65.6a4.15,4.15,0,0,0-4.14-4.14h0a4.15,4.15,0,0,0-4.14,4.14V80.84a7.48,7.48,0,1,0,8.28,0Z"/><line class="cls-15" x1="12.82" y1="74.97" x2="17.35" y2="74.97"/><line class="cls-15" x1="12.82" y1="71.31" x2="17.35" y2="71.31"/><line class="cls-15" x1="12.82" y1="67.65" x2="17.35" y2="67.65"/><line class="cls-15" x1="12.82" y1="63.99" x2="17.35" y2="63.99"/><line class="cls-15" x1="12.82" y1="60.33" x2="17.35" y2="60.33"/><line class="cls-15" x1="12.82" y1="56.67" x2="17.35" y2="56.67"/><line class="cls-15" x1="12.82" y1="53" x2="17.35" y2="53"/><line class="cls-15" x1="12.82" y1="49.34" x2="17.35" y2="49.34"/><path class="cls-16" d="M125.58,64a61.48,61.48,0,0,1-2.1,16c-.45,1.68-1,3.34-1.56,5a61.6,61.6,0,0,1-115.85,0C5.48,83.32,5,81.66,4.51,80A61.59,61.59,0,1,1,125.58,64Z"/></g></g></svg>