<svg xmlns="http://www.w3.org/2000/svg" xmlns:xlink="http://www.w3.org/1999/xlink" viewBox="0 0 364 403"><defs><style>.cls-1{fill:url(#linear-gradient);}.cls-2{fill:#021c33;}.cls-3{opacity:0.8;font-size:27.28px;fill:#a4bdbe;font-family:SFProDisplay-Heavy, SF Pro Display;letter-spacing:0.03em;}.cls-4{letter-spacing:-0.01em;}.cls-5{letter-spacing:0.03em;}.cls-6{letter-spacing:-0.02em;}.cls-7{letter-spacing:0.02em;}</style><linearGradient id="linear-gradient" x1="100.98" y1="438.1" x2="100.98" y2="-20.93" gradientUnits="userSpaceOnUse"><stop offset="0" stop-color="#021c33"/><stop offset="0.22" stop-color="#0c213d"/><stop offset="0.6" stop-color="#272e58"/><stop offset="1" stop-color="#493e7a"/></linearGradient></defs><title>Interactive-Underpowered Assets</title><g id="pitch_black" data-name="pitch black"><path class="cls-1" d="M-27.06,113.93l21.84,2.26c2.91.3,6.1.53,8.5-1.14,3.2-2.24,3.86-7.15,7.32-9a9.28,9.28,0,0,0,2.51-1.35c2-2-.47-5.24-2.75-6.93,3-2.64,7.51.6,10.05,3.7s6.69,6.59,10,4.31c1-.69,1.63-1.8,2.59-2.55,2.71-2.12,6.74-.58,9.42,1.58a38.2,38.2,0,0,1,9,11.41,81.51,81.51,0,0,1,9.24,26.45c1,6.19.86,12.11-4.09,16-2.09,1.63-4.72,3.81-7.2,4.75s-5,2.29-6.25,4.63-2,5.85.53,6.69c1.91.64,5.42,1,7.1-.06,7.36-4.84,13.78-12.83,22-15.89,5.12-1.9,10.65-2.34,16-3.59,4.15-1,8.36-2.58,11.48-5.37a76.57,76.57,0,0,1,7.25-27.26c1.82-3.81,4.13-7.64,7.79-9.75,7.57-4.35,17.1.42,23.79,6,2.19,1.84,4.52,3.88,7.37,4.06,4.37.27,7.78-4.07,8.62-8.37s-.06-8.73.16-13.1a51.8,51.8,0,0,1,1.51-9l3.64-15.88c.88-3.82,2.16-8.16,5.75-9.74,5.07-2.23,10.3,2.65,13.46,7.2s7.36,9.93,12.82,9,7.72-7.48,7.76-13-1-11.4,1.76-16.12c4.8,9.68,17.45,14.6,27.53,10.71a12.43,12.43,0,0,0,5.23-3.49c2.76-3.36,2.59-8.19,2.17-12.52A243.28,243.28,0,0,0,223-11.51c.26-3.21,2.05-8.12,4.61-9.08,3.8-1.42,8.36,1.92,10.64,5.28,1.83,2.7,2.36,6.1,4,8.93,6.44,11.22,25.06,7.91,33.54,17.68a29.88,29.88,0,0,1,4.23,7.3l4.74,10.3C286,31.62,287.4,34.52,290,36c5,2.94,11.24-.8,15.84-4.39,5.23,4.93-.61,13.52,0,20.68.58,6.58,6.59,11.1,11.66,15.33s10.1,10.58,7.9,16.81c-1.14,3.24-4,5.51-6.72,7.6l-16.52,12.7a19.6,19.6,0,0,0-3.92,4c-1.38,2.8,2.58,6.19,5.54,7.18s6.17.43,9.29.42c5.15,0,10.29,0,14.58,2.88a7.2,7.2,0,0,1,2.34,2.2c1.14,1.93.56,4.38-.05,6.54-1.26,4.45-2.73,9.2-6.37,12,2,.35,2.28,3.25,1.55,5.18s-1.91,4.09-.94,5.92c1.9,3.59,7.71.06,11.43,1.7a107.39,107.39,0,0,1-2.43,24.64c-4.84-.61-8.22,5.66-6.7,10.3s5.94,7.63,10.2,10,8.86,4.78,11.33,9c4.73,8.09-.23,19.74,5.6,27.08-6.37,1.78-6.42,11.4-2.34,16.6.93,1.19,2,2.36,2.27,3.85.58,3.77-4.2,5.66-7.23,8-3.83,2.93-5.37,7.86-7.35,12.26s-5.31,9-10.11,9.33c-2,.16-4.18-.41-5.85.68-3,1.95,3.08,6.58,4.93,9.66s1.55,8-1.77,9.43c-2.58,1.08-6.76-1.53-7.6-4.19a43.44,43.44,0,0,0-3.58-8.07c-1.39-2.42-5.4-3.61-6.81-1.2-1,1.65,0,3.72.81,5.43,8.3,16.91,7.61,39.58-3.15,55.47-1.07-2.6-2.47-6.54-4.17-8.78a15.13,15.13,0,0,1-2.42-3.75,12.28,12.28,0,0,1-.51-4.2l-.12-26.83c0-3.66-.15-7.66-2.55-10.43-3.06-3.54-9.32-4.49-10.22-9.09-.55-2.79,1.26-6.09-.5-8.33-1.41-1.8-4.37-1.72-5.81-3.5-1.7-2.08-.33-5.21-.87-7.84-.88-4.28-6.55-6.34-7.22-10.66-.6-3.87,2.6-9.23-.93-10.92a5.6,5.6,0,0,0-2.9-.27c-3.76.31-7.62.65-11,2.31s-6.25,5-6.25,8.73v1.25a22.32,22.32,0,0,1,1.43,8.24c-.21,3.4-2.06,6.93-5.27,8.07-2.13.76-4.52.38-6.68,1.06-7.59,2.41-5.89,13.79-10,20.63-1.33,2.23-3.33,4-4.85,6.08-5.39,7.51-2.79,19.44,5.23,24,1.89,1.08,4,1.79,5.86,2.91,5.15,3.1,7.89,8.92,10.3,14.43,6.08,13.93,11.94,29.12,8.63,44-2.67,12-11,21.85-19,31.18L223,434.61c-1.6,1.86-3.7,3.91-6.1,3.42-3.15-.64-3.8-4.84-3.41-8s.82-7.1-1.81-8.95c-1.75-1.23-4.27-1-6-2.29-3-2.38-2.06-8.68-5.85-9.42,5.79-6.57,11.86-13.79,12.55-22.51.23-2.88,1.23-7.45-.64-9.65s-8.35-1.66-10.69,0c-1.46,1.05-.71,2.82-1.36,4.49l-10.92,28-49.09-18.15c-12.66-4.68-25.53-9.48-36.21-17.72-12.13-9.36-20.63-22.54-28.89-35.44A6.65,6.65,0,0,1,73.27,335c0-2.33,2.28-3.9,3.69-5.76,5.26-7-2.34-17.76,1.61-25.58-5.06,1.13-9.54-4.5-9.34-9.68s3.47-9.66,6.61-13.78l14.09-18.53c5.48-7.21,11.18-15,11.75-24-7.12,2.48-13.24-5.38-16.85-12-5-9.19-12.76-19.54-23.14-18.19-2,.25-3.91.94-5.84.56-3.65-.71-5.49-4.67-7.95-7.47-5.44-6.19-14.64-6.94-22.87-7.26-3.15-.12-6.49-.2-9.22,1.38s-4.36,5.47-2.47,8c1,1.38,4.27,2,5.4,3.3,2.28,2.61.88,8.52-2,10.41s-8.13.35-11.54-.28c-2.3,1.88-1.21,5.55.11,8.21a205.07,205.07,0,0,0,10.79,19c-2.12,3-7.06,2.34-9.74-.19a12.69,12.69,0,0,1-1.81-2.17c-9.13-22.64-20.7-6.56-23.34-16.36,3.07-1.19,4.68-4.73,4.63-8s-1.42-6.39-2.77-9.39c-.7-1.57-2-3.44-3.66-2.92a3.6,3.6,0,0,0-1.76,1.73c-3.81,6.14-7.72,12.57-8.37,19.76-.24,2.62-.64,6.06-3.23,6.53s-4.1-2.36-6.28-3.54-3.59-.56-5.1,1.34a5.39,5.39,0,0,0,.18,6.7c1,1.15,1,1.8,2.12,2.88,1.93,1.92,3.79,6.67,2.35,9s-6,3.43-8.6,2.55c-4.73-1.61-5.6-9.28-5.66-14.28l-.11-11c0-4.25,0-8.68,1.81-12.51.9-1.85,2.21-3.51,2.88-5.46s.48-4.42-1.18-5.65a6.76,6.76,0,0,0-3.53-1c-7.13-.59-14.48-1-21.26,1.25a28,28,0,0,0-16.5,15.12c-.5,1.14-.91,2.49-.3,3.58s1.64,1.37,2.34,2.19c2.19,2.57-1,6.25-4,7.81s-6.75,4-5.88,7.21c.52,2,2.71,3.41,2.46,5.42-.33,2.63-4,2.83-6.23,4.32-1.73,1.17-2.54,3.26-3.24,5.22A42.65,42.65,0,0,0-110.5,264c-.17,1.91-.11,4-1.14,5.57s-3.3,2.65-4.28,4.49-.46,4.13-.52,6.24c-.12,4.29-2.74,8-5.25,11.51a7.12,7.12,0,0,1-2.62,2.54c-2.93,1.31-5.85-1.57-8.69-3.06-3.61-1.89-8.11-1.59-11.57-3.73-4.58-2.84-5.81-8.84-6.61-14.17-.65-4.33-1.11-9.34,1.88-12.54,2.47-2.64,6.41-3.07,9.85-4.2s7.06-4.08,6.28-7.62a13.71,13.71,0,0,0-1.75-3.53,12.89,12.89,0,0,1,1.4-14.2c2.93-3.46,7.94-5.78,8.44-10.28a12.51,12.51,0,0,0-.74-4.77c-2.3-8-3.61-17.74,2.23-23.68,2-2,4.68-3.44,5.9-6,.85-1.76.86-3.85,1.77-5.58a11.08,11.08,0,0,1,3.72-3.68,72,72,0,0,1,21.36-10.16c8-2.29,17.36-3.8,21.84-10.83,8.69,5,19.57.47,28.51-4.08,3.17-1.62,6.9-4.39,5.92-7.82-.44-1.56-1.87-3-1.48-4.54.34-1.37,1.87-2.05,2.66-3.22,1.23-1.82.41-4.27.71-6.44.76-5.39,8.4-9.17,6.55-14.29"/><path class="cls-2" d="M24.9,106.65c-1.11,15.69-2.11,31.75-1.1,47.47.38,5.84,1.59,11.35,4.93,16.25,3.22,4.72,12.56,14.23,5,19.56-1.91,1.35-.08,4.53,1.85,3.16,12.62-8.93-4.39-22.38-7-31.38-2.37-8.22-1.44-17.7-1.33-26.16.13-9.65.59-19.29,1.27-28.91.17-2.35-3.5-2.34-3.66,0Z"/><path class="cls-2" d="M-40.82,186.76c1.55-2.34,8.87.57,11.73-.87,2-1,2.43-2.78,3.74-4.39,3.37-4.14,7.58-2.61,11.87-1.07a1.84,1.84,0,0,0,2.25-2.25c-1.2-3.29-2.46-7.07.93-9.59,1.54-1.15,2.69-1.24,3.4-3.23s.19-4.78.05-6.94l-.69-10.64-1.83,1.83c6.55.81,12.13,2.58,18.35,4.53,5.59,1.75,11.06,1.11,16.54-.66,2.23-.72,1.28-4.26-1-3.53-6.62,2.14-11.85,1.64-18.25-.76-5-1.89-10.35-2.58-15.66-3.24a1.84,1.84,0,0,0-1.83,1.83l.69,10.64c.13,2.06.59,5-1,6.74-.72.79-2.18,1-3,2-2.87,3.34-1.63,8.32-.28,12l2.25-2.25c-3-1.08-6.29-2.27-9.53-1.77-3.44.53-4.83,2.54-6.81,5.09-3.17,4.09-5.93,1.89-10.19,2A5.51,5.51,0,0,0-44,184.91c-1.3,2,1.87,3.81,3.16,1.85Z"/><path class="cls-2" d="M75,208.67c-.72-3,1.44-4.27,2.51-6.69A21.11,21.11,0,0,0,79,196.72a24.27,24.27,0,0,0-.9-10.85l-2.25,2.25a58.56,58.56,0,0,0,12.81,1.79,1.84,1.84,0,0,0,1.83-1.83c-.54-4.14-3.4-12.28,2.66-12.95,3.69-.41,7.14,1.42,10.6-.76,6.66-4.21,2.91-13.38,4.69-19.53l-3.06.81c4.23,4.21,9.68,5.2,15.09,7.2,9,3.3,10.39,10.26,12.92,18.55,4.14,13.6,16.77,21.88,21.39,35.11l.84-2.07c-1.21.61-3.88-1.85-5.13-2.24a7.35,7.35,0,0,0-3.69-.06c-1.42.21-3,1.15-4.53.62-1.05-.36-2-1.53-2.89-2.26a21.37,21.37,0,0,0-3.76-2.87c-5.42-2.81-11.2-1-13.83,4.38a17.87,17.87,0,0,0-1.57,10.1c.68,5.43,4.25,10.53,3.73,16-.88,9.19-10.46,16-13.4,24.68-.64,1.88,1.78,2.86,3.06,1.78a30.19,30.19,0,0,1,18.23-7.17l-1.77-2.32c-1.11,5.77-8.59,7.66-9.29,13.79-.77,6.81,7.1,10.74,11.79,13.87,4.47,3,11.16,8.44,17,5.56,6.13-3,3-10.34.18-14.49l-1.09,2.69c8.64-1.47,6.06-11.29,3.11-16.59l-.66,2.51c1-.63,5.62,6.32,6.42,7.41,2,2.7,4.25,4.66,3.76,8.19a61.62,61.62,0,0,0-.21,13.39c.4,5.57-.8,16.86,6,19.42a8.61,8.61,0,0,0,4,.32c1.71-.19,3.19-.88,4.93-.42q3-.55,1.06,1.7a2.34,2.34,0,0,1-1.4,2,17.28,17.28,0,0,1-7.58,3.54c-4.36.8-7-1.66-8.87-5.13-2.7-5-7.6-12.49-14.19-8.18l2.69,2.07,1.93-9a1.86,1.86,0,0,0-1.28-2.25c-6.34-1.33-12-.74-13.5,6.29-.67,3.09-.8,5.45-4,6.75-2.36,1-5,1-7.5,1.14l-7,.39c-.47,0-10,.84-8.86-1.36a1.85,1.85,0,0,0-1.58-2.76c-9.3.19-18.59.42-27.89.62-2.35,0-2.36,3.71,0,3.66,9.3-.19,18.59-.42,27.89-.62l-1.58-2.76c-5.47,10.25,16.91,6.66,20.77,6.38s8.17-.73,10.92-3.6a9,9,0,0,0,2.19-4.73c.64-3.21-.63-5.35,4.37-6.43,1.51-.33,3.32.23,4.79.53l-1.28-2.25-1.93,9c-.31,1.46,1.27,3,2.69,2.07,5.82-3.81,9.47,8.88,12.77,11.64,3.62,3,8.25,2.73,12.41,1.08,3-1.21,8.86-3.79,10-7.27,1.05-3.12-1.75-5.65-4.54-6.33-2.12-.51-3.78.36-5.87.43-6.65.2-6.15-4.94-6.48-9.56q-.36-5-.72-10a35.35,35.35,0,0,1,.9-10.22c1-4.79-4.82-9.75-7.43-13.3-2-2.76-4.76-7.44-8.69-5a1.87,1.87,0,0,0-.66,2.51c1.67,3,5.13,10.17-.92,11.2a1.84,1.84,0,0,0-1.09,2.69,27.54,27.54,0,0,1,1.63,2.52l1,2.3-2.81,4.88c-1.73.88-5.54-1.62-7-2.51-4.13-2.48-9.05-5.3-12.52-8.66-7.07-6.87,5.49-11.55,6.76-18.14a1.85,1.85,0,0,0-1.77-2.32A34.3,34.3,0,0,0,111,262l3.06,1.78c2.66-7.85,9.41-13.33,12.44-21,3.8-9.63-5.27-17.83-2.17-27.37,1.6-4.93,5.71-7,10.44-4,2.47,1.54,4.13,4.28,7.06,5.12a7,7,0,0,0,3.13.14c2.84-.47,3.78-1.14,6.47.17,2.24,1.09,3.62,2,6,.76a1.84,1.84,0,0,0,.84-2.07c-2.22-6.35-6.13-11.56-10.29-16.76-5.37-6.69-9.56-12.83-11.9-21.17-1.66-5.91-3.49-11.93-8.84-15.53-6-4-14-3.79-19.3-9a1.85,1.85,0,0,0-3.06.81c-1.24,4.29,0,8.53-.74,12.83-1.25,7.23-7.81,4.07-12.71,4.94C83.08,173.12,86,182,86.83,188.08l1.83-1.83a54.12,54.12,0,0,1-11.84-1.66,1.85,1.85,0,0,0-2.25,2.25c1.75,5.85,1.05,10.34-1.8,15.63-1.34,2.49-2,4.32-1.29,7.17.55,2.29,4.09,1.32,3.53-1Z"/><path class="cls-2" d="M153.55,216.09c6.43,2.94,8.39,11.75,3.38,16.93a1.87,1.87,0,0,0,.37,2.88c1.29,1,2.13.76,3.67.86,2.55.17,2.43.1,3.77,2.1.29.44.32,1,.6,1.51,2,3.45,4.3,2.9,7.79,2.24s4.87,1.15,7.9,2.09a6.32,6.32,0,0,0,4.12-.08,7,7,0,0,0,4.63-7l-1.34,1.77c1.52-.62,3.23,1.48,4.54,1.87a6.13,6.13,0,0,0,3.55.08,8.83,8.83,0,0,0,5.23-5c.95-2,1-4.31,1.82-6.36q.51-4,4-3.05a15.3,15.3,0,0,1-.94,3.74c-1.35,4.28-2.23,7.58-1.67,12.14,1.22,9.88,3.63,19.74,5.48,29.52,1.09,5.79,2.5,11-2.37,15.39-2.27,2-5,3.65-6.8,6.15-.79,1.07-1.07,2.59-1.83,3.58q0,2-2.5,1.71a8.48,8.48,0,0,0-1.73-.1c-2,.43-3.39,1.36-3.73,3.49-.42,2.68,1.48,4,2.73,6,2.81,4.49,3,10.95,3.88,16.08,1,5.83.51,16.57,8.14,17.84,6.41,1.07,10.34-4.54,13.09-9.4h-3.16c3.08,4.13,6.35,8.42,8,13.35,1.28,3.74.06,8.89,2.47,12.18,1.11,1.51,2.84,2.13,4,3.66,1.64,2.24,1.26,4.39,1.46,7.06a14.94,14.94,0,0,0,.8,4.38c.86,2.2,3.25,3.92,3.9,6.13,1.33,4.48-1.28,11.33-2.39,15.74A126.8,126.8,0,0,1,230,409.42a136.79,136.79,0,0,1-14.67,27.68c-1.32,2,1.85,3.8,3.16,1.85a141.4,141.4,0,0,0,14.75-27.81,127.57,127.57,0,0,0,4.82-15.39c1.15-4.65,2.92-10.1,2.5-14.95a10,10,0,0,0-2-5.07c-1.86-2.69-2.77-4.37-3-7.69-.17-3.1-.09-6.3-2.33-8.73s-4.17-4.43-4.46-8a24.23,24.23,0,0,0-1.47-6.61c-1.86-5-5-9.27-8.12-13.48a1.86,1.86,0,0,0-3.16,0c-1.77,3.13-4.06,7.57-8.19,7.7-4.66.15-4.62-5.58-5.2-8.87-1.15-6.49-1.67-13.59-3.65-19.87-.52-1.66-3.82-5.9-1.86-7.32.89-.64,2.87.15,4.08-.9s1.14-2.28,1.64-3.54c1.17-2.93,3.39-4.59,5.74-6.51,3.1-2.53,6-5.19,6.55-9.34.85-6.08-1.64-13.09-2.76-19-1.39-7.38-3.64-15.11-4.08-22.61-.35-6,4-11.36,2.25-17.23a1.82,1.82,0,0,0-1.28-1.28c-4.34-.83-7.5,1.8-9,5.79s-1.29,10.92-7.69,8.67c-2.14-.75-2.84-2-5.19-1a1.91,1.91,0,0,0-1.34,1.77c.13,7.43-5.24,2.67-6.83,1.82a8.44,8.44,0,0,0-2.79-1.09c-3.2-.45-5.93,2.56-8.41-1-.93-1.36-1-2.85-2.49-3.79-1.85-1.13-4.94.33-6.43-.81l.37,2.88c6.51-6.74,4.52-18.74-4.12-22.69-2.13-1-4,2.18-1.85,3.16Z"/><path class="cls-2" d="M210.4,225.55c-.73-4.47,2.8-7.36,7-7,1.7.15,3.33,1,5,1.24,2.58.32,4.89-.2,6.53-2.35,3.53-4.62,5-13.76,3.85-19.35a17.47,17.47,0,0,0-1.58-4.25c-1.34-2.69-1.51-4.22-1.51-7.65,0-4.37-3.41-7.54-3.1-11.88.2-2.82,1.47-5,.48-7.86a19,19,0,0,0-2.21-3.67,13.43,13.43,0,0,1-2.07-7.3c-.16-3.5,0-6.76-2-9.82-1.77-2.71-4.71-4.27-6.87-6.61-6.75-7.29-4.55-18-3.2-26.83,2.89-18.72-1.67-36.22-7-54.07-.68-2.25-4.21-1.29-3.53,1,3,10,6.1,20.17,7.41,30.61,1.22,9.76-.18,18.83-1.44,28.49-.85,6.52-.91,13.59,2.37,19.53,1.88,3.39,4.81,5.21,7.43,7.92,4,4.16,2.56,8.13,3.37,13.16.54,3.38,2.52,5,3.84,7.92,1.74,3.91-1.19,7.76.1,11.78.49,1.51,1.84,2.75,2.26,4.24.61,2.19,0,4.55.1,6.76.24,4.45,3.84,7.59,3.85,12.27,0,3.33-1.27,13.78-5.62,14.49-3,.48-6.09-1.94-9.28-1.45-5.59.87-8.62,6.45-7.76,11.66.38,2.32,3.91,1.34,3.53-1Z"/><path class="cls-2" d="M98.51,238.41c3.35-6.59,8-9.31,14.42-12.33,4.24-2,7.51-6.67,11-9.85,1.74-1.6-.86-4.19-2.59-2.59-1.94,1.78-3.92,3.5-5.71,5.42-2.74,2.94-5.75,4-9.18,5.84a27,27,0,0,0-11.06,11.66c-1.07,2.1,2.09,4,3.16,1.85Z"/><path class="cls-2" d="M116.23,379.89c-2.67-5.61,1-7.83,3.47-12,1.16-2,1.49-11.85,4.64-10.45a1.86,1.86,0,0,0,2.69-2.07c-.56-4.15,8.13-.67,9.39-.47a9.63,9.63,0,0,0,3.34,0,6.05,6.05,0,0,0,4.6-3.69c1.2-2.58,1.21-6.61,1.15-9.38a47.13,47.13,0,0,0-.58-5.78,23.3,23.3,0,0,1-.5-4q.42-3.55,2.74-2.25a1.87,1.87,0,0,0,2.69,1.09c2.08-.9,2.9-3.35,4.72-4.22,2.74-1.31,2.09,2.47,2.42,4.32.7,3.89,2.74,5.25,6.51,5.92,12,2.12,24.77-.75,36.88-.8l-1.3-3.13a62.68,62.68,0,0,0-11,15.76,1.91,1.91,0,0,0,.29,2.22,11.47,11.47,0,0,0,6.2,3.35,29.06,29.06,0,0,1,4.23,1c1.85.79,2.34,2.06,3.37,3.59a6.18,6.18,0,0,0,1.54,2c.89.61,2.4.33,3.14.85,2.83,2-.58,10.59-1.14,13.35-.47,2.3,3.06,3.29,3.53,1,.84-4.16,2.68-8.84,2.58-13.11-.07-2.89-1.4-3.7-3.79-4.73-2.89-1.25-3.86-4.44-6.86-5.89-3.31-1.59-7.63-1.09-10.21-4l.29,2.22a59.54,59.54,0,0,1,10.39-15,1.85,1.85,0,0,0-1.3-3.13c-7.4,0-14.75.8-22.13,1.17-3.66.18-15.16,1.84-17.43-2.12-1.61-2.81.6-7.55-3.34-9.15-4.35-1.76-6.31,4-9.48,5.37l2.69,1.09a4.63,4.63,0,0,0-6.57-2.57c-4,1.82-3.41,6.39-2.87,10,.62,4.13,1.78,10.58-1.54,13.61-2.3,2.1-3.24,1.19-6,.37a13.91,13.91,0,0,0-3.85-.8c-4.15-.05-7,2.76-6.4,6.85l2.69-2.07c-5.92-2.63-8.11,3.47-8.81,8.16-.68,4.52-4.43,6.53-5.47,10.86a12.37,12.37,0,0,0,1.16,8.41c1,2.13,4.17.27,3.16-1.85Z"/><path class="cls-2" d="M117.4,368.5c4.09,1.77,8.7,3.24,12.58,5.45,2.66,1.51,2.82,3.54,5,5.42,4.21,3.6,9.67.87,13.56-1.66l-2.76-1.58c1.48,11.61,13.43,14.12,23.33,13.9a52.55,52.55,0,0,0,8.43-.65,18.37,18.37,0,0,0,4.3-1.29c.7-.32,2.37-1.76,3-1.76,2.23,0,2.59,2.69,3.92,4.13a10.33,10.33,0,0,0,6,3.19c2.3.43,3.29-3.1,1-3.53-3.5-.66-4.42-2.82-6-5.66-.55-1-.75-1.63-1.72-2.22-3.08-1.86-6.42,2.23-9.17,3.09-8.68,2.72-27.8,2.77-29.32-9.19-.16-1.27-1.46-2.42-2.76-1.58-3,2-6.24,4.1-9.18,1.33-1.29-1.22-1.59-2.74-3-3.8-1.75-1.34-4.32-2-6.33-2.84l-9-3.89c-2.14-.93-4,2.23-1.85,3.16Z"/><path class="cls-2" d="M208.35,227.12a189.14,189.14,0,0,0,31.18-1.78l-2.32-1.77a15.91,15.91,0,0,0,3,9.79c1.62,2.19,2.8,3.43,2.45,6.44-.25,2.11-1.14,4.17-1.38,6.33-.32,3-.65,7.48.78,10.29,1.72,3.39,4.45,1.71,7.37,2.82,2.21.84,3.16-2.7,1-3.53-1.09-.41-2-.21-2.95-.53a1.57,1.57,0,0,1-2.28-1.09l-.36-2.88c-.3-4.38,1.25-8,1.78-12.18a6.85,6.85,0,0,0-1-5.11c-2.38-3.61-4.7-5.47-4.69-10.35a1.86,1.86,0,0,0-2.32-1.77,183.28,183.28,0,0,1-30.21,1.65c-2.36-.06-2.36,3.6,0,3.66Z"/><path class="cls-2" d="M227.08,182.06a193.1,193.1,0,0,1,31.72-3.17c5.27-.06,10.54.12,15.8.51,4.78.35,10.06.6,14.35,3s6.49,11.11,11.67,4.79c3.19-3.88,5.87-6.59,11-7.81,5.87-1.41,11.83-.15,17.63,1,2.3.44,3.29-3.09,1-3.53-8.68-1.66-17.9-3.17-25.93,1.59-2.17,1.29-6.38,7-8.08,5.94-1.1-.68-2.16-2.87-3.33-3.77a17.67,17.67,0,0,0-4.34-2.38c-8.72-3.43-19.63-3-28.82-2.92a198.42,198.42,0,0,0-33.61,3.31c-2.32.41-1.34,3.94,1,3.53Z"/><path class="cls-2" d="M250,177c.55,6.64.8,14.91,4,20.92a9.46,9.46,0,0,0,4.29,4.41c2.74,1.27,3.45-.17,4.82,4.51.67,2.3.22,5.47.14,7.84a1.85,1.85,0,0,0,1.34,1.77c3.3.66,4.66-1.54,6.27-4.16,3.14-5.11,6.21-10.26,9.32-15.38H277c2,2.7,3.77,5,2.67,8.39-.62,1.88-2.15,3.43-2.32,5.47a8.73,8.73,0,0,0,1,4.08,29.1,29.1,0,0,1,1.68,3.73c.65,2.34-.66,8.54-4.7,6a1.85,1.85,0,0,0-2.69,1.09,7.62,7.62,0,0,0,1.5,7.7v-2.59c-1.27,1.65-4,.21-5.2,2.77-1.54,3.27-.33,8.79-.28,12.27,0,2.36,3.7,2.36,3.66,0,0-2.61-1.46-9.23.78-10.95,1.13-.87,2.51-.06,3.63-1.5a1.92,1.92,0,0,0,0-2.59l-.56-4.13-2.69,1.09c6.44,4,11.63-3.42,10.25-9.44-.51-2.24-2.93-5.29-2.41-7.34.42-1.66,1.94-2.72,2.48-4.44,1.28-4.1-1.35-8.33-3.67-11.49a1.86,1.86,0,0,0-3.16,0c-1.21,2-9.5,18.24-11.45,17.85l1.34,1.77c.15-4.8,1.41-13.18-4.43-15-4.48-1.41-5.74-3.76-6.74-8.08A102.85,102.85,0,0,1,253.61,177c-.19-2.33-3.86-2.35-3.66,0Z"/><path class="cls-2" d="M281.68,277c9.39-14.24,37.57-7.78,40.48-28.23.67-4.71-.37-9.45-1.31-14q-1.81-8.88-4-17.66c-3-12-6.61-23.9-10.68-35.61-.77-2.21-4.31-1.26-3.53,1,3.65,10.51,6.92,21.15,9.73,31.92q2,7.84,3.79,15.76c1.19,5.44,3,11.41,2.55,17-.89,11-12.7,14-21.53,16.61-7.26,2.11-14.32,4.87-18.63,11.42-1.3,2,1.87,3.81,3.16,1.85Z"/><path class="cls-2" d="M101.48,143.38a87.15,87.15,0,0,0,17.45,2.68c3,.14,7.58,1.14,9.16-2.13.86-1.79-.84-.37-.67,1,.2,1.55,2.41,3.18,3.39,4.18,5.32,5.42,4.18,12-1.44,16.74-1.8,1.53.8,4.11,2.59,2.59,4-3.43,6.77-8.28,6-13.72a12.47,12.47,0,0,0-2.67-6.24c-1.9-2.37-3.56-3.92-5.13-6.52-.69-1.14-1.43-2.12-2.91-2.16-2,0-1.75,1-2.83,2.1-1.36,1.33,3,.43-1.71.59a57.23,57.23,0,0,1-5.73-.19,82,82,0,0,1-14.56-2.44c-2.29-.58-3.26,3-1,3.53Z"/><path class="cls-2" d="M137.23,153a41.65,41.65,0,0,0,5.58-22.51L141,132.35l11.77.3c3.24.08,7.57.89,10.73.22,5.06-1.09,2.69-7.06,3.4-10.73,1.47-7.59,10.87-7.58,17-7.92l23.48-1.31c2.34-.13,2.36-3.79,0-3.66q-12.21.68-24.42,1.36c-4.91.28-10.18.56-14.51,3.15-4.6,2.75-5.16,6.65-5.41,11.6a4.54,4.54,0,0,1-.21,2.82q0,2-2.26,1c-1.76.37-4-.1-5.88-.15L141,128.69a1.85,1.85,0,0,0-1.83,1.83,38,38,0,0,1-5.08,20.66c-1.17,2.05,2,3.9,3.16,1.85Z"/><path class="cls-2" d="M209.9,107.6c6.56-2.33,13.84,2.12,20.19-1,3.79-1.84,4.9-5.71,9.8-5.42,5.34.31,10.68.72,16,1.09a1.85,1.85,0,0,0,1.77-2.32c-.63-2.66-2.4-6.67-2.2-9.35.17-2.26,1.93-2.85,2.78-4.68.67-1.44.43-3,.43-4.5A25.11,25.11,0,0,1,260,73.2c3.12-9.26,9.55-17.08,9.61-27.24S264.36,25.61,259,17.21c-2.07-3.22-4.15-4.81-8.09-4.64-6,.26-12.13,1.55-18.09,2.32-2.31.3-2.33,4,0,3.66,5.28-.69,10.56-1.4,15.85-2.06,2.63-.33,4.59-.57,6.48,1.59,1.72,2,2.91,4.69,4.17,7C264.52,34.63,268,44.84,264,55.5c-2.83,7.46-7.81,14.14-8.81,22.23-.37,3,.23,5.28-1.61,7.92-.46.66-1.16,1-1.52,1.81-1.69,3.61,1.25,9.89,2.09,13.49l1.77-2.32c-5.34-.36-10.68-.78-16-1.09-3.45-.2-5.81-.05-8.23,2.53-2.13,2.28-3.24,3.76-6.53,3.95a30.17,30.17,0,0,1-5.25-.43c-3.76-.45-7.34-.81-11,.47-2.21.78-1.26,4.32,1,3.53Z"/><path class="cls-2" d="M265.14,30.54c4.75-4.2,9.58-8.31,14.33-12.5,1.77-1.56-.83-4.15-2.59-2.59-4.75,4.2-9.58,8.31-14.33,12.5-1.77,1.56.83,4.15,2.59,2.59Z"/><path class="cls-2" d="M266.93,48.22a32.77,32.77,0,0,1,11.73,19.86c.68,3.88.19,7.83.84,11.69.62,3.67,3.08,5.54,4.35,8.78,1.17,3-.63,5.77.56,8.79,1.57,4,5.63,4.23,4.55,9.63-.6,3-2,5.37-.89,8.48,1,2.66,8,8,4.7,10.94a1.84,1.84,0,0,0,.81,3.06,8.2,8.2,0,0,0,6.73-1.25l-2.76-1.58a29.53,29.53,0,0,1-1.21,9.35,1.85,1.85,0,0,0,1.28,2.25,90.67,90.67,0,0,0,25,1.37c2.33-.2,2.35-3.86,0-3.66a87.09,87.09,0,0,1-24.06-1.24l1.28,2.25a32.37,32.37,0,0,0,1.34-10.33,1.85,1.85,0,0,0-2.76-1.58l-3.91.88.81,3.06c2.07-1.81,2.44-4.33,1.59-6.91-1.55-4.7-6.42-6.34-5.14-12.07.73-3.29,2.18-6,.21-9.18-1-1.61-3.16-2.62-4-4.3-1.05-2.2.47-5.14.34-7.45-.23-4.25-4.55-5.9-5.28-10.06s-.25-8.44-1.07-12.62a35.8,35.8,0,0,0-12.53-20.76c-1.8-1.49-4.41,1.08-2.59,2.59Z"/><path class="cls-2" d="M321.68,145.14c-2.77.82-5.6,1.73-7.34,4.2-1.5,2.13-1,4-1.15,6.34-.13,1.75-1,3.12.46,4.6a3.55,3.55,0,0,0,2,1c.47.11,6.55-.43,5.46,1.47a1.87,1.87,0,0,0,.66,2.51c1.94,1.2,1.4.13,1,1.82-.28,1.33-1,2.13-.58,3.62,1.19,4.54,7.17,3.72,8.68,7.37.89,2.15,4.43,1.21,3.53-1a7.14,7.14,0,0,0-2.88-3.62c-.78-.52-1.85-.7-2.59-1.24-6.89-5-2.5-2.17-1.77-4.67.42-1.44,1.17-2.49.09-3.94-.93-1.25-2.47-.79-3.67-1.53l.66,2.51a4.49,4.49,0,0,0-2.71-6.75c-1.55-.51-4.26.19-4.69-.63A5.77,5.77,0,0,1,317,155l.77-4.08a13,13,0,0,1,4.92-2.25c2.26-.66,1.3-4.2-1-3.53Z"/><path class="cls-2" d="M-27.06,116.43c7.28.75,14.55,1.64,21.84,2.26,4.66.4,9,.13,12.12-3.75,1.4-1.73,2.12-4.09,3.68-5.67s3.81-1.79,5-3.73c2.13-3.54-.74-7.26-3.44-9.49L11.62,100c3.39-2.16,7,3.51,8.93,5.36a12.68,12.68,0,0,0,6,3.53,6.9,6.9,0,0,0,5.59-1.27c1.69-1.26,3.07-3,5.59-2.53,2.19.39,4.37,2.75,5.81,4.33,5.16,5.66,8.66,13.19,11.16,20.36,2.23,6.38,5.24,15.05,3.5,21.83-1.87,7.29-9.82,8.12-14.78,12.28-2.78,2.33-5.33,7.26-3.43,10.87,1.76,3.35,7.49,3.81,10.67,2.68,5.48-1.94,10.1-7.78,14.61-11.29,6.26-4.87,12.87-6.29,20.5-7.76,4.88-.94,13.25-2.48,16.35-7,1.58-2.3,1.1-6.91,1.62-9.63a76.1,76.1,0,0,1,3-11.11c2.55-7.18,6.38-17.18,15.5-17,7.46.18,12.57,5.76,18.31,9.61,4.13,2.77,9,2.89,12.72-.6,4.38-4.1,4.66-9.95,4.46-15.57-.29-8.19,1.72-15.73,3.53-23.66.82-3.56,1.19-8.75,3.33-11.86,4.06-5.9,9.81-.17,12.73,3.75,3.17,4.26,6.65,9.41,12.35,10.22,5.41.77,9.58-2.94,11.45-7.74,2.84-7.3-.66-15.55,2.85-22.55h-4.32c6.08,11.25,21.52,17.21,33.1,10.57,6.39-3.66,7.08-10.43,6.48-17.14a232,232,0,0,0-4.46-28.45,243.25,243.25,0,0,0-7.86-28c-.79-2.28-1.46-4.28-.83-6.66.86-3.25,3.67-4.75,6.71-2.78,4.42,2.86,4.79,7.9,7.22,12.08,6.66,11.49,22.08,8.84,31.61,16,7.85,5.94,7.93,17.86,14.31,25,6.22,6.92,15,2.51,21.11-2.09l-3-.39c4.07,4.6-1.13,13.33-.71,18.91.37,5,3.4,9,6.89,12.37,4.62,4.43,12.48,8.72,13.08,15.8.42,5-3.87,7.86-7.39,10.57l-9,6.93c-3.38,2.6-9.51,5.85-11.08,10.15s2.58,8.2,6.14,9.78c5.83,2.59,12.72.24,18.87,1.4,4.72.89,7.94,2.91,6.69,8-1,4.1-2.52,8.08-5.73,10.94-1.09,1-1,3.31.51,3.93,1.89.8-1.07,5.79-1,7.52a5.84,5.84,0,0,0,2,4.2c3.34,2.88,7.89.17,11.67,1.33l-1.84-2.41a112.49,112.49,0,0,1-2.34,24l2.41-1.84c-5.21-.06-8.93,4.12-9.47,9.15-.69,6.38,4.25,11.15,9.16,14.32,2.9,1.87,6.1,3.28,8.88,5.33,4.33,3.18,5.73,7.31,6,12.48.39,6.57-.34,13.2,3.66,18.88L353,231.5a10.32,10.32,0,0,0-6.93,9.43,16.55,16.55,0,0,0,1,6.8c1,2.73,4.65,6.52,2.74,9.18-1.49,2.08-4.92,3.17-6.73,5.12a27.15,27.15,0,0,0-4.73,7.95c-1.37,3.14-2.6,6.54-5.06,9-3.44,3.49-7.43,1.17-11.16,3.32s-2.23,5.75-.16,8.46c1.48,1.93,6.19,5.83,4.58,8.76-.74,1.36-3.51,1.13-4.38.5-1.08-.78-1.21-1.65-1.67-2.83a49.32,49.32,0,0,0-2.45-5.52c-1.92-3.55-6.28-7.11-10.42-4.35-5,3.32-.36,10,1.08,13.81,6,15.91,4.36,34.47-5,48.73l4.57.6a53.77,53.77,0,0,0-3.71-8.32c-.74-1.19-1.85-2.22-2.48-3.47-1.21-2.42-.83-5.48-.84-8.1,0-8.67.46-17.54-.19-26.18-.48-6.35-3.32-9.75-8.56-12.93a11.62,11.62,0,0,1-3.29-2.31c-1.54-2-.6-4-.57-6.18,0-2.5-.67-4.7-2.8-6.17-.78-.54-2-.68-2.67-1.25-2.24-1.8-1.66-4.11-1.89-6.5a10.91,10.91,0,0,0-3.19-6.45c-2.57-2.85-4.48-4.33-3.87-8.61.32-2.21,1-4.6,0-6.75-2.3-5.13-10.26-3.18-14.46-2.14-5.39,1.33-10.66,4.93-11.7,10.73-.46,2.57.3,4.41.85,6.89.5,2.3.75,4.9-.36,7.06-1.58,3.07-4.22,3.12-7.36,3.58-4.93.73-7.81,4-9.38,8.58-2.23,6.46-2.49,11.87-7.07,17.34a19.47,19.47,0,0,0-4.91,14.84,19.81,19.81,0,0,0,6.62,13.12c2.53,2.14,5.65,3,8.41,4.73,3.51,2.2,5.7,5.77,7.5,9.39,7.57,15.17,14.91,34.12,8.89,51-3.15,8.83-9.29,16.32-15.29,23.36-3.11,3.65-6.24,7.27-9.36,10.9-1.91,2.23-10.23,13.1-10.67,5.25-.3-5.37,1.69-11.27-4.69-13.81-2.23-.89-3.91-.9-5.11-3.29-.52-1-.68-2.31-1.12-3.4a6.92,6.92,0,0,0-4.45-4.44l1.1,4.18c5.61-6.39,11.54-13.34,13-22,.87-5.13,2.37-13.46-4.1-15.43-4.73-1.44-11.74-.22-12.89,5.2-2.17,10.21-7.45,20.41-11.26,30.16l3.08-1.75L144,390.48c-14.15-5.23-28.94-10.25-40.73-20a93.28,93.28,0,0,1-15.06-16.33c-2-2.74-4-5.56-5.87-8.41-1.77-2.65-4.43-5.61-5.58-8.6-1.34-3.49,1.46-4.91,3-7.73a13.8,13.8,0,0,0,1.56-6c.28-6.06-3.14-12.61-.65-18.47.64-1.51,0-4-2.16-3.76-4.14.48-6.86-3.28-6.84-7.18,0-3.14,1.83-6.17,3.5-8.7C79.1,279.37,83.72,273.9,88,268.3c7.1-9.34,15-18.57,16.19-30.7.16-1.66-1.72-2.79-3.16-2.41-7.78,2-12.27-8-15.46-13.38-2.93-4.94-6.48-9.83-11.19-13.22a19,19,0,0,0-14.8-3.34c-5,.77-6.34-2.21-9.09-5.54a20.32,20.32,0,0,0-6.33-5.21c-5.19-2.7-11.15-3.34-16.91-3.65-5.18-.28-11.56-.69-15.18,3.82-2.53,3.15-2.85,7.84.46,10.54,2.63,2.14,6.17,2.16,4.43,6.73s-7.59,2.4-11.09,1.7a2.52,2.52,0,0,0-2.43.64c-3,3.47-2.06,7.34-.28,11.24a161.42,161.42,0,0,0,10.79,19l.39-3c-5.38,5.82-9.87-7.12-12.16-10A15.36,15.36,0,0,0-5,226.08c-3-1-10.31,1.09-11.35-2.22l-1.15,2.82c7.34-3.74,6.38-12.27,3.68-18.72-1-2.48-2.32-5.55-5.24-6.2-3.75-.84-5.61,3.17-7.16,5.76a59.11,59.11,0,0,0-5.44,11.07,33.24,33.24,0,0,0-1.41,6.28c-.52,3.77-.63,4.59-4.55,2.55-2.37-1.24-4.39-2.55-7.1-1.19a8.12,8.12,0,0,0-4.15,7.17c.07,3.3,2.38,5.43,4.11,8,1.23,1.8,3.19,4.57,1.27,6.56-2.28,2.37-6.06.63-7.32-1.7-1.89-3.48-1.57-8.31-1.61-12.12-.05-5.32-.72-11.11.4-16.35s9.31-14.88.4-18.35c-3.65-1.42-8.53-1.09-12.38-1.1a39.52,39.52,0,0,0-14.31,2.31c-7.13,2.76-13.72,8.6-16.65,15.78-1.17,2.86-1.1,4.48.43,7,1.44,2.38,2.36,2.93-.62,5.11-1.71,1.24-3.67,2-5.24,3.49-2,1.87-3.32,4.28-2.63,7.1.34,1.38,2.39,3.16,1.91,4.37s-3.34,1.74-4.53,2.54c-2.86,1.94-3.93,5.34-5,8.45-1.49,4.29-1.54,11.9-4.41,15.17-2.49,2.84-3.86,4.2-3.88,8.28,0,5.58-3.12,15.43-10.29,12.73-1.53-.58-2.85-1.77-4.44-2.35-1.94-.71-4-.92-5.95-1.49-6.06-1.75-7.73-6.25-8.76-12-1-5.34-1.92-11.88,4.37-14.16,3.49-1.26,7.17-1.64,10.09-4.15,8-6.88-2.88-13.65,1.11-21.59,2-3.88,6.34-5.7,8.67-9.3s1.47-7.29.42-11.31c-1.26-4.86-2.3-10.37-.74-15.29s6.7-6.66,9-11.09c1.24-2.41,1-5,3-7.12s5-3.51,7.33-4.86a70.93,70.93,0,0,1,15.7-6.48c8.49-2.39,17.27-4.16,22.66-11.79l-3.42.9c7.37,3.76,15.14,2.67,22.62-.24,5.26-2,14.82-5.19,15.64-11.9.18-1.48-.34-2.37-.63-3.73-.54-2.54-.35-2.35,1-4.18,2-2.76.7-5.58,1.6-8.6,1.65-5.55,7.94-8,6.31-14.56-.77-3.12-5.59-1.8-4.82,1.33.92,3.73-4.57,7.54-5.92,10.88-1,2.53,0,5.94-1.41,8.22-.89,1.49-2.29,1.94-2.65,3.85-.44,2.36,2,4.94,1.17,7.16-1,2.49-6,4.21-8.25,5.24-6.91,3.18-14.91,5.91-22.16,2.21a2.58,2.58,0,0,0-3.42.9c-5.49,7.77-16.92,8.25-25.19,11.25a75.71,75.71,0,0,0-11.37,5.22c-3.39,1.92-7.87,4.21-10,7.65a21.43,21.43,0,0,0-1.7,4.64c-1,2.93-2.79,4.08-4.9,6a17.36,17.36,0,0,0-5.37,9.07,29.23,29.23,0,0,0-.15,10.72c.67,4.57,3.82,10.34.55,14.28-2.19,2.64-5.33,4.28-7.22,7.24a15.64,15.64,0,0,0-2.25,10.48c.6,4.41,5.24,9.38-.39,12.16-3.56,1.76-7.77,1.76-10.93,4.41-5.9,4.92-4.23,14.06-2.63,20.6,2.05,8.39,6.72,11.44,14.7,13.46,6.71,1.7,12.33,8.64,18.09,1.31,2.52-3.21,5-6.95,5.72-11,.34-1.8-.2-3.73.16-5.46.67-3.29,3-3.74,4.55-6.25,2.15-3.51,1.55-8.57,2.73-12.44.67-2.21,1.31-5.33,2.8-7.21s4.19-2,6-3.45a5.33,5.33,0,0,0,2-5.72c-.5-2-2.2-2.84-1.81-4.91.45-2.41,3.49-3.16,5.31-4.42,2.32-1.61,4.75-4.19,4.8-7.21.06-3.77-4.22-4.3-2.49-7.89,4.7-9.77,14.74-14.14,25.13-14.29,2.37,0,5.82-.36,8.08.32s4.52-1.54,3.73,4.41a12.73,12.73,0,0,1-1.54,2.68,25.68,25.68,0,0,0-2.88,11.92c-.21,7.82-1.19,17.61,1.91,25a9.81,9.81,0,0,0,15.79,3.68c2.34-2.1,2.5-5.19,1.66-8.08a15.87,15.87,0,0,0-2.37-4.61c-.52-.75-1.15-1.44-1.68-2.2a11.18,11.18,0,0,1-1.61-2.54L-40,232c1.09.06,2.8,2.3,4.17,2.61a5.72,5.72,0,0,0,4.07-.6c2.9-1.73,3.06-5.36,3.49-8.32a33.24,33.24,0,0,1,3-9.77c.95-2,2.44-5.93,4.13-7.31,1.3-1.06,0-2.32,2-.23.94,1,1.5,3.5,1.85,4.78,1,3.57.82,7.36-2.81,9.21a2.52,2.52,0,0,0-1.15,2.82c2.48,7.92,9.08,3.65,14.84,5.71,6.28,2.25,6.6,9.85,11,13.92,3.72,3.48,9.68,4.07,13.27.19a2.56,2.56,0,0,0,.39-3c-2.44-3.85-4.78-7.75-7-11.74-1.38-2.5-6.7-9.69-4.32-12.43l-2.43.64c4.74.94,10.83,2.78,14.8-1,2.85-2.75,4.12-8.32,2.16-11.89-1.29-2.35-3.72-2.21-5.27-3.9-5.38-5.89,7.89-5.94,10.28-5.83,7.34.35,15.25,1.17,20.23,7.21,3.47,4.2,6,8.05,12,7.41,4-.42,7-1,10.77,1a25.8,25.8,0,0,1,7.71,7c6.38,8.1,11.7,25.11,25.1,21.59l-3.16-2.41c-.79,8.25-5.61,15.05-10.44,21.49-5.44,7.26-11.13,14.35-16.46,21.7-3.52,4.86-6.84,10.87-5,17,1.5,5,5.91,8.92,11.28,8.29l-2.16-3.76c-2.35,5.52-1.15,10.66-.35,16.38.63,4.51.09,7.37-2.78,10.86-1.5,1.83-2.63,3.6-2.42,6,.26,3,2.82,5.9,4.39,8.32,2.17,3.35,4.37,6.68,6.68,9.94A112.67,112.67,0,0,0,96.6,371.19c11.58,10.81,26.19,16.72,40.82,22.15q25.36,9.42,50.74,18.76c1.36.5,2.62-.58,3.08-1.75L198.4,392c1.13-2.91,2.42-5.8,3.41-8.75.93-2.77.83-4.67,4.23-5,6.43-.57,4.27,8.78,3.06,12.66-2,6.43-6.64,11.69-11,16.66a2.54,2.54,0,0,0,1.1,4.18c1.75.61,2.1,4.83,2.91,6.35,1.14,2.14,2.56,2.91,4.65,3.89,2.4,1.13,4.07,1.39,4.51,4.26A17.91,17.91,0,0,1,211,430c-.16,2.41-.09,5.15,1.19,7.31,2.8,4.72,8.18,3.52,11.57.18,5.66-5.56,10.58-12.2,15.72-18.24,9.22-10.83,18-22.55,18.93-37.28.93-15.06-5.38-31.4-12.44-44.47-3.41-6.32-7.59-9.06-13.73-12.36a14.87,14.87,0,0,1-7-17.12c1-3.41,3.66-5.63,5.69-8.41a22.11,22.11,0,0,0,3.29-7c1.74-5.93,1.43-13.44,8.94-14.4,5.58-.71,9.69-3.31,10.86-9.19a20,20,0,0,0-.56-8.41c-1.09-4.77.77-8.23,5.59-10a25.73,25.73,0,0,1,6.12-1.31c1.34-.16,2.31-.5,3.46.4,1.51,1.17.74.69.81,2.39.1,2.58-1,4.85-.13,7.48.73,2.15,2.36,3.71,3.87,5.32s2.81,2.63,3.09,4.9c.18,1.46-.27,3-.08,4.45.35,2.77,1.7,4.07,3.89,5.49,1.92,1.24,3.26,1.48,3.44,4,.12,1.7-.52,3.28-.11,5,1.55,6.69,10.54,6.75,12.22,13.2,1.16,4.44.47,9.71.49,14.27l.07,15.33c0,3.32-.22,6.7,1.52,9.67a78.09,78.09,0,0,1,5.68,10.6,2.54,2.54,0,0,0,4.57.6,58.42,58.42,0,0,0,8.82-37.86,60,60,0,0,0-4.73-18.1c-.16-.37-1-1.65-.94-2,.74-4.76,2.07-.64,2.51-.2,1.4,1.4,1.67,4.2,2.5,6a10.52,10.52,0,0,0,4.3,5c3.81,2.18,8.47,1.37,10.34-2.88,2-4.54-.13-8.85-3.06-12.32-.65-.76-2.8-2.61-2.23-3.32s2.89-.17,3.7-.26a12.25,12.25,0,0,0,7-3.36c4.83-4.47,5.63-11.17,9.36-16.32C348.66,262.46,357,260.58,356,254c-.48-3.19-3.38-5.19-4.4-8.17-1.11-3.22-1.1-8.16,2.68-9.54,1.39-.51,2.5-2.25,1.49-3.67-6-8.5-.17-20.27-6.79-28.8-3.2-4.12-8-6.28-12.31-8.91-2.51-1.52-5.18-3.27-6.79-5.8-2-3.11-1.56-9.2,3.3-9.13a2.53,2.53,0,0,0,2.41-1.84,118.83,118.83,0,0,0,2.52-25.3,2.56,2.56,0,0,0-1.84-2.41A13.46,13.46,0,0,0,331,150c-.51,0-3,.62-3.49.31-1.29-.84-.09-4,.16-5,.74-2.9.13-6.23-2.84-7.49l.51,3.93c4.37-3.91,7.21-10.67,7.72-16.49.56-6.46-5.22-9.74-10.88-10.86-3.56-.7-24.22,1.07-20.82-5.6,1.47-2.89,7.09-5.82,9.59-7.74,3.17-2.44,6.37-4.85,9.52-7.32,4.62-3.62,8.79-8,7.82-14.34-1-6.67-6.35-11.34-11.22-15.45-2.71-2.29-5.64-4.66-7.38-7.81-2.09-3.78-1.22-7.65-.33-11.64,1.19-5.35,2.16-10.3-1.76-14.72a2.5,2.5,0,0,0-3-.39c-3.41,2.58-8.85,6.86-13.32,4.39-3.63-2-5.51-8.75-7.12-12.25-2.88-6.27-5.39-12.48-11.58-16.12-4.91-2.89-10.62-4-16-5.58a30.4,30.4,0,0,1-8-3.32c-3.67-2.39-4.81-5.79-6.41-9.69-2.06-5-6.7-10.32-12.58-10.3-5.37,0-8.07,5.37-8.83,10.08-.53,3.3,1.31,6.44,2.34,9.54q2.23,6.67,4.06,13.47a243.81,243.81,0,0,1,5.62,26.6,130.47,130.47,0,0,1,1.77,15.3c.2,5.95-2.37,10-8.35,11.45-8.74,2.1-18-2.63-22.14-10.35a2.52,2.52,0,0,0-4.32,0c-3,5.9-1.79,11.69-2.13,18-.16,3-.91,7-3.54,8.84-3.95,2.72-7.71-.84-10.18-3.84-3.7-4.5-6.81-10.25-13-11.68-4.66-1.08-8.72,1.55-10.84,5.57-2.92,5.53-3.57,12.62-5,18.65A106.51,106.51,0,0,0,152.92,99c-.45,3.67,0,7.26,0,10.94-.05,4-1.4,11.48-7.19,10.37-3.07-.59-6-4.19-8.52-6-4.7-3.28-10.46-6-16.32-5.64-12.8.67-18,16.21-20.7,26.54a80,80,0,0,0-2,10.22c-.29,2.2-.46,3.26-2.45,4.52a22.76,22.76,0,0,1-6.11,2.45c-6.7,1.87-13.78,2.06-20.14,5.11-5.48,2.62-9.94,7-14.54,10.82-1.76,1.48-6.91,6.65-9.58,4.3-3.46-3.06,4-6.42,5.87-7.33,4.66-2.29,9.65-6,11.44-11.08,2-5.51.62-11.85-.66-17.35A83.65,83.65,0,0,0,53.54,115c-3-5.39-7.14-11.65-13-14.19-2.67-1.15-5.55-1.49-8.16,0-1.07.59-1.81,2-2.81,2.49-2.77,1.33-5.26-1.19-6.9-3-3.49-3.82-8.34-7.91-13.54-4.61-1.25.79-1.8,2.85-.51,3.93a10.25,10.25,0,0,1,2.28,2.3,1.51,1.51,0,0,1-1.53,2.06c-.71.66-1.59,1.08-2.29,1.8-2.25,2.32-2.91,5.85-5.85,7.41-3.61,1.92-9.48.23-13.36-.17l-14.89-1.54c-3.2-.33-3.17,4.67,0,5Z"/><text class="cls-3" transform="translate(131.38 211.42)">MIN<tspan class="cls-4" x="53.46" y="0">D</tspan><tspan class="cls-5" x="72.59" y="0">AN</tspan><tspan class="cls-6" x="113.36" y="0">A</tspan><tspan class="cls-7" x="132.6" y="0">O</tspan></text></g></svg>