<svg xmlns="http://www.w3.org/2000/svg" xmlns:xlink="http://www.w3.org/1999/xlink" viewBox="0 0 128 128"><defs><style>.cls-1{fill:url(#New_Gradient_Swatch_1);}.cls-2{fill:url(#linear-gradient);}.cls-3{fill:gray;}.cls-4{fill:#404040;}.cls-5{fill:url(#linear-gradient-2);}.cls-6{fill:#32558b;stroke:#303030;stroke-miterlimit:10;stroke-width:0.74px;}.cls-7{fill:url(#linear-gradient-3);}.cls-8{fill:url(#linear-gradient-4);}.cls-9{fill:url(#linear-gradient-5);}.cls-10{fill:url(#linear-gradient-6);}.cls-11{fill:url(#linear-gradient-7);}.cls-12{fill:url(#linear-gradient-8);}.cls-13{fill:url(#linear-gradient-9);}</style><radialGradient id="New_Gradient_Swatch_1" cx="64" cy="64" r="61.58" gradientUnits="userSpaceOnUse"><stop offset="0" stop-color="#fbde44"/><stop offset="0.22" stop-color="#fbde44" stop-opacity="0.78"/><stop offset="0.49" stop-color="#fbde44" stop-opacity="0.53"/><stop offset="0.72" stop-color="#fbde44" stop-opacity="0.35"/><stop offset="0.9" stop-color="#fbde44" stop-opacity="0.24"/><stop offset="1" stop-color="#fbde44" stop-opacity="0.2"/></radialGradient><linearGradient id="linear-gradient" x1="50.4" y1="78.87" x2="50.4" y2="24.46" gradientUnits="userSpaceOnUse"><stop offset="0" stop-color="#303030"/><stop offset="0.25" stop-color="#363636"/><stop offset="0.59" stop-color="#484848"/><stop offset="0.99" stop-color="#656565"/><stop offset="1" stop-color="#666"/></linearGradient><linearGradient id="linear-gradient-2" x1="107.85" y1="78.87" x2="107.85" y2="24.46" xlink:href="#linear-gradient"/><linearGradient id="linear-gradient-3" x1="56.76" y1="85.28" x2="56.76" y2="43.97" gradientUnits="userSpaceOnUse"><stop offset="0" stop-color="#021c33"/><stop offset="0.24" stop-color="#122f50"/><stop offset="0.55" stop-color="#234470"/><stop offset="0.82" stop-color="#2e5084"/><stop offset="1" stop-color="#32558b"/></linearGradient><linearGradient id="linear-gradient-4" x1="56.76" y1="80.25" x2="56.76" y2="38.95" xlink:href="#linear-gradient-3"/><linearGradient id="linear-gradient-5" x1="71.91" y1="85.28" x2="71.91" y2="43.97" xlink:href="#linear-gradient-3"/><linearGradient id="linear-gradient-6" x1="71.91" y1="80.25" x2="71.91" y2="38.95" xlink:href="#linear-gradient-3"/><linearGradient id="linear-gradient-7" x1="87.97" y1="85.28" x2="87.97" y2="43.97" xlink:href="#linear-gradient-3"/><linearGradient id="linear-gradient-8" x1="87.97" y1="80.25" x2="87.97" y2="38.95" xlink:href="#linear-gradient-3"/><linearGradient id="linear-gradient-9" x1="63.85" y1="125.58" x2="63.85" y2="73.88" xlink:href="#linear-gradient-3"/></defs><title>Interactive-Underpowered Assets</title><g id="pitch_black" data-name="pitch black"><path class="cls-1" d="M125.58,64A61.59,61.59,0,0,1,3.26,74.26,61.59,61.59,0,1,1,125.58,64Z"/><polygon class="cls-2" points="59.04 78.86 41.75 78.86 47.22 24.46 59.04 24.46 59.04 78.86"/><rect class="cls-3" x="55.72" y="28.58" width="49.87" height="6.21"/><rect class="cls-4" x="55.72" y="33.34" width="49.87" height="45.52"/><polygon class="cls-5" points="116.5 78.86 99.21 78.86 104.68 24.46 116.5 24.46 116.5 78.86"/><rect class="cls-6" x="58.89" y="38.22" width="9.45" height="6.23"/><path class="cls-7" d="M59.95,44A75.81,75.81,0,0,0,45.74,85.28H60.12C61,60.57,67.79,44,67.79,44Z"/><rect class="cls-6" x="74.4" y="38.22" width="9.45" height="6.23"/><rect class="cls-6" x="89.91" y="38.22" width="9.45" height="6.23"/><path class="cls-8" d="M59.95,38.95A75.81,75.81,0,0,0,45.74,80.25H60.12c.91-24.71,7.67-41.31,7.67-41.31Z"/><path class="cls-9" d="M75.1,44A75.81,75.81,0,0,0,60.89,85.28H75.27C76.18,60.57,82.94,44,82.94,44Z"/><path class="cls-10" d="M75.1,38.95A75.81,75.81,0,0,0,60.89,80.25H75.27c.91-24.71,7.67-41.31,7.67-41.31Z"/><path class="cls-11" d="M91.15,44A75.81,75.81,0,0,0,76.94,85.28H91.33C92.23,60.57,99,44,99,44Z"/><path class="cls-12" d="M91.15,38.95A75.81,75.81,0,0,0,76.94,80.25H91.33C92.23,55.54,99,38.95,99,38.95Z"/><path class="cls-13" d="M124.43,75.87A61.6,61.6,0,0,1,3.26,74.26a43.82,43.82,0,0,1,14.61.59C25.25,76.2,32.52,78.48,40,78.56c10.88.11,21.54-4.43,32.36-3.39,7,.66,13.7,3.61,20.65,3a69.74,69.74,0,0,0,8.77-1.74C109.23,74.9,116.84,75,124.43,75.87Z"/></g></svg>