<svg xmlns="http://www.w3.org/2000/svg" xmlns:xlink="http://www.w3.org/1999/xlink" viewBox="0 0 128 128"><defs><style>.cls-1{isolation:isolate;}.cls-2{fill:url(#radial-gradient);}.cls-3{fill:url(#linear-gradient);}.cls-4{fill:gray;}.cls-5,.cls-7{fill:#404040;}.cls-6{fill:url(#linear-gradient-2);}.cls-7{stroke:#303030;stroke-miterlimit:10;stroke-width:0.74px;}.cls-8{fill:url(#linear-gradient-3);}.cls-9{fill:#021c33;opacity:0.5;mix-blend-mode:soft-light;}</style><radialGradient id="radial-gradient" cx="64" cy="64" r="61.59" gradientUnits="userSpaceOnUse"><stop offset="0" stop-color="#a4bdbe" stop-opacity="0.6"/><stop offset="0.07" stop-color="#8aa3a8" stop-opacity="0.63"/><stop offset="0.22" stop-color="#59727e" stop-opacity="0.69"/><stop offset="0.38" stop-color="#334c5d" stop-opacity="0.74"/><stop offset="0.55" stop-color="#173145" stop-opacity="0.77"/><stop offset="0.75" stop-color="#072137" stop-opacity="0.79"/><stop offset="1" stop-color="#021c33" stop-opacity="0.8"/></radialGradient><linearGradient id="linear-gradient" x1="50.4" y1="78.87" x2="50.4" y2="24.46" gradientUnits="userSpaceOnUse"><stop offset="0" stop-color="#303030"/><stop offset="0.25" stop-color="#363636"/><stop offset="0.59" stop-color="#484848"/><stop offset="0.99" stop-color="#656565"/><stop offset="1" stop-color="#666"/></linearGradient><linearGradient id="linear-gradient-2" x1="107.85" y1="78.87" x2="107.85" y2="24.46" xlink:href="#linear-gradient"/><linearGradient id="linear-gradient-3" x1="63.85" y1="125.58" x2="63.85" y2="73.88" gradientUnits="userSpaceOnUse"><stop offset="0" stop-color="#021c33"/><stop offset="0.24" stop-color="#122f50"/><stop offset="0.55" stop-color="#234470"/><stop offset="0.82" stop-color="#2e5084"/><stop offset="1" stop-color="#32558b"/></linearGradient></defs><title>Interactive-Underpowered Assets</title><g class="cls-1"><g id="pitch_black" data-name="pitch black"><circle class="cls-2" cx="64" cy="64" r="61.59"/><polygon class="cls-3" points="59.04 78.86 41.75 78.86 47.22 24.46 59.04 24.46 59.04 78.86"/><rect class="cls-4" x="55.72" y="28.58" width="49.87" height="6.21"/><rect class="cls-5" x="55.72" y="33.34" width="49.87" height="45.52"/><polygon class="cls-6" points="116.5 78.86 99.21 78.86 104.68 24.46 116.5 24.46 116.5 78.86"/><rect class="cls-7" x="58.89" y="38.22" width="9.45" height="6.23"/><rect class="cls-7" x="74.4" y="38.22" width="9.45" height="6.23"/><rect class="cls-7" x="89.91" y="38.22" width="9.45" height="6.23"/><path class="cls-8" d="M124.43,75.87A61.6,61.6,0,0,1,3.26,74.26a43.82,43.82,0,0,1,14.61.59C25.25,76.2,32.52,78.48,40,78.56c10.88.11,21.54-4.43,32.36-3.39,7,.66,13.7,3.61,20.65,3a69.74,69.74,0,0,0,8.77-1.74C109.23,74.9,116.84,75,124.43,75.87Z"/><path class="cls-9" d="M125.58,64a61.48,61.48,0,0,1-2.1,16c-.45,1.68-1,3.34-1.56,5a61.6,61.6,0,0,1-115.85,0C5.48,83.32,5,81.66,4.51,80A61.59,61.59,0,1,1,125.58,64Z"/></g></g></svg>