<svg xmlns="http://www.w3.org/2000/svg" xmlns:xlink="http://www.w3.org/1999/xlink" viewBox="0 0 286 401"><defs><style>.cls-1{opacity:0.6;fill:url(#radial-gradient);}.cls-2{fill:url(#linear-gradient);}.cls-3{fill:url(#linear-gradient-2);}.cls-4{fill:#303030;}.cls-5{fill:none;stroke:#b3b3b3;stroke-miterlimit:10;stroke-width:4px;}.cls-6{fill:#b3b3b3;}</style><radialGradient id="radial-gradient" cx="143.35" cy="38.37" r="42.44" gradientUnits="userSpaceOnUse"><stop offset="0.07" stop-color="#a4bdbe" stop-opacity="0.3"/><stop offset="0.22" stop-color="#b7cac8" stop-opacity="0.36"/><stop offset="0.57" stop-color="#dee4dd" stop-opacity="0.49"/><stop offset="0.84" stop-color="#f6f5ea" stop-opacity="0.57"/><stop offset="1" stop-color="#fffbef" stop-opacity="0.6"/></radialGradient><linearGradient id="linear-gradient" x1="143" y1="384.61" x2="143" y2="104.67" gradientTransform="translate(286 489.28) rotate(-180)" gradientUnits="userSpaceOnUse"><stop offset="0" stop-color="#303030"/><stop offset="0.12" stop-color="#3b3b3b"/><stop offset="0.44" stop-color="#525252"/><stop offset="0.75" stop-color="#616161"/><stop offset="1" stop-color="#666"/></linearGradient><linearGradient id="linear-gradient-2" x1="143" y1="152.48" x2="143" y2="28.16" gradientTransform="matrix(1, 0, 0, 1, 0, 0)" xlink:href="#linear-gradient"/></defs><title>Interactive-Underpowered Assets</title><g id="pitch_black" data-name="pitch black"><ellipse class="cls-1" cx="143.35" cy="38.37" rx="55.84" ry="21.98"/><path class="cls-2" d="M125,104.67h36a15.9,15.9,0,0,1,15.9,15.9v264a0,0,0,0,1,0,0H109.12a0,0,0,0,1,0,0v-264A15.9,15.9,0,0,1,125,104.67Z" transform="translate(286 489.28) rotate(180)"/><path class="cls-3" d="M92.15,28.16h101.7c3.63,0,6.5,4,6.22,8.65l-3.6,60.39a54.5,54.5,0,0,1-4,17.56l-13.87,33.48c-1.08,2.62-3.2,4.25-5.5,4.25H112.87c-2.3,0-4.42-1.63-5.5-4.25L93.5,114.75a54.5,54.5,0,0,1-4-17.56L85.93,36.8C85.65,32.14,88.52,28.16,92.15,28.16Z"/><path class="cls-4" d="M91.19,28.16H194.81c3.7,0,6.62,3.51,6.34,7.63l-.61,17.54H85.46l-.61-17.54C84.57,31.67,87.49,28.16,91.19,28.16Z"/><line class="cls-5" x1="109.12" y1="152.89" x2="176.88" y2="152.89"/><line class="cls-5" x1="109.12" y1="343.23" x2="176.88" y2="343.23"/><rect class="cls-4" x="132.89" y="194.47" width="20.22" height="43.17" rx="8.79" ry="8.79"/><rect class="cls-6" x="134.44" y="216.06" width="17.12" height="19.84" rx="7.17" ry="7.17"/></g></svg>