<svg xmlns="http://www.w3.org/2000/svg" xmlns:xlink="http://www.w3.org/1999/xlink" viewBox="0 0 286 618.4"><defs><style>.cls-1{fill:url(#linear-gradient);}.cls-2{stroke:#fff;stroke-width:3px;opacity:0.3;fill:url(#radial-gradient);}.cls-2,.cls-6{stroke-miterlimit:10;}.cls-3{fill:url(#linear-gradient-2);}.cls-4{fill:url(#linear-gradient-3);}.cls-5{fill:#303030;}.cls-6{fill:none;stroke:#b3b3b3;stroke-width:4px;}.cls-7{fill:#b3b3b3;}</style><linearGradient id="linear-gradient" x1="143.59" y1="244.11" x2="143.59" y2="15.97" gradientTransform="translate(0 -4.89) scale(1 1.07)" gradientUnits="userSpaceOnUse"><stop offset="0" stop-color="#fbde44" stop-opacity="0.5"/><stop offset="1" stop-color="#fbde44" stop-opacity="0"/></linearGradient><radialGradient id="radial-gradient" cx="143.35" cy="255.77" r="42.44" gradientUnits="userSpaceOnUse"><stop offset="0" stop-color="#fbde44"/><stop offset="0.1" stop-color="#fce468" stop-opacity="0.9"/><stop offset="0.28" stop-color="#fdee9e" stop-opacity="0.76"/><stop offset="0.46" stop-color="#fef5c9" stop-opacity="0.65"/><stop offset="0.64" stop-color="#fefbe7" stop-opacity="0.56"/><stop offset="0.82" stop-color="#fffef9" stop-opacity="0.52"/><stop offset="1" stop-color="#fff" stop-opacity="0.5"/></radialGradient><linearGradient id="linear-gradient-2" x1="143" y1="602.01" x2="143" y2="322.07" gradientTransform="translate(286 924.08) rotate(-180)" gradientUnits="userSpaceOnUse"><stop offset="0" stop-color="#303030"/><stop offset="0.12" stop-color="#3b3b3b"/><stop offset="0.44" stop-color="#525252"/><stop offset="0.75" stop-color="#616161"/><stop offset="1" stop-color="#666"/></linearGradient><linearGradient id="linear-gradient-3" x1="143" y1="369.88" x2="143" y2="245.56" gradientTransform="matrix(1, 0, 0, 1, 0, 0)" xlink:href="#linear-gradient-2"/></defs><title>Interactive-Underpowered Assets</title><g id="pitch_black" data-name="pitch black"><polyline class="cls-1" points="91.19 255.77 14.09 12.16 273.09 12.16 194.81 255.77 91.19 255.77"/><ellipse class="cls-2" cx="143.35" cy="255.77" rx="55.84" ry="21.98"/><path class="cls-3" d="M125,322.07h36a15.9,15.9,0,0,1,15.9,15.9V602a0,0,0,0,1,0,0H109.12a0,0,0,0,1,0,0V338A15.9,15.9,0,0,1,125,322.07Z" transform="translate(286 924.08) rotate(180)"/><path class="cls-4" d="M92.15,245.56h101.7c3.63,0,6.5,4,6.22,8.65l-3.6,60.39a54.5,54.5,0,0,1-4,17.56l-13.87,33.48c-1.08,2.62-3.2,4.25-5.5,4.25H112.87c-2.3,0-4.42-1.63-5.5-4.25L93.5,332.15a54.5,54.5,0,0,1-4-17.56l-3.6-60.39C85.65,249.54,88.52,245.56,92.15,245.56Z"/><path class="cls-5" d="M91.19,245.56H194.81c3.7,0,6.62,3.51,6.34,7.63l-.61,17.54H85.46l-.61-17.54C84.57,249.07,87.49,245.56,91.19,245.56Z"/><line class="cls-6" x1="109.12" y1="370.29" x2="176.88" y2="370.29"/><line class="cls-6" x1="109.12" y1="560.63" x2="176.88" y2="560.63"/><rect class="cls-5" x="132.89" y="411.87" width="20.22" height="43.17" rx="8.79" ry="8.79"/><rect class="cls-7" x="134.44" y="413.62" width="17.12" height="19.84" rx="7.17" ry="7.17"/></g></svg>